<svg xmlns="http://www.w3.org/2000/svg" xmlns:xlink="http://www.w3.org/1999/xlink" viewBox="0 0 468.15 511.09"><defs><style>.cls-1{fill:#ffbda1;}.cls-2,.cls-70,.cls-71,.cls-72,.cls-73,.cls-74,.cls-75{opacity:0.25;}.cls-2{fill:url(#linear-gradient);}.cls-3{fill:url(#linear-gradient-2);}.cls-4{fill:url(#linear-gradient-3);}.cls-5{fill:url(#linear-gradient-4);}.cls-6{fill:url(#linear-gradient-5);}.cls-7{fill:url(#linear-gradient-6);}.cls-8{fill:url(#linear-gradient-7);}.cls-9{fill:#d8761d;}.cls-10{fill:#e56e3e;opacity:0.29;}.cls-11{fill:url(#linear-gradient-8);}.cls-12,.cls-13{fill:#964b0c;}.cls-13{opacity:0.35;}.cls-14{fill:url(#linear-gradient-9);}.cls-15{fill:#d6991e;}.cls-16,.cls-28,.cls-29,.cls-87{fill:#fff;}.cls-16{opacity:0.22;}.cls-125,.cls-17{fill:#062230;}.cls-17{opacity:0.13;}.cls-18,.cls-90{fill:#021116;}.cls-19{fill:url(#linear-gradient-10);}.cls-20{fill:url(#linear-gradient-11);}.cls-21{fill:url(#linear-gradient-12);}.cls-22{fill:url(#linear-gradient-13);}.cls-23{fill:url(#linear-gradient-14);}.cls-24{fill:url(#linear-gradient-15);}.cls-25{fill:url(#linear-gradient-16);}.cls-26{fill:url(#linear-gradient-17);}.cls-27{fill:url(#linear-gradient-18);}.cls-28{opacity:0.18;}.cls-130,.cls-131,.cls-146,.cls-30,.cls-31{opacity:0.53;}.cls-30{fill:url(#linear-gradient-19);}.cls-31{fill:url(#linear-gradient-20);}.cls-32{fill:url(#linear-gradient-21);}.cls-33{fill:#ffdfc4;}.cls-34{fill:url(#linear-gradient-22);}.cls-35{fill:#d0d0dd;}.cls-36{fill:url(#linear-gradient-23);}.cls-37{fill:#332e55;}.cls-38{fill:#ffc1a0;}.cls-39{fill:#211e40;}.cls-40{fill:#ff7292;}.cls-41{fill:url(#linear-gradient-24);}.cls-42{fill:#c7dddb;}.cls-43{fill:url(#linear-gradient-25);}.cls-44{fill:url(#linear-gradient-26);}.cls-45{fill:url(#linear-gradient-27);}.cls-46{fill:#010f14;}.cls-47{fill:url(#linear-gradient-28);}.cls-48{fill:url(#linear-gradient-29);}.cls-49{fill:url(#linear-gradient-30);}.cls-50{fill:url(#linear-gradient-31);}.cls-51{fill:#00de91;}.cls-52{fill:#242143;}.cls-53{fill:#36355e;}.cls-54{fill:#ffda00;}.cls-111,.cls-55{opacity:0.3;}.cls-55{fill:url(#linear-gradient-32);}.cls-56{fill:url(#linear-gradient-33);}.cls-57{fill:url(#linear-gradient-34);}.cls-58{fill:url(#linear-gradient-35);}.cls-59{fill:url(#linear-gradient-36);}.cls-60{fill:url(#linear-gradient-37);}.cls-61{opacity:0.61;fill:url(#linear-gradient-38);}.cls-62{fill:url(#linear-gradient-39);}.cls-63{fill:url(#linear-gradient-40);}.cls-64{fill:url(#linear-gradient-41);}.cls-65{fill:url(#linear-gradient-42);}.cls-66{fill:url(#linear-gradient-43);}.cls-67{fill:url(#linear-gradient-44);}.cls-68{fill:url(#linear-gradient-45);}.cls-69{opacity:0.5;}.cls-70{fill:url(#linear-gradient-46);}.cls-71{fill:url(#linear-gradient-47);}.cls-72{fill:url(#linear-gradient-48);}.cls-73{fill:url(#linear-gradient-49);}.cls-74{fill:url(#linear-gradient-50);}.cls-75{fill:url(#linear-gradient-51);}.cls-76{fill:url(#linear-gradient-52);}.cls-77{fill:url(#linear-gradient-53);}.cls-78{clip-path:url(#clip-path);}.cls-79{fill:#ffce00;}.cls-80{fill:#072042;}.cls-81{fill:url(#linear-gradient-54);}.cls-82{fill:url(#linear-gradient-55);}.cls-83{opacity:0.1;}.cls-84,.cls-85,.cls-86{fill:none;stroke:#fff;stroke-linecap:square;stroke-miterlimit:10;stroke-width:0.25px;}.cls-85{stroke-dasharray:0.98 0.98;}.cls-86{stroke-dasharray:0.87 0.87;}.cls-87{opacity:0.08;}.cls-88{opacity:0.38;}.cls-89{fill:url(#linear-gradient-56);}.cls-90,.cls-91{opacity:0.58;}.cls-92{fill:url(#linear-gradient-57);}.cls-93{fill:url(#linear-gradient-58);}.cls-94{fill:#eadade;}.cls-95{fill:#002856;}.cls-96{fill:url(#linear-gradient-59);}.cls-97{fill:url(#linear-gradient-60);}.cls-98{fill:url(#linear-gradient-61);}.cls-99{fill:#ff7a58;}.cls-100{fill:#424242;}.cls-101{fill:#616161;}.cls-102{fill:url(#linear-gradient-62);}.cls-103{fill:url(#linear-gradient-63);}.cls-104{fill:#ffcfd3;}.cls-105{fill:url(#linear-gradient-64);}.cls-106{fill:url(#linear-gradient-65);}.cls-107{fill:url(#linear-gradient-66);}.cls-108{fill:#bc5e92;}.cls-109{fill:url(#linear-gradient-67);}.cls-110{fill:url(#linear-gradient-68);}.cls-111{fill:url(#linear-gradient-69);}.cls-112{fill:url(#linear-gradient-70);}.cls-113{fill:url(#linear-gradient-71);}.cls-114{fill:url(#linear-gradient-72);}.cls-115{fill:url(#linear-gradient-73);}.cls-116{fill:url(#linear-gradient-74);}.cls-117{fill:url(#linear-gradient-75);}.cls-118{fill:url(#linear-gradient-76);}.cls-119{fill:url(#linear-gradient-77);}.cls-120,.cls-122{opacity:0.49;}.cls-121,.cls-122{fill:#031c26;}.cls-121{opacity:0.56;}.cls-123{fill:#f5d09f;}.cls-124{fill:url(#linear-gradient-78);}.cls-126{fill:url(#linear-gradient-79);}.cls-127{fill:url(#linear-gradient-80);}.cls-128{fill:#43636b;}.cls-129{fill:url(#linear-gradient-81);}.cls-130{fill:url(#linear-gradient-82);}.cls-131{fill:url(#linear-gradient-83);}.cls-132{fill:url(#linear-gradient-84);}.cls-133{fill:#fce4c8;}.cls-134{fill:url(#linear-gradient-85);}.cls-135{fill:url(#linear-gradient-86);}.cls-136{fill:url(#linear-gradient-87);}.cls-137{fill:url(#linear-gradient-88);}.cls-138{fill:url(#linear-gradient-89);}.cls-139{fill:url(#linear-gradient-90);}.cls-140{fill:#262626;}.cls-141{fill:#ffdfbd;}.cls-142,.cls-146{fill:#d29b6e;}.cls-143{fill:#e6af78;opacity:0.46;}.cls-144{fill:url(#linear-gradient-91);}.cls-145{fill:url(#linear-gradient-92);}.cls-147{fill:#fff9e7;}.cls-148{fill:#232a43;}.cls-149{fill:url(#linear-gradient-93);}.cls-150{fill:#00295c;}.cls-151{fill:#003480;}.cls-152{fill:url(#linear-gradient-94);}.cls-153{fill:#f2b064;}</style><linearGradient id="linear-gradient" x1="230.96" y1="61.33" x2="230.96" y2="221.33" gradientUnits="userSpaceOnUse"><stop offset="0" stop-color="#fff" stop-opacity="0"/><stop offset="1" stop-color="#fff"/></linearGradient><linearGradient id="linear-gradient-2" x1="231.16" y1="221.16" x2="231.16" y2="376.27" gradientUnits="userSpaceOnUse"><stop offset="0" stop-color="#f6b100"/><stop offset="0.14" stop-color="#daa106" stop-opacity="0.88"/><stop offset="0.45" stop-color="#917716" stop-opacity="0.58"/><stop offset="0.9" stop-color="#1f362f" stop-opacity="0.11"/><stop offset="1" stop-color="#052735" stop-opacity="0"/></linearGradient><linearGradient id="linear-gradient-3" x1="231.16" y1="132.34" x2="231.16" y2="203.34" gradientUnits="userSpaceOnUse"><stop offset="0" stop-color="#f65520"/><stop offset="1" stop-color="#ffff20"/></linearGradient><linearGradient id="linear-gradient-4" x1="268.16" y1="163.6" x2="268.16" y2="324.13" gradientUnits="userSpaceOnUse"><stop offset="0" stop-color="#f6b100"/><stop offset="1" stop-color="#052735" stop-opacity="0"/></linearGradient><linearGradient id="linear-gradient-5" x1="231.16" y1="157.15" x2="231.16" y2="105.33" gradientUnits="userSpaceOnUse"><stop offset="0" stop-color="#ffff20"/><stop offset="1" stop-color="#f64e20"/></linearGradient><linearGradient id="linear-gradient-6" x1="231.16" y1="128.92" x2="231.16" y2="173.63" gradientUnits="userSpaceOnUse"><stop offset="0" stop-color="#f64e20"/><stop offset="1" stop-color="#ff0"/></linearGradient><linearGradient id="linear-gradient-7" x1="-363.33" y1="91.46" x2="-363.33" y2="127.31" gradientTransform="translate(551.54)" gradientUnits="userSpaceOnUse"><stop offset="0" stop-color="#fcec2f"/><stop offset="1" stop-color="#ff9627"/></linearGradient><linearGradient id="linear-gradient-8" x1="-368.41" y1="86.55" x2="-357.71" y2="125.66" gradientTransform="translate(551.54)" gradientUnits="userSpaceOnUse"><stop offset="0" stop-color="#ffff72"/><stop offset="1" stop-color="#ff4f00"/></linearGradient><linearGradient id="linear-gradient-9" x1="-343.3" y1="100.13" x2="-332.6" y2="139.24" gradientTransform="translate(625.21)" xlink:href="#linear-gradient-7"/><linearGradient id="linear-gradient-10" x1="252.78" y1="119.17" x2="253.22" y2="119.17" gradientUnits="userSpaceOnUse"><stop offset="0" stop-color="#f2bd04"/><stop offset="1" stop-color="#fff"/></linearGradient><linearGradient id="linear-gradient-11" x1="252.78" y1="114.71" x2="253.22" y2="114.71" xlink:href="#linear-gradient-10"/><linearGradient id="linear-gradient-12" x1="253.22" y1="121.07" x2="256.57" y2="121.07" xlink:href="#linear-gradient-10"/><linearGradient id="linear-gradient-13" x1="253.51" y1="112.79" x2="255.54" y2="112.79" xlink:href="#linear-gradient-10"/><linearGradient id="linear-gradient-14" x1="255.55" y1="111.64" x2="256.57" y2="111.64" xlink:href="#linear-gradient-10"/><linearGradient id="linear-gradient-15" x1="260.01" y1="121.07" x2="263.37" y2="121.07" xlink:href="#linear-gradient-10"/><linearGradient id="linear-gradient-16" x1="263.37" y1="119.17" x2="263.81" y2="119.17" xlink:href="#linear-gradient-10"/><linearGradient id="linear-gradient-17" x1="260.17" y1="113.19" x2="265.21" y2="113.19" gradientUnits="userSpaceOnUse"><stop offset="0" stop-color="#fff"/><stop offset="1" stop-color="#f2ff04"/></linearGradient><linearGradient id="linear-gradient-18" x1="252.52" y1="116.94" x2="264.07" y2="116.94" gradientUnits="userSpaceOnUse"><stop offset="0" stop-color="#f64e20"/><stop offset="1" stop-color="#ffff20"/></linearGradient><linearGradient id="linear-gradient-19" x1="274.91" y1="132.79" x2="274.91" y2="129.12" gradientUnits="userSpaceOnUse"><stop offset="0" stop-color="#fff"/><stop offset="1" stop-color="#f2ff04" stop-opacity="0"/></linearGradient><linearGradient id="linear-gradient-20" x1="274.91" y1="129.69" x2="274.91" y2="126.46" xlink:href="#linear-gradient-19"/><linearGradient id="linear-gradient-21" x1="274.9" y1="126.6" x2="274.9" y2="122.41" xlink:href="#linear-gradient-17"/><linearGradient id="linear-gradient-22" x1="210.63" y1="114.58" x2="219.86" y2="114.58" gradientUnits="userSpaceOnUse"><stop offset="0" stop-color="#008fd3"/><stop offset="1" stop-color="#65ffff"/></linearGradient><linearGradient id="linear-gradient-23" x1="218.11" y1="116.08" x2="210.91" y2="133.13" gradientUnits="userSpaceOnUse"><stop offset="0" stop-color="#ff7e37"/><stop offset="1" stop-color="#6f3ac7"/></linearGradient><linearGradient id="linear-gradient-24" x1="229.13" y1="126.52" x2="243.9" y2="126.52" gradientUnits="userSpaceOnUse"><stop offset="0" stop-color="#00b3aa"/><stop offset="1" stop-color="#fff"/></linearGradient><linearGradient id="linear-gradient-25" x1="230.65" y1="115.53" x2="238.16" y2="115.53" xlink:href="#linear-gradient-10"/><linearGradient id="linear-gradient-26" x1="230.74" y1="134.61" x2="239.01" y2="122.84" gradientUnits="userSpaceOnUse"><stop offset="0" stop-color="#fff"/><stop offset="1" stop-color="#00b3aa"/></linearGradient><linearGradient id="linear-gradient-27" x1="240.07" y1="120.85" x2="237.35" y2="109.71" xlink:href="#linear-gradient-10"/><linearGradient id="linear-gradient-28" x1="238.72" y1="115.64" x2="245.1" y2="115.64" xlink:href="#linear-gradient-10"/><linearGradient id="linear-gradient-29" x1="206.86" y1="123.69" x2="223.45" y2="137.58" gradientUnits="userSpaceOnUse"><stop offset="0" stop-color="#6f3ac7"/><stop offset="1" stop-color="#ff7e37"/></linearGradient><linearGradient id="linear-gradient-30" x1="209.23" y1="126.33" x2="209.23" y2="107.87" xlink:href="#linear-gradient-22"/><linearGradient id="linear-gradient-31" x1="205.8" y1="114.41" x2="214.61" y2="114.41" xlink:href="#linear-gradient-22"/><linearGradient id="linear-gradient-32" x1="362.65" y1="137.75" x2="362.65" y2="292.53" xlink:href="#linear-gradient"/><linearGradient id="linear-gradient-33" x1="362.85" y1="270.22" x2="362.85" y2="387.06" xlink:href="#linear-gradient-2"/><linearGradient id="linear-gradient-34" x1="362.85" y1="270.43" x2="362.85" y2="201.33" gradientUnits="userSpaceOnUse"><stop offset="0" stop-color="#ffff20"/><stop offset="1" stop-color="#f65520"/></linearGradient><linearGradient id="linear-gradient-35" x1="399.85" y1="232.13" x2="399.85" y2="345.51" xlink:href="#linear-gradient-4"/><linearGradient id="linear-gradient-36" x1="362.85" y1="155.03" x2="362.85" y2="233.54" xlink:href="#linear-gradient-18"/><linearGradient id="linear-gradient-37" x1="362.85" y1="193.64" x2="362.85" y2="238.34" xlink:href="#linear-gradient-18"/><linearGradient id="linear-gradient-38" x1="233.43" y1="216.88" x2="233.43" y2="360.93" xlink:href="#linear-gradient"/><linearGradient id="linear-gradient-39" x1="233.63" y1="348.65" x2="233.63" y2="465.49" xlink:href="#linear-gradient-2"/><linearGradient id="linear-gradient-40" x1="181.82" y1="259.12" x2="267.34" y2="344.63" xlink:href="#linear-gradient-3"/><linearGradient id="linear-gradient-41" x1="270.63" y1="310.56" x2="270.63" y2="423.94" xlink:href="#linear-gradient-4"/><linearGradient id="linear-gradient-42" x1="161.81" y1="279.96" x2="306.55" y2="279.96" xlink:href="#linear-gradient-5"/><linearGradient id="linear-gradient-43" x1="233.63" y1="262.07" x2="233.63" y2="306.77" xlink:href="#linear-gradient-18"/><linearGradient id="linear-gradient-44" x1="-223.68" y1="159.08" x2="-223.68" y2="194.93" xlink:href="#linear-gradient-7"/><linearGradient id="linear-gradient-45" x1="-228.76" y1="154.17" x2="-218.07" y2="193.28" xlink:href="#linear-gradient-8"/><linearGradient id="linear-gradient-46" x1="394.14" y1="384.47" x2="394.14" y2="501.31" gradientUnits="userSpaceOnUse"><stop offset="0" stop-color="#fff"/><stop offset="1" stop-color="#fff" stop-opacity="0"/></linearGradient><linearGradient id="linear-gradient-47" x1="394.14" y1="384.68" x2="394.14" y2="315.58" xlink:href="#linear-gradient"/><linearGradient id="linear-gradient-48" x1="431.15" y1="346.38" x2="431.15" y2="459.76" xlink:href="#linear-gradient-46"/><linearGradient id="linear-gradient-49" x1="66.04" y1="393.06" x2="66.04" y2="509.9" gradientTransform="matrix(-1, 0, 0, 1, 140.05, 0)" xlink:href="#linear-gradient-46"/><linearGradient id="linear-gradient-50" x1="66.04" y1="393.27" x2="66.04" y2="324.18" gradientTransform="matrix(-1, 0, 0, 1, 140.05, 0)" xlink:href="#linear-gradient"/><linearGradient id="linear-gradient-51" x1="103.05" y1="354.97" x2="103.05" y2="468.35" gradientTransform="matrix(-1, 0, 0, 1, 140.05, 0)" xlink:href="#linear-gradient-46"/><linearGradient id="linear-gradient-52" x1="192.51" y1="278.79" x2="192.51" y2="255.09" gradientUnits="userSpaceOnUse"><stop offset="0" stop-color="#008fd3"/><stop offset="0.5" stop-color="#00c8ff"/><stop offset="1" stop-color="#008fd3"/></linearGradient><linearGradient id="linear-gradient-53" x1="190.44" y1="251.9" x2="198.84" y2="251.9" gradientUnits="userSpaceOnUse"><stop offset="0" stop-color="#a9ff15"/><stop offset="1" stop-color="#0094ff"/></linearGradient><clipPath id="clip-path"><circle class="cls-1" cx="195.6" cy="244.27" r="1.82" transform="translate(-95.85 130.31) rotate(-29.96)"/></clipPath><linearGradient id="linear-gradient-54" x1="191.61" y1="252.63" x2="199.61" y2="249.3" xlink:href="#linear-gradient-53"/><linearGradient id="linear-gradient-55" x1="328.95" y1="159.61" x2="357.25" y2="159.61" xlink:href="#linear-gradient-5"/><linearGradient id="linear-gradient-56" x1="352.36" y1="159.82" x2="371.9" y2="172.67" gradientTransform="translate(766.92 112.35) rotate(147.11)" xlink:href="#linear-gradient-5"/><linearGradient id="linear-gradient-57" x1="356.87" y1="175.85" x2="358.59" y2="175.85" gradientUnits="userSpaceOnUse"><stop offset="0" stop-color="#fddedc"/><stop offset="1" stop-color="#fdbcb8"/></linearGradient><linearGradient id="linear-gradient-58" x1="355" y1="167.09" x2="342.73" y2="178.96" gradientUnits="userSpaceOnUse"><stop offset="0" stop-color="#f2bd04"/><stop offset="1" stop-color="#ffffbe"/></linearGradient><linearGradient id="linear-gradient-59" x1="354.47" y1="175.21" x2="356.54" y2="203.49" xlink:href="#linear-gradient-23"/><linearGradient id="linear-gradient-60" x1="356.34" y1="178.44" x2="362.22" y2="152" gradientUnits="userSpaceOnUse"><stop offset="0" stop-color="#f2d604"/><stop offset="1" stop-color="#ffffbe"/></linearGradient><linearGradient id="linear-gradient-61" x1="368.87" y1="182.39" x2="359.32" y2="166.03" gradientUnits="userSpaceOnUse"><stop offset="0" stop-color="#ffffbe"/><stop offset="1" stop-color="#f2bd04"/></linearGradient><linearGradient id="linear-gradient-62" x1="-215.54" y1="162.93" x2="-200.84" y2="216.68" gradientTransform="translate(625.21)" xlink:href="#linear-gradient-7"/><linearGradient id="linear-gradient-63" x1="389.84" y1="179.59" x2="389.84" y2="152.6" gradientUnits="userSpaceOnUse"><stop offset="0" stop-color="#ff46ff"/><stop offset="1" stop-color="#f2d9c7"/></linearGradient><linearGradient id="linear-gradient-64" x1="389.53" y1="175.88" x2="389.53" y2="198.5" gradientUnits="userSpaceOnUse"><stop offset="0" stop-color="#05ffff"/><stop offset="1" stop-color="#00a"/></linearGradient><linearGradient id="linear-gradient-65" x1="373.38" y1="120.64" x2="407.05" y2="154.3" gradientTransform="translate(778.51 273.02) rotate(-180)" xlink:href="#linear-gradient-5"/><linearGradient id="linear-gradient-66" x1="262.41" y1="259.61" x2="271.21" y2="259.61" gradientUnits="userSpaceOnUse"><stop offset="0" stop-color="#00c491"/><stop offset="1" stop-color="#39566b"/></linearGradient><linearGradient id="linear-gradient-67" x1="216.86" y1="276.29" x2="231.03" y2="262.13" gradientUnits="userSpaceOnUse"><stop offset="0" stop-color="#002bff"/><stop offset="1" stop-color="#ffb0cf"/></linearGradient><linearGradient id="linear-gradient-68" x1="226.59" y1="254.93" x2="240.48" y2="254.93" gradientUnits="userSpaceOnUse"><stop offset="0" stop-color="#0094ff"/><stop offset="1" stop-color="#a9ff15"/></linearGradient><linearGradient id="linear-gradient-69" x1="91.65" y1="145.92" x2="91.65" y2="300.7" xlink:href="#linear-gradient"/><linearGradient id="linear-gradient-70" x1="91.85" y1="278.4" x2="91.85" y2="395.23" xlink:href="#linear-gradient-2"/><linearGradient id="linear-gradient-71" x1="123.54" y1="203.55" x2="61.12" y2="276.64" xlink:href="#linear-gradient-3"/><linearGradient id="linear-gradient-72" x1="128.85" y1="240.3" x2="128.85" y2="353.68" xlink:href="#linear-gradient-4"/><linearGradient id="linear-gradient-73" x1="20.03" y1="209.71" x2="164.77" y2="209.71" xlink:href="#linear-gradient-18"/><linearGradient id="linear-gradient-74" x1="91.85" y1="191.81" x2="91.85" y2="236.52" xlink:href="#linear-gradient-18"/><linearGradient id="linear-gradient-75" x1="-197.54" y1="167.92" x2="-197.54" y2="203.76" gradientTransform="matrix(-1, 0, 0, 1, -61.43, 0)" xlink:href="#linear-gradient-7"/><linearGradient id="linear-gradient-76" x1="-202.62" y1="163.01" x2="-191.92" y2="202.11" gradientTransform="matrix(-1, 0, 0, 1, -61.43, 0)" xlink:href="#linear-gradient-8"/><linearGradient id="linear-gradient-77" x1="91.4" y1="164.36" x2="91.4" y2="173.45" xlink:href="#linear-gradient-5"/><linearGradient id="linear-gradient-78" x1="59.28" y1="183.81" x2="71.86" y2="183.81" xlink:href="#linear-gradient-68"/><linearGradient id="linear-gradient-79" x1="58.48" y1="213.26" x2="59.81" y2="198.26" gradientUnits="userSpaceOnUse"><stop offset="0" stop-color="#ff46ff"/><stop offset="1" stop-color="#f2ffc7"/></linearGradient><linearGradient id="linear-gradient-80" x1="52.61" y1="198.9" x2="64.94" y2="185.17" xlink:href="#linear-gradient-68"/><linearGradient id="linear-gradient-81" x1="56.07" y1="179.27" x2="62.73" y2="193.14" xlink:href="#linear-gradient-53"/><linearGradient id="linear-gradient-82" x1="94.49" y1="229.83" x2="94.49" y2="223.32" xlink:href="#linear-gradient-19"/><linearGradient id="linear-gradient-83" x1="94.49" y1="224.32" x2="94.49" y2="218.58" xlink:href="#linear-gradient-19"/><linearGradient id="linear-gradient-84" x1="94.48" y1="218.83" x2="94.48" y2="211.4" xlink:href="#linear-gradient-17"/><linearGradient id="linear-gradient-85" x1="114.69" y1="195.58" x2="119.63" y2="188.63" gradientUnits="userSpaceOnUse"><stop offset="0" stop-color="#008fd3"/><stop offset="1" stop-color="#00c8ff"/></linearGradient><linearGradient id="linear-gradient-86" x1="122.34" y1="202.68" x2="122.34" y2="182.48" xlink:href="#linear-gradient-52"/><linearGradient id="linear-gradient-87" x1="110.74" y1="194.59" x2="124.19" y2="185.99" gradientUnits="userSpaceOnUse"><stop offset="0" stop-color="#00c8ff"/><stop offset="1" stop-color="#008fd3"/></linearGradient><linearGradient id="linear-gradient-88" x1="54.21" y1="168.12" x2="59.99" y2="168.12" gradientUnits="userSpaceOnUse"><stop offset="0" stop-color="#0fa"/><stop offset="1" stop-color="#fff"/></linearGradient><linearGradient id="linear-gradient-89" x1="56.36" y1="163.49" x2="56.54" y2="165.71" gradientUnits="userSpaceOnUse"><stop offset="0"/><stop offset="1" stop-color="#a4ffff" stop-opacity="0"/></linearGradient><linearGradient id="linear-gradient-90" x1="57.99" y1="179.21" x2="57.99" y2="152.18" xlink:href="#linear-gradient-88"/><linearGradient id="linear-gradient-91" x1="61.47" y1="162.82" x2="61.47" y2="160.68" xlink:href="#linear-gradient-68"/><linearGradient id="linear-gradient-92" x1="54.67" y1="161.98" x2="54.67" y2="160.18" gradientUnits="userSpaceOnUse"><stop offset="0" stop-color="#008fd3"/><stop offset="1" stop-color="aqua"/></linearGradient><linearGradient id="linear-gradient-93" x1="58.07" y1="162.33" x2="58.07" y2="160.13" gradientUnits="userSpaceOnUse"><stop offset="0" stop-color="#ff6e27"/><stop offset="1" stop-color="#fcff2f"/></linearGradient><linearGradient id="linear-gradient-94" x1="288.97" y1="249.68" x2="288.97" y2="261.76" xlink:href="#linear-gradient-23"/></defs><title>banner_bg</title><g id="Layer_2" data-name="Layer 2"><g id="Layer_2-2" data-name="Layer 2"><polyline class="cls-2" points="304.97 129.57 304.97 0 156.95 0 156.95 129.57"/><polygon class="cls-3" points="305.16 164.1 305.16 377.85 157.15 377.85 157.15 164.1 231.16 142.87 296.36 162.03 305.16 164.1"/><polygon class="cls-4" points="231.16 195.22 157.15 164.11 231.16 142.87 305.17 164.11 231.16 195.22"/><polygon class="cls-5" points="305.16 164.1 305.16 337 231.16 337 231.16 195.22 305.16 164.1"/><polygon class="cls-6" points="231.16 160.25 157.15 129.14 231.16 106.05 305.17 129.14 231.16 160.25"/><polygon class="cls-7" points="231.16 164.17 157.15 133.06 157.15 129.14 231.16 160.25 305.17 129.14 305.17 133.06 231.16 164.17"/><path class="cls-8" d="M184.14,115.48h0a2.15,2.15,0,0,0,.35-2.56h0a.67.67,0,0,1-.06-.11h0a4.28,4.28,0,0,1-.46-1.92,4.22,4.22,0,0,1,1.24-3,2.35,2.35,0,0,0,.17-2.17h0a3,3,0,1,1,5.66,0h0a2.38,2.38,0,0,0,.17,2.17,4.22,4.22,0,0,1,1.24,3,4.15,4.15,0,0,1-.46,1.92h0l0,0s0,.09-.07.14a2.15,2.15,0,0,0,.28,2.4l.08.09a0,0,0,0,0,0,0h0a5.22,5.22,0,1,1-8.14,0Z"/><path class="cls-9" d="M186.68,118.3l1.28,1.27v-4.45l-1.58-1.55a.21.21,0,1,1,.3-.3l1.28,1.27V108.4a.21.21,0,1,1,.41,0v3.7l1.24-1.24a.21.21,0,0,1,.3.3l-1.54,1.52v4.47l1.37-1.39a.22.22,0,0,1,.3,0,.21.21,0,0,1,0,.29l-1.67,1.69v11.85a.21.21,0,1,1-.41,0v-9.44l-1.58-1.55a.21.21,0,1,1,.3-.3Z"/><path class="cls-10" d="M193.85,129.87h-8.43a.07.07,0,0,1-.07-.07.08.08,0,0,1,.07-.08h8.43a.08.08,0,0,1,.07.08A.07.07,0,0,1,193.85,129.87Z"/><path class="cls-11" d="M190.16,120.51h0a1.23,1.23,0,0,0,.2-1.47h0l0-.06h0a2.37,2.37,0,0,1-.26-1.09,2.43,2.43,0,0,1,.71-1.72,1.37,1.37,0,0,0,.1-1.24h0a1.56,1.56,0,0,1-.1-.57,1.72,1.72,0,1,1,3.43,0,1.8,1.8,0,0,1-.1.57h0a1.33,1.33,0,0,0,.1,1.24,2.43,2.43,0,0,1,.71,1.72,2.5,2.5,0,0,1-.26,1.09h0s0,.05,0,.08a1.22,1.22,0,0,0,.16,1.37l0,.06h0a3,3,0,1,1-4.66,0Z"/><path class="cls-12" d="M191.62,122.12l.73.72V120.3l-.9-.89a.1.1,0,0,1,0-.16.12.12,0,0,1,.17,0l.73.73v-3.51a.12.12,0,0,1,.12-.12.12.12,0,0,1,.11.12v2.11l.71-.7a.12.12,0,0,1,.17.17l-.88.87v2.55l.79-.79a.12.12,0,0,1,.17,0,.14.14,0,0,1,0,.17l-1,1v6.77a.11.11,0,0,1-.11.12.12.12,0,0,1-.12-.12v-5.39l-.9-.89a.12.12,0,0,1,.17-.17Z"/><path class="cls-13" d="M195.71,128.73H190.9a0,0,0,1,1,0-.08h4.81a0,0,0,1,1,0,.08Z"/><path class="cls-14" d="M284.82,119h0a1.23,1.23,0,0,0,.2-1.47h0l0-.07h0a2.47,2.47,0,0,1-.26-1.09,2.39,2.39,0,0,1,.71-1.71,1.39,1.39,0,0,0,.1-1.25h0a1.8,1.8,0,0,1-.1-.57,1.72,1.72,0,0,1,3.43,0,1.8,1.8,0,0,1-.1.57h0a1.39,1.39,0,0,0,.1,1.25,2.39,2.39,0,0,1,.71,1.71,2.47,2.47,0,0,1-.26,1.09h0v0a.59.59,0,0,0,0,.08,1.22,1.22,0,0,0,.16,1.37l0,0v0h0a3,3,0,1,1-4.65,0Z"/><path class="cls-15" d="M286.27,120.61l.73.72v-2.54l-.9-.89a.12.12,0,1,1,.17-.17l.73.72V115a.12.12,0,0,1,.12-.12.12.12,0,0,1,.12.12v2.11l.71-.71a.12.12,0,0,1,.16,0,.11.11,0,0,1,0,.17l-.87.87V120l.78-.8a.14.14,0,0,1,.17,0,.12.12,0,0,1,0,.17l-.95,1v6.78a.13.13,0,0,1-.12.12.12.12,0,0,1-.12-.12v-5.4l-.9-.89a.1.1,0,0,1,0-.16A.12.12,0,0,1,286.27,120.61Z"/><path class="cls-16" d="M290.37,127.22h-4.82a0,0,0,0,1,0,0,0,0,0,0,1,0-.05h4.82a0,0,0,0,1,0,.05A0,0,0,0,1,290.37,127.22Z"/><ellipse class="cls-17" cx="266.9" cy="129.68" rx="16.5" ry="0.53"/><rect class="cls-18" x="249.01" y="107.06" width="35.79" height="19.43" rx="1.21" ry="1.21"/><path class="cls-19" d="M253.22,119.68a5.42,5.42,0,0,1-.44-1A6.54,6.54,0,0,0,253.22,119.68Z"/><path class="cls-20" d="M253.22,114.19a6.26,6.26,0,0,0-.44,1A5.24,5.24,0,0,1,253.22,114.19Z"/><path class="cls-21" d="M256.57,122.45a5.78,5.78,0,0,1-3.35-2.76A5.92,5.92,0,0,0,256.57,122.45Z"/><path class="cls-22" d="M253.51,113.71a5.64,5.64,0,0,1,2-1.85A6.1,6.1,0,0,0,253.51,113.71Z"/><path class="cls-23" d="M255.55,111.86a5.15,5.15,0,0,1,1-.44A6.54,6.54,0,0,0,255.55,111.86Z"/><path class="cls-24" d="M263.37,119.69a5.77,5.77,0,0,1-3.36,2.76A5.91,5.91,0,0,0,263.37,119.69Z"/><path class="cls-25" d="M263.37,119.68a6.54,6.54,0,0,0,.44-1A5.42,5.42,0,0,1,263.37,119.68Z"/><path class="cls-26" d="M265.21,115.56h-5l1.71-4.73A5,5,0,0,1,265.21,115.56Z"/><path class="cls-27" d="M264.07,116.94a5.78,5.78,0,0,1-.26,1.72,6.54,6.54,0,0,1-.44,1h0a5.55,5.55,0,0,1-.29.48,6.77,6.77,0,0,1-1.11,1.22,7.52,7.52,0,0,1-.93.62,6.26,6.26,0,0,1-1,.44,5.82,5.82,0,0,1-3.44,0,6.26,6.26,0,0,1-1-.44,8.23,8.23,0,0,1-.92-.62,6.77,6.77,0,0,1-1.11-1.22,5.55,5.55,0,0,1-.29-.48h0a6.54,6.54,0,0,1-.44-1,5.82,5.82,0,0,1,0-3.44,6.26,6.26,0,0,1,.44-1c.09-.16.19-.33.29-.48a6.32,6.32,0,0,1,1.44-1.48,5.87,5.87,0,0,1,.59-.37h0a6.54,6.54,0,0,1,1-.44,5.78,5.78,0,0,1,1.72-.26,5.12,5.12,0,0,1,.56,0,4.45,4.45,0,0,1,.73.12,2.14,2.14,0,0,1,.34.09l.33.1h0l-2,5.43Z"/><rect class="cls-28" x="268.13" y="113.49" width="12.19" height="1.37"/><rect class="cls-28" x="268.13" y="116.09" width="12.19" height="1.37"/><rect class="cls-28" x="268.13" y="118.69" width="6.61" height="1.37"/><circle class="cls-29" cx="283.41" cy="108.34" r="1.86"/><polygon class="cls-18" points="284.23 108.91 283.66 108.34 284.23 107.77 283.98 107.52 283.41 108.09 282.83 107.52 282.58 107.77 283.15 108.34 282.58 108.91 282.83 109.16 283.41 108.59 283.98 109.16 284.23 108.91"/><path class="cls-30" d="M281.1,124.65a.11.11,0,0,1,0,0v0s0,0,0,0h0l0,.06h0l0,0h0l-.07,0h0l-.07,0h0l-.07,0,0,0-.12,0-4.35,1.51-.13,0-.2,0-.25.05-.17,0-.21,0h-.74a1.87,1.87,0,0,1-.34,0h0a3,3,0,0,1-.32-.06h0l-.29-.08-4.28-1.47-.07,0-.06,0-.05,0-.06,0,0,0,0,0,0,0,0,0,0,0,0,0,0,0,0,0s0,0,0,0a.44.44,0,0,1,0-.1v5.92a.16.16,0,0,0,0,.09,0,0,0,0,0,0,0s0,0,0,0l0,0,0,0,0,0,0,0,.05,0,0,0,.06,0,0,0,.07,0,.05,0,.08,0h0l4.28,1.46.15.05.13,0h0l.1,0,.12,0h1.27l.13,0,.16,0h.05l.18,0h0l.19-.05.11,0h0l4.35-1.5.12-.05h0l0,0,.07,0h0l0,0,0,0,0,0h0l.05,0h0l0,0,0,0h0l0,0h0l0,0v0h0s0,0,0-.05h0Z"/><path class="cls-31" d="M281.1,124.65a.11.11,0,0,1,0,0v0s0,0,0,0h0l0,.06h0l0,0h0l-.07,0h0l-.07,0h0l-.07,0,0,0-.12,0-4.35,1.51-.13,0-.2,0-.25.05-.17,0-.21,0h-.74a1.87,1.87,0,0,1-.34,0h0a3,3,0,0,1-.32-.06h0l-.29-.08-4.28-1.47-.07,0-.06,0-.05,0-.06,0,0,0,0,0,0,0,0,0,0,0,0,0,0,0,0,0s0,0,0,0a.44.44,0,0,1,0-.1v2.84a.16.16,0,0,0,0,.09,0,0,0,0,0,0,0s0,0,0,0l0,0,0,0,0,0,0,0,.05,0,0,0,.06,0,0,0,.07,0,.05,0,.08,0h0l4.28,1.47.15,0,.13,0h0l.1,0,.12,0,.09,0h1.18l.13,0,.16,0h.05l.18,0h0l.19-.06.11,0h0l4.35-1.51.12,0h0l.07,0h0l0,0,0,0,0,0h0l.05,0h0l0,0,0,0h0l0,0h0s0,0,0,0v0h0s0,0,0,0h0Z"/><path class="cls-32" d="M280.56,124.2l-4.28-1.47a4.76,4.76,0,0,0-2.67,0l-4.35,1.51c-.74.25-.75.66,0,.91l4.28,1.47a4.76,4.76,0,0,0,2.67,0l4.35-1.51C281.28,124.86,281.29,124.45,280.56,124.2Z"/><path class="cls-17" d="M249.22,140.43s-11.87.58-26.51.58-26.51-.58-26.51-.58,11.87-.57,26.51-.57S249.22,140.43,249.22,140.43Z"/><polygon class="cls-33" points="217.21 113.37 219.6 110.36 222.01 109.73 222.03 110.13 220.69 110.85 222.08 111.22 223.9 110.24 224.16 110.57 222.24 112.19 219.91 111.82 218.67 113.85 217.21 113.37"/><polygon class="cls-29" points="218.06 111.66 218.69 110.98 220.15 112.73 219.6 113.27 218.06 111.66"/><path class="cls-34" d="M219.86,113.42l-2-1.94a30.45,30.45,0,0,0-4.16,4.09h0s-.57-4.91-1.66-5.54l-1.43,1.76v3.74l.91,3s1.08.75,1.54.63a17.15,17.15,0,0,0,2.45-1.85h0C217.57,115.61,219.86,113.42,219.86,113.42Z"/><path class="cls-35" d="M217.51,138.61l-.27-.14-.16-.08-.27-.15-.18-.11-.27-.15-.37-.25h0a.12.12,0,0,1,0-.09.79.79,0,0,1,0-.35h-1.44l-.69,3.1,6.76.05v-.67A14.62,14.62,0,0,1,217.51,138.61Z"/><rect class="cls-35" x="217.32" y="138.73" width="0.95" height="0.3" transform="translate(-20.32 239) rotate(-55.33)"/><rect class="cls-35" x="216.91" y="138.48" width="0.95" height="0.3" transform="matrix(0.57, -0.82, 0.82, 0.57, -20.29, 238.55)"/><rect class="cls-35" x="216.44" y="138.23" width="0.95" height="0.3" transform="translate(-20.29 238.07) rotate(-55.33)"/><path class="cls-36" d="M219.34,124.06c-.71-1.43-4.71-1.63-4.71-1.63l-7.06-1s-1,3.94.24,4.79,7.48.49,7.48.49L214,137.6h3.3S220.06,125.48,219.34,124.06Z"/><rect class="cls-29" x="204.39" y="128.26" width="2.94" height="12.17"/><rect class="cls-35" x="204.39" y="138.74" width="2.94" height="1.69"/><rect class="cls-29" x="241.09" y="128.26" width="2.94" height="12.17"/><rect class="cls-35" x="241.09" y="138.74" width="2.94" height="1.69"/><path class="cls-37" d="M234.47,139.94l.22.49s2.82-1.79,3-2.23l.17.18,1-.7s-.67-.9-1-1h0l-2.53-8.7-1.78.68s3.14,8.26,3.1,8.48a9.62,9.62,0,0,1-1.08,1.56Z"/><path class="cls-38" d="M235.55,138.66a.93.93,0,0,0,1-.16,3.27,3.27,0,0,0,1-1.15,3.6,3.6,0,0,0,.3-.7h0l-2.53-8.7-1.78.68s3.14,8.26,3.1,8.48A9.62,9.62,0,0,1,235.55,138.66Z"/><path class="cls-39" d="M231.79,139.49l.22.45a17.71,17.71,0,0,0,3-2.06l.16.17,1.06-.64a4.17,4.17,0,0,0-1-1h0l-2.52-8-1.79.62s3.15,7.62,3.11,7.82a8.73,8.73,0,0,1-1.09,1.44C232.65,138.56,231.79,139.49,231.79,139.49Z"/><path class="cls-38" d="M232.86,138.31a1,1,0,0,0,1-.15,3.1,3.1,0,0,0,1-1.06,3.5,3.5,0,0,0,.3-.65h0l-2.52-8-1.79.62s3.15,7.62,3.11,7.82A8.73,8.73,0,0,1,232.86,138.31Z"/><path class="cls-40" d="M231.43,122.94a.86.86,0,0,1,.43-.32,14.47,14.47,0,0,1,6.76.55s.18-2.07.28-2.53a5.38,5.38,0,0,1,3.66-1.23s3.32,2.78,2.72,4.86a3.51,3.51,0,0,1-3.5,2.45c-4.11-.41-7.1-.88-7.63-1h0c-.11,0-.1,0,0,0s1.12,1.93,2.23,4.29a14.21,14.21,0,0,1-2.9,1.43,37.1,37.1,0,0,0-2.26-6.15A2.21,2.21,0,0,1,231.43,122.94Z"/><polygon class="cls-29" points="247.25 125.8 200.8 125.8 200.8 127.66 201.72 127.66 201.72 128.73 246.46 128.73 246.46 127.66 247.25 127.66 247.25 125.8"/><path class="cls-41" d="M230.75,130.62l3.47-1-1.82-3.77,11.5-1.66-1-1.77s-12.38.39-13.48,1.59S230.75,130.62,230.75,130.62Z"/><polygon class="cls-42" points="230.2 129.88 233.88 128.37 234.45 129.65 230.87 131.12 230.2 129.88"/><polygon class="cls-33" points="226.13 111.94 226.31 111.64 226.64 111.67 226.88 111.46 228.79 112.44 228.53 111.37 228.86 111.22 229.44 112.52 229.59 113.52 232.14 115.36 231.52 116.62 228.88 114.38 228.08 114.17 226.56 112.78 226.68 112.52 226.13 111.94"/><path class="cls-43" d="M238.16,115.34s-3.17,2.71-3.74,2.71a6.83,6.83,0,0,1-2.69-1.1l-.49-.3-.59-.39,1-1.64.64.33.47.24,1.35.69c1.31-.49,3.07-2.87,3.07-2.87Z"/><path class="cls-29" d="M232.74,115.19l-1,1.76-.49-.3,1-1.7Z"/><path class="cls-44" d="M242.56,119.41a5.38,5.38,0,0,0-3.66,1.23c-.1.46-.28,2.53-.28,2.53a14.47,14.47,0,0,0-6.76-.55.86.86,0,0,0-.43.32,2.21,2.21,0,0,0-.21,2.37,37.1,37.1,0,0,1,2.26,6.15,16.6,16.6,0,0,0,3.18-1.46,30.1,30.1,0,0,0-2.39-4.16c.52.1,3.4.47,7.51.88a3.51,3.51,0,0,0,3.5-2.45C245.88,122.19,242.56,119.41,242.56,119.41Z"/><path class="cls-45" d="M241.45,116.4c0-.26,0-.53,0-.8h0c0-.59,0-1.17-.07-1.69a4.13,4.13,0,0,0-2.21-3L237.45,112c-.11.73-1.79,3.14-1.46,4.5a1.85,1.85,0,0,0,1.82,1.32h0a3,3,0,0,0,.06.42,6.6,6.6,0,0,0,1,2.38,5.08,5.08,0,0,0,3.66-1.23C241.75,119,241.53,117.73,241.45,116.4Z"/><polygon class="cls-46" points="236.05 122.39 235.98 121.68 230.3 122.2 228.13 115.57 227.16 115.83 229.5 123 236.05 122.39"/><path class="cls-33" d="M234.72,121.75a4.56,4.56,0,0,0,2.48.1c3,.09,6.41.14,6.72.09.46-.07.54-.26.54-.26a2.5,2.5,0,0,0,.24-1.35,8.92,8.92,0,0,0-.2-1.41c0-.16-.06-.26-.06-.26l-1.55-.16a1.8,1.8,0,0,1,.14.56c.05.42.1,1,.12,1.25a1.41,1.41,0,0,0,0,.18c-1.73.27-5.88.5-5.88.5a8.61,8.61,0,0,0-1.45-.46c-.4,0-.92.69-1.17.92A.17.17,0,0,0,234.72,121.75Z"/><path class="cls-47" d="M239.91,114.1c1.54.87,2.27,2.86,2.59,4.18a4,4,0,0,1,.09.42c.11.52.15.87.15.87l2.34.11a8.43,8.43,0,0,0,0-.91l0-.41a7.42,7.42,0,0,0-.9-3.16,7.52,7.52,0,0,0-3.24-3.26,5.17,5.17,0,0,0-.68-.28,1.16,1.16,0,0,0-1.43.63C238.6,112.77,238.7,113.43,239.91,114.1Z"/><path class="cls-33" d="M237.64,109.31a3.2,3.2,0,0,1,.19.85c0,.11,0,.22,0,.33a8.52,8.52,0,0,1-.11,1.51l1.84-.78a6.43,6.43,0,0,1-.55-1.14c-.11-.29-.22-.58-.29-.78l-.1-.27Z"/><path class="cls-38" d="M237.83,110.16c0,.11,0,.22,0,.33l1.18-.41c-.11-.29-.22-.58-.29-.78C238.74,109.3,238.22,109.84,237.83,110.16Z"/><path class="cls-33" d="M235.88,106.63s-.1,1.32-.51,1.51.39.76.39.76-.07,2.42,1.62,1.62c1.57-1.23,1.53-1.51,1.53-1.51s.67,0,.78-.42,0-1.08-.68-.77a1.83,1.83,0,0,1-.46-.89c-.05-.45.11-1.37-.6-1.31A6.6,6.6,0,0,0,235.88,106.63Z"/><path class="cls-46" d="M236.69,104.06l.16,0h0a3.65,3.65,0,0,1,1.8-.15,4.37,4.37,0,0,1,2.76,1.68c2.52,3.25-.21,4.35-.21,4.35l-2.64.68a15,15,0,0,0-.22-4l-2.88.51S235,104.6,236.69,104.06Z"/><polygon class="cls-29" points="240.45 111.69 239.8 110.81 237.43 111.72 237.17 112.56 240.45 111.69"/><path class="cls-29" d="M242.5,118.28a4,4,0,0,1,.09.42l2.5.07,0-.41Z"/><polygon class="cls-42" points="233.01 130.71 236.41 129.26 237.12 130.48 233.54 131.95 233.01 130.71"/><path class="cls-29" d="M216.15,138.61l-.28-.14-.16-.08-.27-.15-.18-.11L215,138l-.36-.25h0a.46.46,0,0,1,0-.09.79.79,0,0,1,0-.35h-1.44l-.68,3.1,6.75.05v-.67A14.53,14.53,0,0,1,216.15,138.61Z"/><rect class="cls-35" x="215.95" y="138.73" width="0.95" height="0.3" transform="translate(-20.91 237.87) rotate(-55.33)"/><rect class="cls-35" x="215.54" y="138.48" width="0.95" height="0.3" transform="translate(-20.88 237.42) rotate(-55.33)"/><rect class="cls-35" x="215.08" y="138.23" width="0.95" height="0.3" transform="translate(-20.88 236.94) rotate(-55.33)"/><path class="cls-48" d="M218,124.06c-.71-1.43-4.72-1.63-4.72-1.63l-6.82-2.19s-1.2,5.15,0,6,7.48.49,7.48.49l-1.29,10.87h3.3S218.69,125.48,218,124.06Z"/><polygon class="cls-33" points="211.43 108.61 209.23 107.66 209.33 106.54 209.43 105.53 209.43 105.5 209.94 105.27 211 106.06 211.18 107.13 211.24 107.5 211.43 108.61"/><path class="cls-38" d="M211.24,107.5l-1.91-1,.1-1a.69.69,0,0,0,.49.11,9.09,9.09,0,0,0,1.26,1.49Z"/><path class="cls-49" d="M211.55,109.27l-2.89-1.21a6.55,6.55,0,0,0-1.84,3.65L205.37,123l7.35-.74c.28-2.57.33-6.9.36-8.84A5.39,5.39,0,0,0,211.55,109.27Z"/><path class="cls-33" d="M212.71,102.43a21.42,21.42,0,0,0,1.2,2.62c.26.38-.64.38-.64.38s.15,3.62-1.62,2.11c-1.57-1.34-1.73-1.9-1.73-1.9s-.69,0-.78-.47.07-1.11.73-.77a1.86,1.86,0,0,0,.51-.89c.07-.47-.06-1.42.68-1.33S212.71,102.43,212.71,102.43Z"/><path class="cls-46" d="M207.14,104.15a2.21,2.21,0,0,1,.65-2.45,2,2,0,0,0-1,0,1.35,1.35,0,0,1,1.41-.56,2.31,2.31,0,0,1,.55-1.21.91.91,0,0,0,0,.65,2.86,2.86,0,0,1,1.26-.88,1.28,1.28,0,0,1,1.11.12l-.62.24a2.39,2.39,0,0,1,2.32.67,1.6,1.6,0,0,1-.06,2.21,1.62,1.62,0,0,1-.67.33,1.8,1.8,0,0,1-1.59-.41,2.3,2.3,0,0,1-.59,1.86.38.38,0,0,0-.45-.39.53.53,0,0,0-.39.49,1.43,1.43,0,0,0,.3.71A2.42,2.42,0,0,1,207.14,104.15Z"/><polygon class="cls-29" points="208.93 107.51 212.05 108.84 212.06 110.03 208.66 108.06 208.93 107.51"/><path class="cls-38" d="M209.71,104.62l-.11,0a.2.2,0,0,0-.11,0,.35.35,0,0,0-.07.09.91.91,0,0,0-.08.23.35.35,0,0,0,0,.12l0,0-.05-.08a.37.37,0,0,1,0-.3.28.28,0,0,1,.14-.12.4.4,0,0,1,.15,0A.37.37,0,0,1,209.71,104.62Z"/><path class="cls-33" d="M215.25,120.75h4s0-.72-.2-.86-2.11-1.07-2.11-1.07l-1.93.36-.32,1.23Z"/><path class="cls-50" d="M214.61,117.72a46.36,46.36,0,0,1-6,.12l.77-5.85a6.26,6.26,0,0,0-.77-3.93h0a8,8,0,0,0-2.8,5.58c-.22,3.6.18,5.76.58,6.6.27.56,4.95.55,8,.48Z"/><polygon class="cls-29" points="214.58 118.12 215.53 118.05 215.25 120.75 214.46 120.72 214.58 118.12"/><path class="cls-51" d="M213.64,122h5.17a.38.38,0,0,1,.38.38v.6a.38.38,0,0,1-.38.38h-5.17a0,0,0,0,1,0,0V122a0,0,0,0,1,0,0Z" transform="translate(432.83 245.32) rotate(180)"/><path class="cls-29" d="M213.93,122.22h5a.24.24,0,0,1,.24.24v.38a.24.24,0,0,1-.24.24h-5a0,0,0,0,1,0,0v-.86A0,0,0,0,1,213.93,122.22Z" transform="translate(433.12 245.3) rotate(-180)"/><path class="cls-40" d="M213.86,120.62H219a.38.38,0,0,1,.38.38v.6a.38.38,0,0,1-.38.38h-5.17a0,0,0,0,1,0,0v-1.36A0,0,0,0,1,213.86,120.62Z"/><path class="cls-29" d="M213.86,120.88h5a.24.24,0,0,1,.24.24v.38a.24.24,0,0,1-.24.24h-5a0,0,0,0,1,0,0v-.86a0,0,0,0,1,0,0Z"/><polygon class="cls-52" points="218.4 122.03 218.09 121.85 217.77 122.03 217.77 121.3 218.4 121.3 218.4 122.03"/><path class="cls-53" d="M209.85,140.43H202a.77.77,0,0,1-.77-.77v-3.25h9.41v3.25A.76.76,0,0,1,209.85,140.43Z"/><path class="cls-39" d="M207.84,132.28V132a1,1,0,0,0-1.05-1H205a1,1,0,0,0-1.05,1v.3H200.8v4.53a.77.77,0,0,0,.76.77h8.69a.77.77,0,0,0,.77-.77v-4.53Zm-3.35-.3a.54.54,0,0,1,.54-.54h1.76a.54.54,0,0,1,.54.54v.3h-2.84Z"/><rect class="cls-54" x="205.09" y="137.03" width="1.65" height="1.1"/><polyline class="cls-55" points="436.66 197.95 436.66 76.7 288.64 76.7 288.64 197.95"/><polygon class="cls-56" points="436.85 232.49 436.85 388.25 288.84 388.25 288.84 232.49 362.85 211.25 428.05 230.41 436.85 232.49"/><polygon class="cls-57" points="362.85 263.6 288.84 232.49 362.85 211.25 436.86 232.49 362.85 263.6"/><polygon class="cls-58" points="436.85 232.49 436.85 354.6 362.85 354.6 362.85 263.6 436.85 232.49"/><polygon class="cls-59" points="362.85 228.63 288.84 197.52 362.85 174.43 436.86 197.52 362.85 228.63"/><polygon class="cls-60" points="362.85 232.56 288.84 201.45 288.84 197.52 362.85 228.63 436.86 197.52 436.86 201.45 362.85 232.56"/><polyline class="cls-61" points="307.44 276.38 307.44 164.38 159.42 164.38 159.42 276.38"/><polygon class="cls-62" points="307.63 310.92 307.63 466.68 159.62 466.68 159.62 310.92 233.63 289.69 298.83 308.84 307.63 310.92"/><polygon class="cls-63" points="233.63 342.03 159.62 310.92 233.63 289.69 307.64 310.92 233.63 342.03"/><polygon class="cls-64" points="307.63 310.92 307.63 433.03 233.63 433.03 233.63 342.03 307.63 310.92"/><polygon class="cls-65" points="233.63 307.06 159.62 275.95 233.63 252.87 307.64 275.95 233.63 307.06"/><polygon class="cls-66" points="233.63 310.99 159.62 279.88 159.62 275.95 233.63 307.06 307.64 275.95 307.64 279.88 233.63 310.99"/><path class="cls-67" d="M323.78,183.1h0a2.15,2.15,0,0,0,.35-2.57h0a.58.58,0,0,0-.06-.11h0a4.21,4.21,0,0,1-.46-1.91,4.27,4.27,0,0,1,1.24-3,2.37,2.37,0,0,0,.17-2.18h0a3,3,0,0,1-.18-1,3,3,0,0,1,6,0,2.94,2.94,0,0,1-.17,1h0a2.4,2.4,0,0,0,.17,2.18,4.21,4.21,0,0,1,.79,4.91h0v0c0,.05-.05.1-.08.14a2.17,2.17,0,0,0,.28,2.41l.08.09,0,0h0a5.22,5.22,0,1,1-9.3,3.27A5.2,5.2,0,0,1,323.78,183.1Z"/><path class="cls-9" d="M326.32,185.92l1.28,1.26v-4.44L326,181.18a.2.2,0,0,1,0-.29.22.22,0,0,1,.3,0l1.28,1.26V176a.2.2,0,0,1,.2-.21.21.21,0,0,1,.21.21v3.7l1.25-1.24a.21.21,0,0,1,.29.29L328,180.3v4.47l1.38-1.39a.21.21,0,0,1,.29.29L328,185.36v11.85a.2.2,0,0,1-.21.2.2.2,0,0,1-.2-.2v-9.44L326,186.21a.2.2,0,0,1,0-.29A.22.22,0,0,1,326.32,185.92Z"/><path class="cls-10" d="M333.49,197.49h-8.43a.08.08,0,0,1-.07-.08.07.07,0,0,1,.07-.07h8.43a.07.07,0,0,1,.07.07A.08.08,0,0,1,333.49,197.49Z"/><path class="cls-68" d="M329.81,188.13h0a1.23,1.23,0,0,0,.2-1.47h0l0-.06h0a2.51,2.51,0,0,1-.26-1.1,2.4,2.4,0,0,1,.71-1.71,1.39,1.39,0,0,0,.1-1.25h0a1.75,1.75,0,0,1-.1-.57,1.72,1.72,0,0,1,3.43,0,1.75,1.75,0,0,1-.1.57h0a1.39,1.39,0,0,0,.1,1.25,2.4,2.4,0,0,1,.71,1.71,2.51,2.51,0,0,1-.26,1.1h0a.59.59,0,0,0,0,.08,1.22,1.22,0,0,0,.16,1.37l0,.05v0h0a3,3,0,1,1-4.65,0Z"/><path class="cls-12" d="M331.26,189.74l.73.72v-2.54l-.9-.89a.12.12,0,0,1,0-.17.14.14,0,0,1,.17,0l.73.73v-3.51a.12.12,0,0,1,.12-.12.12.12,0,0,1,.12.12v2.11l.71-.71a.11.11,0,0,1,.16,0,.1.1,0,0,1,0,.16l-.87.88v2.55l.78-.79a.12.12,0,0,1,.17,0,.11.11,0,0,1,0,.17l-.95,1v6.77a.13.13,0,0,1-.12.12.12.12,0,0,1-.12-.12v-5.4l-.9-.88a.12.12,0,1,1,.17-.17Z"/><path class="cls-13" d="M335.36,196.35h-4.82a0,0,0,0,1,0,0,0,0,0,0,1,0,0h4.82a0,0,0,0,1,0,0A0,0,0,0,1,335.36,196.35Z"/><g class="cls-69"><polygon class="cls-70" points="468.15 346.74 468.15 502.5 320.14 502.5 320.14 346.74 394.14 325.5 459.35 344.66 468.15 346.74"/><polygon class="cls-71" points="394.14 377.85 320.13 346.74 394.14 325.5 468.15 346.74 394.14 377.85"/><polygon class="cls-72" points="468.15 346.74 468.15 468.85 394.14 468.85 394.14 377.85 468.15 346.74"/></g><g class="cls-69"><polygon class="cls-73" points="0 355.33 0 511.09 148.02 511.09 148.02 355.33 74.01 334.1 8.8 353.25 0 355.33"/><polygon class="cls-74" points="74.01 386.44 148.02 355.33 74.01 334.1 0 355.33 74.01 386.44"/><polygon class="cls-75" points="0 355.33 0 477.44 74.01 477.44 74.01 386.44 0 355.33"/></g><path class="cls-1" d="M198,281.28c0-.13-.11-3.3-.11-3.3h1.69l.13,3.31Z"/><path class="cls-46" d="M202.56,282l-4.72,0v-1.44l3.25,0a1.47,1.47,0,0,1,1.47,1.44Z"/><path class="cls-1" d="M184.1,278.47c.09-.09,1.85-2.74,1.85-2.74l1.37,1-1.84,2.75Z"/><path class="cls-46" d="M187.4,281.73,183.57,279l.84-1.18,2.65,1.9a1.45,1.45,0,0,1,.34,2Z"/><path class="cls-76" d="M200.19,275.78l-.12-2.91c0-1-.06-1.94-.09-2.91L199.9,267a.06.06,0,0,0,0,0v-.14l-.33-2.76c-.11-.93-.23-1.85-.32-2.77l-.3-2.78c-.09-.92-.19-1.85-.27-2.78l-4.12.65-3.46-.36-.54,10.16-5.86,10.14L187.4,278l6.48-10.31a1.64,1.64,0,0,0,.22-.62l0-.13.9-5.85.18.87c.2.91.37,1.82.55,2.73l.53,2.7.24,2.77c.08,1,.17,1.93.24,2.9L197,276c.06,1,.13,1.94.18,2.91l3.17-.18C200.27,277.73,200.24,276.76,200.19,275.78Z"/><path class="cls-77" d="M191.34,247.43l6.47-.25a.93.93,0,0,1,1,.93l.06,7.34a.94.94,0,0,1-.9.94l-5.91.23a.94.94,0,0,1-1-.86l-.62-7.31A1,1,0,0,1,191.34,247.43Z"/><polygon class="cls-1" points="195.95 245.85 196.03 247.78 194.42 247.47 194.63 245.74 195.95 245.85"/><path class="cls-1" d="M197.56,243.61l-.44-.13-.18.57.42.06.25-.2A.17.17,0,0,0,197.56,243.61Z"/><circle class="cls-1" cx="195.6" cy="244.27" r="1.82" transform="translate(-95.85 130.31) rotate(-29.96)"/><g class="cls-78"><path class="cls-46" d="M197.42,242.84h0a1.49,1.49,0,0,0-1.94-.91l-.14.06h0l-2.19,1.47s-.27,1.64.52,1.61c1.47-.06,1.86-.9,1.9-1.69Z"/></g><path class="cls-1" d="M195.35,244.56a.49.49,0,0,1-.57.43.5.5,0,0,1-.44-.57.51.51,0,1,1,1,.14Z"/><path class="cls-46" d="M192.58,243.82a1.8,1.8,0,1,1,2.34-1A1.81,1.81,0,0,1,192.58,243.82Z"/><path class="cls-1" d="M193.59,247.34l3.3-.12a1.52,1.52,0,0,1-1.61,1.29A1.51,1.51,0,0,1,193.59,247.34Z"/><circle class="cls-79" cx="200.23" cy="252.05" r="6.2" transform="translate(-102.33 142.15) rotate(-31.57)"/><circle class="cls-29" cx="200.23" cy="252.05" r="5.14" transform="translate(-117.77 202.1) rotate(-42.61)"/><path class="cls-80" d="M201.56,255.38l.26,1-.67.17-.26-1a3.9,3.9,0,0,1-1.86,0l-.33-1.31a3,3,0,0,0,.9.21,4.08,4.08,0,0,0,1,0l-.44-1.72a3.76,3.76,0,0,1-1.71-.51,1.86,1.86,0,0,1-.69-1.07,1.8,1.8,0,0,1,.19-1.4,2.22,2.22,0,0,1,1.21-.95l-.23-.88.68-.17.22.86a3.41,3.41,0,0,1,1.54-.05l.32,1.27a3.79,3.79,0,0,0-1.58-.12l.46,1.8a3.73,3.73,0,0,1,1.67.48,1.67,1.67,0,0,1,.73,1.05,1.72,1.72,0,0,1-.17,1.38A2.37,2.37,0,0,1,201.56,255.38Zm-1.73-4-.38-1.49a.67.67,0,0,0-.47.84C199.06,251.09,199.35,251.31,199.83,251.41Zm1.08,1.43.37,1.43a.68.68,0,0,0,.49-.84C201.69,253.12,201.4,252.92,200.91,252.84Z"/><path class="cls-1" d="M199.86,251.26a1,1,0,0,0-1.4.34,1,1,0,0,0-.15.51l-1.25.87.09,1.14,1.9-1a1,1,0,0,0,1.15-.45A1,1,0,0,0,199.86,251.26Z"/><path class="cls-81" d="M191.21,257.49a1.14,1.14,0,0,1-.68-.19,1.16,1.16,0,0,1-.51-1l.42-8,2.25-.07-.28,6.19,5.27-2.55,1,2.07-7,3.4A1.2,1.2,0,0,1,191.21,257.49Z"/><rect class="cls-18" x="328.95" y="158.44" width="28.3" height="19.44" rx="0.5" ry="0.5"/><path class="cls-82" d="M329.46,158.44h27.29a.5.5,0,0,1,.5.5v1.83a0,0,0,0,1,0,0H329a0,0,0,0,1,0,0v-1.83A.5.5,0,0,1,329.46,158.44Z"/><circle class="cls-28" cx="333.11" cy="164.88" r="2.06"/><rect class="cls-28" x="331.07" y="167.55" width="4.08" height="0.69"/><rect class="cls-28" x="336.84" y="169.37" width="11.57" height="4.59" transform="translate(685.26 343.33) rotate(180)"/><g class="cls-83"><polyline class="cls-84" points="336.84 167.39 336.84 167.89 337.34 167.89"/><line class="cls-85" x1="338.33" y1="167.89" x2="347.68" y2="167.89"/><polyline class="cls-84" points="348.18 167.89 348.68 167.89 348.68 167.39"/><line class="cls-86" x1="348.67" y1="166.52" x2="348.67" y2="163.5"/><polyline class="cls-84" points="348.68 163.06 348.68 162.56 348.18 162.56"/><line class="cls-85" x1="347.19" y1="162.56" x2="337.84" y2="162.56"/><polyline class="cls-84" points="337.34 162.56 336.84 162.56 336.84 163.06"/><line class="cls-86" x1="336.84" y1="163.93" x2="336.84" y2="166.96"/></g><rect class="cls-87" x="336.84" y="174.77" width="11.57" height="0.7" transform="translate(685.26 350.24) rotate(180)"/><rect class="cls-87" x="336.84" y="176.24" width="4.96" height="0.7" transform="translate(678.65 353.18) rotate(180)"/><rect class="cls-28" x="331.07" y="168.93" width="2.41" height="0.69"/><g class="cls-88"><path class="cls-18" d="M331,159.15a.5.5,0,1,0,0,1,.5.5,0,0,0,0-1Z"/><circle class="cls-18" cx="332.54" cy="159.65" r="0.49"/><path class="cls-18" d="M334.07,159.15a.5.5,0,1,0,.49.5A.49.49,0,0,0,334.07,159.15Z"/></g><circle class="cls-28" cx="351.23" cy="163.64" r="1.04"/><rect class="cls-28" x="352.81" y="162.95" width="2.91" height="0.49"/><rect class="cls-28" x="352.81" y="163.85" width="1.72" height="0.49"/><circle class="cls-28" cx="351.23" cy="166.61" r="1.04"/><rect class="cls-28" x="352.81" y="165.91" width="2.91" height="0.49"/><rect class="cls-28" x="352.81" y="166.82" width="1.72" height="0.49"/><circle class="cls-28" cx="351.23" cy="169.58" r="1.04"/><rect class="cls-28" x="352.81" y="168.88" width="2.91" height="0.49"/><rect class="cls-28" x="352.81" y="169.79" width="1.72" height="0.49"/><circle class="cls-28" cx="351.23" cy="172.55" r="1.04"/><rect class="cls-28" x="352.81" y="171.85" width="2.91" height="0.49"/><rect class="cls-28" x="352.81" y="172.76" width="1.72" height="0.49"/><circle class="cls-28" cx="351.23" cy="175.52" r="1.04"/><rect class="cls-28" x="352.81" y="174.82" width="2.91" height="0.49"/><rect class="cls-28" x="352.81" y="175.72" width="1.72" height="0.49"/><rect class="cls-89" x="360.65" y="166.71" width="12.46" height="5.33" transform="matrix(-0.84, -0.54, 0.54, -0.84, 582.96, 510.84)"/><rect class="cls-90" x="362.21" y="165.85" width="3.46" height="3.46" transform="translate(149.36 -170.78) rotate(32.89)"/><g class="cls-91"><rect class="cls-18" x="366.6" y="169.63" width="5.3" height="0.44" transform="translate(151.44 -173.3) rotate(32.89)"/><rect class="cls-18" x="366.07" y="170.45" width="5.3" height="0.44" transform="translate(151.8 -172.88) rotate(32.89)"/><rect class="cls-18" x="365.76" y="170.53" width="2.55" height="0.44" transform="translate(151.57 -171.96) rotate(32.89)"/></g><path class="cls-92" d="M358.44,175.72l-.14-1.05a.29.29,0,0,0-.29-.24h-.27a.5.5,0,0,0-.36.19l-.32.4v.28l0,.61a1.62,1.62,0,0,1-.21.63c-.07.14.15.24.23.1a2.14,2.14,0,0,0,.23-.73h.13a1.93,1.93,0,0,1,0,1c0,.15.19.19.24,0a2,2,0,0,0,0-1.08h.11a1.77,1.77,0,0,1,.05,1.2c-.05.15.2.2.24,0a2,2,0,0,0,0-1.25h.15a1.41,1.41,0,0,1,0,1c0,.15.2.19.24,0A1.63,1.63,0,0,0,358.44,175.72Z"/><path class="cls-93" d="M354.21,170.49l-.44-.44,4.24-4.81a1.33,1.33,0,0,0-.32-2h0a1.33,1.33,0,0,0-1.79.4l-5.07,6.41a.46.46,0,0,0,.15.68l1.53,1A6.48,6.48,0,0,1,354.21,170.49Z"/><path class="cls-94" d="M358.24,174.55l-4-4.06a6.48,6.48,0,0,0-1.7,1.23l4.74,3.07Z"/><polygon class="cls-95" points="348.69 197.95 349.47 198.25 350.25 199.14 351.43 199.75 351.5 200.1 348.01 198.83 348.69 197.95"/><path class="cls-46" d="M361.47,158.56a3.28,3.28,0,0,0,.62-1.56,1.49,1.49,0,0,0-.35-1.28,1.28,1.28,0,0,0-1.27-.2,4,4,0,0,0-1.14.71l-.79.64a1.39,1.39,0,0,0-.42.45.48.48,0,0,0,.07.57,1.15,1.15,0,0,0-.33,1.69c.23.26.59.43.7.76s-.2.92,0,1.32Z"/><path class="cls-94" d="M361,157.29a.71.71,0,0,1,.51.61,8.08,8.08,0,0,1,0,.85.85.85,0,0,0,.43.69c.13.05.3.07.35.2s-.18.28-.31.41a.88.88,0,0,0-.06.81c.08.27.13.61-.08.8s-.69,0-1.05.05a1.09,1.09,0,0,0-.8.54,13.66,13.66,0,0,0-.52,2c-.58.12-1.31-.53-1.59-1.36l1-2.48a.53.53,0,0,1-.57-.12.49.49,0,0,1-.11-.56c.09-.19.59-.54.79.11a2.37,2.37,0,0,0,.26-1.06C359.31,157.53,361,157.29,361,157.29Z"/><path class="cls-17" d="M363.07,199.55c-3.38-.06-6.74,0-10.11.09a.93.93,0,0,0-.84-.34c-2.22.31-4.47.11-6.69.47a.32.32,0,0,0,0,.62,46.63,46.63,0,0,0,5,.32.78.78,0,0,0,.85.77c3.94-.07,7.86-.28,11.78-.59A.67.67,0,0,0,363.07,199.55Z"/><path class="cls-96" d="M360.2,177.22l-3.45,0-3-3.19-.49,1a13.89,13.89,0,0,0-1.25,7l.35,4.4-1.62,2.94-1.92,8.34.78.31,6-10.28.85-5.53a14.23,14.23,0,0,1,1.36,2.4c.25.51.51,1,.77,1.52.11.21.55.79.53,1l-.35,3.34,1.44,8.43.84,0,1.6-11.81Z"/><polygon class="cls-95" points="360.2 199.19 361.04 199.17 362.1 199.69 363.43 199.79 363.63 200.09 359.92 200.26 360.2 199.19"/><path class="cls-97" d="M358.48,162.47a2.93,2.93,0,0,0-2.25,1.05,7.86,7.86,0,0,0-1.24,2.13c-1.12,2.59-3.49,12.9-3,13.74h8.71a47,47,0,0,1-.12-12,6.45,6.45,0,0,0-.45-3.83A2.05,2.05,0,0,0,358.48,162.47Z"/><path class="cls-94" d="M370.84,169a2,2,0,0,0-1.14-.51l.06-.14a1.45,1.45,0,0,1,.87.39c.12.1.26-.1.14-.2a1.7,1.7,0,0,0-1.11-.44l-1-.32a.28.28,0,0,0-.34.16l-.11.25a.49.49,0,0,0,0,.41l.22.46.19.08.05,0h0l.56.23a1.78,1.78,0,0,1,.49.46c.09.13.28,0,.18-.16a1.85,1.85,0,0,0-.56-.52l.05-.11a1.82,1.82,0,0,1,.94.44c.11.11.25-.09.14-.2a2,2,0,0,0-1-.48l0-.1a1.79,1.79,0,0,1,1.11.47C370.81,169.31,371,169.11,370.84,169Z"/><path class="cls-98" d="M363.13,169.71l-.58.21L360,164.05a1.32,1.32,0,0,0-1.94-.56h0a1.32,1.32,0,0,0-.4,1.79l3.65,7.3a.46.46,0,0,0,.69.16l1.54-1A6.55,6.55,0,0,1,363.13,169.71Z"/><path class="cls-94" d="M368.52,167.78l-5.39,1.93a6.55,6.55,0,0,0,.4,2.06l4.78-3Z"/><path class="cls-99" d="M368.2,169l-.35.18s-.05,0-.05,0l-.15-.67.45-.1.12.56A0,0,0,0,1,368.2,169Z"/><path class="cls-100" d="M368.27,168.15c0,.12-.15.27-.4.32s-.46,0-.49-.12.15-.27.4-.32S368.24,168,368.27,168.15Z"/><rect class="cls-100" x="367.36" y="168.14" width="0.91" height="0.11" transform="translate(-27.42 82.35) rotate(-12.32)"/><path class="cls-101" d="M368.24,168c0,.13-.15.27-.39.32s-.47,0-.49-.12.15-.27.39-.32S368.21,167.91,368.24,168Z"/><path class="cls-29" d="M368.21,168c0,.11-.14.25-.37.3s-.43,0-.45-.12.14-.24.36-.29S368.18,167.93,368.21,168Z"/><rect class="cls-100" x="367.65" y="168.46" width="0.05" height="0.13" transform="translate(-27.47 82.24) rotate(-12.31)"/><rect class="cls-100" x="368.1" y="168.36" width="0.05" height="0.13" transform="translate(-27.45 82.39) rotate(-12.31)"/><path class="cls-102" d="M413.66,188.85h0a1.71,1.71,0,0,0,.27-2h0l-.05-.09h0a3.36,3.36,0,0,1-.36-1.51,3.28,3.28,0,0,1,1-2.35,1.88,1.88,0,0,0,.13-1.71h0a2.3,2.3,0,0,1-.13-.79,2.36,2.36,0,0,1,4.71,0,2.3,2.3,0,0,1-.14.79h0a1.86,1.86,0,0,0,.14,1.71,3.32,3.32,0,0,1,1,2.35,3.37,3.37,0,0,1-.37,1.51h0v0l-.06.11a1.7,1.7,0,0,0,.22,1.89l.06.07v0h0a4,4,0,0,1,.91,2.56,4.11,4.11,0,1,1-7.31-2.56Z"/><path class="cls-15" d="M415.66,191.06l1,1v-3.5l-1.23-1.22a.15.15,0,0,1,0-.23.17.17,0,0,1,.23,0l1,1v-4.82a.17.17,0,0,1,.16-.17.18.18,0,0,1,.17.17v2.9l1-1a.17.17,0,0,1,.23,0,.15.15,0,0,1,0,.23l-1.2,1.2v3.51l1.08-1.09a.15.15,0,0,1,.23,0,.17.17,0,0,1,0,.23L417,190.62v9.31a.17.17,0,0,1-.17.16.16.16,0,0,1-.16-.16v-7.41l-1.23-1.22a.16.16,0,0,1,0-.24A.17.17,0,0,1,415.66,191.06Z"/><path class="cls-16" d="M421.29,200.15h-6.62a.06.06,0,0,1-.06-.06.06.06,0,0,1,.06-.05h6.62a.06.06,0,0,1,.06.05A.06.06,0,0,1,421.29,200.15Z"/><polygon class="cls-103" points="385.26 175.86 383.95 162.4 382.27 148.01 383.58 147.82 386.57 161.47 391.24 161.84 396.1 148.01 397.41 148.19 393.86 162.96 394.05 175.49 385.26 175.86"/><path class="cls-104" d="M386.93,157.47c-.36,1.29.2,3.36,1.49,3.72s2.82-1.15,3.18-2.44a2.42,2.42,0,0,0-4.67-1.28Z"/><path class="cls-46" d="M388.65,156.73a1.39,1.39,0,0,1-.77-.5.36.36,0,0,1,0-.07,2.39,2.39,0,0,1,2-.38,2.42,2.42,0,0,1,1.7,3,3.86,3.86,0,0,1-2.05,2.33,4,4,0,0,1,.15-.77c.27-1,.56-2,.89-3A13,13,0,0,1,388.65,156.73Z"/><path class="cls-104" d="M390.16,158.7a.62.62,0,0,1,.61-.1.57.57,0,0,1,.13.08.52.52,0,0,1,.11.38,1,1,0,0,1-.7.8.69.69,0,0,1-.32,0,.39.39,0,0,1-.27-.15C389.5,159.42,389.91,158.88,390.16,158.7Z"/><polygon class="cls-105" points="394.05 175.49 392.75 196.13 391.32 196.13 390.11 175.65 388.83 175.71 388.06 196.63 386.95 196.61 385.26 175.86 385.01 173.3 394.02 173.42 394.05 175.49"/><polygon class="cls-46" points="392.75 196.13 395.89 196.47 395.78 196.96 391.18 196.96 391.32 196.13 392.75 196.13"/><polygon class="cls-46" points="388.06 196.63 388.06 197.22 383.74 197.38 383.74 196.84 386.95 196.61 388.06 196.63"/><path class="cls-46" d="M389.24,159.22c-.79.09-1.41-.7-2.19-.8a.26.26,0,0,0-.15,0c-.06,0-.09.09-.12.14l-.3.58a2.78,2.78,0,0,0-.25.62,2.1,2.1,0,0,0,0,.79,1.85,1.85,0,0,0,.17.61,1.41,1.41,0,0,0,.84.71,2.61,2.61,0,0,0,1.11.12,1.93,1.93,0,0,0,.75-.19,1.38,1.38,0,0,0,.73-1.42,1.48,1.48,0,0,1-.05-.41.93.93,0,0,1,.15-.39c.08-.13.6-.81.19-.81-.12,0-.3.21-.41.27A1.24,1.24,0,0,1,389.24,159.22Z"/><path class="cls-104" d="M384.33,147.26a1.12,1.12,0,1,1-1.12-1.12A1.12,1.12,0,0,1,384.33,147.26Z"/><path class="cls-104" d="M397.41,147.63a1.12,1.12,0,1,1-1.12-1.12A1.13,1.13,0,0,1,397.41,147.63Z"/><rect class="cls-106" x="370.64" y="125.43" width="37.23" height="22.16" transform="translate(778.51 273.02) rotate(180)"/><rect class="cls-90" x="389.27" y="128.23" width="16.61" height="16.45" transform="translate(795.14 272.91) rotate(180)"/><rect class="cls-90" x="372.75" y="128.38" width="14.5" height="1.4" transform="translate(760 258.16) rotate(180)"/><rect class="cls-90" x="372.75" y="131.8" width="14.5" height="1.4" transform="translate(760 264.99) rotate(180)"/><rect class="cls-90" x="372.75" y="135.21" width="14.5" height="1.4" transform="translate(760 271.82) rotate(180)"/><rect class="cls-90" x="372.75" y="138.63" width="14.5" height="1.4" transform="translate(760 278.65) rotate(180)"/><rect class="cls-90" x="372.75" y="142.04" width="14.5" height="1.4" transform="translate(760 285.48) rotate(180)"/><polygon class="cls-107" points="271.21 273.12 266.1 273.05 262.41 275.73 262.95 272.49 267.85 243.5 271.21 273.12"/><polygon class="cls-18" points="267.85 243.5 263.58 272.17 263.12 275.21 262.85 277.05 223.78 264.36 227.54 239.16 267.85 243.5"/><path class="cls-79" d="M230.56,241.1h0a.55.55,0,0,1-.41-.66l.29-2a.6.6,0,0,1,.59-.54h0a.52.52,0,0,1,.42.64l-.29,2A.59.59,0,0,1,230.56,241.1Z"/><path class="cls-79" d="M234.27,241.54h0a.55.55,0,0,1-.44-.67l.3-2a.61.61,0,0,1,.62-.56h0a.55.55,0,0,1,.45.67l-.31,2A.6.6,0,0,1,234.27,241.54Z"/><path class="cls-79" d="M238.2,242h0a.57.57,0,0,1-.48-.69l.31-2.08a.65.65,0,0,1,.66-.58h0a.57.57,0,0,1,.48.69l-.31,2.1A.62.62,0,0,1,238.2,242Z"/><path class="cls-79" d="M242.37,242.52h0a.61.61,0,0,1-.5-.72l.32-2.15a.67.67,0,0,1,.7-.59h0a.6.6,0,0,1,.51.71l-.32,2.17A.67.67,0,0,1,242.37,242.52Z"/><path class="cls-79" d="M246.82,243.05h0a.64.64,0,0,1-.54-.74l.33-2.22a.72.72,0,0,1,.75-.61h0a.64.64,0,0,1,.55.74l-.34,2.24A.68.68,0,0,1,246.82,243.05Z"/><path class="cls-79" d="M251.58,243.63h0a.68.68,0,0,1-.58-.78l.34-2.29a.75.75,0,0,1,.79-.63h0a.67.67,0,0,1,.59.77l-.35,2.31A.73.73,0,0,1,251.58,243.63Z"/><path class="cls-79" d="M256.66,244.24h0a.72.72,0,0,1-.63-.81l.36-2.37a.77.77,0,0,1,.84-.64h0a.69.69,0,0,1,.64.79l-.36,2.39A.77.77,0,0,1,256.66,244.24Z"/><path class="cls-79" d="M262.11,244.89h0a.74.74,0,0,1-.67-.83l.36-2.46a.83.83,0,0,1,.9-.67h0a.75.75,0,0,1,.69.83l-.37,2.48A.8.8,0,0,1,262.11,244.89Z"/><polygon class="cls-28" points="233.61 249.6 229.34 248.81 230.08 243.88 234.37 244.5 233.61 249.6"/><polygon class="cls-28" points="241.54 251.06 236.73 250.17 237.51 244.95 242.35 245.64 241.54 251.06"/><polygon class="cls-28" points="250.52 252.71 245.07 251.71 245.9 246.15 251.38 246.94 250.52 252.71"/><polygon class="cls-28" points="260.78 254.6 254.54 253.45 255.42 247.52 261.7 248.42 260.78 254.6"/><polygon class="cls-28" points="232.56 256.63 228.33 255.61 229.06 250.68 233.32 251.53 232.56 256.63"/><polygon class="cls-28" points="240.43 258.53 235.66 257.38 236.44 252.16 241.24 253.11 240.43 258.53"/><polygon class="cls-28" points="249.34 260.68 243.93 259.37 244.75 253.82 250.2 254.9 249.34 260.68"/><polygon class="cls-28" points="259.51 263.13 253.32 261.64 254.2 255.7 260.43 256.95 259.51 263.13"/><polygon class="cls-28" points="231.52 263.66 227.32 262.4 228.05 257.48 232.28 258.56 231.52 263.66"/><polygon class="cls-28" points="239.31 266 234.59 264.58 235.36 259.36 240.12 260.58 239.31 266"/><polygon class="cls-28" points="248.15 268.64 242.78 267.04 243.61 261.48 249.01 262.87 248.15 268.64"/><polygon class="cls-28" points="258.24 271.66 252.1 269.82 252.98 263.89 259.16 265.48 258.24 271.66"/><path class="cls-104" d="M230.56,250.78c-.06.87.55,2.13,1.43,2.2s1.67-1.09,1.74-2a1.59,1.59,0,0,0-3.17-.24Z"/><path class="cls-104" d="M239.85,248.8l.27-.13.26.41,1.29-.72.43.48-1.82,1.37-.4-.5.21-.28-.09-.31Z"/><path class="cls-104" d="M233.5,250.34l.51,0c.12,0,.29,0,.28.17a.28.28,0,0,1-.1.14,1.05,1.05,0,0,1-.53.28.58.58,0,0,1-.47-.16.4.4,0,0,1-.12-.42A.89.89,0,0,0,233.5,250.34Z"/><path class="cls-108" d="M231.8,253a2.24,2.24,0,0,1-1.24-2.17,1.58,1.58,0,0,1,1.7-1.46l.16,0a1,1,0,0,1,0,.38,1.49,1.49,0,0,1-.81,1A10.79,10.79,0,0,0,231.8,253Z"/><polygon class="cls-109" points="229.6 267.54 230.43 260.41 230.62 260.26 230.46 260.15 230.51 259.73 229.7 259.66 226.72 257.72 223.19 263.47 218.14 263.24 217.36 265.41 217.8 265.6 218.35 264.17 223.96 265.46 227.38 262.79 227.85 267.51 227.58 274.6 230.33 274.6 230.48 274.07 228.59 273.82 229.6 267.54"/><circle class="cls-108" cx="230.18" cy="250.02" r="0.94"/><path class="cls-110" d="M239.86,249.51a20.78,20.78,0,0,1-4.71,3.11l-2.2.65-2.42.26-3.94,4.23,3.95,2.58,3-5.35,2.56-1.12a19.42,19.42,0,0,0,4.37-3.68Z"/><polyline class="cls-111" points="165.66 206.13 165.66 84.88 17.64 84.88 17.64 206.13"/><polygon class="cls-112" points="165.85 240.66 165.85 396.42 17.84 396.42 17.84 240.66 91.84 219.43 157.05 238.58 165.85 240.66"/><polygon class="cls-113" points="91.84 271.77 17.84 240.66 91.84 219.43 165.85 240.66 91.84 271.77"/><polygon class="cls-114" points="165.85 240.66 165.85 362.77 91.84 362.77 91.84 271.77 165.85 240.66"/><polygon class="cls-115" points="91.84 236.81 17.84 205.7 91.84 182.61 165.85 205.7 91.84 236.81"/><polygon class="cls-116" points="91.84 240.73 17.84 209.62 17.84 205.7 91.84 236.81 165.85 205.7 165.85 209.62 91.84 240.73"/><path class="cls-117" d="M140.18,191.94h0a2.17,2.17,0,0,1-.35-2.57h0l.06-.11h0a4.28,4.28,0,0,0,.46-1.92,4.22,4.22,0,0,0-1.24-3,2.35,2.35,0,0,1-.17-2.17h0a3,3,0,1,0-5.66,0h0a2.35,2.35,0,0,1-.17,2.17,4.22,4.22,0,0,0-1.24,3,4.15,4.15,0,0,0,.46,1.92h0l0,0s0,.09.07.14a2.15,2.15,0,0,1-.28,2.4l-.08.09,0,0h0a5.16,5.16,0,0,0-1.15,3.26,5.22,5.22,0,1,0,10.44,0A5.16,5.16,0,0,0,140.18,191.94Z"/><path class="cls-9" d="M137.65,194.75,136.37,196v-4.45l1.57-1.55a.22.22,0,0,0,0-.3.21.21,0,0,0-.29,0L136.37,191v-6.14a.21.21,0,0,0-.21-.2.2.2,0,0,0-.21.2v3.7l-1.24-1.24a.21.21,0,0,0-.3.3l1.54,1.53v4.46l-1.37-1.39a.22.22,0,0,0-.3,0,.21.21,0,0,0,0,.29l1.67,1.69V206a.21.21,0,0,0,.21.21.22.22,0,0,0,.21-.21V196.6l1.57-1.55a.22.22,0,0,0,0-.3A.21.21,0,0,0,137.65,194.75Z"/><path class="cls-10" d="M130.47,206.32h8.43a.07.07,0,0,0,.07-.07.08.08,0,0,0-.07-.08h-8.43a.08.08,0,0,0-.07.08A.07.07,0,0,0,130.47,206.32Z"/><path class="cls-118" d="M134.16,197h0a1.26,1.26,0,0,1-.2-1.47h0a.25.25,0,0,1,0-.06h0a2.37,2.37,0,0,0,.26-1.09,2.43,2.43,0,0,0-.71-1.72,1.37,1.37,0,0,1-.1-1.24h0a1.56,1.56,0,0,0,.1-.57,1.72,1.72,0,1,0-3.43,0,1.8,1.8,0,0,0,.1.57h0a1.33,1.33,0,0,1-.1,1.24,2.43,2.43,0,0,0-.71,1.72,2.38,2.38,0,0,0,.27,1.09h0l0,.08a1.23,1.23,0,0,1-.16,1.38l0,0h0a3,3,0,1,0,4.66,0Z"/><path class="cls-12" d="M132.71,198.57l-.74.73v-2.55l.9-.89a.11.11,0,1,0-.16-.16l-.74.72v-3.51a.12.12,0,0,0-.11-.12.12.12,0,0,0-.12.12V195l-.71-.71a.12.12,0,1,0-.17.17l.88.87v2.55l-.79-.79a.11.11,0,0,0-.17,0,.14.14,0,0,0,0,.17l1,1V205a.12.12,0,0,0,.12.12A.11.11,0,0,0,132,205v-5.39l.9-.89a.12.12,0,0,0,0-.17A.12.12,0,0,0,132.71,198.57Z"/><path class="cls-13" d="M128.61,205.18h4.81s0,0,0,0a0,0,0,0,0,0,0h-4.81a0,0,0,0,0-.05,0S128.58,205.18,128.61,205.18Z"/><ellipse class="cls-17" cx="90.93" cy="210.51" rx="25.74" ry="1.21"/><path class="cls-119" d="M117.43,170V167.7a1.28,1.28,0,0,0-1.28-1.28H66.65a1.28,1.28,0,0,0-1.28,1.28V170Z"/><g class="cls-120"><path class="cls-121" d="M68.41,168.22a.61.61,0,0,1-.61.61.61.61,0,1,1,.61-.61Z"/><circle class="cls-121" cx="70.03" cy="168.22" r="0.61"/><circle class="cls-121" cx="72.25" cy="168.22" r="0.61"/></g><rect class="cls-122" x="106.63" y="167.62" width="8.37" height="1.21"/><polygon class="cls-18" points="91.66 169.8 91.37 169.8 65.37 169.8 65.37 205.82 91.37 205.82 91.66 205.82 117.42 205.82 117.42 169.8 91.66 169.8"/><rect class="cls-28" x="68.08" y="187.04" width="14.87" height="12.27"/><rect class="cls-28" x="68.12" y="173.08" width="14.82" height="0.97"/><polygon class="cls-28" points="83.73 202.42 68.91 202.42 68.12 201.45 82.94 201.45 83.73 202.42"/><rect class="cls-28" x="68.2" y="184.07" width="16.99" height="0.68"/><rect class="cls-28" x="99.87" y="201.45" width="14.82" height="0.97"/><polygon class="cls-28" points="92.57 201.52 91.25 201.52 84.67 201.52 84.67 202.43 91.25 202.43 93.36 202.43 98.61 202.43 97.83 201.52 92.57 201.52"/><rect class="cls-28" x="68.2" y="175.91" width="37.1" height="0.68"/><rect class="cls-28" x="68.2" y="177.5" width="37.1" height="0.68"/><rect class="cls-28" x="68.2" y="179.09" width="37.1" height="0.68"/><rect class="cls-28" x="68.2" y="180.67" width="37.1" height="0.91"/><rect class="cls-28" x="68.2" y="182.49" width="37.1" height="0.68"/><polygon class="cls-28" points="91.25 187.02 89.53 187.02 84.67 187.02 84.67 199.25 89.53 199.25 91.25 199.25 97.83 199.25 97.83 187.02 91.25 187.02"/><path class="cls-123" d="M70.59,182l1.5-.89s1.85-.36,1.92-.09c0,.08-.27.23-.27.23l-1,.24a1.77,1.77,0,0,1,.1.53c0,.16-.33.36-.46.45a4,4,0,0,1-.81.32Z"/><path class="cls-124" d="M71,181.76l-.08-.08L66.86,184s-4.38-.38-5.71-.7a2,2,0,0,0-1,0c-.43.13-1,.24-.9,1.22.09,1.27,2.7,1.5,5.18,1.46s3-.19,4.4-1a17.42,17.42,0,0,0,3-2.19Z"/><path class="cls-46" d="M62.83,176.11s1.13-.52,1.26.14-1.63,2.29-2.88,2.23l.07-1.54Z"/><path class="cls-46" d="M58.22,181.43s-2.1-2.79-.87-4.38a1.92,1.92,0,0,1,1.26-.49,1.4,1.4,0,0,1,1-1.13c.83-.23,2.15-2.13,3.57-.85,1.1,1-1.45,3.54-1.45,3.54Z"/><path class="cls-123" d="M58.23,181.41,58,183.08l2.46.51-.22-1.38s1.66.13,2-.75.43-3.81-1.51-4.5-1.89,2.25-1.89,2.25-.73-.64-1.1,0,0,1.06.7,1.34Z"/><polygon class="cls-29" points="56.8 216.27 56.64 217.7 57.78 217.65 57.71 216.26 56.8 216.27"/><path class="cls-125" d="M58.12,217.6s3.64,1.15,3.32,1.7-5-.9-5-.9l.17-.7Z"/><polygon class="cls-29" points="60.93 215.19 60.9 216.63 62.03 216.47 61.84 215.09 60.93 215.19"/><path class="cls-125" d="M62.37,216.39s3.72.82,3.46,1.39-5-.44-5-.44l.11-.71Z"/><path class="cls-126" d="M63.13,200.93c-.63-3.42-.89-13.49-4-10.9,0,0-1.83-.42-2,1.15a4.45,4.45,0,0,0-1.23,3.56c.64,4.1,1.17,11.62,1.17,11.62l-.8,10.19h2.21s1.58-12.94,1.35-15.38c0-.41,0-.9-.06-1.44.71,2.57,1.2,4.73,1.2,4.73l-.54,11.06,2.2-.21S63.57,203.35,63.13,200.93Z"/><path class="cls-127" d="M62.32,192.34a57.6,57.6,0,0,0-.49-6.44c-.32-1.75-1.2-2.45-2.63-3.28-.29-.17-.49-.14-1.2.22a6.6,6.6,0,0,0-1.64,1.47c-.54,1.07-.78,3.31-.68,6.74.08,3-.26,6.95,0,7.14a19.45,19.45,0,0,0,5.06.09c2-.34,2.26-.29,2.25-.51C62.91,195.94,62.44,194.16,62.32,192.34Z"/><path class="cls-123" d="M58,182.84s3.48,2.23,2.39.55l-.42-1-1.18-.29-.36.2Z"/><polygon class="cls-128" points="68.96 195.47 62.72 182.76 61.7 183.3 67.94 196.01 68.96 195.47"/><path class="cls-123" d="M63.16,189.94l.46-.32.66-1.06.2.41.74-.34.09-.55.45,0,.33.94a7.9,7.9,0,0,1-.64.89,6.56,6.56,0,0,1-1.83.74Z"/><path class="cls-129" d="M63.66,189.39l-2.35.84s-1.37-3.7-1.8-5.2a1.77,1.77,0,0,0-.5-.83,1.58,1.58,0,0,0-2.13.16c-.85.78-.44,2,1,4.48s1.86,3.37,2.76,3.66,3.73-2,3.73-2Z"/><path class="cls-130" d="M105.49,215.36a.41.41,0,0,1,0,.11v0l0,.09h0a.36.36,0,0,1-.07.1l0,0a.76.76,0,0,1-.09.09h0l-.12.09,0,0L105,216l0,0-.14.07,0,0-.23.09-7.72,2.67-.23.07-.35.09-.46.08-.29,0-.37,0H95l-.6,0h0l-.63,0h0a6,6,0,0,1-.61-.06h0l-.56-.1h0c-.18,0-.36-.09-.52-.15l-7.6-2.6-.12,0-.11,0-.1,0-.09,0-.08-.05-.09-.05-.06,0-.07-.06-.06,0-.05-.05,0-.07s0,0,0,0l0,0a.47.47,0,0,1,0-.16l0,10.5a.42.42,0,0,0,0,.16s0,0,0,.06l0,0,0,.06,0,.05.06.06,0,0,.09.07.06,0,.1.05.07,0,.13.06.09,0,.13,0h0l7.6,2.61.27.08.23.06h0l.19,0,.2,0,.17,0h0l.2,0,.2,0H95.1l.14,0,.23,0,.29,0h.08l.33-.06,0,0c.12,0,.23-.06.35-.09l.18-.05h0l7.72-2.68.22-.08h0l.06,0,.12-.05h0l0,0,.07,0,0,0,0,0,0,0,.09-.07h0l.06-.05,0,0,0,0v0l0-.07h0v0l0-.05V226h0a.25.25,0,0,0,0-.08h0Z"/><path class="cls-131" d="M105.49,215.36a.41.41,0,0,1,0,.11v0l0,.09h0a.36.36,0,0,1-.07.1l0,0a.76.76,0,0,1-.09.09h0l-.12.09,0,0L105,216l0,0-.14.07,0,0-.23.09-7.72,2.67-.23.07-.35.09-.46.08-.29,0-.37,0H95l-.6,0h0l-.63,0h0a6,6,0,0,1-.61-.06h0l-.56-.1h0c-.18,0-.36-.09-.52-.15l-7.6-2.6-.12,0-.11,0-.1,0-.09,0-.08-.05-.09-.05-.06,0-.07-.06-.06,0-.05-.05,0-.07s0,0,0,0l0,0a.47.47,0,0,1,0-.16l0,5a.47.47,0,0,0,0,.16s0,0,0,.05l0,0,0,.07,0,0,.06.06,0,0,.09.06.06,0,.1.06.07,0,.13.06.09,0,.13.05h0l7.6,2.6.27.08.23.06h0l.19,0,.2,0,.17,0h0l.2,0,.2,0h1.65l.23,0,.29,0,.08,0a1.61,1.61,0,0,0,.33-.06h0l.35-.09.18,0,0,0,7.72-2.67.22-.08h0l.06,0,.12-.06h0l0,0,.07,0,0,0,0,0h0l.09-.07h0l.06-.05,0,0,0,0h0a.35.35,0,0,0,0-.08h0v0l0-.05s0,0,0,0v0a.19.19,0,0,0,0-.08h0Z"/><path class="cls-132" d="M104.53,214.57,96.93,212a8.62,8.62,0,0,0-4.75,0l-7.72,2.67c-1.32.46-1.33,1.19,0,1.64l7.6,2.6a8.4,8.4,0,0,0,4.74,0l7.72-2.67C105.81,215.74,105.83,215,104.53,214.57Z"/><path class="cls-46" d="M119.6,181.27a5.34,5.34,0,0,1,.17-1.49l.55.16v.38Z"/><path class="cls-133" d="M119.48,199.24s-.48,8.61,1.1,8.94,2.56-9,2.56-9Z"/><path class="cls-133" d="M120.36,217.57l-.52-10.84,1.93-.75a31.55,31.55,0,0,1,.67,3.47,69.58,69.58,0,0,1-.73,7.77Z"/><path class="cls-125" d="M120.4,216.78s-3.57.35-3.39.92,4.75.14,4.75.14l0-.68Z"/><path class="cls-134" d="M120.29,185.82c-.89.77-2.92,4.62-2.92,4.62l-.79-.41-.5,2.34a2.16,2.16,0,0,0,3.18-.34c1.62-1.93,2.32-6.47,2.32-6.47A1.46,1.46,0,0,0,120.29,185.82Z"/><polygon class="cls-128" points="117.48 185.69 116.58 190.03 116.08 192.37 115.47 195.32 103.79 192.87 105.8 183.24 117.48 185.69"/><path class="cls-133" d="M112.72,191s-1.33-.85-1.38-.65.61.65.61.65-1.62-.15-1.47.11,1.32.3,1.32.3-1.47.15-1.37.35,1.32,0,1.32,0-1,.31-.91.46.91-.1.91-.1-.71.35-.56.5,1.47-.66,1.47-.66l.35-.45Z"/><path class="cls-46" d="M128.49,188.31c1.15-.19.67-2,.18-2.57-.71-.8-2.85-1.17-3.16-2.26a4.51,4.51,0,0,1-.1-1.1,6.91,6.91,0,0,0-.17-1.28,4.5,4.5,0,0,0-1.15-2,1.83,1.83,0,0,0-1.86-.61,3.62,3.62,0,0,0-2.62,2.93,3.5,3.5,0,0,0,.67,2.53c.2.34-.19.77,0,1.84a9.61,9.61,0,0,0,1,2.9,5.32,5.32,0,0,0,2.53,2.87,4.85,4.85,0,0,0,3.84-.25c1-.52,1.84-1.51,1.33-2.69-.11-.25-.25-.43-.54-.41"/><path class="cls-123" d="M123.22,183.71l.29,1.26-1.69.54-.59-1.41s-1.19-.33-1.48-1a2.65,2.65,0,0,1,1.78-3.86c1.82-.5,1.58,2.28,1.58,2.28s.37-.57.64-.42c.6.34-.15,1.07-.61,1.17Z"/><path class="cls-133" d="M124.76,207.63a47.49,47.49,0,0,0,1-7.14l-3.8-.26s0,5.85.79,8.27l.86,10.42,1.33-.4a70.72,70.72,0,0,0,.47-7.78A27,27,0,0,0,124.76,207.63Z"/><path class="cls-125" d="M123.66,218.13s-3.55.47-3.35,1,4.75,0,4.75,0l0-.68Z"/><path class="cls-135" d="M125.27,195l-1-2.59,1.56-7.07-1.53-1.13a15.76,15.76,0,0,0-2.72.77,2.91,2.91,0,0,0-1.35,1c-.73,1.25-.16,6.19-.16,6.19l0,2.33-3.06,8.26c6.61,1.09,10.58.11,10.58.11Z"/><path class="cls-136" d="M125.67,184.8a1.2,1.2,0,0,0-1.76-.48,2.29,2.29,0,0,0-.87.74c-1,1.29-4.9,4.88-4.9,4.88l-5.56.81v.14l0,1.1,4.12.24c2,.11,2.82-.44,5.19-2.22S126.52,186.07,125.67,184.8Z"/><path class="cls-123" d="M121.6,185s-.65.74-.34,1,2.13-1.59,2.13-1.59l-.89-.36-.63.34Z"/><path class="cls-46" d="M121.55,180.21h-1.22a2,2,0,0,1-.7-.08.69.69,0,0,1-.44-.51,1,1,0,0,1,.24-.61,1.93,1.93,0,0,1,.22-.28,1.63,1.63,0,0,1,.9-.35,7.37,7.37,0,0,1,1.24-.07,5.34,5.34,0,0,1,1.39.16c.34.14.34.38.52.71a1,1,0,0,1,0,1,1.2,1.2,0,0,0-.21.34c0,.06,0,.13,0,.19a2.83,2.83,0,0,1-.34.75s-.42-.24-.48-.29a1.61,1.61,0,0,1-.38-.44c-.07-.13-.06-.31-.14-.42S121.72,180.21,121.55,180.21Z"/><polygon class="cls-137" points="59.99 172.4 55.27 165.83 54.21 164.36 58.41 163.85 58.78 165.83 59.99 172.4"/><polygon class="cls-138" points="58.78 165.83 55.27 165.83 54.21 164.36 58.41 163.85 58.78 165.83"/><rect class="cls-139" x="52.03" y="152.54" width="11.93" height="11.93"/><ellipse class="cls-140" cx="61.47" cy="157.58" rx="0.62" ry="0.54"/><path class="cls-140" d="M61.31,157.58a.54.54,0,0,1,.39-.5.56.56,0,1,0-.23,1,.85.85,0,0,0,.23,0A.54.54,0,0,1,61.31,157.58Z"/><path class="cls-141" d="M62.6,160.65l-.5-.25a.31.31,0,0,1-.17-.27v-.47H61v.47a.29.29,0,0,1-.17.27l-.5.25a.48.48,0,0,0-.25.42V162a.16.16,0,0,0,.15.16H62.7a.16.16,0,0,0,.16-.16v-.91A.47.47,0,0,0,62.6,160.65Z"/><path class="cls-142" d="M61.47,160.28a1.27,1.27,0,0,0,.47-.09s0,0,0-.06v-.47H61v.53A1.19,1.19,0,0,0,61.47,160.28Z"/><circle class="cls-140" cx="61.47" cy="158.58" r="1.08"/><path class="cls-140" d="M62.54,158.43a1.08,1.08,0,0,0-.83-.9,1,1,0,0,0-.24,0,.5.5,0,0,0-.22.94l0,0,.54,1,.29,0A1.12,1.12,0,0,0,62.54,158.43Z"/><path class="cls-141" d="M61.47,160h0a.93.93,0,0,1-.92-.8.15.15,0,0,1,.08-.16,1.23,1.23,0,0,0,.27-.19,1,1,0,0,0,.22-.28.15.15,0,0,1,.17-.08,2.7,2.7,0,0,1,1.05.54.17.17,0,0,1,0,.12A.93.93,0,0,1,61.47,160Z"/><path class="cls-143" d="M62.34,159a2.7,2.7,0,0,0-1.05-.54.15.15,0,0,0-.17.08,1.05,1.05,0,0,1-.15.21h0a.46.46,0,0,1-.07.07,1.23,1.23,0,0,1-.27.19.15.15,0,0,0-.08.16.91.91,0,0,0,.78.79.67.67,0,0,1-.33-.6v-.22l.11-.09a.92.92,0,0,0,.22-.26,2.39,2.39,0,0,1,.81.44l.18.17a.89.89,0,0,0,.07-.28A.17.17,0,0,0,62.34,159Z"/><path class="cls-144" d="M62.84,161v0a.41.41,0,0,0-.05-.09v0l0,0h0a.56.56,0,0,0-.16-.14l-.35-.17a1,1,0,0,1-.78.42.93.93,0,0,1-.78-.42l-.36.17a.48.48,0,0,0-.25.42V162a.16.16,0,0,0,.15.16H62.7a.16.16,0,0,0,.16-.16v-.91A.36.36,0,0,0,62.84,161Z"/><path class="cls-140" d="M53.59,158.12v.11a1.32,1.32,0,0,0,.06.39l.25.74h.46v-1.7h-.31A.46.46,0,0,0,53.59,158.12Z"/><path class="cls-140" d="M55.7,158.44l-.26.92-1.23-1.09a.3.3,0,0,1-.31-.3h0a.47.47,0,0,1,.46-.47h1.08a.31.31,0,0,1,.31.31v.29A1,1,0,0,1,55.7,158.44Z"/><path class="cls-145" d="M55.88,160.41l-.75-.22-.46.31-.46-.31-.75.22a.47.47,0,0,0-.31.3h0l0,.06V162a.16.16,0,0,0,.15.16h2.78a.16.16,0,0,0,.16-.16v-1.13A.46.46,0,0,0,55.88,160.41Z"/><rect class="cls-141" x="54.21" y="159.82" width="0.93" height="0.68"/><path class="cls-146" d="M54.21,160.1a1.22,1.22,0,0,0,.92,0v-.28h-.92Z"/><polygon class="cls-147" points="54.83 162.14 54.52 162.14 54.59 160.5 54.75 160.5 54.83 162.14"/><path class="cls-141" d="M54.67,160h0a.93.93,0,0,1-.93-.92v-.18a.32.32,0,0,1,.09-.22l.28-.28a.29.29,0,0,1,.23-.09,1.79,1.79,0,0,1,1.17.35.31.31,0,0,1,.09.22v.2A.93.93,0,0,1,54.67,160Z"/><path class="cls-143" d="M54.21,158.9a.3.3,0,0,1,.33-.3,3.37,3.37,0,0,1,1.05.2.3.3,0,0,0-.08-.17,1.79,1.79,0,0,0-1.17-.35h0a.29.29,0,0,0-.23.09l-.28.28a.32.32,0,0,0-.09.22v.18a1,1,0,0,0,.67.89,1,1,0,0,1-.2-.58Z"/><path class="cls-147" d="M54.75,160.81h-.16a.07.07,0,0,1-.07-.08v-.23h.31v.23A.08.08,0,0,1,54.75,160.81Z"/><path class="cls-147" d="M54.67,160.5l-.26.2a.09.09,0,0,1-.14,0l-.23-.43.09-.14a.07.07,0,0,1,.1,0Z"/><path class="cls-147" d="M54.67,160.5l.26.2a.09.09,0,0,0,.14,0l.24-.43-.1-.14a.06.06,0,0,0-.09,0Z"/><path class="cls-148" d="M58.07,160.28a5.19,5.19,0,0,0,2.21-.56.17.17,0,0,0,.09-.17c0-.28-.18-1.14-.29-2.67a2,2,0,0,0-4,0c-.11,1.53-.24,2.39-.29,2.67a.16.16,0,0,0,.08.17A5.29,5.29,0,0,0,58.07,160.28Z"/><path class="cls-148" d="M60.28,159.72a.16.16,0,0,0,.09-.16c0-.29-.18-1.15-.29-2.68a2,2,0,0,0-2-2h-.23a.8.8,0,0,0-.16,1.56h0l.31,3.83h0A5.18,5.18,0,0,0,60.28,159.72Z"/><path class="cls-141" d="M55.44,162v-.83a.63.63,0,0,1,.37-.57l1.3-.57a.32.32,0,0,0,.19-.28v-.68h1.54v.68A.3.3,0,0,0,59,160l1.3.57a.63.63,0,0,1,.37.57V162a.16.16,0,0,1-.16.16H55.6A.16.16,0,0,1,55.44,162Z"/><path class="cls-146" d="M57.3,159.49a1.83,1.83,0,0,0,1.54,0v-.44H57.3v.44Z"/><path class="cls-141" d="M59.46,157.19a3.57,3.57,0,0,0-1.76-.74.32.32,0,0,0-.33.17,2,2,0,0,1-.72.8.31.31,0,0,0-.13.25v.09A1.58,1.58,0,0,0,58,159.35a1.53,1.53,0,0,0,1.64-1.54v-.27A.47.47,0,0,0,59.46,157.19Z"/><path class="cls-143" d="M59.54,157.3a.44.44,0,0,0-.08-.11,3.57,3.57,0,0,0-1.76-.74.32.32,0,0,0-.33.17,1.46,1.46,0,0,1-.09.16,2.27,2.27,0,0,1-.62.64.29.29,0,0,0-.14.25v.09a1.58,1.58,0,0,0,1.36,1.58,1.56,1.56,0,0,1-.43-1.07v-1a.3.3,0,0,1,.28-.3A3.42,3.42,0,0,1,59.54,157.3Z"/><path class="cls-149" d="M60.69,161.15a.57.57,0,0,0,0-.13v0l0-.12h0a.41.41,0,0,0-.07-.11h0a.68.68,0,0,0-.23-.18l-1-.42a1.39,1.39,0,0,1-2.6,0l-1,.42a.68.68,0,0,0-.23.18h0a.39.39,0,0,0-.06.11h0l0,.12v0a.59.59,0,0,0,0,.13V162a.16.16,0,0,0,.16.16h4.94a.16.16,0,0,0,.16-.16v-.83Z"/><path class="cls-17" d="M272.94,279.86a3.76,3.76,0,0,1-3-.63,1.08,1.08,0,0,1,.75-.41c2.62-.55,5.45,0,8-.88a11.23,11.23,0,0,0-2.34-.56c-.12-.2.13-.42.35-.5,1.7-.63,3.54.21,5.34.41.65.07,1.31.06,2,.17s2.82.72,2.1,1.32-3.08.32-3.95.39Z"/><path class="cls-46" d="M281.46,263.76l-.12.09c-.48.48-1,1-1.41,1.49a2.85,2.85,0,0,0-.77,1.63c0,.08,0,.19.1.21s.1,0,.14-.06a3.77,3.77,0,0,0,.93-.94,4.23,4.23,0,0,1,.24-.4,2.67,2.67,0,0,1,.42-.4,2.07,2.07,0,0,0,.74-.94C281.78,264.26,281.85,263.62,281.46,263.76Z"/><path class="cls-104" d="M282,265.12a6.06,6.06,0,0,0-.16-.61c0-.09-.07-.19-.15-.22s-.19,0-.27.07a1.76,1.76,0,0,0-.63,2.13,3.71,3.71,0,0,0,.39,1,1.34,1.34,0,0,0,.87.62,2,2,0,0,0,1.53-.66l1-.85a1.06,1.06,0,0,0,.49-.73c0-.36-.33-.62-.65-.77a3,3,0,0,0-2.3-.19c-.53.18-1.38.2-1.44.81a1.21,1.21,0,0,0,0,.19"/><path class="cls-104" d="M287.49,264.93c-.08.46.62,4.73.62,4.73L285.94,278l.85-.78,3.72-7s1-4.29.75-6.07C291.15,263.25,287.49,264.93,287.49,264.93Z"/><path class="cls-150" d="M287.25,265.08l.24,1.4a5.81,5.81,0,0,1,3.8-.39l0-3.69-2.74,0Z"/><path class="cls-151" d="M283.53,261.52c-.23.46-1.45,3.41-1.45,3.41a2.64,2.64,0,0,0,2.85,1.55,9.16,9.16,0,0,0,2.32-1.4l1-1.39,1.17-.54.23-.78Z"/><path class="cls-104" d="M280.91,256.23a3.77,3.77,0,0,0-1.09,1.09,5.13,5.13,0,0,1-.39.69c-.52.65-1.2.55-1.5,1.33.12.13.45-.39.55-.2-.16.19-.62.66-.51.88.16.05.49-.62.76-.7-.2.35-.55.91-.45,1.05s.49-.84.86-.86c-.09.42-.49.82-.35.93.33.08.42-.85,1-1,.5.37-.08.88.13,1s.51-.79.41-1.24-.28-.46-.16-.79a4.5,4.5,0,0,1,1.84-1.61c.52-.25,2-.87,2.52-1s1.72-2.58.51-2.87C284.19,253.57,281.55,255.75,280.91,256.23Z"/><path class="cls-104" d="M298.89,247.84a3.62,3.62,0,0,0,1.19-.88,2.58,2.58,0,0,1,.45-.57,2.78,2.78,0,0,1,.88-.15c.14,0,.57.06.56.21s-.53-.08-.55.07c.24,0,.74,0,.72.11s-.44,0-.66.1c.16.08.74,0,.68.17s-.21.08-.31.06c-.37-.09-.6.21-.54.3.5.1.8-.32.87-.22,0,.32-.35.5-.65.61a29,29,0,0,0-7.77,4.91,4.7,4.7,0,0,1-.2-.75,2.12,2.12,0,0,1,.12-.83,1.88,1.88,0,0,1,1.21-1.09C296.25,249.27,297.57,248.55,298.89,247.84Z"/><path class="cls-152" d="M284.79,253c-.38.34-.91.38-1.06.92s.61,1.43.66,2a2.36,2.36,0,0,1,1.39-.59c.48,2.22-.93,4.37-2.26,6.22a7.77,7.77,0,0,0,7.17,1.6,1,1,0,0,0,.47-.25.92.92,0,0,0,.19-.56l.52-4a11,11,0,0,1,1.21-4.42,16.32,16.32,0,0,0,1.12-1.76,1.88,1.88,0,0,0-.11-2,5.63,5.63,0,0,1-3.43.4c-.07.67-.17,1.65-.84,1.75-1.05.14-1-.84-1.79-.91S285.35,252.51,284.79,253Z"/><path class="cls-153" d="M290.34,252.31a2.1,2.1,0,0,0,.28-.92,2.16,2.16,0,0,0-.18-1.33l-.06-.06a.15.15,0,0,0-.15.05c-.47.38-1.36,1.07-1.33,1.75A.79.79,0,0,0,290.34,252.31Z"/><path class="cls-104" d="M287.11,249.39a4.25,4.25,0,0,0,1,2.24.88.88,0,0,0,.61.39,1,1,0,0,0,.45-.19,4,4,0,0,0,.81-.66,3,3,0,0,0,.4-2.83,1.89,1.89,0,0,0-2.3-1.17C287.34,247.47,287.05,248.68,287.11,249.39Z"/><path class="cls-46" d="M286.16,249.73a.74.74,0,0,1-.11-.41c0-.39.28-.85.67-.8a3.06,3.06,0,0,1,0-1,1,1,0,0,1,.58-.77.62.62,0,0,1,.81.35,1.82,1.82,0,0,1,.7-1,.94.94,0,0,1,1.13.22,1,1,0,0,1,.06,1.17,5.32,5.32,0,0,1,.7,1.31,1.56,1.56,0,0,1-.21,1.73,3.23,3.23,0,0,1-.05-1.8.59.59,0,0,0,0-.37.22.22,0,0,0-.32-.11c-.09.07-.09.22-.15.32-.3.55-.79-.24-.88-.49C288.65,248.58,286.92,250.81,286.16,249.73Z"/><path class="cls-46" d="M288.53,275.58c.2.11.16.41.08.63a5.28,5.28,0,0,1-2.14,2.42c-.19.11-.43.21-.61.08-.55-.42.64-1.43.91-1.71S288,275.28,288.53,275.58Z"/><circle class="cls-29" cx="278.9" cy="272.47" r="2.11"/></g></g></svg>