<svg xmlns="http://www.w3.org/2000/svg" xmlns:xlink="http://www.w3.org/1999/xlink" viewBox="0 0 1693.98 746.68"><defs><style>.cls-1{fill:url(#linear-gradient);}.cls-2{fill:url(#linear-gradient-2);}.cls-3{fill:#d8761d;}.cls-4{fill:#e56e3e;opacity:0.29;}.cls-5{fill:url(#linear-gradient-3);}.cls-6{fill:#e5ac38;}.cls-7{fill:url(#linear-gradient-4);}.cls-8{fill:url(#linear-gradient-5);}.cls-9{fill:url(#linear-gradient-6);}.cls-10,.cls-27{fill:#fff9e7;}.cls-11{opacity:0.23;}.cls-12,.cls-13{fill:#3e4e51;}.cls-13{opacity:0.42;}.cls-14,.cls-17{opacity:0.35;}.cls-14{fill:url(#linear-gradient-7);}.cls-15{fill:url(#linear-gradient-8);}.cls-16{fill:url(#linear-gradient-9);}.cls-18,.cls-19,.cls-20,.cls-21,.cls-22,.cls-23,.cls-24,.cls-25{fill:none;stroke-miterlimit:10;stroke-width:4px;}.cls-18{stroke:url(#linear-gradient-10);}.cls-19,.cls-23{stroke-dasharray:5.97 5.97;}.cls-19{stroke:url(#linear-gradient-11);}.cls-20{stroke:url(#linear-gradient-12);}.cls-21,.cls-25{stroke-dasharray:6.08 6.08;}.cls-21{stroke:url(#linear-gradient-13);}.cls-22{stroke:url(#linear-gradient-14);}.cls-23{stroke:url(#linear-gradient-15);}.cls-24{stroke:url(#linear-gradient-16);}.cls-25{stroke:url(#linear-gradient-17);}.cls-26{fill:url(#linear-gradient-18);}.cls-27{opacity:0.44;}.cls-28{fill:#ddd6ff;}.cls-29{fill:#262626;}.cls-30{fill:#f7d3a9;}.cls-31{fill:url(#linear-gradient-19);}.cls-32{fill:url(#linear-gradient-20);}.cls-33{fill:url(#linear-gradient-21);}.cls-34{fill:#d69e43;}.cls-35{fill:url(#linear-gradient-22);}.cls-36{fill:url(#linear-gradient-23);}.cls-37{fill:url(#linear-gradient-24);}.cls-38{fill:#ff38f4;}.cls-39{fill:#d3ab84;}.cls-40{fill:url(#linear-gradient-25);}.cls-41{fill:url(#linear-gradient-26);}.cls-42{fill:url(#linear-gradient-27);}.cls-43{fill:#fce300;opacity:0.89;}</style><linearGradient id="linear-gradient" x1="-3.58" y1="567.56" x2="1694.7" y2="567.56" gradientUnits="userSpaceOnUse"><stop offset="0" stop-color="#f7942f" stop-opacity="0"/><stop offset="0.5" stop-color="#f7c700"/><stop offset="1" stop-color="#f7942f" stop-opacity="0"/></linearGradient><linearGradient id="linear-gradient-2" x1="511.74" y1="252.58" x2="511.74" y2="575.62" gradientTransform="translate(-135.35)" gradientUnits="userSpaceOnUse"><stop offset="0" stop-color="#fcd02f"/><stop offset="1" stop-color="#ff6e27"/></linearGradient><linearGradient id="linear-gradient-3" x1="361.96" y1="208.32" x2="458.38" y2="560.77" gradientTransform="matrix(-1, 0, 0, 1, 743.65, 0)" gradientUnits="userSpaceOnUse"><stop offset="0" stop-color="#ff6e27"/><stop offset="1" stop-color="#fcd02f"/></linearGradient><linearGradient id="linear-gradient-4" x1="-673.61" y1="257.05" x2="-673.61" y2="580.1" gradientTransform="matrix(-1, 0, 0, 1, 743.65, 0)" xlink:href="#linear-gradient-2"/><linearGradient id="linear-gradient-5" x1="-719.39" y1="212.8" x2="-622.97" y2="565.25" xlink:href="#linear-gradient-3"/><linearGradient id="linear-gradient-6" x1="401" y1="314.22" x2="1298.77" y2="314.22" gradientUnits="userSpaceOnUse"><stop offset="0" stop-color="#ffd111"/><stop offset="1" stop-color="#ff6100"/></linearGradient><linearGradient id="linear-gradient-7" x1="483.52" y1="456.76" x2="1073" y2="456.76" xlink:href="#linear-gradient-6"/><linearGradient id="linear-gradient-8" x1="849.89" y1="693.46" x2="849.89" y2="719.94" gradientTransform="matrix(1, 0, 0, -1, 0, 1351.69)" xlink:href="#linear-gradient-6"/><linearGradient id="linear-gradient-9" x1="849.89" y1="710.22" x2="849.89" y2="580.62" gradientTransform="matrix(1, 0, 0, 1, 0, 0)" xlink:href="#linear-gradient-2"/><linearGradient id="linear-gradient-10" x1="629.29" y1="139.95" x2="1062.5" y2="324.77" xlink:href="#linear-gradient-6"/><linearGradient id="linear-gradient-11" x1="596.76" y1="216.21" x2="1029.97" y2="401.02" xlink:href="#linear-gradient-6"/><linearGradient id="linear-gradient-12" x1="564.97" y1="290.72" x2="998.18" y2="475.54" xlink:href="#linear-gradient-6"/><linearGradient id="linear-gradient-13" x1="602.62" y1="202.48" x2="1035.83" y2="387.29" xlink:href="#linear-gradient-6"/><linearGradient id="linear-gradient-14" x1="639.24" y1="116.62" x2="1072.46" y2="301.44" xlink:href="#linear-gradient-6"/><linearGradient id="linear-gradient-15" x1="671.78" y1="40.37" x2="1104.99" y2="225.18" xlink:href="#linear-gradient-6"/><linearGradient id="linear-gradient-16" x1="703.56" y1="-34.15" x2="1136.78" y2="150.67" xlink:href="#linear-gradient-6"/><linearGradient id="linear-gradient-17" x1="665.92" y1="54.1" x2="1099.13" y2="238.91" xlink:href="#linear-gradient-6"/><linearGradient id="linear-gradient-18" x1="465.55" y1="174.67" x2="1003.86" y2="342.96" gradientTransform="matrix(0.99, 0.14, -0.16, 0.84, 60.4, -54.35)" xlink:href="#linear-gradient-6"/><linearGradient id="linear-gradient-19" x1="1054.04" y1="313.04" x2="1109.19" y2="368.99" gradientUnits="userSpaceOnUse"><stop offset="0" stop-color="#008fd3"/><stop offset="0.5" stop-color="#00c8ff"/><stop offset="1" stop-color="#008fd3"/></linearGradient><linearGradient id="linear-gradient-20" x1="1049.33" y1="758.37" x2="1104.37" y2="507.42" gradientUnits="userSpaceOnUse"><stop offset="0" stop-color="#fcff2f"/><stop offset="1" stop-color="#ff9c27"/></linearGradient><linearGradient id="linear-gradient-21" x1="1003.55" y1="427.84" x2="1148.11" y2="427.84" xlink:href="#linear-gradient-19"/><linearGradient id="linear-gradient-22" x1="563.39" y1="393.88" x2="689.6" y2="393.88" gradientUnits="userSpaceOnUse"><stop offset="0" stop-color="#a9ff15"/><stop offset="1" stop-color="#0094ff"/></linearGradient><linearGradient id="linear-gradient-23" x1="584.89" y1="326.71" x2="640.22" y2="326.71" xlink:href="#linear-gradient-22"/><linearGradient id="linear-gradient-24" x1="557.25" y1="535.07" x2="653.26" y2="535.07" gradientUnits="userSpaceOnUse"><stop offset="0" stop-color="#ff46ff"/><stop offset="1" stop-color="#f2a5c7"/></linearGradient><linearGradient id="linear-gradient-25" x1="716.6" y1="243.88" x2="765.79" y2="243.88" gradientUnits="userSpaceOnUse"><stop offset="0" stop-color="#fcd92f"/><stop offset="1" stop-color="#fff"/></linearGradient><linearGradient id="linear-gradient-26" x1="939.56" y1="123.63" x2="988.75" y2="123.63" xlink:href="#linear-gradient-19"/><linearGradient id="linear-gradient-27" x1="652.12" y1="193.43" x2="680.42" y2="193.43" xlink:href="#linear-gradient-19"/></defs><title>03</title><g id="Layer_2" data-name="Layer 2"><g id="Layer_1-2" data-name="Layer 1"><rect class="cls-1" y="560.77" width="1693.98" height="13.58"/><path class="cls-2" d="M339.69,469h-.08c9.08-9.48,4.81-20,3.17-23.15h0c-.32-.62-.55-1-.55-1h.08a38.14,38.14,0,0,1,7.06-44.28c6.35-8.42,1.54-19.6,1.54-19.6h0a27,27,0,1,1,50.95,0h0s-4.81,11.18,1.55,19.6a38.12,38.12,0,0,1,7.06,44.27h0l-.12.19q-.31.63-.66,1.26c-1.7,3.51-5,12.87,2.51,21.65.23.28.47.54.69.82.07.07.12.15.19.22h0a47.07,47.07,0,1,1-73.41,0Z"/><path class="cls-3" d="M362.56,494.43l11.52,11.41V465.76l-14.15-14a1.87,1.87,0,1,1,2.63-2.66l11.52,11.4V405.22a1.87,1.87,0,0,1,3.74,0v33.31L389,427.39a1.87,1.87,0,1,1,2.64,2.65l-13.85,13.77v40.25l12.39-12.52a1.87,1.87,0,0,1,2.66,2.63l-15.05,15.2V596.15a1.87,1.87,0,1,1-3.74,0v-85l-14.15-14a1.86,1.86,0,0,1,0-2.64A1.88,1.88,0,0,1,362.56,494.43Z"/><path class="cls-4" d="M427.19,598.68H351.26a.66.66,0,0,1,0-1.32h75.93a.66.66,0,0,1,0,1.32Z"/><path class="cls-5" d="M318.3,514.33h.05a11.16,11.16,0,0,1-1.81-13.23h0c.18-.35.31-.56.31-.56h0a21.79,21.79,0,0,0-4-25.31c-3.64-4.81-.89-11.21-.89-11.21h0a15.45,15.45,0,1,0-29.12,0h0s2.75,6.4-.88,11.21a21.81,21.81,0,0,0-4,25.3h0l.07.11c.12.24.24.48.38.72a11.13,11.13,0,0,1-1.44,12.38l-.39.46-.11.13h0a26.91,26.91,0,1,0,42,0Z"/><path class="cls-6" d="M305.23,528.84l-6.59,6.52v-22.9l8.09-8a1.07,1.07,0,1,0-1.5-1.52l-6.59,6.52v-31.6a1.07,1.07,0,1,0-2.14,0v19l-6.4-6.37a1.07,1.07,0,0,0-1.51,1.52l7.91,7.87v23l-7.08-7.15a1.07,1.07,0,0,0-1.52,1.5l8.6,8.69v61a1.07,1.07,0,0,0,2.14,0V538.37l8.09-8a1.07,1.07,0,1,0-1.5-1.52Z"/><path class="cls-4" d="M268.29,588.43h43.4a.38.38,0,1,0,0-.75h-43.4a.38.38,0,1,0,0,.75Z"/><path class="cls-7" d="M1454,473.51h.07c-9.07-9.48-4.81-19.95-3.16-23.14v0c.32-.61.54-1,.54-1l-.08,0a38.13,38.13,0,0,0-7-44.29c-6.36-8.41-1.55-19.6-1.55-19.6h0a27,27,0,1,0-51,0h0s4.82,11.19-1.54,19.6a38.14,38.14,0,0,0-7.06,44.28h0l.12.2c.22.42.43.84.66,1.25,1.7,3.51,5,12.88-2.51,21.66l-.69.81c-.07.08-.12.15-.19.22h0a47.07,47.07,0,1,0,73.41,0Z"/><path class="cls-3" d="M1431.1,498.91l-11.53,11.4V470.24l14.16-14a1.87,1.87,0,0,0-2.63-2.66L1419.57,465V409.7a1.87,1.87,0,1,0-3.74,0V443l-11.21-11.15a1.87,1.87,0,0,0-2.64,2.65l13.85,13.77v40.25L1403.44,476a1.87,1.87,0,0,0-2.66,2.62l15,15.21V600.62a1.87,1.87,0,1,0,3.74,0v-85l14.16-14a1.87,1.87,0,1,0-2.63-2.65Z"/><path class="cls-4" d="M1366.47,603.15h75.93a.66.66,0,1,0,0-1.32h-75.93a.66.66,0,1,0,0,1.32Z"/><path class="cls-8" d="M1399.66,518.8h0a11.18,11.18,0,0,1-1.81-13.24h0c.18-.36.31-.57.31-.57h0a21.79,21.79,0,0,0-4-25.31c-3.63-4.81-.88-11.2-.88-11.2h0a15.46,15.46,0,1,0-29.12,0h0s2.75,6.39-.89,11.2a21.79,21.79,0,0,0-4,25.31h0l.07.12c.12.24.25.48.38.71a11.13,11.13,0,0,1-1.44,12.38l-.39.47-.11.13h0a26.91,26.91,0,1,0,42,0Z"/><path class="cls-6" d="M1386.59,533.32l-6.59,6.52V516.93l8.09-8a1.08,1.08,0,0,0,0-1.52,1.06,1.06,0,0,0-1.51,0l-6.59,6.51V482.33a1.07,1.07,0,1,0-2.14,0v19l-6.41-6.37a1.07,1.07,0,0,0-1.51,1.51l7.92,7.87v23l-7.08-7.16a1.07,1.07,0,0,0-1.52,1.51l8.6,8.69v61a1.07,1.07,0,0,0,2.14,0V542.84l8.09-8a1.07,1.07,0,0,0-1.5-1.52Z"/><path class="cls-4" d="M1349.64,592.91H1393a.38.38,0,1,0,0-.76h-43.4a.38.38,0,0,0,0,.76Z"/><rect class="cls-9" x="401" width="897.77" height="628.44" rx="8" ry="8"/><rect class="cls-10" x="451.8" y="50.93" width="796.17" height="523.31" rx="8" ry="8"/><g class="cls-11"><rect class="cls-12" x="1093.4" y="117.41" width="123.35" height="102.97"/><rect class="cls-12" x="1093.4" y="254.63" width="123.35" height="66.93"/><rect class="cls-12" x="1093.4" y="355.8" width="123.35" height="102.97"/></g><g class="cls-11"><rect class="cls-12" x="483.52" y="117.41" width="123.35" height="102.97"/><rect class="cls-12" x="483.52" y="254.63" width="123.35" height="66.93"/></g><rect class="cls-13" x="483.52" y="65.46" width="733.23" height="33.63"/><rect class="cls-14" x="483.52" y="382.8" width="589.48" height="147.92"/><rect class="cls-15" x="760.11" y="628.44" width="179.55" height="44.89"/><path class="cls-16" d="M1039.52,711.24H660.25a37.93,37.93,0,0,1,37.93-37.93h303.41a37.93,37.93,0,0,1,37.93,37.93Z"/><g class="cls-17"><polyline class="cls-18" points="1059.99 320.98 1059.99 323.98 1056.99 323.98"/><line class="cls-19" x1="1051.01" y1="323.98" x2="647.75" y2="323.98"/><polyline class="cls-20" points="644.76 323.98 641.76 323.98 641.76 320.98"/><line class="cls-21" x1="641.76" y1="314.9" x2="641.76" y2="123.45"/><polyline class="cls-22" points="641.76 120.41 641.76 117.41 644.76 117.41"/><line class="cls-23" x1="650.74" y1="117.41" x2="1054" y2="117.41"/><polyline class="cls-24" points="1056.99 117.41 1059.99 117.41 1059.99 120.41"/><line class="cls-25" x1="1059.99" y1="126.49" x2="1059.99" y2="317.94"/></g><rect class="cls-26" x="639.97" y="208.26" width="399.86" height="192.69" transform="translate(-38.24 140) rotate(-9.32)"/><rect class="cls-27" x="759.26" y="231.63" width="239.27" height="24.49" transform="translate(-27.89 145.51) rotate(-9.32)"/><rect class="cls-27" x="671.65" y="346" width="344.94" height="24.49" transform="translate(-46.86 141.39) rotate(-9.32)"/><rect class="cls-27" x="768.48" y="291.2" width="157.01" height="24.49" transform="translate(-37.95 141.13) rotate(-9.32)"/><rect class="cls-27" x="660.5" y="262.81" width="77.12" height="76.8" transform="translate(-39.54 117.15) rotate(-9.32)"/><polygon class="cls-28" points="1087.3 664.21 1092.13 671.99 1098.18 669.11 1092.74 660.61 1087.3 664.21"/><path class="cls-29" d="M1115.07,691.37s-27-6.37-31.26-3.12,31.52,8,31.52,8Z"/><path class="cls-30" d="M1014,383.67s.21-13.57-.59-13.81c-2.32-.7-2.84,6.29-2.84,6.29s-4.16-13.44-6.13-12.82c-1.21.37.41,8.09.41,8.09s-3.47-6.22-5.18-5.83,1.84,8.7,1.84,8.7-3-4-4.56-3.51c-1.06.34,9.73,18.7,9.73,18.7Z"/><path class="cls-31" d="M1048.58,278.68s17,43,19.23,49.78S1117,367.67,1117,367.67l-23.12,10.58-45.25-41.94-10.19-57.63Z"/><path class="cls-32" d="M1071.21,488s-43,52-21.5,113.16,36,67.59,36,67.59l12.46-6.52s-24-57.24-25-78.09c-.94-19,32.12-63.32,32.12-63.32l-6.7,168.52,15.86,2s42.35-188.66,37.82-203.37S1128.92,451.8,1071.21,488Z"/><path class="cls-33" d="M1061.88,416.73l9.33,71.28,76.9-9L1117,367.67l-23.12,3.71-16.46,1.92c-9.36,1.1-15.21,2.79-22,9.33l-26.83,30.67-13.3-32-11.71,5.86s9.58,58.19,24.66,52.23C1038.52,435.34,1061.88,416.73,1061.88,416.73Z"/><path class="cls-30" d="M1066.38,324l-6.53,22.46a9.4,9.4,0,0,0,6.44,11.66l3,.84V375h13.64a8.71,8.71,0,0,0,8.71-8.71V329.71Z"/><path class="cls-29" d="M1079.34,360.33c-2.51-1.83-6.23-5.3-6.13-9.72,0,0,9.53-.27,7-6.89-1.58-4.1-7-.84-7-.84s2.17-8.24.83-10.84c0,0-16.36,0-13.71-9.67,0,0,4.55-4.13,14.84-4.71s16,16.81,16,16.81l-8.67,24.88A2,2,0,0,1,1079.34,360.33Z"/><path class="cls-30" d="M1038.72,278.68s-8.59-10.51-8.12-11.19c1.38-2,6.14,3.16,6.14,3.16s-5.1-13.11-3.17-13.86c1.18-.45,4.71,6.6,4.71,6.6s-1.15-7,.44-7.78,4,8,4,8-.14-5,1.39-5.59c1-.39,4,20.7,4,20.7Z"/><path class="cls-34" d="M1091.81,360.81s.15,0,.35.11a1.44,1.44,0,0,1,.46.9,12.22,12.22,0,0,1-.21,3.46,13.71,13.71,0,0,1-1.76,4.84,9.56,9.56,0,0,1-2,2.36,9.26,9.26,0,0,1-2.94,1.62,37.86,37.86,0,0,1-11.14,1.65c-2.88,0-4.64-.35-4.63-.49s1.78-.15,4.6-.35a48.67,48.67,0,0,0,10.77-1.94,8.43,8.43,0,0,0,4.46-3.45,14.46,14.46,0,0,0,1.86-4.42,18.86,18.86,0,0,0,.57-3.23A1.78,1.78,0,0,0,1091.81,360.81Z"/><path class="cls-29" d="M1063.81,329.86c-1.61-1.42-3.08-2.65-3.83-4.67s.24-7.35,2.06-8.49c2.12-1.32,4.83-.15,7.31.21,3.71.52,7.39-.93,11.12-1.33s8.26.82,9.41,4.39c.24.73.43,1.65,1.17,1.87a2.7,2.7,0,0,0,1,0c2.89-.27,4.92,3.12,4.75,6s-1.67,5.54-2.34,8.36c-1.47,6.19,1.11,13.11-1.6,18.86-2.14,4.53-8.87,8.53-13.5,5.27l5.93-26.19Z"/><path class="cls-29" d="M1098.18,669.11s-25.35,11.23-26.79,16.41,29.95-12.67,29.95-12.67Z"/><path class="cls-12" d="M1197.09,746.68c-.81.16-11.48-49.16-23.84-110.16s-21.72-110.59-20.92-110.75,11.48,49.14,23.85,110.16S1197.9,746.51,1197.09,746.68Z"/><path class="cls-12" d="M1233.57,746.68c-.81.16-11.49-49.16-23.85-110.16S1188,525.93,1188.81,525.77s11.48,49.14,23.84,110.16S1234.37,746.51,1233.57,746.68Z"/><rect class="cls-12" x="1087.3" y="505.01" width="109.79" height="20.76"/><path class="cls-12" d="M1136.69,515.44c.81.14-7.48,52-18.53,115.87s-20.65,115.51-21.46,115.37,7.48-52,18.52-115.88S1135.87,515.3,1136.69,515.44Z"/><path class="cls-12" d="M1107.3,515.44c.81.14-7.48,52-18.53,115.87s-20.65,115.51-21.46,115.37,7.48-52,18.52-115.88S1106.48,515.3,1107.3,515.44Z"/><polygon class="cls-12" points="1171.02 618 1207.5 618 1209.2 626.42 1172.73 626.42 1171.02 618"/><path class="cls-12" d="M1101.34,723.61c.12.82-6.5,2.45-14.78,3.66s-15.1,1.52-15.22.7,6.5-2.45,14.79-3.66S1101.22,722.79,1101.34,723.61Z"/><path class="cls-12" d="M1104.46,704.41c.12.81-6.5,2.45-14.78,3.66s-15.09,1.52-15.21.7,6.49-2.45,14.78-3.66S1104.34,703.59,1104.46,704.41Z"/><path class="cls-12" d="M1107.74,682.1c.12.81-6.5,2.46-14.78,3.66s-15.1,1.52-15.22.7,6.5-2.45,14.79-3.66S1107.62,681.28,1107.74,682.1Z"/><path class="cls-12" d="M1111.69,659.79c.12.82-6.49,2.46-14.78,3.66s-15.09,1.52-15.21.7,6.5-2.45,14.78-3.65S1111.57,659,1111.69,659.79Z"/><path class="cls-12" d="M1114.39,640c.12.82-6.5,2.46-14.78,3.66s-15.09,1.52-15.21.71,6.49-2.46,14.78-3.67S1114.27,639.17,1114.39,640Z"/><path class="cls-12" d="M1119.46,620c.11.81-6.5,2.45-14.78,3.66s-15.1,1.52-15.22.7,6.5-2.46,14.79-3.66S1119.34,619.21,1119.46,620Z"/><path class="cls-12" d="M1122.74,598.37c.11.81-6.51,2.45-14.79,3.66s-15.09,1.52-15.21.7,6.5-2.45,14.78-3.66S1122.62,597.55,1122.74,598.37Z"/><path class="cls-12" d="M1126.69,574.61c.12.82-6.5,2.45-14.78,3.66s-15.09,1.52-15.21.7,6.5-2.45,14.78-3.66S1126.57,573.79,1126.69,574.61Z"/><path class="cls-12" d="M1131.69,548c.12.82-6.5,2.46-14.78,3.67s-15.1,1.52-15.21.7,6.49-2.46,14.78-3.66S1131.57,547.19,1131.69,548Z"/><polygon class="cls-30" points="647.44 501.06 640.75 637.01 621.29 727.77 612.16 725.26 619.79 634.47 604.57 540.93 591.03 628.12 560.96 728.12 552.92 728.4 567.33 628.86 563.38 507.69 647.44 501.06"/><path class="cls-35" d="M676.14,272.73l-9,69.62-43.38,41.88-38.89.57-14.11,24.52,5.66,22.19a74.7,74.7,0,0,1-4.06,48.72l-9,27.46,85,9.78C651.14,453,649.84,447.7,639.3,411l50.16-65,.14-75.75Z"/><path class="cls-36" d="M640.22,270.28c-4.22,2.31-31.47,71.9-31.47,71.9l1.57,44.5-25.43,4.62v-51l44.42-78.2Z"/><path class="cls-30" d="M618.14,341.78l7.77,20.06a8.64,8.64,0,0,1-5,11.2l-2.64,1,1.27,14.71-20.48,1.77-3.6-41.5Z"/><path class="cls-29" d="M606.82,379.65s7.84-6.82,7.18-12.92c0,0-11.58-4.82-8.43-8.18s9.83,2.57,9.83,2.57-4.62-8.86-3.6-11.35c0,0,15-1.32,11.81-9.95,0,0-4.5-3.42-14-3.14s-13.3,16.68-13.3,16.68Z"/><path class="cls-29" d="M611.1,337.73a28.65,28.65,0,0,0-35.91,30.1c.54,6.4,3.19,13.08.69,19-1.29,3-3.77,5.39-6.21,7.61-7.12,6.51-14.49,12.91-20,20.82s-9.09,17.67-7.56,27.2A22.65,22.65,0,0,0,547,453.58c1.4,1.64,3.07,3.05,4.3,4.82,4.38,6.33,1.92,15.17,4.61,22.39,3.44,9.26,14.29,13.4,24.12,14.39,13.49,1.37,28-1.48,38-10.7s13.64-25.65,6-36.83c-3.79-5.54-10.24-10.41-9.61-17.09.4-4.15,3.53-7.44,5.33-11.2a18.87,18.87,0,0,0-5.43-22.48c-2.45-1.87-5.36-3.11-7.62-5.19s-3.81-5.49-2.45-8.25c1.05-2.12,3.5-3.27,4.6-5.37,1.64-3.14-.35-6.95-2.67-9.63s-5.16-5.35-5.5-8.87c-.25-2.69,1-5.24,2.29-7.63q3.72-7.05,7.43-14.12"/><polygon class="cls-37" points="563.38 507.69 557.25 555.08 603 562.45 604.95 543.71 607.51 562 653.26 562 648.35 517.48 563.38 507.69"/><path class="cls-29" d="M553.76,724.26s27.73,0,31.15,4.1-32.51.6-32.51.6Z"/><path class="cls-29" d="M610,726.23s27.29-4.94,31.39-1.46-31.9,6.33-31.9,6.33Z"/><path class="cls-38" d="M622.68,549.2c-.15.31-6.74-2.8-15.08-6.1s-15.25-5.6-15.15-5.93c0-.15,1.84.22,4.68,1s6.72,2.11,10.91,3.78,7.9,3.39,10.53,4.75S622.75,549.06,622.68,549.2Z"/><path class="cls-38" d="M603.87,557.55c0,.17-2.64-.44-6.84-1.3s-10-1.89-16.52-2.79-12.38-1.54-16.65-2.07-6.9-.9-6.88-1.07,2.67-.07,7,.23,10.22.84,16.74,1.73a152.31,152.31,0,0,1,16.54,3.15C601.4,556.5,603.91,557.4,603.87,557.55Z"/><path class="cls-38" d="M651.76,555.38c0,.17-2.57.34-6.74.56s-9.93.5-16.28.89-12.1.83-16.26,1.13-6.75.45-6.77.28,2.53-.61,6.68-1.12,9.91-1.08,16.28-1.48,12.14-.55,16.32-.55S651.76,555.22,651.76,555.38Z"/><path class="cls-38" d="M649.93,528.64c.05.14-.95.75-2.81,1.07a12.24,12.24,0,0,1-7.21-1,12.37,12.37,0,0,1-5.34-5c-.92-1.65-1.07-2.82-.94-2.86s.62,1,1.65,2.4a14,14,0,0,0,5.14,4.34,13.83,13.83,0,0,0,6.61,1.26C648.78,528.79,649.87,528.47,649.93,528.64Z"/><path class="cls-38" d="M647.21,563.18c-.33,0-1.4-7.29-2.4-16.35s-1.54-16.45-1.21-16.48,1.4,7.28,2.4,16.35S647.54,563.14,647.21,563.18Z"/><path class="cls-39" d="M567.9,631.68c.13-.31,2.54.41,5.51,1.22s5.41,1.43,5.36,1.77-2.63.22-5.68-.62S567.77,632,567.9,631.68Z"/><path class="cls-39" d="M579.61,631c.07.31-2.61,1.09-6,1s-6-1-5.94-1.35,2.72.07,6,.16S579.55,630.63,579.61,631Z"/><path class="cls-39" d="M633.48,632.61c.08.32-2.37,1.18-5.5,1.66s-5.73.41-5.75.09,2.48-.79,5.56-1.27S633.4,632.29,633.48,632.61Z"/><path class="cls-39" d="M630.51,629.93c.12.31-1.43,1.18-3.41,2.07s-3.67,1.44-3.82,1.15,1.32-1.35,3.33-2.25S630.4,629.62,630.51,629.93Z"/><path class="cls-30" d="M637.88,270.28s12-6.41,11.79-7.22c-.51-2.36-6.88.57-6.88.57s9.73-10.16,8.24-11.58c-.92-.88-6.88,4.29-6.88,4.29s3.75-6.06,2.58-7.36-6.71,5.84-6.71,5.84,2.05-4.58.86-5.7c-.82-.77-11.63,17.58-11.63,17.58Z"/><path class="cls-30" d="M678.1,272.87s-5.07-12.59-4.41-13.1c1.91-1.48,4.91,4.86,4.91,4.86s-.94-14,1.12-14.18c1.27-.08,2.53,7.71,2.53,7.71s1-7.05,2.74-7.3,1.4,8.78,1.4,8.78,1.36-4.83,3-4.92c1.12-.06-2.37,21-2.37,21Z"/><polygon class="cls-40" points="741.24 268.41 738.39 246.73 716.7 243.88 738.39 241.03 741.24 219.34 744.09 241.03 765.77 243.88 744.09 246.73 741.24 268.41"/><polygon class="cls-41" points="964.2 148.16 961.35 126.47 939.66 123.63 961.35 120.78 964.2 99.09 967.04 120.78 988.73 123.63 967.04 126.47 964.2 148.16"/><polygon class="cls-42" points="666.3 207.54 664.66 195.06 652.18 193.43 664.66 191.79 666.3 179.31 667.93 191.79 680.41 193.43 667.93 195.06 666.3 207.54"/><polygon class="cls-43" points="914.42 206.03 898.72 193.91 878.9 193.28 897.25 185.74 907.71 168.89 905.06 188.55 914.42 206.03"/><polygon class="cls-10" points="751.83 423.4 741.77 415.64 729.07 415.23 740.83 410.41 747.53 399.61 745.83 412.2 751.83 423.4"/></g></g></svg>