<svg xmlns="http://www.w3.org/2000/svg" xmlns:xlink="http://www.w3.org/1999/xlink" viewBox="0 0 1692.17 1035.6"><defs><style>.cls-1{fill:url(#linear-gradient);}.cls-2{fill:url(#linear-gradient-2);}.cls-3{fill:#d8761d;}.cls-4{fill:#e56e3e;opacity:0.29;}.cls-5{opacity:0.1;fill:url(#linear-gradient-3);}.cls-6{opacity:0.24;fill:url(#linear-gradient-4);}.cls-7{opacity:0.5;fill:url(#linear-gradient-5);}.cls-8,.cls-9{fill:#fce300;}.cls-8{opacity:0.17;}.cls-9{opacity:0.89;}.cls-10{fill:url(#linear-gradient-6);}.cls-11{fill:url(#linear-gradient-7);}.cls-12{fill:#e5ac38;}.cls-13{fill:url(#linear-gradient-8);}.cls-14,.cls-22{fill:#3e4e51;}.cls-15{font-size:92.76px;font-family:Fonarto, Fonarto;}.cls-15,.cls-21{fill:#fff9e7;}.cls-16{fill:url(#linear-gradient-9);}.cls-17{fill:url(#linear-gradient-10);}.cls-18{fill:url(#linear-gradient-11);}.cls-19{fill:url(#linear-gradient-12);}.cls-20{fill:url(#linear-gradient-13);}.cls-22{stroke:#fff;stroke-miterlimit:10;stroke-width:5px;}.cls-23,.cls-49{fill:#2b3b3f;}.cls-23{opacity:0.12;}.cls-24,.cls-27{opacity:0.2;}.cls-24{fill:url(#linear-gradient-14);}.cls-25,.cls-26{opacity:0.4;}.cls-25{fill:url(#linear-gradient-15);}.cls-26{fill:url(#linear-gradient-16);}.cls-27{fill:url(#linear-gradient-17);}.cls-28{fill:url(#linear-gradient-18);}.cls-29{fill:url(#linear-gradient-19);}.cls-30{fill:url(#linear-gradient-20);}.cls-31,.cls-32{opacity:0.49;}.cls-31{fill:url(#linear-gradient-21);}.cls-32{fill:url(#linear-gradient-22);}.cls-33,.cls-34{opacity:0.26;}.cls-33{fill:url(#linear-gradient-23);}.cls-34{fill:url(#linear-gradient-24);}.cls-35{fill:url(#linear-gradient-25);}.cls-36{fill:#b2a29b;}.cls-37{fill:#c7efac;}.cls-38{fill:url(#linear-gradient-26);}.cls-39{fill:#262626;}.cls-40{fill:url(#linear-gradient-27);}.cls-41{fill:#2346ae;}.cls-42{fill:#1e78ba;}.cls-43{fill:url(#linear-gradient-28);}.cls-44{fill:#fff;}.cls-45{fill:#303538;}.cls-46{fill:#4c4c4c;}.cls-47{fill:#3c3b39;}.cls-48{fill:#fb9d22;}.cls-50{fill:url(#linear-gradient-29);}.cls-51{fill:url(#linear-gradient-30);}.cls-52{fill:url(#linear-gradient-31);}.cls-53{fill:#90a929;}.cls-54{fill:#773005;}.cls-55{fill:url(#linear-gradient-32);}.cls-56{fill:#9c592d;}.cls-57{fill:url(#linear-gradient-33);}.cls-58{fill:url(#linear-gradient-34);}.cls-59{fill:url(#linear-gradient-35);}.cls-60{fill:#fcbb85;}.cls-61{fill:#f9c095;}.cls-62{fill:url(#linear-gradient-36);}.cls-63{fill:#ffad76;}.cls-64{fill:#ffbd8b;}.cls-65{fill:#00b4ac;}.cls-66{fill:url(#linear-gradient-37);}.cls-67{fill:url(#linear-gradient-38);}.cls-68{fill:#6e421d;}.cls-69{fill:#7c4e2d;}.cls-70{fill:#fbb37b;}.cls-71{fill:url(#linear-gradient-39);}.cls-72{fill:url(#linear-gradient-40);}.cls-73{fill:#f7465a;}.cls-74{fill:#e71f3d;}.cls-75{fill:#c0c2c3;}.cls-76{fill:url(#linear-gradient-41);}.cls-77{fill:#c85a1f;}.cls-78{fill:url(#linear-gradient-42);}.cls-79{fill:url(#linear-gradient-43);}.cls-80{fill:url(#linear-gradient-44);}.cls-81{fill:url(#linear-gradient-45);}.cls-82{fill:url(#linear-gradient-46);}.cls-83{fill:url(#linear-gradient-47);}</style><linearGradient id="linear-gradient" x1="-3.43" y1="809.43" x2="1624.2" y2="809.43" gradientUnits="userSpaceOnUse"><stop offset="0" stop-color="#f7942f" stop-opacity="0"/><stop offset="0.5" stop-color="#f7c700"/><stop offset="1" stop-color="#f7942f" stop-opacity="0"/></linearGradient><linearGradient id="linear-gradient-2" x1="1376.78" y1="530.19" x2="1376.78" y2="833.21" gradientUnits="userSpaceOnUse"><stop offset="0" stop-color="#fcd02f"/><stop offset="1" stop-color="#ff6e27"/></linearGradient><linearGradient id="linear-gradient-3" x1="914.1" y1="-46.11" x2="914.1" y2="304.58" gradientUnits="userSpaceOnUse"><stop offset="0" stop-color="#f7c700"/><stop offset="1" stop-color="#f7942f" stop-opacity="0"/></linearGradient><linearGradient id="linear-gradient-4" x1="863.8" y1="152.92" x2="863.8" y2="428.93" xlink:href="#linear-gradient-3"/><linearGradient id="linear-gradient-5" x1="836.12" y1="362.99" x2="836.12" y2="714.65" xlink:href="#linear-gradient-3"/><linearGradient id="linear-gradient-6" x1="295.67" y1="468.2" x2="295.67" y2="856.26" gradientTransform="matrix(-1, 0, 0, 1, 605.84, 0)" xlink:href="#linear-gradient-2"/><linearGradient id="linear-gradient-7" x1="240.68" y1="415.04" x2="356.5" y2="838.42" gradientTransform="matrix(-1, 0, 0, 1, 605.84, 0)" gradientUnits="userSpaceOnUse"><stop offset="0" stop-color="#ff6e27"/><stop offset="1" stop-color="#fcd02f"/></linearGradient><linearGradient id="linear-gradient-8" x1="421.67" y1="607.71" x2="531.72" y2="591.01" xlink:href="#linear-gradient-2"/><linearGradient id="linear-gradient-9" x1="472.37" y1="657.2" x2="487.14" y2="657.2" gradientTransform="translate(1151.82 1115.9) rotate(160.44)" xlink:href="#linear-gradient-2"/><linearGradient id="linear-gradient-10" x1="421.6" y1="639.17" x2="436.37" y2="639.17" gradientTransform="translate(1047.18 1097.86) rotate(160.44)" xlink:href="#linear-gradient-2"/><linearGradient id="linear-gradient-11" x1="425.8" y1="887.04" x2="550.1" y2="838.11" xlink:href="#linear-gradient-2"/><linearGradient id="linear-gradient-12" x1="503.09" y1="855.93" x2="560.28" y2="855.93" xlink:href="#linear-gradient-2"/><linearGradient id="linear-gradient-13" x1="525.75" y1="358.02" x2="1248.46" y2="890.47" xlink:href="#linear-gradient-2"/><linearGradient id="linear-gradient-14" x1="1076.01" y1="469.16" x2="1153.54" y2="469.16" gradientTransform="matrix(1, 0, 0.08, 1, -4.9, -0.05)" xlink:href="#linear-gradient-2"/><linearGradient id="linear-gradient-15" x1="1076.01" y1="578.19" x2="1153.54" y2="578.19" gradientTransform="matrix(1, 0, 0.08, 1, -4.9, -0.05)" xlink:href="#linear-gradient-2"/><linearGradient id="linear-gradient-16" x1="1076.01" y1="687.21" x2="1153.54" y2="687.21" gradientTransform="matrix(1, 0, 0.08, 1, -4.9, -0.05)" xlink:href="#linear-gradient-2"/><linearGradient id="linear-gradient-17" x1="1076.01" y1="796.23" x2="1153.54" y2="796.23" gradientTransform="matrix(1, 0, 0.08, 1, -4.9, -0.05)" xlink:href="#linear-gradient-2"/><linearGradient id="linear-gradient-18" x1="962.88" y1="687.74" x2="998.73" y2="687.74" gradientUnits="userSpaceOnUse"><stop offset="0" stop-color="#ffa327"/><stop offset="1" stop-color="#fcd02f" stop-opacity="0"/></linearGradient><linearGradient id="linear-gradient-19" x1="988.99" y1="687.74" x2="1028.85" y2="687.74" xlink:href="#linear-gradient-18"/><linearGradient id="linear-gradient-20" x1="1050.37" y1="603.34" x2="1050.37" y2="761.23" gradientTransform="matrix(1, 0, 0.08, 1, -4.9, -0.05)" xlink:href="#linear-gradient-2"/><linearGradient id="linear-gradient-21" x1="1073.72" y1="686.38" x2="1094.21" y2="695.15" gradientUnits="userSpaceOnUse"><stop offset="0" stop-color="#fcff00"/><stop offset="1" stop-color="#ff6e27" stop-opacity="0"/></linearGradient><linearGradient id="linear-gradient-22" x1="1123.82" y1="675.17" x2="1146.29" y2="682.34" xlink:href="#linear-gradient-21"/><linearGradient id="linear-gradient-23" x1="1057.69" y1="689.12" x2="1078.18" y2="697.89" xlink:href="#linear-gradient-21"/><linearGradient id="linear-gradient-24" x1="1107.79" y1="677.92" x2="1130.26" y2="685.09" xlink:href="#linear-gradient-21"/><linearGradient id="linear-gradient-25" x1="295.13" y1="815.15" x2="366.5" y2="742.07" gradientTransform="matrix(-1, 0, 0, 1, 1576.02, 0)" gradientUnits="userSpaceOnUse"><stop offset="0" stop-color="#a9ff15"/><stop offset="1" stop-color="#0094ff"/></linearGradient><linearGradient id="linear-gradient-26" x1="360.11" y1="1072.16" x2="360.11" y2="814.31" xlink:href="#linear-gradient-25"/><linearGradient id="linear-gradient-27" x1="377.06" y1="765.47" x2="448.9" y2="695.35" xlink:href="#linear-gradient-25"/><linearGradient id="linear-gradient-28" x1="360.11" y1="802.92" x2="360.11" y2="692.59" xlink:href="#linear-gradient-25"/><linearGradient id="linear-gradient-29" x1="752.43" y1="946.42" x2="823.36" y2="946.42" gradientUnits="userSpaceOnUse"><stop offset="0" stop-color="#ff6e27"/><stop offset="1" stop-color="#fcff2f"/></linearGradient><linearGradient id="linear-gradient-30" x1="752.43" y1="949.09" x2="823.36" y2="949.09" xlink:href="#linear-gradient-29"/><linearGradient id="linear-gradient-31" x1="793.28" y1="902.73" x2="793.28" y2="958.33" gradientUnits="userSpaceOnUse"><stop offset="0" stop-color="#00b3aa"/><stop offset="1" stop-color="#fff"/></linearGradient><linearGradient id="linear-gradient-32" x1="765.75" y1="1016.85" x2="829.15" y2="933.2" gradientUnits="userSpaceOnUse"><stop offset="0" stop-color="#ffff29"/><stop offset="1" stop-color="#90a929"/></linearGradient><linearGradient id="linear-gradient-33" x1="772.89" y1="926.74" x2="788.94" y2="1044.4" gradientUnits="userSpaceOnUse"><stop offset="0" stop-color="#90a929"/><stop offset="1" stop-color="#ffff29"/></linearGradient><linearGradient id="linear-gradient-34" x1="794.13" y1="813.7" x2="794.13" y2="947.24" gradientUnits="userSpaceOnUse"><stop offset="0" stop-color="#adffff"/><stop offset="1" stop-color="#00b3aa"/></linearGradient><linearGradient id="linear-gradient-35" x1="790.93" y1="854.06" x2="855.87" y2="915.24" gradientUnits="userSpaceOnUse"><stop offset="0" stop-color="#00b3aa"/><stop offset="1" stop-color="#adffff"/></linearGradient><linearGradient id="linear-gradient-36" x1="759.71" y1="859.08" x2="823.43" y2="959.28" xlink:href="#linear-gradient-35"/><linearGradient id="linear-gradient-37" x1="892.56" y1="938.45" x2="963.49" y2="938.45" xlink:href="#linear-gradient-29"/><linearGradient id="linear-gradient-38" x1="892.56" y1="941.12" x2="963.49" y2="941.12" xlink:href="#linear-gradient-29"/><linearGradient id="linear-gradient-39" x1="851.32" y1="862.1" x2="911.45" y2="862.1" gradientUnits="userSpaceOnUse"><stop offset="0" stop-color="#008fff"/><stop offset="1" stop-color="#8ed115"/></linearGradient><linearGradient id="linear-gradient-40" x1="922.27" y1="960.55" x2="918" y2="846.82" gradientUnits="userSpaceOnUse"><stop offset="0" stop-color="#0094ff"/><stop offset="1" stop-color="#a9ff15"/></linearGradient><linearGradient id="linear-gradient-41" x1="877.66" y1="909.75" x2="925.12" y2="859" xlink:href="#linear-gradient-39"/><linearGradient id="linear-gradient-42" x1="646.19" y1="938.45" x2="717.12" y2="938.45" xlink:href="#linear-gradient-29"/><linearGradient id="linear-gradient-43" x1="646.19" y1="941.12" x2="717.12" y2="941.12" xlink:href="#linear-gradient-29"/><linearGradient id="linear-gradient-44" x1="698.01" y1="862.18" x2="766.56" y2="862.18" gradientUnits="userSpaceOnUse"><stop offset="0" stop-color="#9435ff"/><stop offset="1" stop-color="#ff1eff"/></linearGradient><linearGradient id="linear-gradient-45" x1="690.64" y1="910.39" x2="690.64" y2="835" gradientUnits="userSpaceOnUse"><stop offset="0" stop-color="#9435ff"/><stop offset="1" stop-color="#ff46ff"/></linearGradient><linearGradient id="linear-gradient-46" x1="656.42" y1="850.68" x2="771.1" y2="937.12" gradientUnits="userSpaceOnUse"><stop offset="0" stop-color="#ff5cff"/><stop offset="1" stop-color="#9435ff"/></linearGradient><linearGradient id="linear-gradient-47" x1="811.53" y1="841.81" x2="811.53" y2="1032.47" gradientUnits="userSpaceOnUse"><stop offset="0" stop-color="#ff6100"/><stop offset="1" stop-color="#ffd111"/></linearGradient></defs><title>04</title><g id="Layer_2" data-name="Layer 2"><g id="Layer_1-2" data-name="Layer 1"><rect class="cls-1" y="802.92" width="1623.51" height="13.02"/><path class="cls-2" d="M1342.35,733.23h-.07c8.51-8.89,4.51-18.72,3-21.71h0c-.3-.58-.52-.92-.52-.92h.08a35.76,35.76,0,0,1,6.62-41.54c6-7.89,1.45-18.38,1.45-18.38h0a25.36,25.36,0,1,1,47.79,0h0s-4.51,10.49,1.45,18.38a35.74,35.74,0,0,1,6.62,41.53h0l-.11.18c-.2.4-.4.79-.62,1.18-1.6,3.29-4.66,12.08,2.35,20.31l.65.76c.07.07.11.14.18.21h0a44.15,44.15,0,1,1-68.86,0Z"/><path class="cls-3" d="M1363.8,757.05l10.81,10.7V730.16L1361.33,717a1.75,1.75,0,1,1,2.47-2.49l10.81,10.69V673.37a1.76,1.76,0,0,1,3.51,0v31.25l10.51-10.46a1.76,1.76,0,0,1,2.48,2.49l-13,12.92v37.75l11.62-11.74a1.75,1.75,0,0,1,2.49,2.47l-14.11,14.26V852.46a1.76,1.76,0,0,1-3.51,0V772.68l-13.28-13.14a1.75,1.75,0,1,1,2.47-2.49Z"/><path class="cls-4" d="M1424.42,854.83H1353.2a.62.62,0,1,1,0-1.23h71.22a.62.62,0,1,1,0,1.23Z"/><path class="cls-5" d="M1692.17,490.47q-6.8,22.09-14.92,44.24a851.23,851.23,0,0,1-89,176A892.14,892.14,0,0,1,1503.93,819a946.39,946.39,0,0,1-70.1,69.54A600.27,600.27,0,0,0,1417.59,819H254.65q-7.53,25.37-12.88,51.63-16.4-25-30.7-51.63c-37.28-69.48-62.91-146.5-71.68-226-7.29-65.84-3-133.38,15.78-199.74,25.08-88.54,73.21-165.14,133.89-228.89C445.87,60.49,633.93,0,836.12,0q50.31,0,99.37,4.92c233.33,23.2,442.88,127.26,600.21,283.77A995.58,995.58,0,0,1,1692.17,490.47Z"/><path class="cls-6" d="M1588.22,710.67A892.14,892.14,0,0,1,1503.93,819a946.39,946.39,0,0,1-70.1,69.54A600.27,600.27,0,0,0,1417.59,819H254.65q-7.53,25.37-12.88,51.63-16.4-25-30.7-51.63c-37.28-69.48-62.91-146.5-71.68-226,126.33-220.16,354-374.73,619.43-400.08a.12.12,0,0,1,.08,0l2.05-.19q37.13-3.45,75.17-3.47h5.23c1.91,0,3.82,0,5.74.07q1.2,0,2.4,0a802.24,802.24,0,0,1,243.1,41.73q20,6.75,39.6,14.52,24.15,9.58,47.51,20.67,19.89,9.44,39.17,19.9a805.72,805.72,0,0,1,149.79,105.12q6.58,5.84,13.06,11.85,12.09,11.19,23.71,22.9A803.37,803.37,0,0,1,1588.22,710.67Z"/><path class="cls-7" d="M1417.59,819H254.65a603.56,603.56,0,0,1,82.1-171.26q11.4-16.53,23.89-32.26,8.53-10.8,17.6-21.18A607.74,607.74,0,0,1,470.55,508c.48-.37.95-.73,1.43-1.08,3.21-2.42,6.46-4.81,9.71-7.15q8.38-6.07,17-11.83l2.22-1.48A603.6,603.6,0,0,1,557.78,453q8-4.14,16.11-8c1.06-.53,2.13-1,3.2-1.53q2.65-1.26,5.34-2.49,8.16-3.78,16.48-7.3c3.89-1.67,7.8-3.28,11.73-4.86Q622.19,424.16,634,420q8.31-2.94,16.71-5.64Q672,407.53,694,402.24q9.25-2.25,18.65-4.17l1.65-.34c3.84-.79,7.7-1.53,11.57-2.25,2.56-.46,5.12-.92,7.69-1.35a609.5,609.5,0,0,1,102.59-8.65q12,0,23.87.47c2.88.1,5.77.24,8.65.39l4.24.25,1,.05H874q14.1.89,28,2.37l1.33.15.59.07c4.76.52,9.51,1.12,14.24,1.75q6.15.82,12.25,1.79l.15,0,3.57.57,4.3.71q24.93,4.23,49.12,10.47c2.6.66,5.2,1.34,7.78,2.06a1.25,1.25,0,0,1,.32.08,601.08,601.08,0,0,1,89.64,32.17q12,5.41,23.73,11.34c1.26.63,2.51,1.27,3.77,1.92q26,13.32,50.46,29.05,5.74,3.69,11.4,7.51c1.63,1.09,3.26,2.19,4.86,3.31l2.43,1.68c.35.23.69.47,1,.74.59.39,1.18.8,1.77,1.24q9.54,6.69,18.81,13.77t18.25,14.47q3.49,2.86,6.92,5.8a.35.35,0,0,1,.1.08c1.59,1.35,3.18,2.71,4.75,4.09q6.69,5.79,13.21,11.81c1.1,1,2.21,2,3.3,3.05q13.26,12.39,25.76,25.54,6,6.35,11.87,12.87a2.86,2.86,0,0,1,.3.32c.7.78,1.4,1.56,2.09,2.35q11.75,13.25,22.7,27.15A604.81,604.81,0,0,1,1417.59,819Z"/><circle class="cls-8" cx="1297.75" cy="161.72" r="118.03"/><circle class="cls-9" cx="1297.75" cy="161.72" r="59.73"/><path class="cls-10" d="M354.26,728.22h.09c-10.91-11.39-5.78-24-3.8-27.8v0c.38-.74.65-1.18.65-1.18l-.1,0a45.8,45.8,0,0,0-8.47-53.19c-7.64-10.11-1.86-23.55-1.86-23.55h0a32.48,32.48,0,1,0-61.21,0h0s5.78,13.44-1.86,23.55a45.81,45.81,0,0,0-8.48,53.18h0l.14.24c.26.5.52,1,.8,1.5,2,4.22,6,15.47-3,26-.28.33-.56.65-.83,1a2.85,2.85,0,0,1-.23.26h0a56.54,56.54,0,1,0,88.19,0Z"/><path class="cls-3" d="M326.79,758.73l-13.85,13.7V724.29l17-16.83a2.24,2.24,0,0,0-3.15-3.19L312.94,718V651.56a2.25,2.25,0,0,0-4.49,0v40L295,678.19a2.25,2.25,0,1,0-3.17,3.18l16.64,16.54v48.35l-14.89-15a2.25,2.25,0,1,0-3.19,3.16l18.08,18.26V880.91a2.25,2.25,0,1,0,4.49,0V778.75l17-16.83a2.24,2.24,0,1,0-3.15-3.19Z"/><path class="cls-4" d="M249.15,884h91.21a.79.79,0,0,0,0-1.58H249.15a.79.79,0,1,0,0,1.58Z"/><path class="cls-11" d="M289,782.63h.05c-6.23-6.51-3.3-13.7-2.18-15.89h0c.22-.43.38-.68.38-.68h-.06a26.16,26.16,0,0,0-4.84-30.4c-4.37-5.78-1.07-13.46-1.07-13.46h0a18.36,18.36,0,0,0,1.08-6.17,18.57,18.57,0,1,0-36.06,6.17h0s3.3,7.68-1.06,13.46a26.19,26.19,0,0,0-4.85,30.4h0a.69.69,0,0,1,.08.14l.46.86a13.38,13.38,0,0,1-1.72,14.87l-.48.56-.13.15h0a32.32,32.32,0,1,0,50.41,0Z"/><path class="cls-12" d="M273.31,800.06l-7.91,7.84V780.38l9.72-9.62a1.28,1.28,0,1,0-1.81-1.82l-7.91,7.83v-38a1.29,1.29,0,1,0-2.57,0v22.87l-7.7-7.65a1.28,1.28,0,0,0-1.81,1.82l9.51,9.45v27.64l-8.51-8.59a1.28,1.28,0,0,0-1.82,1.8l10.33,10.44v73.32a1.29,1.29,0,0,0,2.57,0v-58.4l9.72-9.62a1.29,1.29,0,0,0-1.81-1.83Z"/><path class="cls-4" d="M228.94,871.64h52.13a.45.45,0,1,0,0-.9H228.94a.45.45,0,1,0,0,.9Z"/><path class="cls-13" d="M1113.55,669.92,1236,378.35c.8-8.79-6.6-15.91-16.52-15.91H523c-9.84,0-18.48,7-19.39,15.72a2.32,2.32,0,0,1-.06.38L414.2,838.32c-.05.22-.1.68-.1.68Z"/><rect class="cls-14" x="391.6" y="645.47" width="94.05" height="94.05" rx="16.37" ry="16.37" transform="translate(620.14 1491.87) rotate(-160.44)"/><text class="cls-15" transform="matrix(-0.94, -0.33, -0.33, 0.94, 451.2, 734.42)">+</text><rect class="cls-16" x="474.8" y="645.93" width="9.9" height="22.55" rx="3.8" ry="3.8" transform="translate(711.84 1437.08) rotate(-160.44)"/><rect class="cls-17" x="424.04" y="627.89" width="9.9" height="22.55" rx="3.8" ry="3.8" transform="translate(619.27 1385.06) rotate(-160.44)"/><path class="cls-18" d="M692.1,709.51,627.77,880.23l-8,1.79L567,893.76A14.87,14.87,0,0,1,553.1,890l-50-41.88-.55-.47L414.1,839s169.13-52,175.7-54.47S692.1,709.51,692.1,709.51Z"/><path class="cls-19" d="M619.73,817.68V882L567,893.76A14.87,14.87,0,0,1,553.1,890l-50-41.88Z"/><path class="cls-20" d="M1261.77,894.18H565.24a19.84,19.84,0,0,1-19.41-18l-40-496.61a16.34,16.34,0,0,1,16.52-18h696.53a19.84,19.84,0,0,1,19.41,18l40,496.61A16.34,16.34,0,0,1,1261.77,894.18Z"/><path class="cls-21" d="M1232.29,868.71H590.62a19.84,19.84,0,0,1-19.41-18L535.32,405.06a16.35,16.35,0,0,1,16.52-18h641.67a19.84,19.84,0,0,1,19.41,18l35.89,445.67A16.35,16.35,0,0,1,1232.29,868.71Z"/><path class="cls-22" d="M589.62,405.38h0a16.39,16.39,0,0,1-16-14.86l-3-37.43a13.51,13.51,0,0,1,13.66-14.86h0a16.39,16.39,0,0,1,16,14.86l3,37.43A13.5,13.5,0,0,1,589.62,405.38Z"/><path class="cls-22" d="M703.43,405.38h0a16.39,16.39,0,0,1-16-14.86l-3-37.43A13.49,13.49,0,0,1,698,338.23h0a16.39,16.39,0,0,1,16,14.86l3,37.43A13.5,13.5,0,0,1,703.43,405.38Z"/><path class="cls-22" d="M817.24,405.38h0a16.39,16.39,0,0,1-16-14.86l-3-37.43a13.5,13.5,0,0,1,13.65-14.86h0a16.39,16.39,0,0,1,16,14.86l3,37.43A13.49,13.49,0,0,1,817.24,405.38Z"/><path class="cls-22" d="M931.05,405.38h0a16.39,16.39,0,0,1-16-14.86l-3-37.43a13.5,13.5,0,0,1,13.65-14.86h0a16.39,16.39,0,0,1,16,14.86l3,37.43A13.51,13.51,0,0,1,931.05,405.38Z"/><path class="cls-22" d="M1044.87,405.38h0a16.4,16.4,0,0,1-16-14.86l-3-37.43a13.5,13.5,0,0,1,13.65-14.86h0a16.39,16.39,0,0,1,16,14.86l3,37.43A13.5,13.5,0,0,1,1044.87,405.38Z"/><path class="cls-22" d="M1158.68,405.38h0a16.4,16.4,0,0,1-16-14.86l-3-37.43a13.5,13.5,0,0,1,13.65-14.86h0a16.39,16.39,0,0,1,16,14.86l3,37.43A13.5,13.5,0,0,1,1158.68,405.38Z"/><path class="cls-23" d="M645.42,506.41h-63a8,8,0,0,1-7.84-7.26l-4.77-59.28a6.6,6.6,0,0,1,6.67-7.27h63a8,8,0,0,1,7.84,7.27l4.77,59.28A6.59,6.59,0,0,1,645.42,506.41Z"/><path class="cls-23" d="M779.61,506.41h-63a8,8,0,0,1-7.84-7.26L704,439.87a6.6,6.6,0,0,1,6.67-7.27h63a8,8,0,0,1,7.84,7.27l4.77,59.28A6.6,6.6,0,0,1,779.61,506.41Z"/><path class="cls-23" d="M913.79,506.41h-63a8,8,0,0,1-7.84-7.26l-4.77-59.28a6.6,6.6,0,0,1,6.67-7.27h63a8,8,0,0,1,7.84,7.27l4.77,59.28A6.59,6.59,0,0,1,913.79,506.41Z"/><path class="cls-23" d="M1048,506.41H985a8,8,0,0,1-7.84-7.26l-4.77-59.28A6.6,6.6,0,0,1,979,432.6h63a8,8,0,0,1,7.84,7.27l4.77,59.28A6.6,6.6,0,0,1,1048,506.41Z"/><path class="cls-24" d="M1182.16,506.41h-63a8,8,0,0,1-7.84-7.26l-4.77-59.28a6.6,6.6,0,0,1,6.67-7.27h63a8,8,0,0,1,7.84,7.27l4.77,59.28A6.59,6.59,0,0,1,1182.16,506.41Z"/><path class="cls-23" d="M654.21,615.52h-63a8,8,0,0,1-7.84-7.26L578.58,549a6.59,6.59,0,0,1,6.67-7.26h63a8,8,0,0,1,7.84,7.26l4.77,59.28A6.6,6.6,0,0,1,654.21,615.52Z"/><path class="cls-23" d="M788.39,615.52h-63a8,8,0,0,1-7.84-7.26L712.76,549a6.6,6.6,0,0,1,6.67-7.26h63a8,8,0,0,1,7.84,7.26l4.77,59.28A6.59,6.59,0,0,1,788.39,615.52Z"/><path class="cls-23" d="M922.58,615.52h-63a8,8,0,0,1-7.84-7.26L847,549a6.59,6.59,0,0,1,6.67-7.26h63a8,8,0,0,1,7.84,7.26l4.77,59.28A6.6,6.6,0,0,1,922.58,615.52Z"/><path class="cls-23" d="M1056.76,615.52h-63a8,8,0,0,1-7.84-7.26L981.13,549a6.6,6.6,0,0,1,6.67-7.26h63a8,8,0,0,1,7.84,7.26l4.77,59.28A6.59,6.59,0,0,1,1056.76,615.52Z"/><path class="cls-25" d="M1191,615.52h-63a8,8,0,0,1-7.84-7.26L1115.32,549a6.59,6.59,0,0,1,6.67-7.26h63a8,8,0,0,1,7.84,7.26l4.77,59.28A6.6,6.6,0,0,1,1191,615.52Z"/><path class="cls-23" d="M663,724.64H600a8,8,0,0,1-7.84-7.26l-4.77-59.28a6.6,6.6,0,0,1,6.67-7.26h63a8,8,0,0,1,7.84,7.26l4.78,59.28A6.6,6.6,0,0,1,663,724.64Z"/><path class="cls-23" d="M797.18,724.64h-63a8,8,0,0,1-7.84-7.26l-4.77-59.28a6.59,6.59,0,0,1,6.67-7.26h63a8,8,0,0,1,7.84,7.26l4.77,59.28A6.6,6.6,0,0,1,797.18,724.64Z"/><path class="cls-26" d="M1199.73,724.64h-63a8,8,0,0,1-7.84-7.26l-4.77-59.28a6.6,6.6,0,0,1,6.67-7.26h63a8,8,0,0,1,7.84,7.26l4.77,59.28A6.59,6.59,0,0,1,1199.73,724.64Z"/><path class="cls-23" d="M671.78,833.76h-63a8,8,0,0,1-7.84-7.27l-4.77-59.28a6.59,6.59,0,0,1,6.67-7.26h63a8,8,0,0,1,7.84,7.26l4.77,59.28A6.6,6.6,0,0,1,671.78,833.76Z"/><path class="cls-23" d="M806,833.76h-63a8,8,0,0,1-7.83-7.27l-4.78-59.28A6.6,6.6,0,0,1,737,760h63a8,8,0,0,1,7.84,7.26l4.78,59.28A6.61,6.61,0,0,1,806,833.76Z"/><path class="cls-23" d="M940.15,833.76h-63a8,8,0,0,1-7.84-7.27l-4.77-59.28a6.59,6.59,0,0,1,6.67-7.26h63a8,8,0,0,1,7.84,7.26l4.77,59.28A6.6,6.6,0,0,1,940.15,833.76Z"/><path class="cls-23" d="M1074.34,833.76h-63a8,8,0,0,1-7.84-7.27l-4.77-59.28a6.6,6.6,0,0,1,6.67-7.26h63a8,8,0,0,1,7.84,7.26l4.78,59.28A6.61,6.61,0,0,1,1074.34,833.76Z"/><path class="cls-27" d="M1208.52,833.76h-63a8,8,0,0,1-7.84-7.27l-4.77-59.28a6.59,6.59,0,0,1,6.67-7.26h63a8,8,0,0,1,7.84,7.26l4.77,59.28A6.6,6.6,0,0,1,1208.52,833.76Z"/><path class="cls-23" d="M931.36,724.64h-63a8,8,0,0,1-7.84-7.26l-4.77-59.28a6.6,6.6,0,0,1,6.67-7.26h63a8,8,0,0,1,7.84,7.26L938,717.38A6.59,6.59,0,0,1,931.36,724.64Z"/><path class="cls-28" d="M1064.84,735.85H976.52a7.06,7.06,0,0,1-6.9-6.39L962.91,646a5.8,5.8,0,0,1,5.86-6.39h88.32A7.06,7.06,0,0,1,1064,646l6.71,83.44A5.8,5.8,0,0,1,1064.84,735.85Z"/><path class="cls-29" d="M1115.8,747.58H1006a8.76,8.76,0,0,1-8.58-7.94L989,635.84a7.22,7.22,0,0,1,7.3-7.94h109.85a8.75,8.75,0,0,1,8.58,7.94l8.36,103.8A7.22,7.22,0,0,1,1115.8,747.58Z"/><path class="cls-30" d="M1175.87,762.89H1037.92a11,11,0,0,1-10.77-10l-10.49-130.34a9.06,9.06,0,0,1,9.16-10h138a11,11,0,0,1,10.78,10L1185,752.91A9.07,9.07,0,0,1,1175.87,762.89Z"/><path class="cls-31" d="M1107.41,713.34H1077l19.67-27.66a35.37,35.37,0,0,0,6.17-22.84v-.06a25.67,25.67,0,0,0-4.1-12.55,22.15,22.15,0,0,0-9.63-7.92,35.2,35.2,0,0,0-14.44-2.73,26.78,26.78,0,0,0-13.32,3.15,20.83,20.83,0,0,0-8.59,9.16,30.93,30.93,0,0,0-2.86,14.32v.06h17.19v-.06q.15-5,2.5-7.74a8.11,8.11,0,0,1,6.51-2.73,10.68,10.68,0,0,1,6.76,2,7.5,7.5,0,0,1,2.77,5.57v.12a13.91,13.91,0,0,1-.7,5.3,21.13,21.13,0,0,1-2.77,5.54l-27.29,40.16,1.22,15.11h52.6Z"/><path class="cls-32" d="M1114.93,700.43l22.58-59.87h19l-21.9,59.13h39.94l1.3,16.16h-59.64Zm34-23.26h16.76l4.22,52.4h-16.76Z"/><path class="cls-33" d="M1091.38,716.09H1061l19.67-27.67a34.06,34.06,0,0,0,5-10.8,34.81,34.81,0,0,0,1.15-12v-.06a25.67,25.67,0,0,0-4.1-12.55,22.24,22.24,0,0,0-9.63-7.93,35.37,35.37,0,0,0-14.44-2.72,26.81,26.81,0,0,0-13.32,3.15,20.75,20.75,0,0,0-8.59,9.15,31,31,0,0,0-2.85,14.33V669h17.19V669q.15-5,2.5-7.75a8.14,8.14,0,0,1,6.51-2.72,10.62,10.62,0,0,1,6.76,2,7.49,7.49,0,0,1,2.77,5.57v.12a13.93,13.93,0,0,1-.7,5.3,21,21,0,0,1-2.77,5.54l-27.28,40.15,1.21,15.12h52.6Z"/><path class="cls-34" d="M1098.9,703.18l22.58-59.87h19l-21.9,59.13h39.94l1.3,16.16h-59.63Zm34-23.27h16.76l4.22,52.4h-16.76Z"/><path class="cls-21" d="M1064.67,716.41,1092,676.25a20.64,20.64,0,0,0,2.76-5.54,13.88,13.88,0,0,0,.71-5.29v-.12a7.53,7.53,0,0,0-2.78-5.58,10.64,10.64,0,0,0-6.76-2,8.14,8.14,0,0,0-6.51,2.72c-1.56,1.82-2.4,4.4-2.49,7.74v.06H1059.7v-.06a30.93,30.93,0,0,1,2.85-14.32,20.8,20.8,0,0,1,8.59-9.15,26.85,26.85,0,0,1,13.33-3.15,35.24,35.24,0,0,1,14.44,2.72,22.24,22.24,0,0,1,9.63,7.93,25.88,25.88,0,0,1,4.1,12.55v.06a35.32,35.32,0,0,1-6.17,22.83l-19.67,27.67h30.4l1.3,16.16h-52.6Z"/><path class="cls-21" d="M1124.71,702.45l22.58-59.87h19l-21.91,59.14h39.94l1.3,16.16H1126Zm34-23.26h16.76l4.22,52.4H1163Z"/><path class="cls-35" d="M1227.22,753.06l28.2,32.89-1.29-2.45a3.34,3.34,0,0,1,.1-2,2.59,2.59,0,0,1,.86-1.17,1.47,1.47,0,0,1,1.35-.26l-1.08-.24-23.67-3.32a7,7,0,0,0-1.93,13.78l23.67,3.32-1.07-.24a12.47,12.47,0,0,0,10.88-1.76,11.38,11.38,0,0,0,3.94-5,10.72,10.72,0,0,0,.31-6.95,7.43,7.43,0,0,0-1.21-2.36l-.07-.09-27.84-35c-2.73-3.52-6.44-3.44-10-.72a8.06,8.06,0,0,0-1.45,11.3Z"/><path class="cls-36" d="M1138.53,709.05a6.37,6.37,0,1,0,8.7-2.34A6.37,6.37,0,0,0,1138.53,709.05Z"/><rect class="cls-36" x="1210.49" y="725.58" width="11.96" height="16.07" transform="translate(2432.95 1467.23) rotate(180)"/><rect class="cls-36" x="1224.48" y="945.98" width="7.98" height="8.03"/><rect class="cls-37" x="1220.81" y="942.68" width="16.65" height="6.11"/><rect class="cls-36" x="1199.35" y="945.98" width="7.98" height="8.03" transform="translate(2406.69 1900) rotate(180)"/><polygon class="cls-38" points="1214.77 802.77 1217.05 802.77 1238.91 802.77 1234.93 942.68 1222.33 942.68 1220.37 827.23 1211.45 827.23 1209.49 942.68 1196.89 942.68 1192.91 802.77 1214.77 802.77"/><rect class="cls-37" x="1194.35" y="942.68" width="16.65" height="6.11" transform="translate(2405.36 1891.47) rotate(180)"/><circle class="cls-36" cx="1232.36" cy="715.92" r="3.98"/><circle class="cls-36" cx="1200.4" cy="715.92" r="3.98"/><circle class="cls-39" cx="1216.39" cy="712.49" r="16.35"/><path class="cls-40" d="M1141.37,718.49l9.66-3.86a1.94,1.94,0,0,1,2.52,1c2.62,6.06,6.33,14.3,8.47,19.17l4,8.77,1.85,4,1.41-.42,1.46-.42L1180,744c6.16-1.8,19.62-6.23,19.82-6.27,4.83-1.1,8.84,2.77,9.4,7.83a8.54,8.54,0,0,1-6.75,9.08c-6.17,1.4-12.34,2.81-18.49,4.3l-9.36,2.26-2.34.58-1.17.29-.77.18c-.46.09-.92.19-1.4.24a12.72,12.72,0,0,1-9.4-2.67l0-.06a12.52,12.52,0,0,1-2.11-1.74,13.41,13.41,0,0,1-1.73-2.26c-.24-.41-.45-.82-.65-1.24l-.14-.3-.06-.14-.11-.27-1.9-4.43-3.8-8.85c-2.17-4.95-6-13.4-8.74-19.42A2,2,0,0,1,1141.37,718.49Zm23.77,29.06,0,0,0,0Zm4.09,2.1v.23s0,0,0,0A.67.67,0,0,0,1169.23,749.65Z"/><path class="cls-41" d="M1169.22,749.62v0a.67.67,0,0,1,0,.2s0,.06,0,0v-.26Z"/><path class="cls-41" d="M1166.84,747.83h0Z"/><path class="cls-42" d="M1204.44,823.11l6.91-4.78v-9.42h-13.81v9.26Zm5.52-5.51-5.51,3.82-5.52-4V810.3h11Z"/><path class="cls-43" d="M1192.91,802.77h46l1.77-50.77c0-8.51-5.64-15.4-14.14-15.4h-21.26c-8.5,0-14.14,6.89-14.14,15.4Z"/><path class="cls-42" d="M1227.37,823.11l6.91-4.78v-9.42h-13.81v9.26Zm5.52-5.51-5.51,3.82-5.52-4V810.3h11Z"/><path class="cls-39" d="M1196.82,951.42l-.21,8.55s-20.6,5.84-20.86,5.84-3.21,1-3.21,2.86c0,0,37.45.13,37.32,0s.29-8.92.29-8.92S1211.18,949.65,1196.82,951.42Z"/><path class="cls-44" d="M1193.67,964.77a1,1,0,0,1-1-.86v-3.35a1,1,0,0,1,.87-1,.93.93,0,0,1,1,.87v3.34a1,1,0,0,1-.86,1Z"/><path class="cls-44" d="M1189.75,965.61a1,1,0,0,1-.94-.87V961.4a1,1,0,0,1,1.9-.18v3.35a.94.94,0,0,1-.86,1Z"/><path class="cls-44" d="M1185.89,966.69a1,1,0,0,1-1-.87v-3.34a1,1,0,0,1,.86-1,1,1,0,0,1,1,.86v3.35a1,1,0,0,1-.87,1Z"/><path class="cls-39" d="M1209.86,968.67l-1.5,1.51a4,4,0,0,1-2.86,1.19h-28.83a4,4,0,0,1-3.11-1.47l-1-1.23Z"/><path class="cls-39" d="M1235.62,951.42l.21,8.55s20.6,5.84,20.86,5.84,3.21,1,3.21,2.86c0,0-37.46.13-37.33,0s-.29-8.92-.29-8.92S1221.25,949.65,1235.62,951.42Z"/><path class="cls-44" d="M1238.77,964.77a1,1,0,0,0,1-.86v-3.35a1,1,0,0,0-.86-1,1,1,0,0,0-1,.87v3.34a1,1,0,0,0,.86,1Z"/><path class="cls-44" d="M1242.68,965.61a1,1,0,0,0,1-.87V961.4a1,1,0,0,0-1.9-.18v3.35a1,1,0,0,0,.87,1Z"/><path class="cls-44" d="M1246.55,966.69a1,1,0,0,0,1-.87v-3.34a1,1,0,0,0-1.9-.18v3.35a1,1,0,0,0,.87,1Z"/><path class="cls-39" d="M1222.57,968.67l1.5,1.51a4.05,4.05,0,0,0,2.86,1.19h28.84a4,4,0,0,0,3.11-1.47l1-1.23Z"/><rect class="cls-45" x="785.04" y="951.76" width="5.69" height="61.88"/><rect class="cls-46" x="779.67" y="950.09" width="16.45" height="8.58"/><rect class="cls-47" x="779.67" y="951.76" width="16.45" height="1.74"/><rect class="cls-46" x="782.21" y="958.66" width="11.35" height="6.9" transform="translate(1575.78 1924.22) rotate(180)"/><rect class="cls-47" x="782.21" y="958.66" width="11.35" height="1.74"/><rect class="cls-46" x="783.48" y="965.56" width="8.82" height="5.29" transform="translate(1575.78 1936.41) rotate(180)"/><path class="cls-46" d="M808.55,1014.58H767.23a2.68,2.68,0,0,1-2.67-2.67h0a2.68,2.68,0,0,1,2.67-2.68h41.32a2.67,2.67,0,0,1,2.67,2.68h0A2.67,2.67,0,0,1,808.55,1014.58Z"/><polygon class="cls-48" points="804.53 947 761.57 947 750.49 842.2 793.45 842.2 804.53 947"/><polyline class="cls-14" points="804.53 947 759.17 947 748.09 842.2 793.45 842.2"/><path class="cls-49" d="M748.79,842.07h0a4,4,0,0,0-4,4.47l10.38,96.85a4,4,0,0,0,4,3.61h0a4,4,0,0,0,4-4.47l-10.38-96.85A4,4,0,0,0,748.79,842.07Z"/><path class="cls-50" d="M818,951.76H757.77a5.34,5.34,0,0,1-5.34-5.34h0a5.35,5.35,0,0,1,5.34-5.35H818a5.36,5.36,0,0,1,5.35,5.35h0A5.35,5.35,0,0,1,818,951.76Z"/><path class="cls-51" d="M823.36,946.42H752.43a5.34,5.34,0,0,0,5.34,5.34H818A5.35,5.35,0,0,0,823.36,946.42Z"/><rect class="cls-47" x="783.48" y="965.56" width="8.82" height="1.74"/><path class="cls-47" d="M811.22,1011.91H764.56a2.68,2.68,0,0,0,2.67,2.67h41.32A2.67,2.67,0,0,0,811.22,1011.91Z"/><polygon class="cls-52" points="821.08 915.33 767.18 913.97 765.48 932.49 818.89 932.49 821.08 915.33"/><path class="cls-53" d="M818.7,923.91H774.06a8.59,8.59,0,0,0-8.59,8.58h0a8.59,8.59,0,0,0,8.59,8.58H818.7a8.59,8.59,0,0,0,8.59-8.58h0A8.59,8.59,0,0,0,818.7,923.91Z"/><path class="cls-54" d="M804.69,1013.37h0a7.73,7.73,0,0,0,4-10.19l-7-16a7.74,7.74,0,0,0-10.19-4h0a7.74,7.74,0,0,0-4,10.19l7,16A7.74,7.74,0,0,0,804.69,1013.37Z"/><path class="cls-55" d="M795.87,993.26h0a7.74,7.74,0,0,0,10-4.39l20.38-52.22a7.73,7.73,0,0,0-4.39-10h0a7.74,7.74,0,0,0-10,4.39l-20.38,52.22A7.74,7.74,0,0,0,795.87,993.26Z"/><path class="cls-56" d="M768.38,1014.43h0a7.73,7.73,0,0,1-1.31-10.86l10.75-13.71a7.73,7.73,0,0,1,10.86-1.31h0A7.73,7.73,0,0,1,790,999.41l-10.75,13.71A7.74,7.74,0,0,1,768.38,1014.43Z"/><path class="cls-57" d="M781.93,997.15h0a7.73,7.73,0,0,1-8.6-6.75l-6.72-55.65a7.74,7.74,0,0,1,6.75-8.61h0a7.74,7.74,0,0,1,8.61,6.75l6.71,55.66A7.73,7.73,0,0,1,781.93,997.15Z"/><polygon class="cls-58" points="821.08 915.33 767.18 913.97 769.3 832.8 813.52 832.8 821.08 915.33"/><path class="cls-59" d="M827.11,885.41l-6.11-46a7.65,7.65,0,1,0-15.17,2l4.89,36.82-27.29-2.92-1.65,15.38,36.94,4a7.74,7.74,0,0,0,8.39-9.28Z"/><path class="cls-39" d="M789.23,780.78h15.24v36.79a15.24,15.24,0,0,1-15.24,15.25h0A15.24,15.24,0,0,1,774,817.57V796A15.24,15.24,0,0,1,789.23,780.78Z"/><path class="cls-60" d="M785,825.06h15.47a0,0,0,0,1,0,0v13.83a6.79,6.79,0,0,1-6.79,6.79h-1.89a6.79,6.79,0,0,1-6.79-6.79V825.06a0,0,0,0,1,0,0Z"/><path class="cls-61" d="M785,791.08h31a0,0,0,0,1,0,0v25.59a14.22,14.22,0,0,1-14.22,14.22H785a0,0,0,0,1,0,0V791.08A0,0,0,0,1,785,791.08Z"/><path class="cls-60" d="M790.28,816.26a5.23,5.23,0,1,0-5.23,5.22A5.23,5.23,0,0,0,790.28,816.26Z"/><path class="cls-39" d="M785.05,816.64h0a2.09,2.09,0,0,1-2.09-2.09V801.38a2.09,2.09,0,0,1,2.09-2.09h0a2.1,2.1,0,0,1,2.09,2.09v13.17A2.1,2.1,0,0,1,785.05,816.64Z"/><path class="cls-39" d="M820.46,788.19V781a4.06,4.06,0,0,0-8.11-.2h0a4,4,0,0,0-8.09,0H788.91a10.3,10.3,0,0,0,0,20.6h7a10.28,10.28,0,0,0,8.91-5.15h8a7.73,7.73,0,0,0,7.73-7.73C820.48,788.4,820.46,788.29,820.46,788.19Z"/><path class="cls-62" d="M772.69,891.41l3.73-50.31A7.72,7.72,0,0,0,761,840l-4.34,58.63a7.72,7.72,0,0,0,7.69,8.29h37.2V891.41Z"/><rect class="cls-63" x="803.01" y="891.74" width="10.49" height="13.36" transform="translate(1706.67 90.16) rotate(90)"/><path class="cls-63" d="M811.53,893.17v-2.12a2.11,2.11,0,0,1,2.12-2.11h5.5a2.1,2.1,0,0,1,2.11,2.11h0a2.11,2.11,0,0,1-2.11,2.12Z"/><path class="cls-63" d="M807.2,894.58h15.47a0,0,0,0,1,0,0v6.54a6.11,6.11,0,0,1-6.11,6.11H807.2a0,0,0,0,1,0,0V894.58A0,0,0,0,1,807.2,894.58Z" transform="translate(1715.84 85.97) rotate(90)"/><path class="cls-63" d="M817.51,893.82h0a2.12,2.12,0,0,1,2.12-2.12h3.27a2.11,2.11,0,0,1,2.11,2.12h0a2.1,2.1,0,0,1-2.11,2.11h-3.27A2.11,2.11,0,0,1,817.51,893.82Z"/><path class="cls-63" d="M817.51,898.05h0a2.12,2.12,0,0,1,2.12-2.12h3.27a2.11,2.11,0,0,1,2.11,2.12h0a2.11,2.11,0,0,1-2.11,2.12h-3.27A2.12,2.12,0,0,1,817.51,898.05Z"/><path class="cls-63" d="M817.51,902.29h0a2.12,2.12,0,0,1,2.12-2.12h3.27a2.11,2.11,0,0,1,2.11,2.12h0a2.11,2.11,0,0,1-2.11,2.12h-3.27A2.12,2.12,0,0,1,817.51,902.29Z"/><path class="cls-63" d="M814.94,906.52h0a2.11,2.11,0,0,1,2.12-2.11h5.84a2.1,2.1,0,0,1,2.11,2.11h0a2.11,2.11,0,0,1-2.11,2.12h-5.84A2.12,2.12,0,0,1,814.94,906.52Z"/><rect class="cls-64" x="773.49" y="878.28" width="10.49" height="7.87" transform="translate(1738.73 201.66) rotate(96.1)"/><path class="cls-64" d="M778.77,876.94l.23-2.1a2.12,2.12,0,0,0-1.88-2.33l-5.47-.59a2.12,2.12,0,0,0-2.33,1.88h0a2.11,2.11,0,0,0,1.88,2.33Z"/><path class="cls-64" d="M766.83,877.95h9.36a6.11,6.11,0,0,1,6.11,6.11v6.54a0,0,0,0,1,0,0H766.83a0,0,0,0,1,0,0V877.95A0,0,0,0,1,766.83,877.95Z" transform="translate(1736.16 208.1) rotate(96.1)"/><path class="cls-64" d="M772.75,877h0a2.11,2.11,0,0,0-1.88-2.33l-3.24-.35a2.12,2.12,0,0,0-2.33,1.88h0a2.11,2.11,0,0,0,1.88,2.33l3.24.35A2.12,2.12,0,0,0,772.75,877Z"/><path class="cls-64" d="M772.3,881.16h0a2.11,2.11,0,0,0-1.88-2.33l-3.24-.35a2.12,2.12,0,0,0-2.33,1.88h0a2.1,2.1,0,0,0,1.88,2.33L770,883A2.11,2.11,0,0,0,772.3,881.16Z"/><path class="cls-64" d="M771.85,885.37h0A2.12,2.12,0,0,0,770,883l-3.24-.35a2.13,2.13,0,0,0-2.34,1.88h0a2.13,2.13,0,0,0,1.89,2.34l3.24.34A2.11,2.11,0,0,0,771.85,885.37Z"/><path class="cls-64" d="M774,889.86h0a2.1,2.1,0,0,0-1.88-2.33l-5.8-.62a2.12,2.12,0,0,0-2.34,1.88h0a2.13,2.13,0,0,0,1.89,2.33l5.8.62A2.12,2.12,0,0,0,774,889.86Z"/><polygon class="cls-65" points="797.41 848.81 792.87 845.53 800.49 832.23 806.92 832.25 797.41 848.81"/><polygon class="cls-65" points="788.34 848.81 792.87 845.53 785.26 832.23 778.83 832.25 788.34 848.81"/><rect class="cls-45" x="925.18" y="943.79" width="5.69" height="61.88" transform="translate(1856.05 1949.46) rotate(180)"/><rect class="cls-46" x="919.8" y="942.11" width="16.45" height="8.58" transform="translate(1856.05 1892.8) rotate(180)"/><rect class="cls-47" x="919.8" y="943.79" width="16.45" height="1.74" transform="translate(1856.05 1889.32) rotate(180)"/><rect class="cls-46" x="922.35" y="950.69" width="11.35" height="6.9"/><rect class="cls-47" x="922.35" y="950.69" width="11.35" height="1.74" transform="translate(1856.05 1903.12) rotate(180)"/><rect class="cls-46" x="923.62" y="957.59" width="8.82" height="5.29"/><path class="cls-46" d="M907.37,1006.61h41.32a2.68,2.68,0,0,0,2.67-2.68h0a2.68,2.68,0,0,0-2.67-2.67H907.37a2.67,2.67,0,0,0-2.67,2.67h0A2.67,2.67,0,0,0,907.37,1006.61Z"/><polygon class="cls-48" points="911.39 939.03 954.35 939.03 965.43 834.22 922.47 834.22 911.39 939.03"/><polyline class="cls-14" points="911.39 939.03 956.75 939.03 967.83 834.22 922.47 834.22"/><path class="cls-49" d="M967.12,834.1h0a4,4,0,0,1,4,4.47l-10.37,96.85a4,4,0,0,1-4,3.61h0a4.05,4.05,0,0,1-4-4.47l10.38-96.85A4,4,0,0,1,967.12,834.1Z"/><path class="cls-66" d="M897.91,943.79h60.24a5.34,5.34,0,0,0,5.34-5.34h0a5.34,5.34,0,0,0-5.34-5.35H897.91a5.35,5.35,0,0,0-5.35,5.35h0A5.35,5.35,0,0,0,897.91,943.79Z"/><path class="cls-67" d="M892.56,938.45h70.93a5.34,5.34,0,0,1-5.34,5.34H897.91A5.35,5.35,0,0,1,892.56,938.45Z"/><rect class="cls-47" x="923.62" y="957.59" width="8.82" height="1.74" transform="translate(1856.05 1916.91) rotate(180)"/><path class="cls-47" d="M904.7,1003.93h46.66a2.68,2.68,0,0,1-2.67,2.68H907.37A2.67,2.67,0,0,1,904.7,1003.93Z"/><path class="cls-45" d="M883.45,1002.93h0a7.74,7.74,0,0,1-1-10.89l11.12-13.42a7.75,7.75,0,0,1,10.9-1h0a7.74,7.74,0,0,1,1,10.89l-11.12,13.42A7.74,7.74,0,0,1,883.45,1002.93Z"/><path class="cls-68" d="M897.1,985.48h0a7.74,7.74,0,0,1-10-4.39L866.7,928.87a7.74,7.74,0,0,1,4.39-10h0a7.74,7.74,0,0,1,10,4.39l20.38,52.22A7.73,7.73,0,0,1,897.1,985.48Z"/><polygon class="cls-69" points="897.64 890.81 941.2 890.81 944.33 924.71 900.76 924.71 897.64 890.81"/><path class="cls-69" d="M874.79,916.13h61a8.59,8.59,0,0,1,8.59,8.58h0a8.59,8.59,0,0,1-8.59,8.58h-61a8.58,8.58,0,0,1-8.58-8.58h0A8.58,8.58,0,0,1,874.79,916.13Z"/><path class="cls-45" d="M809.76,970h0a7.73,7.73,0,0,1,7.24-8.2l17.39-1.09a7.73,7.73,0,0,1,8.2,7.23h0a7.73,7.73,0,0,1-7.23,8.21L818,977.25A7.73,7.73,0,0,1,809.76,970Z"/><path class="cls-69" d="M831.68,971.69h0a7.73,7.73,0,0,1-.69-10.91l37.09-42a7.73,7.73,0,0,1,10.91-.69h0a7.74,7.74,0,0,1,.69,10.92l-37.09,42A7.73,7.73,0,0,1,831.68,971.69Z"/><rect class="cls-70" x="850.17" y="852.35" width="9.91" height="12.62" transform="translate(2066.91 870.19) rotate(135.43)"/><path class="cls-70" d="M841.72,849.85h8.84a5.77,5.77,0,0,1,5.77,5.77v6.18a0,0,0,0,1,0,0H841.72a0,0,0,0,1,0,0V849.85A0,0,0,0,1,841.72,849.85Z" transform="translate(2054.46 869.59) rotate(135.43)"/><path class="cls-70" d="M852.08,849.38h0a2,2,0,0,0,0-2.83L845.67,840a2,2,0,0,0-2.83,0h0a2,2,0,0,0,0,2.83l6.43,6.53A2,2,0,0,0,852.08,849.38Z"/><path class="cls-70" d="M849.23,852.19h0a2,2,0,0,0,0-2.83l-8.9-9a2,2,0,0,0-2.83,0h0a2,2,0,0,0,0,2.83l8.9,9A2,2,0,0,0,849.23,852.19Z"/><path class="cls-70" d="M846.38,855h0a2,2,0,0,0,0-2.83L839,844.69a2,2,0,0,0-2.83,0h0a2,2,0,0,0,0,2.83l7.37,7.48A2,2,0,0,0,846.38,855Z"/><path class="cls-70" d="M843.53,857.8h0a2,2,0,0,0,0-2.83l-5-5.12a2,2,0,0,0-2.83,0h0a2,2,0,0,0,0,2.83l5,5.12A2,2,0,0,0,843.53,857.8Z"/><path class="cls-64" d="M856.49,853l1.42-1.41a2,2,0,0,0,0-2.83l-3.64-3.69a2,2,0,0,0-2.83,0h0a2,2,0,0,0,0,2.83Z"/><path class="cls-71" d="M905.64,829.64a7.63,7.63,0,0,0-8.89,4.48l-16.4,39.28-18.1-18.1-10.93,10.94,26.16,26.16.1.11h0a7.74,7.74,0,0,0,10.94,0,7.62,7.62,0,0,0,2.14-4.08L910.86,840A7.65,7.65,0,0,0,905.64,829.64Z"/><path class="cls-72" d="M899.32,916.13h44.22l-4.42-72.64a15.52,15.52,0,0,0-15.49-14.63H910.5A15.52,15.52,0,0,0,895,845.28Z"/><rect class="cls-64" x="861.76" y="886.57" width="10.49" height="13.36" transform="translate(1834.25 109.64) rotate(95.13)"/><path class="cls-64" d="M864.22,887.74l.19-2.11a2.12,2.12,0,0,0-1.92-2.3l-5.48-.49a2.11,2.11,0,0,0-2.3,1.92h0a2.12,2.12,0,0,0,1.92,2.29Z"/><rect class="cls-73" x="848.76" y="884.42" width="17.14" height="9.25" transform="translate(1819.51 114.7) rotate(95.13)"/><rect class="cls-74" x="857.05" y="877.38" width="1.82" height="9.25" transform="matrix(-0.09, 1, -1, -0.09, 1813.18, 106.38)"/><path class="cls-75" d="M863.24,881.57h0a.6.6,0,0,0-.54-.65l-9.21-.82a.58.58,0,0,0-.64.53h0a.59.59,0,0,0,.53.64l9.22.83A.59.59,0,0,0,863.24,881.57Z"/><path class="cls-64" d="M866.3,897.1l.82-9.1-12.6-1.13-.82,9.1a6.33,6.33,0,0,0,5.74,6.87h0A6.32,6.32,0,0,0,866.3,897.1Z"/><path class="cls-64" d="M864.41,888.34h0a2.12,2.12,0,0,0-1.92-2.3l-9.46-.79a2.12,2.12,0,0,0-2.3,1.92h0a2.11,2.11,0,0,0,1.92,2.3l9.47.79A2.1,2.1,0,0,0,864.41,888.34Z"/><path class="cls-64" d="M857.82,892.06h0a2.13,2.13,0,0,0-1.92-2.3l-3.25-.29a2.12,2.12,0,0,0-2.3,1.92h0a2.11,2.11,0,0,0,1.92,2.3l3.25.29A2.11,2.11,0,0,0,857.82,892.06Z"/><path class="cls-64" d="M857.44,896.28h0a2.12,2.12,0,0,0-1.92-2.3l-3.25-.29a2.11,2.11,0,0,0-2.3,1.92h0a2.13,2.13,0,0,0,1.92,2.3l3.25.29A2.11,2.11,0,0,0,857.44,896.28Z"/><path class="cls-64" d="M859.63,900.73h0a2.13,2.13,0,0,0-1.92-2.3l-5.82-.52a2.12,2.12,0,0,0-2.3,1.92h0a2.13,2.13,0,0,0,1.92,2.3l5.82.52A2.13,2.13,0,0,0,859.63,900.73Z"/><path class="cls-76" d="M935.08,836.82a7.72,7.72,0,0,0-10.71,3.64l-21.74,48.59L871,886.21l-1.39,15.41,37,3.33h0a7.71,7.71,0,0,0,7.79-4.53l24-53.66A7.72,7.72,0,0,0,935.08,836.82Z"/><path class="cls-77" d="M928.1,776.48l-13-2.63-7.71,38a13.27,13.27,0,0,0,10.37,15.64h0a13.26,13.26,0,0,0,15.64-10.36l5.07-25A13.27,13.27,0,0,0,928.1,776.48Z"/><path class="cls-64" d="M914.79,837.9h0a7.74,7.74,0,0,0,6.34-8.92L919,816.28l-15.25,2.58,2.15,12.71A7.74,7.74,0,0,0,914.79,837.9Z"/><path class="cls-64" d="M915.09,773.85h0a15.47,15.47,0,0,1,12.09,18.24L920.3,826,905.13,823A15.48,15.48,0,0,1,893,804.71l3.81-18.77A15.47,15.47,0,0,1,915.09,773.85Z"/><path class="cls-77" d="M900.08,770.8l31.79,6.45a9.43,9.43,0,0,1,7.36,11.11l-1.88,9.23-41-8.32A9.43,9.43,0,0,1,889,778.16h0A9.43,9.43,0,0,1,900.08,770.8Z"/><path class="cls-64" d="M918.08,810.66a5.23,5.23,0,1,1,4.09,6.16A5.24,5.24,0,0,1,918.08,810.66Z"/><rect class="cls-77" x="922.79" y="795.05" width="2.87" height="12.37" transform="translate(1670.71 1770.22) rotate(-168.53)"/><rect class="cls-77" x="921.35" y="807.82" width="2.87" height="1.08" transform="translate(1666.41 1784.06) rotate(-168.53)"/><rect class="cls-77" x="921.07" y="809.35" width="2.87" height="0.79" transform="translate(1665.58 1786.75) rotate(-168.53)"/><rect class="cls-77" x="920.83" y="810.68" width="2.87" height="0.49" transform="translate(1664.87 1789.03) rotate(-168.53)"/><path class="cls-73" d="M693.54,994.75h0a6,6,0,0,0,5.59-6L699,969.13a7.26,7.26,0,0,0-7.76-7.2h0a7.27,7.27,0,0,0-6.69,8.21l2.62,19.42A6,6,0,0,0,693.54,994.75Z"/><path class="cls-70" d="M692,972.84h0a4.82,4.82,0,0,0,6.66-.32l40.77-43a7.39,7.39,0,0,0-.52-10.68h0a7.4,7.4,0,0,0-10.65,1l-36.87,46.38A4.82,4.82,0,0,0,692,972.84Z"/><rect class="cls-45" x="678.8" y="943.79" width="5.69" height="61.88"/><rect class="cls-46" x="673.43" y="942.11" width="16.45" height="8.58"/><rect class="cls-47" x="673.43" y="943.79" width="16.45" height="1.74"/><rect class="cls-46" x="675.97" y="950.69" width="11.35" height="6.9" transform="translate(1363.3 1908.28) rotate(180)"/><rect class="cls-47" x="675.97" y="950.69" width="11.35" height="1.74"/><rect class="cls-46" x="677.24" y="957.59" width="8.82" height="5.29" transform="translate(1363.3 1920.46) rotate(180)"/><path class="cls-46" d="M702.31,1006.61H661a2.68,2.68,0,0,1-2.67-2.68h0a2.68,2.68,0,0,1,2.67-2.67h41.32a2.67,2.67,0,0,1,2.67,2.67h0A2.67,2.67,0,0,1,702.31,1006.61Z"/><polygon class="cls-14" points="698.28 939.03 655.33 939.03 644.25 834.22 687.21 834.22 698.28 939.03"/><path class="cls-49" d="M642.55,834.1h0a4,4,0,0,0-4,4.47l10.38,96.85a4,4,0,0,0,4,3.61h0a4.05,4.05,0,0,0,4-4.47l-10.38-96.85A4,4,0,0,0,642.55,834.1Z"/><path class="cls-78" d="M711.77,943.79H651.53a5.34,5.34,0,0,1-5.34-5.34h0a5.34,5.34,0,0,1,5.34-5.35h60.24a5.35,5.35,0,0,1,5.35,5.35h0A5.35,5.35,0,0,1,711.77,943.79Z"/><path class="cls-79" d="M717.12,938.45H646.19a5.34,5.34,0,0,0,5.34,5.34h60.24A5.35,5.35,0,0,0,717.12,938.45Z"/><rect class="cls-47" x="677.24" y="957.59" width="8.82" height="1.74"/><path class="cls-47" d="M705,1003.93H658.32a2.68,2.68,0,0,0,2.67,2.68h41.32A2.67,2.67,0,0,0,705,1003.93Z"/><path class="cls-39" d="M665.51,872.56h21.25V782.11h0a21.26,21.26,0,0,0-21.25,21.25Z"/><polygon class="cls-74" points="703.6 890.81 668.8 890.81 665.68 924.71 701.43 924.71 703.6 890.81"/><path class="cls-64" d="M735.21,916.13h-61a8.58,8.58,0,0,0-8.58,8.58h0a8.58,8.58,0,0,0,8.58,8.58h61a8.59,8.59,0,0,0,8.59-8.58h0A8.59,8.59,0,0,0,735.21,916.13Z"/><path class="cls-73" d="M721.73,1005.59h0A6,6,0,0,0,725,998l-6.71-18.41a7.27,7.27,0,0,0-9.74-4.16h0a7.27,7.27,0,0,0-3.53,10l9,17.41A6,6,0,0,0,721.73,1005.59Z"/><path class="cls-64" d="M712.91,985.48h0a4.82,4.82,0,0,0,6.16-2.54L743,928.74a7.4,7.4,0,0,0-4.08-9.89h0a7.41,7.41,0,0,0-9.7,4.51L710.1,979.44A4.81,4.81,0,0,0,712.91,985.48Z"/><path class="cls-74" d="M727.12,916.13H674.26a8.58,8.58,0,0,0-8.58,8.58h0a8.58,8.58,0,0,0,8.58,8.58h42.1Z"/><rect class="cls-70" x="757.02" y="850.29" width="9.91" height="12.62" transform="translate(820.37 -288.37) rotate(44.57)"/><path class="cls-70" d="M760.62,850.93l-1.43-1.41a2,2,0,0,1,0-2.83l3.65-3.7a2,2,0,0,1,2.82,0h0a2,2,0,0,1,0,2.83Z"/><path class="cls-70" d="M760.78,847.79h14.61a0,0,0,0,1,0,0V854a5.77,5.77,0,0,1-5.77,5.77h-8.84a0,0,0,0,1,0,0V847.79A0,0,0,0,1,760.78,847.79Z" transform="translate(820.12 -293.47) rotate(44.57)"/><path class="cls-70" d="M766,848.3h0a2,2,0,0,1,0-2.82l6.43-6.53a2,2,0,0,1,2.83,0h0a2,2,0,0,1,0,2.82l-6.43,6.53A2,2,0,0,1,766,848.3Z"/><path class="cls-64" d="M768.86,851.11h0a2,2,0,0,1,0-2.83l2.16-2.19a2,2,0,0,1,2.83,0h0a2,2,0,0,1,0,2.82l-2.16,2.2A2,2,0,0,1,768.86,851.11Z"/><path class="cls-64" d="M771.71,853.92h0a2,2,0,0,1,0-2.83l2.16-2.2a2,2,0,0,1,2.83,0h0a2,2,0,0,1,0,2.83l-2.16,2.2A2,2,0,0,1,771.71,853.92Z"/><path class="cls-64" d="M774.56,856.73h0a2,2,0,0,1,0-2.83l2.16-2.2a2,2,0,0,1,2.83,0h0a2,2,0,0,1,0,2.83l-2.17,2.19A2,2,0,0,1,774.56,856.73Z"/><path class="cls-80" d="M766.56,862.37l-10.41-10.26-18.9,19.18-26.33-33.7a7.22,7.22,0,1,0-11.38,8.89L731,886.76l0,0a8.39,8.39,0,0,0,.56.63l.11.1c.14.13.28.26.42.37l.21.16a7.2,7.2,0,0,0,7.13.94l.24-.11a5.22,5.22,0,0,0,.54-.24,7.77,7.77,0,0,0,1.09-.75l.06-.06.37-.33.16-.15Z"/><path class="cls-81" d="M699.29,832.34H686.17A15.51,15.51,0,0,0,670.67,847l-1.76,29.34h0l-2.45,39.83H702l2.46-39.93a10.62,10.62,0,0,0,9.23-9.9l1.06-17.55A15.53,15.53,0,0,0,699.29,832.34Z"/><path class="cls-64" d="M711.27,807.84l-3.71-12.08a15.88,15.88,0,1,0-30.37,9.31l8.36,27.27h0v1.2a6.67,6.67,0,1,0,13.33,0v-5.28l1.84-.57A15.89,15.89,0,0,0,711.27,807.84Z"/><path class="cls-39" d="M710.23,798.93s-1.87-26.12-23.47-16.82c-19.39,5.95-7.31,30.34-7.31,30.34,9.91-3,13.8-9.79,15.27-15.48C699.53,798.57,705.13,799.71,710.23,798.93Z"/><path class="cls-64" d="M686.29,816.08a5.48,5.48,0,1,0-3.63,6.84A5.48,5.48,0,0,0,686.29,816.08Z"/><rect class="cls-64" x="720.69" y="894.46" width="9.91" height="12.62" transform="translate(1683.06 251.69) rotate(94.72)"/><path class="cls-64" d="M729.14,896.09l.16-2a2,2,0,0,1,2.16-1.83l5.17.43a2,2,0,0,1,1.83,2.16h0a2,2,0,0,1-2.16,1.83Z"/><path class="cls-64" d="M724.44,897.66H739a0,0,0,0,1,0,0v6.18a5.77,5.77,0,0,1-5.77,5.77h-8.84a0,0,0,0,1,0,0V897.66A0,0,0,0,1,724.44,897.66Z" transform="matrix(-0.08, 1, -1, -0.08, 1692.5, 248.69)"/><path class="cls-64" d="M734.72,897.16h0a2,2,0,0,1,2.16-1.83l3.07.25a2,2,0,0,1,1.83,2.16h0a2,2,0,0,1-2.16,1.83l-3.07-.25A2,2,0,0,1,734.72,897.16Z"/><path class="cls-64" d="M734.39,901.14h0a2,2,0,0,1,2.16-1.82l3.07.25a2,2,0,0,1,1.83,2.16h0a2,2,0,0,1-2.16,1.83l-3.07-.26A2,2,0,0,1,734.39,901.14Z"/><path class="cls-64" d="M734.06,905.13h0a2,2,0,0,1,2.16-1.83l3.07.26a2,2,0,0,1,1.83,2.15h0a2,2,0,0,1-2.16,1.83l-3.07-.25A2,2,0,0,1,734.06,905.13Z"/><path class="cls-64" d="M731.31,908.92h0a2,2,0,0,1,2.15-1.83l5.5.45a2,2,0,0,1,1.83,2.16h0a2,2,0,0,1-2.16,1.83l-5.49-.46A2,2,0,0,1,731.31,908.92Z"/><path class="cls-82" d="M695.09,891.9l-9-49.11a7.28,7.28,0,1,0-14.33,2.61l9.83,53.9a7.3,7.3,0,0,0,6.67,6.7l35,2.89,1.2-14.56Z"/><rect class="cls-83" x="630.24" y="913.76" width="362.58" height="121.84"/></g></g></svg>