<svg xmlns="http://www.w3.org/2000/svg" xmlns:xlink="http://www.w3.org/1999/xlink" viewBox="0 0 1683.63 765.8"><defs><style>.cls-1{fill:url(#linear-gradient);}.cls-2{fill:url(#linear-gradient-2);}.cls-3{fill:#d8761d;}.cls-4{fill:#e56e3e;opacity:0.29;}.cls-5{fill:url(#linear-gradient-3);}.cls-6{fill:url(#linear-gradient-4);}.cls-7{fill:url(#linear-gradient-5);}.cls-8{fill:#e5ac38;}.cls-9{fill:url(#linear-gradient-6);}.cls-10{fill:url(#linear-gradient-7);}.cls-11{fill:#ffb67e;}.cls-12{fill:url(#linear-gradient-8);}.cls-13{fill:#262626;}.cls-14{fill:#e88949;}.cls-15{fill:url(#linear-gradient-9);}.cls-16,.cls-17,.cls-18,.cls-59{fill:#fff9e7;}.cls-17,.cls-19,.cls-20,.cls-21,.cls-22,.cls-23,.cls-24,.cls-25,.cls-28,.cls-29,.cls-30,.cls-31,.cls-32,.cls-33,.cls-34,.cls-35,.cls-44{opacity:0.5;}.cls-18{opacity:0.46;}.cls-19{fill:url(#linear-gradient-10);}.cls-20{fill:url(#linear-gradient-11);}.cls-21{fill:url(#linear-gradient-12);}.cls-22{fill:url(#linear-gradient-13);}.cls-23{fill:url(#linear-gradient-14);}.cls-24{fill:url(#linear-gradient-15);}.cls-25{fill:url(#linear-gradient-16);}.cls-26{fill:url(#linear-gradient-17);}.cls-27{fill:url(#linear-gradient-18);}.cls-28{fill:url(#linear-gradient-19);}.cls-29{fill:url(#linear-gradient-20);}.cls-30{fill:url(#linear-gradient-21);}.cls-31{fill:url(#linear-gradient-22);}.cls-32{fill:url(#linear-gradient-23);}.cls-33{fill:url(#linear-gradient-24);}.cls-34{fill:url(#linear-gradient-25);}.cls-36,.cls-37,.cls-38,.cls-39,.cls-40,.cls-41,.cls-42,.cls-43{fill:none;stroke-miterlimit:10;}.cls-36{stroke:url(#linear-gradient-26);}.cls-37,.cls-41{stroke-dasharray:3.61 4.04;}.cls-37{stroke:url(#linear-gradient-27);}.cls-38{stroke:url(#linear-gradient-28);}.cls-39,.cls-43{stroke-dasharray:3.49 3.9;}.cls-39{stroke:url(#linear-gradient-29);}.cls-40{stroke:url(#linear-gradient-30);}.cls-41{stroke:url(#linear-gradient-31);}.cls-42{stroke:url(#linear-gradient-32);}.cls-43{stroke:url(#linear-gradient-33);}.cls-44{fill:url(#linear-gradient-34);}.cls-45{opacity:0.74;fill:url(#linear-gradient-35);}.cls-46{fill:#ccbbb2;}.cls-47{fill:#ff4200;}.cls-48{fill:#222728;}.cls-49{fill:url(#linear-gradient-36);}.cls-50{fill:#f9ad26;}.cls-51{fill:url(#linear-gradient-37);}.cls-52{fill:url(#linear-gradient-38);}.cls-53{fill:url(#linear-gradient-39);}.cls-54{fill:url(#linear-gradient-40);}.cls-55{fill:url(#linear-gradient-41);}.cls-56{fill:url(#linear-gradient-42);}.cls-57{fill:url(#linear-gradient-43);}.cls-58{fill:url(#linear-gradient-44);}.cls-59{opacity:0.47;}.cls-60{fill:#fa968c;}.cls-61{fill:#0073aa;}.cls-62{fill:#a03c19;}.cls-63{fill:#0091c8;}.cls-64{fill:#cd5014;}.cls-65{fill:#fab9af;}.cls-66{fill:url(#linear-gradient-45);}</style><linearGradient id="linear-gradient" x1="-3.56" y1="595.29" x2="1684.35" y2="595.29" gradientUnits="userSpaceOnUse"><stop offset="0" stop-color="#f7942f" stop-opacity="0"/><stop offset="0.5" stop-color="#f7c700"/><stop offset="1" stop-color="#f7942f" stop-opacity="0"/></linearGradient><linearGradient id="linear-gradient-2" x1="1348.5" y1="309.34" x2="1348.5" y2="623.58" gradientUnits="userSpaceOnUse"><stop offset="0" stop-color="#fcd02f"/><stop offset="1" stop-color="#ff6e27"/></linearGradient><linearGradient id="linear-gradient-3" x1="1276.81" y1="473.95" x2="1276.81" y2="634.54" xlink:href="#linear-gradient-2"/><linearGradient id="linear-gradient-4" x1="-5660.31" y1="151.38" x2="-5660.31" y2="590.55" gradientTransform="translate(5879.3)" xlink:href="#linear-gradient-2"/><linearGradient id="linear-gradient-5" x1="-5722.54" y1="91.22" x2="-5591.47" y2="570.36" gradientTransform="translate(5879.3)" gradientUnits="userSpaceOnUse"><stop offset="0" stop-color="#ff6e27"/><stop offset="1" stop-color="#fcd02f"/></linearGradient><linearGradient id="linear-gradient-6" x1="734.65" y1="164.57" x2="776.53" y2="164.57" gradientUnits="userSpaceOnUse"><stop offset="0" stop-color="#0094ff"/><stop offset="1" stop-color="#a9ff15"/></linearGradient><linearGradient id="linear-gradient-7" x1="713.69" y1="216.36" x2="810.75" y2="216.36" gradientUnits="userSpaceOnUse"><stop offset="0" stop-color="#a9ff15"/><stop offset="1" stop-color="#0094ff"/></linearGradient><linearGradient id="linear-gradient-8" x1="709.33" y1="225.07" x2="740.55" y2="225.07" xlink:href="#linear-gradient-7"/><linearGradient id="linear-gradient-9" x1="966.95" y1="-64.37" x2="966.95" y2="690.17" xlink:href="#linear-gradient-2"/><linearGradient id="linear-gradient-10" x1="807.21" y1="96.1" x2="1126.68" y2="96.1" gradientTransform="matrix(1, 0, 0, 1, 0, 0)" xlink:href="#linear-gradient-5"/><linearGradient id="linear-gradient-11" x1="807.21" y1="212.03" x2="1122.76" y2="212.03" xlink:href="#linear-gradient-2"/><linearGradient id="linear-gradient-12" x1="807.21" y1="293.71" x2="1126.68" y2="293.71" xlink:href="#linear-gradient-2"/><linearGradient id="linear-gradient-13" x1="807.21" y1="313.99" x2="991.32" y2="313.99" xlink:href="#linear-gradient-2"/><linearGradient id="linear-gradient-14" x1="807.21" y1="429.73" x2="1122.76" y2="429.73" gradientTransform="matrix(1, 0, 0, 1, 0, 0)" xlink:href="#linear-gradient-5"/><linearGradient id="linear-gradient-15" x1="807.21" y1="511.41" x2="1126.68" y2="511.41" gradientTransform="matrix(1, 0, 0, 1, 0, 0)" xlink:href="#linear-gradient-5"/><linearGradient id="linear-gradient-16" x1="807.21" y1="531.69" x2="991.32" y2="531.69" xlink:href="#linear-gradient-2"/><linearGradient id="linear-gradient-17" x1="436.72" y1="399.06" x2="1043.37" y2="831.98" xlink:href="#linear-gradient-2"/><linearGradient id="linear-gradient-18" x1="596.93" y1="680.93" x2="596.93" y2="636.93" gradientTransform="matrix(1, 0, 0, 1, 0, 0)" xlink:href="#linear-gradient-5"/><linearGradient id="linear-gradient-19" x1="465.38" y1="341.24" x2="724.82" y2="526.39" gradientTransform="matrix(1, 0, 0, 1, 0, 0)" xlink:href="#linear-gradient-5"/><linearGradient id="linear-gradient-20" x1="450.54" y1="546.55" x2="450.54" y2="450.21" gradientTransform="matrix(1, 0, 0, 1, 0, 0)" xlink:href="#linear-gradient-5"/><linearGradient id="linear-gradient-21" x1="503.64" y1="615.07" x2="687.31" y2="615.07" xlink:href="#linear-gradient-2"/><linearGradient id="linear-gradient-22" x1="503.64" y1="632.92" x2="606.68" y2="632.92" xlink:href="#linear-gradient-2"/><linearGradient id="linear-gradient-23" x1="410.93" y1="544.96" x2="490.14" y2="544.96" xlink:href="#linear-gradient-2"/><linearGradient id="linear-gradient-24" x1="410.93" y1="557.79" x2="455.37" y2="557.79" xlink:href="#linear-gradient-2"/><linearGradient id="linear-gradient-25" x1="517.17" y1="511.33" x2="671.59" y2="621.52" xlink:href="#linear-gradient-2"/><linearGradient id="linear-gradient-26" x1="537.12" y1="418.91" x2="687.96" y2="526.55" xlink:href="#linear-gradient-2"/><linearGradient id="linear-gradient-27" x1="505.71" y1="462.93" x2="656.54" y2="570.57" xlink:href="#linear-gradient-2"/><linearGradient id="linear-gradient-28" x1="475.36" y1="505.45" x2="626.2" y2="613.1" xlink:href="#linear-gradient-2"/><linearGradient id="linear-gradient-29" x1="489.53" y1="485.61" x2="640.36" y2="593.25" xlink:href="#linear-gradient-2"/><linearGradient id="linear-gradient-30" x1="502.98" y1="466.75" x2="653.82" y2="574.39" xlink:href="#linear-gradient-2"/><linearGradient id="linear-gradient-31" x1="534.4" y1="422.73" x2="685.24" y2="530.37" xlink:href="#linear-gradient-2"/><linearGradient id="linear-gradient-32" x1="564.74" y1="380.21" x2="715.58" y2="487.85" xlink:href="#linear-gradient-2"/><linearGradient id="linear-gradient-33" x1="550.58" y1="400.06" x2="701.42" y2="507.7" xlink:href="#linear-gradient-2"/><linearGradient id="linear-gradient-34" x1="701.31" y1="555.12" x2="782.93" y2="555.12" gradientTransform="matrix(1, 0, 0, 1, 0, 0)" xlink:href="#linear-gradient-5"/><linearGradient id="linear-gradient-35" x1="818.82" y1="550.54" x2="954.44" y2="550.54" gradientTransform="translate(294.2 -170.15)" xlink:href="#linear-gradient-2"/><linearGradient id="linear-gradient-36" x1="1167.82" y1="357.75" x2="1212.99" y2="357.75" gradientTransform="translate(-35.89 115.37) rotate(-5.63)" gradientUnits="userSpaceOnUse"><stop offset="0" stop-color="#adffff"/><stop offset="1" stop-color="#00b3aa"/></linearGradient><linearGradient id="linear-gradient-37" x1="858.72" y1="456.07" x2="994.34" y2="456.07" gradientTransform="translate(218.61 -87.56)" xlink:href="#linear-gradient-2"/><linearGradient id="linear-gradient-38" x1="1101.72" y1="302.22" x2="1208.14" y2="417" xlink:href="#linear-gradient-36"/><linearGradient id="linear-gradient-39" x1="1056.92" y1="326.44" x2="1146.76" y2="326.44" xlink:href="#linear-gradient-36"/><linearGradient id="linear-gradient-40" x1="1150.83" y1="376.28" x2="1189.82" y2="362.32" gradientTransform="matrix(0.99, -0.02, -0.02, 0.93, 15.15, 48.59)" gradientUnits="userSpaceOnUse"><stop offset="0.01" stop-color="#fff" stop-opacity="0"/><stop offset="0.1" stop-color="#fff" stop-opacity="0.14"/><stop offset="0.29" stop-color="#fff" stop-opacity="0.4"/><stop offset="0.47" stop-color="#fff" stop-opacity="0.61"/><stop offset="0.64" stop-color="#fff" stop-opacity="0.78"/><stop offset="0.78" stop-color="#fff" stop-opacity="0.9"/><stop offset="0.91" stop-color="#fff" stop-opacity="0.97"/><stop offset="1" stop-color="#fff"/></linearGradient><linearGradient id="linear-gradient-41" x1="1172" y1="368.46" x2="1215.47" y2="352.89" xlink:href="#linear-gradient-40"/><linearGradient id="linear-gradient-42" x1="1147.84" y1="365.44" x2="1202.51" y2="365.44" gradientTransform="matrix(1, 0, 0, 1, 0, 0)" xlink:href="#linear-gradient-36"/><linearGradient id="linear-gradient-43" x1="1170.45" y1="357.27" x2="1225.13" y2="357.27" gradientTransform="matrix(1, 0, 0, 1, 0, 0)" xlink:href="#linear-gradient-36"/><linearGradient id="linear-gradient-44" x1="275.9" y1="515.93" x2="431.81" y2="515.93" gradientUnits="userSpaceOnUse"><stop offset="0" stop-color="#fca32f"/><stop offset="1" stop-color="#ff5d27"/></linearGradient><linearGradient id="linear-gradient-45" x1="323.46" y1="607" x2="366.39" y2="607" gradientUnits="userSpaceOnUse"><stop offset="0" stop-color="#9435ff"/><stop offset="1" stop-color="#ff46ff"/></linearGradient></defs><title>01</title><g id="Layer_2" data-name="Layer 2"><g id="Layer_1-2" data-name="Layer 1"><rect class="cls-1" y="588.54" width="1683.63" height="13.5"/><path class="cls-2" d="M1312.79,519.9h-.07c8.83-9.22,4.68-19.41,3.08-22.51v0c-.31-.6-.53-.95-.53-.95h.08a37.09,37.09,0,0,1,6.86-43.07c6.18-8.19,1.5-19.07,1.5-19.07h0a26.29,26.29,0,1,1,49.56,0h0s-4.68,10.88,1.5,19.07a37.06,37.06,0,0,1,6.87,43.06h0l-.12.19c-.21.41-.42.82-.64,1.22-1.65,3.41-4.84,12.52,2.44,21.06l.67.8.19.21h0a45.79,45.79,0,1,1-71.41,0Z"/><path class="cls-3" d="M1335,544.6l11.21,11.1v-39l-13.77-13.62a1.82,1.82,0,0,1,2.56-2.59l11.21,11.1V457.82a1.82,1.82,0,0,1,3.64,0v32.41l10.9-10.84a1.82,1.82,0,1,1,2.57,2.57l-13.47,13.4v39.15l12-12.18a1.82,1.82,0,0,1,2.59,2.56l-14.64,14.79V643.54a1.82,1.82,0,0,1-3.64,0V560.81l-13.77-13.62a1.82,1.82,0,0,1,2.56-2.59Z"/><path class="cls-4" d="M1397.91,646h-73.86a.64.64,0,0,1,0-1.28h73.86a.64.64,0,0,1,.64.64A.64.64,0,0,1,1397.91,646Z"/><path class="cls-5" d="M1258.56,581.56h0a9.72,9.72,0,0,0,1.58-11.51h0c-.16-.3-.27-.48-.27-.48h0a18.95,18.95,0,0,1,3.51-22c3.16-4.18.77-9.74.77-9.74h0a13.45,13.45,0,1,1,25.33,0h0s-2.39,5.56.77,9.74a19,19,0,0,1,3.51,22h0l-.06.09c-.11.21-.21.42-.33.63a9.68,9.68,0,0,0,1.25,10.76l.34.41.1.11h0a23.4,23.4,0,1,1-36.49,0Z"/><path class="cls-3" d="M1269.93,594.18l5.73,5.67V579.93l-7-7a.93.93,0,1,1,1.31-1.32l5.73,5.66V549.83a.93.93,0,0,1,1.86,0v16.56l5.57-5.54a.93.93,0,0,1,1.32,0,.92.92,0,0,1,0,1.31l-6.88,6.85v20l6.16-6.22a.93.93,0,1,1,1.32,1.31l-7.48,7.56v53.08a.93.93,0,0,1-1.86,0V602.47l-7-7a.93.93,0,1,1,1.31-1.32Z"/><path class="cls-4" d="M1302.06,646h-37.75a.33.33,0,0,1,0-.65h37.75a.33.33,0,0,1,0,.65Z"/><path class="cls-6" d="M169.09,445.65H169c12.34-12.89,6.54-27.13,4.3-31.46v0c-.43-.84-.74-1.34-.74-1.34l.11,0a51.81,51.81,0,0,1,9.59-60.2c8.64-11.44,2.1-26.65,2.1-26.65h0a36.75,36.75,0,1,1,69.26,0h0s-6.54,15.21,2.1,26.65a51.83,51.83,0,0,1,9.6,60.19h0a2.81,2.81,0,0,0-.16.27c-.3.57-.59,1.14-.9,1.7-2.31,4.78-6.76,17.51,3.41,29.45l.94,1.1c.09.1.16.2.26.3h0a64,64,0,1,1-99.8,0Z"/><path class="cls-3" d="M200.18,480.17l15.67,15.51V441.2l-19.24-19a2.54,2.54,0,0,1,3.57-3.62l15.67,15.51V358.89a2.55,2.55,0,0,1,5.09,0v45.29L236.18,389a2.54,2.54,0,1,1,3.58,3.6l-18.82,18.72v54.72l16.84-17a2.55,2.55,0,0,1,3.62,3.58l-20.46,20.66V618.45a2.55,2.55,0,1,1-5.09,0V502.83l-19.24-19a2.54,2.54,0,0,1,3.57-3.62Z"/><path class="cls-4" d="M288,621.89H184.82a.9.9,0,0,1,0-1.79H288a.9.9,0,1,1,0,1.79Z"/><path class="cls-7" d="M242.93,507.22h-.06c7-7.36,3.73-15.5,2.46-18h0c-.25-.48-.43-.77-.43-.77l.07,0a29.65,29.65,0,0,1,5.48-34.42c4.94-6.54,1.2-15.23,1.2-15.23h0a21,21,0,1,1,40.81-7,20.73,20.73,0,0,1-1.22,7h0s-3.73,8.69,1.21,15.23a29.64,29.64,0,0,1,5.48,34.41h0a1.56,1.56,0,0,1-.09.15c-.17.33-.33.66-.51,1-1.32,2.73-3.87,10,1.95,16.83l.53.63.15.17h0a36.58,36.58,0,1,1-57,0Z"/><path class="cls-8" d="M260.7,527l8.95,8.86V504.68l-11-10.89a1.45,1.45,0,1,1,2.05-2.06l8.95,8.86v-43a1.46,1.46,0,0,1,2.91,0v25.89l8.71-8.66a1.45,1.45,0,1,1,2.05,2.06l-10.76,10.7v31.27l9.63-9.72a1.45,1.45,0,0,1,2.06,2L272.56,523v83a1.46,1.46,0,0,1-2.91,0V539.91l-11-10.89A1.45,1.45,0,1,1,260.7,527Z"/><path class="cls-4" d="M310.92,608h-59a.51.51,0,1,1,0-1h59a.51.51,0,1,1,0,1Z"/><path class="cls-9" d="M776.37,142.06c1.8,19.07-12.37,30.08-18.7,46.17l-23-14c11.89-12.57,29.16-14.91,34.63-33.27"/><path class="cls-10" d="M810.75,186.79c0,10.68-6.15,19.32-11.39,28.19A300.24,300.24,0,0,0,785,241.57c-1.14,2.73-5.47,16.14-7.75,18-10.18-2.62-22.1-7-31.9-14.55-15.26-11.59-27.1-24.33-31.66-43l9.07-13.78,8.43-11a35,35,0,0,1,9.92-3.47c12.65-2.32,22.47,3.48,32,7.17C781.43,184.07,793.77,187.32,810.75,186.79Z"/><path class="cls-11" d="M738.53,267.5c-.65,4,1.37,4,2,6.82.75,3.26,2.13,6.92-1,8.53-.48.25-1.42-.13-.82-1.32-.35.1-1.85,1.29-2.27,1.37-1.61.31-2.91.75-3.4-1.59a7.41,7.41,0,0,1-1.91-6.74c.5-2,2-2.52,2-4.8s-2-5.3-2.78-7.57"/><path class="cls-12" d="M731.66,213c-3.62,26.36-.47,39.07,8.89,54-.94,3.19-5.28,3.83-9.11,2.48-40.23-45.81-15.5-84.19-4-89.49"/><path class="cls-11" d="M736.64,157.13A110.58,110.58,0,0,0,739.11,171c1.55,4.94,4.95,9.57,1.55,13.89-8.35,11.42-28.16-3.39-28.16-14.2"/><path class="cls-13" d="M709.27,162c-1.34-3.65-2.45-7.73,1.93-11,11.56-8.57,18.42-1.65,22-1.65,1.65-.27,4.88-6.7,6.59,1.38,3,14.26-10.44,22.77-22.54,18.1-.28,3.29,3.57,6.31,3.3,8.78-.55,3.57-5.18,3.76-7.7,2.47C706.81,177,701.3,161.69,709.27,162Z"/><path class="cls-14" d="M739,281.18a2.48,2.48,0,0,0,.15-1.69,1.93,1.93,0,0,0-1.57-.43,2,2,0,0,0-1.44.69,6.35,6.35,0,0,0-.71,1.56,4.19,4.19,0,0,1,.54-1.69,2,2,0,0,1,1.59-.78,1.8,1.8,0,0,1,1.61.64A2.45,2.45,0,0,1,739,281.18Z"/><path class="cls-14" d="M734.64,277.62a2.33,2.33,0,0,0-.68.72,4.61,4.61,0,0,0-.44.89,5,5,0,0,0-.28.95,4.71,4.71,0,0,0-.11,1,3.25,3.25,0,0,1,.16-2,3.58,3.58,0,0,1,.52-.91A1.74,1.74,0,0,1,734.64,277.62Z"/><path class="cls-14" d="M737.3,280.25a2.07,2.07,0,0,1-.73.15,1.31,1.31,0,0,1-.39,0,.66.66,0,0,1-.32-.23,2.43,2.43,0,0,0,.71,0A2.3,2.3,0,0,1,737.3,280.25Z"/><path class="cls-13" d="M707.06,162.46a4.72,4.72,0,0,0-1,3.3c.13,3.69,3,9.19,6.82,8.54a2.75,2.75,0,0,0,2.09-2.72c0-1.26-1.51-7-.63-6.87,2.83.38,13.27,5.41,24.23-3.05-3.65,7.19-12.82,10.44-21.33,7.16-.28,3.29,3.57,6.31,3.3,8.78-.55,3.57-5.18,3.76-7.7,2.47C707.5,177.33,702.59,165.06,707.06,162.46Z"/><rect class="cls-15" x="752.79" width="428.32" height="652" rx="23.18" ry="23.18"/><rect class="cls-16" x="782.52" y="39" width="368.85" height="539.84" rx="23.18" ry="23.18"/><rect class="cls-17" x="923.61" y="16.3" width="86.68" height="8.69"/><circle class="cls-18" cx="966.95" cy="616.16" r="27.46"/><rect class="cls-19" x="807.21" y="77.35" width="319.46" height="37.49"/><rect class="cls-20" x="807.21" y="150.68" width="315.54" height="122.7"/><rect class="cls-21" x="807.21" y="288.3" width="319.46" height="10.81"/><rect class="cls-22" x="807.21" y="308.59" width="184.11" height="10.81"/><rect class="cls-23" x="807.21" y="368.38" width="315.54" height="122.7"/><rect class="cls-24" x="807.21" y="506" width="319.46" height="10.81"/><rect class="cls-25" x="807.21" y="526.29" width="184.11" height="10.81"/><path class="cls-26" d="M390.69,372.2H803.17a25.48,25.48,0,0,1,25.48,25.48V642.23a0,0,0,0,1,0,0H365.22a0,0,0,0,1,0,0V397.68A25.48,25.48,0,0,1,390.69,372.2Z"/><path class="cls-16" d="M399.22,400.24H794.64a7.15,7.15,0,0,1,7.15,7.15V642.23a0,0,0,0,1,0,0H392.07a0,0,0,0,1,0,0V407.39A7.15,7.15,0,0,1,399.22,400.24Z"/><path class="cls-27" d="M312.79,642.23H881.08a0,0,0,0,1,0,0v0a28,28,0,0,1-28,28H340.83a28,28,0,0,1-28-28v0A0,0,0,0,1,312.79,642.23Z"/><rect class="cls-28" x="410.93" y="421.8" width="372" height="26.66"/><rect class="cls-29" x="410.93" y="467.03" width="79.21" height="65.8"/><rect class="cls-30" x="503.64" y="610.72" width="183.67" height="8.7"/><rect class="cls-31" x="503.64" y="628.57" width="103.04" height="8.7"/><rect class="cls-32" x="410.93" y="541.83" width="79.21" height="6.26"/><rect class="cls-33" x="410.93" y="554.66" width="44.44" height="6.26"/><rect class="cls-34" x="503.64" y="532.83" width="183.67" height="68.75"/><g class="cls-35"><polyline class="cls-36" points="687.3 524.49 687.3 526.27 685.53 526.27"/><line class="cls-37" x1="681.49" y1="526.27" x2="507.44" y2="526.27"/><polyline class="cls-38" points="505.42 526.27 503.64 526.27 503.64 524.49"/><line class="cls-39" x1="503.64" y1="520.59" x2="503.64" y2="470.76"/><polyline class="cls-40" points="503.64 468.81 503.64 467.03 505.42 467.03"/><line class="cls-41" x1="509.46" y1="467.03" x2="683.51" y2="467.03"/><polyline class="cls-42" points="685.53 467.03 687.3 467.03 687.3 468.81"/><line class="cls-43" x1="687.31" y1="472.71" x2="687.31" y2="522.54"/></g><rect class="cls-44" x="701.31" y="468.02" width="81.63" height="174.21"/><rect class="cls-16" x="725.43" y="477.88" width="45.21" height="2.48"/><rect class="cls-16" x="725.43" y="483.45" width="30.37" height="2.48"/><circle class="cls-16" cx="714.68" cy="481.9" r="6.25"/><rect class="cls-16" x="725.43" y="496.94" width="45.21" height="2.48"/><rect class="cls-16" x="725.43" y="502.5" width="30.37" height="2.48"/><circle class="cls-16" cx="714.68" cy="500.96" r="6.25"/><rect class="cls-16" x="725.43" y="515.99" width="45.21" height="2.48"/><rect class="cls-16" x="725.43" y="521.56" width="30.37" height="2.48"/><circle class="cls-16" cx="714.68" cy="520.02" r="6.25"/><rect class="cls-16" x="725.43" y="535.05" width="45.21" height="2.48"/><rect class="cls-16" x="725.43" y="540.62" width="30.37" height="2.48"/><circle class="cls-16" cx="714.68" cy="539.08" r="6.25"/><rect class="cls-16" x="725.43" y="554.11" width="45.21" height="2.48"/><rect class="cls-16" x="725.43" y="559.68" width="30.37" height="2.48"/><circle class="cls-16" cx="714.68" cy="558.14" r="6.25"/><rect class="cls-16" x="725.43" y="573.17" width="45.21" height="2.48"/><rect class="cls-16" x="725.43" y="578.74" width="30.37" height="2.48"/><circle class="cls-16" cx="714.68" cy="577.19" r="6.25"/><rect class="cls-16" x="725.43" y="592.23" width="45.21" height="2.48"/><rect class="cls-16" x="725.43" y="597.8" width="30.37" height="2.48"/><circle class="cls-16" cx="714.68" cy="596.25" r="6.25"/><rect class="cls-16" x="725.43" y="611.28" width="45.21" height="2.48"/><rect class="cls-16" x="725.43" y="616.85" width="30.37" height="2.48"/><circle class="cls-16" cx="714.68" cy="615.31" r="6.25"/><rect class="cls-16" x="725.43" y="630.34" width="45.21" height="2.48"/><rect class="cls-16" x="725.43" y="635.91" width="30.37" height="2.48"/><circle class="cls-16" cx="714.68" cy="634.37" r="6.25"/><rect class="cls-45" x="1113.01" y="374.98" width="135.63" height="10.81" transform="translate(509.25 -662.7) rotate(39.37)"/><polygon class="cls-46" points="1212.36 556.96 1197.56 559.43 1191.38 537.45 1206.13 534.31 1212.36 556.96"/><polyline class="cls-46" points="1221.91 531.44 1231.05 548.77 1246.32 547.27 1238.35 528.04"/><polygon class="cls-47" points="1194.46 404.8 1244.04 533.62 1221.54 537.62 1150.15 410.19 1194.46 404.8"/><polygon class="cls-47" points="1192.55 414.55 1214.11 550.89 1191.27 550.1 1148.1 410.56 1192.55 414.55"/><rect class="cls-46" x="1142.69" y="314.82" width="15.16" height="29.63" transform="matrix(-0.95, 0.3, -0.3, -0.95, 2346.52, 301.97)"/><path class="cls-46" d="M1122.13,298.51a2,2,0,0,1,2.31-1.57l2.62.49a16.34,16.34,0,1,1-1.52,3.74l-1.83-.34A2,2,0,0,1,1122.13,298.51Z"/><path class="cls-48" d="M1135,303.77l1.23-8.41s-9.66-4.69-9.14-14.63l24,1.95c5.8.47,10.14,5.19,9.71,10.53l-1.09,13.34a4.24,4.24,0,0,1-4.8,3.67l-14.92-1.51Z"/><path class="cls-46" d="M1133.93,305.65a4.57,4.57,0,1,0,4-5.08A4.57,4.57,0,0,0,1133.93,305.65Z"/><path class="cls-49" d="M1160.28,345.59l12.88-15.43,27.09,15.59.52.29a12.46,12.46,0,0,1,3.12,2.61,11.55,11.55,0,0,1-1.86,16.72l-18.93,14.8-15.27-12.66,5.71-8.93Z"/><polygon class="cls-46" points="1049.39 302.14 1062.66 316.32 1056.87 321.55 1042.8 305.92 1049.39 302.14"/><polygon class="cls-46" points="1049.39 302.14 1048.8 296.03 1044.48 296.46 1046.29 305.84 1049.39 302.14"/><path class="cls-46" d="M1046.43,300.39a1,1,0,0,0,.41-.2.92.92,0,0,0,.11-1.29l-10.09-12.09a.93.93,0,0,0-1.29-.11.91.91,0,0,0-.11,1.29l10.09,12.09A.93.93,0,0,0,1046.43,300.39Z"/><path class="cls-46" d="M1044.7,302.38a1,1,0,0,0,.43-.21.91.91,0,0,0,.08-1.29l-10-11.37a.91.91,0,1,0-1.38,1.2l10,11.37A.9.9,0,0,0,1044.7,302.38Z"/><path class="cls-46" d="M1043.16,303.44a.86.86,0,0,0,.46-.24.91.91,0,0,0,0-1.29L1034,292a.91.91,0,0,0-1.29,0,.91.91,0,0,0,0,1.29l9.68,9.93A.9.9,0,0,0,1043.16,303.44Z"/><path class="cls-46" d="M1042.31,305.67a1,1,0,0,0,.49-.27.91.91,0,0,0,0-1.29l-9.75-9.33a.93.93,0,0,0-1.3,0,.94.94,0,0,0,0,1.3l9.76,9.32A.92.92,0,0,0,1042.31,305.67Z"/><path class="cls-46" d="M1040.1,292.12l-5.6,6.58,6.14,6.57c.8.81,2.92,1.52,3.86.89l4.89-3.27Z"/><path class="cls-50" d="M1163.56,331.12l-1.59-6.51a4,4,0,0,0-3.72-3c-6-.19-18.87.7-20.53,11.76Z"/><rect class="cls-51" x="1117.42" y="363.1" width="135.63" height="10.81" transform="translate(257.65 -456.22) rotate(24.37)"/><path class="cls-52" d="M1131.44,332.41l3.76-1.34c12-3.67,21.63-4.45,32.35-2.72,0,0,11,1.06,12.06,10l14.62,66.48-47.34,5.69-20-65C1125.91,338.68,1125.06,333.79,1131.44,332.41Z"/><path class="cls-53" d="M1052.5,303.47l31.51,25,53.71,2.8-7.91,29.79-50.28-11.18-1.74-.42a6.59,6.59,0,0,1-3.55-2.22l-28.84-36.66Z"/><polygon class="cls-48" points="1230.3 547.36 1218.96 555.73 1248.91 552.78 1246.02 545.81 1230.3 547.36"/><polygon class="cls-48" points="1196.68 555.89 1186.05 564.19 1214.11 561.42 1211.93 554.39 1196.68 555.89"/><path class="cls-54" d="M1136.89,338.17l10.95-7.58c16.06-10.57,27.92-.76,27.92-.76a18.83,18.83,0,0,1,10.08,11.39,18.35,18.35,0,0,1,.44,9.14h0l0,.11c0,.25-.1.49-.16.73a9.37,9.37,0,0,0,4.64,10.2l.49.28.13.08h0a22.92,22.92,0,0,1,10,12.71c4,12.74-4,26.55-17.81,30.86s-28.22-2.54-32.19-15.28Z"/><path class="cls-55" d="M1159.65,329.89l10.94-7.58c16.07-10.58,27.93-.77,27.93-.77a18.87,18.87,0,0,1,10.08,11.4,18.19,18.19,0,0,1,.43,9.13h0l0,.12c0,.24-.1.48-.16.72a9.39,9.39,0,0,0,4.65,10.2l.49.29.13.07h0a22.94,22.94,0,0,1,10,12.7c4,12.74-4,26.56-17.81,30.86s-28.22-2.53-32.19-15.27Z"/><path class="cls-56" d="M1147.84,330.59c1.07-.63,2.11-1.3,3.2-1.89l1.69-.8.84-.4.88-.31,1.76-.62c.6-.17,1.21-.29,1.82-.43l.91-.22.93-.11c.62-.07,1.23-.19,1.86-.2a22.36,22.36,0,0,1,7.41.84,20.87,20.87,0,0,1,6.73,3.25l0,0a20.23,20.23,0,0,1,5.18,3.51,18.43,18.43,0,0,1,3.78,5,18.14,18.14,0,0,1,1.91,6,18.8,18.8,0,0,1-.2,6.26l-.33-.25h0l.47-.24-.15.52,0,.11v0a10.49,10.49,0,0,0-.3,3.24,9.17,9.17,0,0,0,.73,3.14,8.77,8.77,0,0,0,1.81,2.66,11.18,11.18,0,0,0,1.23,1.05c.46.29.91.6,1.4.87h0l.13.08.5.29-.54.15h0l.07-.43a23.47,23.47,0,0,1,9.17,10.49,18.76,18.76,0,0,1,1.13,3.34c.12.58.31,1.14.39,1.72l.24,1.75a22.68,22.68,0,0,1-.4,7,23.51,23.51,0,0,1-2.44,6.58,24.29,24.29,0,0,1-4.15,5.65,27.89,27.89,0,0,1-2.6,2.38c-.46.35-1,.68-1.42,1l-.72.51-.75.45-1.52.88-1.59.73-.8.37-.83.29-1.65.59,1.64-.61.82-.31.79-.38,1.58-.76,1.5-.9.75-.45.7-.52c.47-.35.94-.68,1.4-1a28.82,28.82,0,0,0,2.54-2.4,25,25,0,0,0,6.45-12.15,22.57,22.57,0,0,0,.35-6.91l-.24-1.72c-.09-.58-.28-1.13-.41-1.69a17.15,17.15,0,0,0-1.12-3.28,23,23,0,0,0-9.06-10.25l-.46-.28.52-.14h0l0,.44-.14-.08h0c-.48-.26-1-.58-1.43-.88a11.45,11.45,0,0,1-1.3-1.1,8.69,8.69,0,0,1-1.92-2.8,9.73,9.73,0,0,1-.76-3.31,11.1,11.1,0,0,1,.33-3.36v0l0-.12.32.27h0l-.42.21.09-.46a18.5,18.5,0,0,0,.23-6.12,18,18,0,0,0-5.52-10.74,20,20,0,0,0-5.07-3.48h0l0,0a20.37,20.37,0,0,0-6.6-3.22,22.36,22.36,0,0,0-7.32-.89c-.62,0-1.23.12-1.85.17l-.92.1-.9.2c-.61.13-1.22.24-1.82.4l-1.76.59c-.29.1-.59.19-.88.3l-.85.38-1.69.77C1150,329.32,1148.92,330,1147.84,330.59Z"/><path class="cls-57" d="M1170.45,322.42c1.07-.63,2.12-1.3,3.21-1.89l1.69-.8.84-.4.88-.31,1.76-.62c.6-.17,1.21-.29,1.82-.43l.91-.22.93-.11c.62-.07,1.23-.19,1.86-.2a22.39,22.39,0,0,1,7.41.84,20.72,20.72,0,0,1,6.72,3.25l0,0a20,20,0,0,1,5.17,3.51,18.46,18.46,0,0,1,5.7,11,18.8,18.8,0,0,1-.2,6.26l-.33-.25h0l.48-.24-.15.52,0,.11v0a10.49,10.49,0,0,0-.3,3.24,9.17,9.17,0,0,0,.73,3.14,8.77,8.77,0,0,0,1.81,2.66,11.18,11.18,0,0,0,1.23,1.05c.46.29.9.6,1.4.87h0l.13.08.5.29-.54.15h0l.06-.43a23.43,23.43,0,0,1,9.18,10.49,18,18,0,0,1,1.12,3.34c.13.57.32,1.14.4,1.72l.24,1.75a23,23,0,0,1-.4,7,25.18,25.18,0,0,1-6.6,12.23,26.56,26.56,0,0,1-2.59,2.38c-.46.35-1,.68-1.42,1l-.72.51-.76.45-1.51.88-1.6.73-.79.37-.83.29-1.65.59,1.64-.61.82-.31.79-.38,1.58-.76,1.5-.9.75-.45.7-.52c.47-.35.94-.68,1.4-1a28.82,28.82,0,0,0,2.54-2.4,25,25,0,0,0,6.44-12.15,22.58,22.58,0,0,0,.36-6.91l-.25-1.72c-.08-.58-.27-1.13-.4-1.69a17.87,17.87,0,0,0-1.12-3.28,23,23,0,0,0-9.06-10.25l-.46-.28.52-.14h0l0,.44-.14-.08h0c-.48-.26-1-.58-1.43-.88a11.45,11.45,0,0,1-1.3-1.1,8.69,8.69,0,0,1-1.92-2.8,9.73,9.73,0,0,1-.76-3.31,11.1,11.1,0,0,1,.33-3.36v0l0-.12.32.27h0l-.42.21.09-.46a18.5,18.5,0,0,0,.23-6.12,18.16,18.16,0,0,0-5.52-10.74,20,20,0,0,0-5.07-3.48h0l0,0a20.6,20.6,0,0,0-6.6-3.23,22.63,22.63,0,0,0-7.32-.88c-.62,0-1.23.12-1.85.17l-.92.1-.91.2c-.6.13-1.21.24-1.81.4l-1.76.59c-.29.1-.59.19-.88.3l-.85.38-1.69.77C1172.59,321.15,1171.53,321.81,1170.45,322.42Z"/><rect class="cls-58" x="275.9" y="477.33" width="155.91" height="77.21" rx="4.34" ry="4.34"/><rect class="cls-59" x="286.47" y="487" width="135.89" height="41.29"/><rect class="cls-59" x="286.47" y="535.58" width="135.89" height="4.28"/><rect class="cls-59" x="286.47" y="545.49" width="76.06" height="4.28"/><path class="cls-60" d="M331.26,698.08c.25,4.59,3.05,29.94,5,46.27,1,8.26,1.13,14.21,1.89,14,2-.57,8.11-54.13,7.74-61.05s-3.95-12.34-8-12.13S330.89,691.16,331.26,698.08Z"/><path class="cls-61" d="M341.32,745.3c-.7,0-4.8.53-5.55.69-2.45-16.41-5.36-43.87-5.1-48.7,0-.51.08-1,.14-1.53a58.72,58.72,0,0,0-.66-20.61c-3.56-15.36-6.31-32-6.61-36.58-.59-9,4.62-16.73,11.63-17.19s12.8,5.77,13.93,14.75C351.8,657.82,341.36,744.94,341.32,745.3Z"/><path class="cls-60" d="M335.69,745.36s.42,11.79-.54,14-1.21,4.79,1.87,4.77,10.28,0,11.32-.06c1.94-.06,3.66-.29,3.62-1.57s-9-1.69-10.72-3-.45-13.57-.45-13.57Z"/><path class="cls-62" d="M347.48,761.09a15.85,15.85,0,0,1-5.41,1,16.11,16.11,0,0,1-7.26-1.76c-.63,2-.45,3.87,2.21,3.86,3,0,10.28,0,11.32-.06,1.94-.06,3.66-.29,3.62-1.57C352,761.92,349.84,761.5,347.48,761.09Z"/><path class="cls-60" d="M347,699.7c.24,4.59,3.05,29.95,5,46.27,1,8.26,1.12,14.21,1.89,14,2-.56,8.1-54.12,7.73-61s-3.94-12.35-8-12.13S346.62,692.78,347,699.7Z"/><path class="cls-63" d="M357.05,746.93c-.71,0-4.8.53-5.55.68-2.45-16.4-5.36-43.87-5.1-48.69,0-.52.07-1,.14-1.53a58.71,58.71,0,0,0-.66-20.61c-3.56-15.37-6.32-32-6.61-36.59-.6-9,4.61-16.73,11.63-17.19s12.8,5.77,13.92,14.76C367.53,659.44,357.09,746.57,357.05,746.93Z"/><path class="cls-60" d="M351.42,747s.42,11.8-.55,14-1.33,4.91,1.88,4.77c3-.13,8.87-.32,9.92-.43,2.6-.28,5.61-.18,5.57-1.47s-9.56-1.41-11.27-2.71-.45-13.57-.45-13.57Z"/><path class="cls-64" d="M362.38,762.42a15.69,15.69,0,0,1-5.39,1A16.14,16.14,0,0,1,350.5,762c-.62,2-.49,3.9,2.25,3.78,3-.13,8.87-.32,9.92-.43,2.6-.28,5.61-.18,5.57-1.47C368.22,763.18,365.29,762.82,362.38,762.42Z"/><path class="cls-65" d="M348.78,564.56c-2.09,0-4.36-1-7.47-3.77a9.45,9.45,0,0,1-3.12-6.13V544.47h15.69a28.9,28.9,0,0,1,0,10.78C353.06,559.28,350.43,564.56,348.78,564.56Z"/><path class="cls-65" d="M293.74,562a1.89,1.89,0,0,1,3.71-.62v0A143.46,143.46,0,0,0,303,579.05c4.58,11.66,8.6,13.33,10.14,14.36a6.21,6.21,0,0,0,1.17.28c4.46,1,12.23-8.69,13.58-16.21a23.23,23.23,0,0,1,.87-2.71,6.32,6.32,0,0,1,8.06-3.89C356.82,577.86,300.83,647.38,293.74,562Z"/><path class="cls-65" d="M327.21,634.3c5.73,6.58,38.84,9.33,38.84,9.33,2.44-2.84-8.94-35.21-8.94-35.21s5.48-23.36,5.23-31.8a6.43,6.43,0,0,0-6.43-6.24h-21a6.21,6.21,0,0,0-6.2,5.69c-.55,6.68,8.17,31.62,8.17,31.62S322.25,628.61,327.21,634.3Z"/><path class="cls-66" d="M357.11,608.42s5.46-24,5.22-32.34a5.87,5.87,0,0,0-5.88-5.7h-3.12a8.38,8.38,0,0,1-15.22,0h-2.92c3.18,6.8,2,15.78-3.43,21,2.32,8.21,5.11,16.29,5.11,16.29S321.43,631,323.68,634.47c4.76,7.32,42.37,9.16,42.37,9.16C368.49,640.06,357.11,608.42,357.11,608.42Z"/><polygon class="cls-65" points="342.31 571.82 351.85 570.82 348.83 560.39 342.67 561.15 342.31 571.82"/><path class="cls-60" d="M342.67,561.15l6.16-.76.94,3.26c-1.38,1.55-3.15,4.91-5.4,4.91a3.55,3.55,0,0,1-1.94-.57Z"/><path class="cls-13" d="M340.85,539.56l5.28-.33a8.71,8.71,0,0,0,4.19-1.4,4.2,4.2,0,0,1,5.56.67c1.5,1.78,2.25,4.24-1.09,6.77-1.66,1.27-4.27.15-5.93.81h-.3l-4.69.3a3,3,0,0,0-2.69,3.19,6,6,0,0,1-.69,2.28l-2.2-2.71-2.05-1.66a2,2,0,0,1-.76-1.46l0-.34A5.77,5.77,0,0,1,340.85,539.56Z"/><path class="cls-65" d="M399.66,553.62s-2.57,4.89-1.33,6.17,2.29,1.92,4.22.19a18.72,18.72,0,0,0,4.46-7.2c.7-2.19.32-6.36,0-6.78-1.21-1.52-2.07,2.58-2.57,4.54s-1.28,4.14-2.16,3.62.38-4.2-.43-5.12S399.66,553.62,399.66,553.62Z"/><path class="cls-65" d="M295.41,553.72s2.43,5,1.16,6.21-2.35,1.85-4.23.07a18.7,18.7,0,0,1-4.25-7.32c-.64-2.21-.15-6.36.19-6.77,1.26-1.49,2,2.63,2.46,4.61s1.16,4.17,2.05,3.68-.26-4.21.57-5.11S295.41,553.72,295.41,553.72Z"/><path class="cls-65" d="M372.24,589.54c5.56,6.35,9.81,3,14.65-4,2-3.49,4.58-6.42,11.38-25.58v0a1.9,1.9,0,0,1,3.67.85c-6.69,58.35-38.36,49.17-47.81,23a20.27,20.27,0,0,1-1.36-6.83,6.59,6.59,0,1,1,13.17-.27C366,579.2,368.4,585.3,372.24,589.54Z"/><path class="cls-13" d="M363.56,578.73a7.24,7.24,0,0,1-2.68-6.25c.3-5-2.72-9.51-6.59-13.07a11.44,11.44,0,0,1-3.55-9.74l.54-4.68H335.45a12.2,12.2,0,0,1-4.94,9.88,24.29,24.29,0,0,0-8.25,10.85c-4.31,11.14-.11,23.21,9.37,27.6-2.5,10.53,2.16,21.15,11.4,24.73,10.21,4,22.12-2.18,26.59-13.72C373.4,594.59,370.66,584.13,363.56,578.73Z"/></g></g></svg>