<svg xmlns="http://www.w3.org/2000/svg" xmlns:xlink="http://www.w3.org/1999/xlink" viewBox="0 0 1366.36 849.7"><defs><style>.cls-1,.cls-13{fill:#262626;}.cls-1,.cls-3{opacity:0.1;}.cls-2{fill:url(#linear-gradient);}.cls-3{fill:url(#linear-gradient-2);}.cls-4{opacity:0.24;fill:url(#linear-gradient-3);}.cls-5{opacity:0.5;fill:url(#linear-gradient-4);}.cls-6{fill:#21283a;}.cls-7{fill:url(#linear-gradient-5);}.cls-8{fill:#433834;}.cls-9{fill:#f9c3bc;}.cls-10{fill:url(#linear-gradient-6);}.cls-11{fill:#c6a310;}.cls-12{fill:#fed038;}.cls-14{fill:#8c523b;}.cls-15{fill:#753c25;}.cls-16{fill:#b1aead;}.cls-17{fill:url(#linear-gradient-7);}.cls-18{fill:url(#linear-gradient-8);}.cls-19{fill:url(#linear-gradient-9);}.cls-20{fill:#d88d9e;}.cls-21{fill:url(#linear-gradient-10);}.cls-22{fill:#f26f4a;}.cls-23{fill:url(#linear-gradient-11);}.cls-24{fill:url(#linear-gradient-12);}.cls-25{fill:#55b755;}.cls-26{fill:#a3e4e1;}.cls-27{fill:url(#linear-gradient-13);}.cls-28{fill:#d8761d;}.cls-29{fill:#e56e3e;opacity:0.29;}.cls-30{fill:#232a43;}.cls-31{fill:#ecab93;}.cls-32{fill:#d98262;}.cls-33{fill:url(#linear-gradient-14);}.cls-34{fill:url(#linear-gradient-15);}.cls-35{fill:#0d1b44;}.cls-36{fill:#40a06b;}.cls-37{fill:#67c996;}.cls-38{fill:url(#linear-gradient-16);}.cls-39{fill:url(#linear-gradient-17);}.cls-40{fill:url(#linear-gradient-18);}.cls-41{fill:url(#linear-gradient-19);}.cls-42{fill:#4162a3;}.cls-43,.cls-44{fill:#fce300;}.cls-43{opacity:0.17;}.cls-44{opacity:0.89;}.cls-45{fill:url(#linear-gradient-20);}.cls-46{fill:url(#linear-gradient-21);}.cls-47{fill:#e5ac38;}</style><linearGradient id="linear-gradient" x1="15.41" y1="714.09" x2="1265.59" y2="714.09" gradientUnits="userSpaceOnUse"><stop offset="0" stop-color="#f7942f" stop-opacity="0"/><stop offset="0.5" stop-color="#f7c700"/><stop offset="1" stop-color="#f7942f" stop-opacity="0"/></linearGradient><linearGradient id="linear-gradient-2" x1="683.18" y1="-40.49" x2="683.18" y2="267.43" gradientUnits="userSpaceOnUse"><stop offset="0" stop-color="#f7c700"/><stop offset="1" stop-color="#f7942f" stop-opacity="0"/></linearGradient><linearGradient id="linear-gradient-3" x1="639.02" y1="134.27" x2="639.02" y2="376.62" xlink:href="#linear-gradient-2"/><linearGradient id="linear-gradient-4" x1="614.71" y1="318.72" x2="614.71" y2="627.5" xlink:href="#linear-gradient-2"/><linearGradient id="linear-gradient-5" x1="490.04" y1="893.5" x2="490.04" y2="452.02" gradientUnits="userSpaceOnUse"><stop offset="0" stop-color="#ff1"/><stop offset="0.5" stop-color="#ff6100"/><stop offset="1" stop-color="#ffd111"/></linearGradient><linearGradient id="linear-gradient-6" x1="497.41" y1="545.32" x2="497.41" y2="197.76" gradientUnits="userSpaceOnUse"><stop offset="0" stop-color="#ff6e27"/><stop offset="1" stop-color="#fcff2f"/></linearGradient><linearGradient id="linear-gradient-7" x1="806.02" y1="416.7" x2="806.02" y2="286.27" gradientUnits="userSpaceOnUse"><stop offset="0" stop-color="#f2a5c7"/><stop offset="1" stop-color="#fff"/></linearGradient><linearGradient id="linear-gradient-8" x1="803.67" y1="793.93" x2="860.84" y2="793.93" gradientUnits="userSpaceOnUse"><stop offset="0" stop-color="#e99500"/><stop offset="1" stop-color="#f73f2f"/></linearGradient><linearGradient id="linear-gradient-9" x1="744.86" y1="793.93" x2="802.02" y2="793.93" xlink:href="#linear-gradient-8"/><linearGradient id="linear-gradient-10" x1="804.61" y1="724.92" x2="804.61" y2="74.52" gradientUnits="userSpaceOnUse"><stop offset="0" stop-color="#f2bd4a"/><stop offset="1" stop-color="#fff"/></linearGradient><linearGradient id="linear-gradient-11" x1="654.35" y1="755.9" x2="654.35" y2="468.23" gradientUnits="userSpaceOnUse"><stop offset="0" stop-color="#00b3aa"/><stop offset="1" stop-color="#fff"/></linearGradient><linearGradient id="linear-gradient-12" x1="651.94" y1="539.05" x2="651.94" y2="329.09" gradientUnits="userSpaceOnUse"><stop offset="0" stop-color="#0094ff"/><stop offset="1" stop-color="#a9ff15"/></linearGradient><linearGradient id="linear-gradient-13" x1="113.6" y1="146.02" x2="113.6" y2="703.62" gradientUnits="userSpaceOnUse"><stop offset="0" stop-color="#fcd02f"/><stop offset="1" stop-color="#ff6e27"/></linearGradient><linearGradient id="linear-gradient-14" x1="920.57" y1="400.96" x2="920.57" y2="535.02" gradientUnits="userSpaceOnUse"><stop offset="0" stop-color="#a2fff8"/><stop offset="1" stop-color="#89ff3b"/></linearGradient><linearGradient id="linear-gradient-15" x1="917.64" y1="867.79" x2="917.64" y2="373.76" xlink:href="#linear-gradient-12"/><linearGradient id="linear-gradient-16" x1="336.26" y1="523" x2="336.26" y2="425.77" gradientUnits="userSpaceOnUse"><stop offset="0" stop-color="#6191f2"/><stop offset="1" stop-color="#61d6f2"/></linearGradient><linearGradient id="linear-gradient-17" x1="336.26" y1="683.03" x2="336.26" y2="520.23" gradientUnits="userSpaceOnUse"><stop offset="0" stop-color="#008fd3"/><stop offset="1" stop-color="#fff"/></linearGradient><linearGradient id="linear-gradient-18" x1="283.35" y1="818.81" x2="331.26" y2="818.81" gradientUnits="userSpaceOnUse"><stop offset="0" stop-color="#f7a000"/><stop offset="1" stop-color="#f73f2f"/></linearGradient><linearGradient id="linear-gradient-19" x1="339.43" y1="819.16" x2="388.38" y2="819.16" gradientUnits="userSpaceOnUse"><stop offset="0" stop-color="#f73f2f"/><stop offset="1" stop-color="#f7a000"/></linearGradient><linearGradient id="linear-gradient-20" x1="1109.01" y1="293.45" x2="1109.01" y2="718.14" xlink:href="#linear-gradient-13"/><linearGradient id="linear-gradient-21" x1="1048.83" y1="235.27" x2="1175.58" y2="698.61" gradientUnits="userSpaceOnUse"><stop offset="0" stop-color="#ff6e27"/><stop offset="1" stop-color="#fcd02f"/></linearGradient></defs><title>06</title><g id="Layer_2" data-name="Layer 2"><g id="Layer_1-2" data-name="Layer 1"><ellipse class="cls-1" cx="336.9" cy="822.21" rx="99.3" ry="27.49"/><ellipse class="cls-1" cx="490.04" cy="760.08" rx="99.3" ry="27.49"/><ellipse class="cls-1" cx="665.86" cy="784.75" rx="99.3" ry="27.49"/><ellipse class="cls-1" cx="808.36" cy="801.7" rx="99.3" ry="27.49"/><ellipse class="cls-1" cx="922.1" cy="808.42" rx="99.3" ry="27.49"/><rect class="cls-2" x="18.05" y="709.09" width="1247.01" height="10"/><path class="cls-3" d="M1366.36,430.65q-6,19.41-13.1,38.85A747.35,747.35,0,0,1,1275.09,624a784.39,784.39,0,0,1-74,95.09,832.88,832.88,0,0,1-61.55,61.06,528.19,528.19,0,0,0-14.26-61.06H104.16q-6.61,22.27-11.31,45.33-14.4-21.95-27-45.33C33.16,658.08,10.65,590.46,3,520.66-3.45,462.85.31,403.55,16.81,345.28c22-77.74,64.28-145,117.56-201C272.06,53.11,437.18,0,614.71,0Q658.89,0,702,4.32c204.88,20.37,388.87,111.74,527,249.16A874.36,874.36,0,0,1,1366.36,430.65Z"/><path class="cls-4" d="M1275.09,624a784.39,784.39,0,0,1-74,95.09,832.88,832.88,0,0,1-61.55,61.06,528.19,528.19,0,0,0-14.26-61.06H104.16q-6.61,22.27-11.31,45.33-14.4-21.95-27-45.33C33.16,658.08,10.65,590.46,3,520.66c110.93-193.31,310.86-329,543.89-351.29h.07l1.8-.17q32.6-3,66-3.05h4.59l5,.06c.71,0,1.41,0,2.11,0a707,707,0,0,1,82.73,6.18A699.52,699.52,0,0,1,839.9,202.88q17.6,5.93,34.77,12.75,21.21,8.42,41.72,18.15,17.46,8.28,34.39,17.47a707.35,707.35,0,0,1,131.52,92.3q5.79,5.13,11.47,10.41,10.62,9.82,20.82,20.1A705.43,705.43,0,0,1,1275.09,624Z"/><path class="cls-5" d="M1125.27,719.09H104.16a530,530,0,0,1,72.08-150.37q10-14.52,21-28.33,7.5-9.48,15.45-18.6a534.5,534.5,0,0,1,81.06-75.74c.42-.32.83-.64,1.25-.94q4.23-3.19,8.53-6.28,7.37-5.34,14.92-10.39l1.95-1.3a530.88,530.88,0,0,1,49.94-29.4q7-3.63,14.14-7.05c.93-.46,1.87-.9,2.81-1.34q2.34-1.11,4.69-2.19,7.17-3.32,14.47-6.41,5.13-2.19,10.3-4.26,10.14-4.07,20.48-7.72,7.29-2.58,14.67-4.95,18.72-6,38-10.64,8.13-2,16.37-3.66l1.45-.3q5.05-1,10.16-2,3.38-.62,6.75-1.19a535.92,535.92,0,0,1,90.08-7.59q10.53,0,21,.41c2.53.09,5.07.21,7.6.34l3.72.22.83.05h.12q12.38.76,24.59,2.08l1.17.13.52.06q6.27.69,12.5,1.54,5.4.72,10.76,1.57l.13,0c1,.16,2.09.32,3.13.5l3.78.62q21.88,3.72,43.13,9.19,3.42.87,6.83,1.81a1.43,1.43,0,0,1,.28.07,528.28,528.28,0,0,1,78.71,28.25q10.54,4.76,20.83,10c1.11.55,2.21,1.11,3.31,1.68q22.82,11.7,44.31,25.51,5,3.24,10,6.59c1.43,1,2.86,1.93,4.27,2.91l2.13,1.47c.31.21.61.42.92.65.52.35,1,.71,1.56,1.09q8.37,5.88,16.51,12.09t16,12.71c2,1.68,4.06,3.37,6.07,5.09l.09.07c1.4,1.19,2.79,2.38,4.17,3.59q5.88,5.08,11.6,10.37c1,.88,1.94,1.78,2.9,2.68q11.64,10.88,22.62,22.43,5.3,5.56,10.42,11.3a2.21,2.21,0,0,1,.26.28c.62.68,1.23,1.37,1.84,2.06q10.3,11.63,19.93,23.84A531.17,531.17,0,0,1,1125.27,719.09Z"/><path class="cls-6" d="M476.21,704.13c.1.25,3.4,13.34,2.23,15.88l-14.29,12.88c-5.23,12.06-8,22-20.9,27.16-3.71,1.47-27.92,8.89-24.72-2.06,0,0,5.67-10.32,11-19.22s17.64-15.24,17.64-15.24l10.43-23.61Z"/><path class="cls-6" d="M509.06,721.2c-.08.25-2.52,13.53-1.18,16L523,749.11c6,11.69,9.41,21.46,22.65,25.73,3.79,1.23,28.43,7,24.53-3.68,0,0-6.35-9.92-12.2-18.45s-18.62-14.07-18.62-14.07l-13.86-19.27Z"/><path class="cls-7" d="M556.2,399.61l-11.92,5.47c5.24-11.66,9.86-21.74,11.56-24.88-8.28,5-91,3.79-91.27,8-.12,1.72,3.18,15.78,7.25,32.29l-18.69-23.15c-3.47,3.34-4.33,11.82-5.44,16.19-2.9,11.37-5.31,22.88-7.69,34.38-5.63,27.14-10.72,54.4-15.68,81.67-2.86,15.76-4.39,31-.37,46.65,2.91,11.41,5.16,21.1,8.06,32.5,6.22,24.45,20,82,19.88,85.57-.49,10.92,3.76,21.32,15.79,16.4,4.27-1.75,9.6-.35,11.77-4.53,2.45-4.73-3.56-76.57-3.8-83.24-.37-10.62-6.41-39.33-10.22-50.63,0,0,14.55-49.58,28.46-81.75,3.78,34.72,8.6,75,11.34,92.76-.73,16.93-6.44,82.54-2.27,110.65,1,6.74-.48,20.77,3.45,26.64,3.39,5,18.71,10.34,23,4.29,3.55-5,18.43-114.45,16.07-153.78C545.5,571.1,565.25,474,556.2,399.61Z"/><path class="cls-8" d="M555.94,378.64a1.31,1.31,0,0,0,.67-.71C556.74,377.33,556.49,377.63,555.94,378.64Z"/><path class="cls-9" d="M585.45,273.43a40.28,40.28,0,0,1-4.77-2.65,39.06,39.06,0,0,1-10.23-8.36,39.79,39.79,0,0,1-9.54-28.81c.05-.77.18-1.53.28-2.3-9.13,17.83-16,51.67,1.84,112.6,7.93,16.93,7.91,16.79,10.88,23a49.22,49.22,0,0,1,3.71-6.59,11,11,0,0,1,5.72-4.26c2.22-3.14,4.13-13,7.67-13.35-.75-16.24-.62-29.29-3.51-51.66C586.8,285.75,586.16,279.81,585.45,273.43Z"/><path class="cls-9" d="M449.89,215.32a14.72,14.72,0,0,1-2.19,2c-.92.68-1.81,1.4-2.69,2.13l.89-.74a41.36,41.36,0,0,1-11,7,10.25,10.25,0,0,1-5.67.58C424.7,244.55,421.73,261,418.79,274c-5,22-6.07,35-8.35,51.11,3.49.73,4.47,10.67,6.39,14a10.91,10.91,0,0,1,5.29,4.78,49.42,49.42,0,0,1,3.08,6.9c3.54-5.94,3.51-5.8,13-21.91C462.37,268.13,457.75,233.51,449.89,215.32Z"/><path class="cls-10" d="M532.92,210.08l-57.17-5c-19.88,1.5-47-7.29-70.78,75.06,1.07,4.93,20,15.84,39.28,5.63-.21,26.94-.38,32.26.05,40.66-1.3,26.83-7,82-2.84,90.12,6,11.72,42.25,16.59,56.08,17.88,21.92,2,56,.42,60.07-15.54,4.4-17.31-6.81-83.27-4.42-124.76,16.89,17.62,34.93,2.27,36.65-2.32C586.14,220.89,552.8,215.09,532.92,210.08Z"/><path class="cls-11" d="M533.56,212.06l-.77-.18-57.17-4.94c-2.65.18-5.57.3-8.69.55-1.21,6.71,6.72,17.3,15.66,23.51C499.82,242.94,532.73,234.42,533.56,212.06Z"/><path class="cls-11" d="M550.16,262.32q1.29,14.76,2.6,29.54c.07.8,1.3.55,1.22-.24q-1.29-14.64-2.58-29.28C551,262.35,550.58,262.34,550.16,262.32Z"/><path class="cls-11" d="M445.28,257.18c-.17,0-.33,0-.49-.06q-.5,13.11-1,26.21c0,.8,1.21.9,1.24.09q.49-13.11,1-26.22C445.78,257.2,445.54,257.2,445.28,257.18Z"/><path class="cls-9" d="M567.88,422.36s-25.53-1.15-32.67,10.67c0,0,.54,5.5,5.87,1.13,0,0-15.28,11.55-11.62,18.46.3.55-1.28,4.22-1.33,5.07-.15,2.51,1.16,6.15,4.18,4.18,1.2,3.63,5.68,2.08,8.32,1a11.25,11.25,0,0,0,4,1.09,13.14,13.14,0,0,0,4.9-2.15c8.72-5.33,14-17.94,20.62-25.54Z"/><path class="cls-9" d="M554.11,423.76c.35-.39.67-.77.93-1.12,1-10.43,3.58-45.92,9-76.07-.31.67-.35.4.23-1.74,0-.16.13-.35.18-.53.48-2.56,1-5.1,1.5-7.56.72-.2.6,1.3.18,3.19,4.51-9.8,13.94-21.42,17-30.52.65.3,1.31.61,1.94,1C596,316.62,592,342.93,591,353.31c-1.8,17.6-4.11,25.64-8.79,42.65-2.67,9.67-7,33.81-13.55,41.63C561.5,446.16,562.82,424,554.11,423.76Z"/><path class="cls-12" d="M531.18,439.09s7.33,15.32,22.08,25.55c0,0-16.34,21.34-20.29,17.54s-10.87-24.73-12.77-27.7.51-7,.51-7Z"/><path class="cls-9" d="M421.34,409.81s25.41,2.57,30.77,15.3c0,0-1.34,5.36-6,.27,0,0,13.45,13.64,8.83,19.95-.38.49.65,4.35.57,5.2-.21,2.51-2,5.92-4.74,3.54-1.71,3.42-5.92,1.22-8.38-.2a11.26,11.26,0,0,1-4.07.51,13.19,13.19,0,0,1-4.54-2.84c-7.85-6.54-11.23-19.78-16.7-28.26Z"/><path class="cls-9" d="M434.75,413.2c-.29-.44-.55-.86-.76-1.25.57-10.46,3.12-45.95,2.1-76.57.2.7.29.44,0-1.76,0-.17-.09-.37-.11-.55-.1-2.61-.23-5.19-.39-7.7-.68-.3-.78,1.2-.64,3.14-3-10.36-10.69-23.22-12.39-32.67-.7.2-1.39.41-2.06.67-11.71,4.6-11.56,31.22-12,41.64-.78,17.67.34,26,2.51,43.47,1.24,10,2.07,34.48,7.37,43.16C424.2,434.29,426.1,412.15,434.75,413.2Z"/><path class="cls-12" d="M455.22,431.69s-9.48,14.09-25.56,22.08c0,0,13.08,23.49,17.54,20.29s14.34-22.9,16.64-25.54.52-7,.52-7Z"/><path class="cls-9" d="M547.43,181.31c0,7.6-14.86,17-19.93,9l10.68-17.68C542.76,167.63,547.45,176.54,547.43,181.31Z"/><path class="cls-9" d="M469.42,170.73l10,18.06c-5.36,7.76-19.81-2.18-19.58-9.77C460,174.25,465,165.53,469.42,170.73Z"/><path class="cls-9" d="M463.6,145.41c-1.2-21.35,30.23-33,43.89-33.34h0c9,.71,38.85,13.56,36.84,34.86,0,0,.78,72.33-44.71,72.95l0,.35.14-1.77v0l-.11,1.4C462.15,217.15,463.6,145.41,463.6,145.41Z"/><path class="cls-13" d="M538.64,125.92s-8.38,22.36-76.86,41.92c0,0-14-16.77-1.4-32.13,0,0-4.19-26.56,7-33.54,0,0,41.92-19.57,75.46,1.39C542.83,103.56,548.42,123.13,538.64,125.92Z"/><path class="cls-13" d="M541.44,110.55s25.15,14,0,62.89c0,0-14-23.76-11.18-43.32Z"/><path class="cls-14" d="M753.71,359.66s-8.87-42,15.54-39.66,20,44.57,20,44.57L766,382Z"/><path class="cls-14" d="M779.56,353a36.39,36.39,0,0,1-21.31,7,40.41,40.41,0,0,1-4.54-.32c-.26,4-.52,7.89-.81,11.43-1.27,15.34-1.81,29.94-2,42.55-2.77,14.92-1.72,33.07-.33,71.5.53,14.78-10.66,30.33-4,44.84,7.65,16.72,18.37-1.54,20.27-11.66-1.41,6.15,3.31,4.35,3.31,4.35,6.78-10.66-6.79-28.13-6.79-28.13s9.81-43.7,12.07-69c.11.65.21.42.21-1.6a4.56,4.56,0,0,0,0-.51c0-.23,0-.46.06-.7.54-1.33-.19-24.52.48-26.16C777.63,377.23,778.87,363.4,779.56,353Z"/><path class="cls-14" d="M851.39,356.75s8.88-42-15.54-39.66-20.05,44.57-20.05,44.57l23.28,17.46Z"/><path class="cls-14" d="M825.55,350.09a36.34,36.34,0,0,0,21.3,7,38.34,38.34,0,0,0,4.54-.32c.26,4.05.52,7.9.81,11.43,1.27,15.34,1.81,29.94,2,42.54,2.77,14.93,1.72,33.09.34,71.51-.54,14.78,10.65,30.33,4,44.84-7.66,16.72-18.37-1.53-20.28-11.65,1.41,6.14-3.31,4.35-3.31,4.35-6.77-10.67,6.79-28.14,6.79-28.14s-9.82-43.7-12.06-69c-.11.65-.22.42-.22-1.6a4.56,4.56,0,0,1,0-.51c0-.23,0-.46-.06-.71-.54-1.32.19-24.51-.48-26.15C827.48,374.32,826.23,360.49,825.55,350.09Z"/><path class="cls-15" d="M776,267.9s-8.51,2.55-6,11.07,15.34,6.82,15.34,6.82Z"/><path class="cls-15" d="M834.35,267.9s8.51,2.55,6,11.07S825,285.79,825,285.79Z"/><path class="cls-16" d="M748.34,457.57a1.24,1.24,0,0,1-.57-.69C747.69,456.33,747.9,456.62,748.34,457.57Z"/><path class="cls-14" d="M858.12,803.88a132.16,132.16,0,0,0-7.74-12.61c-5.33-7.84-17-13-17-13l-9.61-13.52c4.48-17,18.19-84.7,16.54-115.26,0,0,26.06-143.82-4.5-213.65l-47.29,60.54c-1.19,2.79,12.92,87.9,24,131.51-.75,15.46-9,68.48-5.28,94.2.55,3.89.37,17.88,1,29-1.5,8.16-4.44,24.23-3.66,25.68l13.73,11c5.44,10.72,8.49,19.67,20.58,23.64C842.45,812.58,861.63,813.71,858.12,803.88Z"/><polygon class="cls-15" points="820.02 336.99 796.93 330.19 798.47 276.12 814.59 277.21 820.02 336.99"/><path class="cls-14" d="M824.43,215.09l-37.87.65L773.85,242.1c.35,23.71,4.25,62.5,31.09,63.76.55.05,3.19,0,3.75,0,26.06,0,30.43-40,30.76-63.75Z"/><path class="cls-17" d="M842.63,379.62c-1.26,10.75-7.13,37.55-5.73,56.11,0,0,.45.56,1.21,1.59h-66.6l.47-.56c1.29-26,.9-46.63.15-53.62,3-21.5,2.62-43.19-3.62-62.79a8.12,8.12,0,0,1,.74-.35l25-7.91s.83,6.21,12.61,8.75c11.74-2.73,13.85-7.81,13.85-7.81l14.53,3.05c.84,16.52,6.75,25.22,8.24,41.71-1.06,3.68-.93,17.45-.93,21.33C842.6,379.29,842.63,379.46,842.63,379.62Z"/><path class="cls-18" d="M850.38,791.27s-9.22-7.94-21.15,6.54l-10.82-10-14.74-15.53v13.63l13.63,11.92s6,14.49,25.56,17c0,0,32.38,6.82,10.23-20.44Z"/><path class="cls-14" d="M747.57,803.88a132.16,132.16,0,0,1,7.74-12.61c5.33-7.84,17-13,17-13l9.61-13.52c-4.48-17-18.19-84.7-16.53-115.26,0,0-22.59-140.91,8-210.74L833,437.32c1.19,2.79-29.64,145.54-40.74,189.14.75,15.47,9.86,69.94,6.19,95.66-.56,3.89-.37,17.88-1,29,1.5,8.16,4.45,24.23,3.67,25.68l-13.74,11c-5.44,10.72-8.49,19.67-20.58,23.64C763.24,812.58,744.06,813.71,747.57,803.88Z"/><path class="cls-19" d="M755.31,791.27s9.22-7.94,21.15,6.54l10.82-10L802,772.26v13.63l-13.63,11.92s-6,14.49-25.56,17c0,0-32.37,6.82-10.22-20.44Z"/><path class="cls-20" d="M817.94,312.82l12.48,2.64s-4.62,16.47-27,12.51c0,0-13.17-1.31-17.12-11.84l11.19-4s10.54,6.67,18.44.74Z"/><path class="cls-21" d="M837,431.5l-32,6.55-.73,6v-6l-32-6.55S746.78,521,757,605.36c0,0,4.36,112,11.63,131.67,0,0,20.37,10.91,31.28,1.46,0,0,5.1-101.84-2.18-125.85,0,0,2.42-9.76,5-23.93,3.81,15.73,7.32,26.84,7.32,26.84-7.27,24-2.18,116.39-2.18,116.39,8.73,4.37,27.64-.73,27.64-.73,7.28-19.64,16.73-125.85,16.73-125.85C862.45,521,837,431.5,837,431.5Z"/><path class="cls-22" d="M838.6,416.14l.66,19.62s-24.52,11.9-68,.82L773,417S814.74,431.47,838.6,416.14Z"/><path class="cls-13" d="M748.31,234.94c-7.17,7.22-14.75,22.32,3.93,28.88,0,0-7.23,17.25,4.54,17.34,0,0,7,22.84,19.61,6.12,0,0,9-18.61.17-23.68,0,0,13.41-10.89,4.73-18.06,0,0,18.49,10.24,23.71-3,0,0,4.76,13.13,15.79,10,0,0-2.45,12.43,9.38,11.47,0,0,6,26.53,24.56,18.83,0,0,12.59-1.5,5.76-9.55,0,0,16.67-6.82,8.25-19.26-.57-.85,4.88-16,4.16-19.62-1.51-7.61-6.13-13.08-14.56-10.21,3.73-14.11-8.69-28.9-23.2-20.93,0,0,1.5-11.47-13-11.82,0,0-24-8.67-25.63,4.9,0,0-21.31-8.41-24.72,5,0,0-25.36-.36-20.5,10.67,0,0-13.44,14.53-2.78,18.74S748.31,234.94,748.31,234.94Z"/><path class="cls-6" d="M651.28,744.4c.08.18,3,9.86,2.24,11.8l-10.23,10.17c-3.47,9.22-5.16,16.78-14.65,21.09-2.73,1.23-20.58,7.67-18.58-.65,0,0,3.87-7.92,7.51-14.78s12.65-12,12.65-12l6.94-18.05Z"/><path class="cls-6" d="M676.49,756c-.06.18-1.4,10.21-.31,12l11.74,8.38c4.92,8.53,7.81,15.72,17.88,18.43,2.89.78,21.54,4.24,18.23-3.65,0,0-5.11-7.19-9.81-13.36s-14.44-9.85-14.44-9.85L688.7,754Z"/><path class="cls-23" d="M700.06,513.55l-8.72,4.52c3.49-8.92,6.58-16.63,7.74-19-6,4-68,6.15-68,9.3,0,1.3,3,11.7,6.59,23.92L622.83,515.6c-2.49,2.62-2.81,9-3.49,12.31-1.75,8.62-3.14,17.32-4.5,26-3.23,20.52-6,41.11-8.76,61.71-1.57,11.9-2.17,23.35,1.41,34.93,2.6,8.43,4.64,15.61,7.23,24,5.54,18.08,18,60.65,18,63.33,0,8.19,3.59,15.82,12.42,11.7,3.13-1.46,7.17-.61,8.65-3.82,1.65-3.63-5.46-57.18-5.89-62.17-.66-7.94-6.23-29.21-9.49-37.53,0,0,9.09-37.63,18.33-62.22,4.09,25.85,9.17,55.82,11.86,69,.08,12.69-1.81,62,2.34,82.9,1,5,.39,15.56,3.55,19.81,2.72,3.66,14.38,7.06,17.38,2.38,2.48-3.88,9.63-86.34,6.43-115.7C698.29,642.3,709.55,568.87,700.06,513.55Z"/><path class="cls-8" d="M699.1,497.86a.94.94,0,0,0,.47-.56C699.65,496.85,699.48,497.08,699.1,497.86Z"/><path class="cls-9" d="M607,393.25a11.42,11.42,0,0,1-1.46,1.65c-.63.6-1.23,1.2-1.83,1.83.2-.21.41-.42.6-.64a30.48,30.48,0,0,1-7.55,6.18,7.71,7.71,0,0,1-4.17.93c-1.81,14-2.59,26.54-3.65,36.45-1.35,12.54-2.07,24.49-2.47,34.81-2.57,12.19-4.23,31.71-3.85,63.24,0,.75.2,3.18.23,4.91-2.92,6.63-6,13.77-6.85,21a9.68,9.68,0,0,0,.09,4,8.68,8.68,0,0,0,2,2.35c.13,2.12.49,5.66,3.34,5.32-.38,2.68,2.5,2.41,4.16,1.51.56-.3,2.55-2.54,3-2.51,5.85.3,8.84-13.74,8.84-13.74-1.27,5,2.64,3.63,2.64,3.63,5.75-8.61-3.11-25.58-3.11-25.58h0c2.07-9.89,7-33.21,9.34-53.9.08.53.17.35.21-1.31,0-.13,0-.28,0-.42l.06-.57,1.58-3.59C620.88,431.48,614.44,406.11,607,393.25Z"/><path class="cls-9" d="M716.13,410.5c-.53-.28-1.06-.57-1.58-.89l-.4-.33c-.29-.19-.59-.36-.88-.54a41.92,41.92,0,0,1-6.68-5.37,29.65,29.65,0,0,1-7.32-13.29l-.35-3.24a8.61,8.61,0,0,1-.68-.67c-6.51,13.35-11.13,39.11,4.9,85.43,6.55,12.39,6.54,12.29,9,16.85a36.75,36.75,0,0,1,2.53-5.06,8.29,8.29,0,0,1,4.12-3.4c1.56-2.43,2.63-9.84,5.26-10.27-1.15-12.13-1.53-21.91-4.51-38.55C718.46,425.18,717.41,418.19,716.13,410.5Z"/><path class="cls-24" d="M675.78,370.44l-43-1.67c-14.83,1.87-35.44-3.78-50.27,59.5,1,3.69,15.52,11.26,29.61,2.81.81,20.42.88,24.46,1.5,30.81,0,20.37-2.26,62.36,1.14,68.38,4.88,8.67,32.24,11,42.63,11.47,16.48.74,42-1.75,44.41-14,2.65-13.29-8.12-62.85-7.83-94.36,13.28,12.72,26.23.41,27.35-3.12C716,376.65,690.84,373.5,675.78,370.44Z"/><path class="cls-25" d="M676.36,370.5l-.58-.11-43-1.62c-2,.23-4.16.43-6.48.73-.66,5.06,5.65,12.71,12.58,17C652.24,394.84,676.56,387.26,676.36,370.5Z"/><path class="cls-25" d="M690.53,411l3,22c.08.59,1,.36.9-.23q-1.5-10.91-3-21.82C691.17,411,690.85,411,690.53,411Z"/><path class="cls-25" d="M611.84,411l-.37,0q.12,9.82.22,19.65a.47.47,0,0,0,.94,0q-.12-9.83-.22-19.66A5.37,5.37,0,0,1,611.84,411Z"/><path class="cls-9" d="M709.63,530.15s-19.15.07-24.07,9.18c0,0,.61,4.1,4.44.63,0,0-11,9.2-8,14.24.25.4-.8,3.2-.8,3.84,0,1.88,1.08,4.56,3.27,3,1,2.67,4.33,1.34,6.27.46a8.37,8.37,0,0,0,3,.67,9.8,9.8,0,0,0,3.6-1.78c6.32-4.31,9.8-13.94,14.5-19.87Z"/><path class="cls-9" d="M699.38,531.7c.24-.3.47-.6.65-.87.33-7.85,1-34.5,4-57.28-.21.52-.25.32.1-1.3,0-.13.1-.27.12-.41.27-1.93.55-3.85.85-5.71.53-.18.5.95.25,2.38,3-7.5,9.66-16.54,11.61-23.46a15.24,15.24,0,0,1,1.49.65c8.4,4.27,6.36,24.11,5.94,31.93-.7,13.23-2.14,19.34-5,32.24-1.64,7.34-4,25.56-8.62,31.65C705.72,548.2,705.9,531.55,699.38,531.7Z"/><path class="cls-26" d="M682.77,544a55,55,0,0,0,17.45,18.32s-11.45,16.57-14.54,13.86-9-18.11-10.57-20.25.13-5.27.13-5.27Z"/><path class="cls-9" d="M678.3,344.33c3.25-3.94,7.09,2.56,7.24,6.13.25,5.69-10.5,13.26-14.58,7.49Z"/><path class="cls-9" d="M626.76,345.38c-3.47-3.74-6.91,3-6.85,6.56.1,5.68,11.28,12.6,15,6.6Z"/><path class="cls-9" d="M621.49,326.64c-3.22-30.78,58.53-34.82,60.49-1.8,0,0,3.19,54.11-30.82,56.23v.27l0-1.32,0,1.05C623,380.39,621.49,326.65,621.49,326.64Z"/><path class="cls-27" d="M50.24,519.65h-.13c15.67-16.37,8.3-34.45,5.46-39.95v0c-.55-1.06-.94-1.69-.94-1.69l.14,0a65.79,65.79,0,0,1,12.17-76.43c11-14.53,2.67-33.84,2.67-33.84h0a46.66,46.66,0,1,1,87.94,0h0s-8.3,19.31,2.67,33.84A65.84,65.84,0,0,1,172.45,478h0l-.2.33c-.37.73-.74,1.46-1.14,2.17-2.94,6.06-8.58,22.23,4.33,37.38.4.47.8.93,1.19,1.41.12.12.21.25.33.38h0a81.24,81.24,0,1,1-126.72,0Z"/><path class="cls-28" d="M89.72,563.48l19.89,19.69V514L85.18,489.82a3.23,3.23,0,1,1,4.54-4.59l19.89,19.68V409.49a3.23,3.23,0,0,1,6.46,0V467l19.35-19.24a3.22,3.22,0,0,1,4.55,4.57l-23.9,23.77v69.47L137.46,524a3.22,3.22,0,1,1,4.58,4.54l-26,26.24v184.3a3.23,3.23,0,1,1-6.46,0V592.24L85.18,568.07a3.23,3.23,0,1,1,4.54-4.59Z"/><path class="cls-29" d="M201.27,743.41H70.21a1.14,1.14,0,0,1,0-2.27H201.27a1.14,1.14,0,1,1,0,2.27Z"/><path class="cls-30" d="M933.41,363.51s25.33,48.37,5.76,67.95-38.47,22-40,17.33-16.46-30-16.46-33.46S895.4,371.57,900,370.42s18.43-13.82,19.58-10.37Z"/><path class="cls-31" d="M878.75,454.05s-7-33.27,12.3-31.39,15.87,35.28,15.87,35.28L888.5,471.76Z"/><path class="cls-31" d="M899.2,448.79a28.82,28.82,0,0,1-16.86,5.52,30.79,30.79,0,0,1-3.59-.26c-.21,3.21-.41,6.25-.64,9.06-1,12.13-1.43,23.69-1.58,33.67-2.2,11.81-1.37,26.18-.27,56.6.42,11.69-8.43,24-3.17,35.48,6.06,13.24,14.53-1.21,16-9.22-1.12,4.86,2.61,3.44,2.61,3.44,5.37-8.44-5.38-22.26-5.38-22.26s7.78-34.59,9.56-54.62c.09.52.17.33.17-1.27,0-.13,0-.27,0-.4s0-.36,0-.56c.43-1-.15-19.4.38-20.7C897.68,468,898.66,457,899.2,448.79Z"/><path class="cls-31" d="M924.08,440.17c6-.77-15.65,24.55-10.26,27.13,1.07.52,17.33,14.69,58.87-50.81,1.67-2.48,3.25-4.83,4.74-7,6.49-9.31,12.18-18.41,16.91-26.35,7.39-8.55,13.27-20.43,26.3-45.3,5-9.56,18.54-15.68,19.16-27.13.71-13.19-13.47-5.18-18.49.6,3.22-3.42-.75-3.87-.75-3.87-8.64,4.5-5.47,20.15-5.47,20.15s-22.83,24.45-33.63,39.77c.16-.45,0-.33-.74.95-.06.1-.1.22-.16.33s-.19.28-.29.44c-.87.65-8.8,15.63-9.87,16.44C962.3,397.31,928.36,433.8,924.08,440.17Z"/><path class="cls-32" d="M896.42,381.42s-6.74,2-4.72,8.76,12.14,5.4,12.14,5.4Z"/><path class="cls-32" d="M942.57,381.42s6.75,2,4.72,8.76-12.14,5.4-12.14,5.4Z"/><path class="cls-16" d="M874.5,531.55a.93.93,0,0,1-.45-.54C874,530.57,874.15,530.8,874.5,531.55Z"/><polygon class="cls-32" points="931.24 436.11 912.96 430.73 914.18 387.93 926.93 388.8 931.24 436.11"/><path class="cls-31" d="M934.72,339.62l-30,.52L894.69,361c.28,18.77,3.36,49.47,24.6,50.47.45,0,2.53,0,3,0,20.62,0,24.08-31.69,24.35-50.46Z"/><path class="cls-33" d="M949.13,469.85c-1,8.51-5.65,29.72-4.53,44.42,0,0,.35.44.95,1.25H892.84l.37-.44c1-20.56.71-36.9.11-42.44,2.42-17,2.08-34.19-2.86-49.7a6.07,6.07,0,0,1,.59-.28l19.83-6.26s.65,4.91,10,6.93c9.29-2.17,11-6.18,11-6.18l15.45,4.13c.66,13.08,2.23,17.86,3.41,30.91-.84,2.91-1.57,14.2-1.57,17.27C949.11,469.59,949.12,469.72,949.13,469.85Z"/><path class="cls-34" d="M961.39,805.67a104.79,104.79,0,0,0-6.13-10c-4.22-6.2-13.41-10.26-13.41-10.26l-7.61-10.7c3.55-13.49,14.4-67,13.09-91.24,0,0,20.63-113.83-3.56-169.11l-2.46,3.16a8.32,8.32,0,0,0,.16-2l-47.22,1.15C870.07,572,888,683.48,888,683.48c-1.31,24.2,9.54,77.75,13.09,91.24l-7.61,10.7s-9.2,4.06-13.41,10.26a104.79,104.79,0,0,0-6.13,10c-2.78,7.78,12.41,6.88,15.14,6,9.57-3.15,12-10.23,16.29-18.72l10.87-8.69c.62-1.15-1.71-13.87-2.9-20.33.54-8.81.39-19.88.83-23,2.91-20.36-4.3-63.47-4.9-75.72,2.06-8.09,5-20.51,8.23-34.79,2.6,13.15,5.35,25.93,7.9,35.95-.6,12.24-7.09,54.2-4.19,74.56.44,3.08.29,14.15.83,23-1.18,6.46-3.52,19.18-2.9,20.33L930,792.93c4.31,8.49,6.72,15.57,16.29,18.72C949,812.55,964.17,813.45,961.39,805.67Z"/><path class="cls-35" d="M955.26,795.68s-7.29-6.28-16.73,5.18L930,792.93,918.3,780.64v10.79l10.78,9.43s4.73,11.47,20.24,13.49c0,0,25.62,5.4,8.08-16.18Z"/><path class="cls-35" d="M880,795.68s7.29-6.28,16.73,5.18l8.57-7.93L917,780.64v10.79l-10.79,9.43s-4.72,11.47-20.24,13.49c0,0-25.62,5.4-8.08-16.18Z"/><path class="cls-36" d="M945.94,498.76l-1.34,15.51s-17.54,9.44-51.94.67L894,499.43S927.06,510.9,945.94,498.76Z"/><path class="cls-37" d="M931.82,417.15l12.77,2.71s-4.72,16.86-27.65,12.81c0,0-13.49-1.35-17.53-12.13l11.47-4.14s10.78,6.83,18.87.76Z"/><path class="cls-30" d="M924.2,334.72s-15,12.67,2.3,26.49,16,12.79,16.07,20.21-18.37,37.37-3.4,50,9.21,19.57,2.3,41.45c0,0,23-4.6,15-63.34,0,0,15-38-5.76-56.42C950.68,353.15,958.74,331.26,924.2,334.72Z"/><path class="cls-30" d="M931.11,346.24s-2.31,20.72-30,19.57c0,0-7,16.76-1.15,28.79s-4.1,14.66-9,28.06-18.68,16.86-11.77,51.41c0,0-13.82-15-6.91-34.55s-13.82-41.46,3.46-56.43-3.46-49.52,26.48-56.43,40.31-6.91,41.46,16.12Z"/><path class="cls-14" d="M318.05,510.38s37.18-92.69,26.77-63.2c0,0,13.41-9.13,20.35-16.06,0,0,31.06-101.75-37.49-103.95Z"/><path class="cls-32" d="M354.42,377.92s7.14,2.15,5,9.28-12.85,5.72-12.85,5.72Z"/><path class="cls-14" d="M342.21,510.38s-37.19-92.69-26.78-63.2c0,0-13.41-9.13-20.35-16.06,0,0-31.06-101.75,37.5-103.95Z"/><path class="cls-32" d="M305.55,377.92s-7.14,2.15-5,9.28,12.86,5.72,12.86,5.72Z"/><path class="cls-31" d="M385.54,828.15a109,109,0,0,0-6.91-10.32c-4.72-6.38-14.62-10.29-14.62-10.29l-8.49-11c3.19-14.42,12.44-71.53,10-97.08,0,0,11.49-95.33,2.63-152.05L317.14,573c-.91,2.37,15,86.61,25.7,122.76-.12,13-6.49,44.22-2.57,65.64.59,3.25.9,15,1.84,24.26-1,6.88-2.93,20.44-2.23,21.63L351.75,816c4.91,8.8,7.76,16.19,18,19.12C372.7,836,388.8,836.26,385.54,828.15Z"/><path class="cls-16" d="M377.63,536.89a1,1,0,0,0,.48-.58C378.17,535.85,378,536.1,377.63,536.89Z"/><path class="cls-31" d="M285.63,827.15a107.44,107.44,0,0,1,6.48-10.58c4.47-6.57,14.2-10.86,14.2-10.86l8.06-11.34c-3.76-14.28-15.24-71-13.85-96.6,0,0-15.24-94.81-8.62-151.84l52,23.52c1,2.34-11.55,87.13-20.85,123.68.63,13,8.23,43.93,5.15,65.49-.46,3.27-.31,15-.88,24.31,1.26,6.84,3.73,20.3,3.07,21.52l-11.51,9.2c-4.55,9-7.11,16.49-17.24,19.82C298.76,834.43,282.68,835.38,285.63,827.15Z"/><path class="cls-9" d="M281.11,450a30.48,30.48,0,0,0,14.14,12.38,32.54,32.54,0,0,0,3.6,1.24c-1.13,3.21-2.19,6.26-3.13,9.08-4.05,12.25-8.43,23.68-12.43,33.47-2.76,12.42-9.53,26.07-23.21,55.25-5.27,11.22-1.75,26.88-11.63,35.89-11.4,10.38-13.67-7.21-11.82-15.64-.93,5.19-4,2.26-4,2.26-1.72-10.44,14.48-19.46,14.48-19.46s6.78-36.92,13.36-57.18c-.3.47-.31.26.35-1.3.05-.12.14-.25.2-.38s.13-.36.19-.56c0-1.2,8.2-18.84,8.21-20.32C274.64,469.28,278.22,458.21,281.11,450Z"/><path class="cls-9" d="M377.72,450a30.41,30.41,0,0,1-14.13,12.38,32.7,32.7,0,0,1-3.61,1.24c1.13,3.21,2.19,6.26,3.13,9.08,4.06,12.25,8.44,23.68,12.43,33.47,2.77,12.42,9.53,26.07,23.22,55.25,5.26,11.22,1.74,26.88,11.63,35.89,11.39,10.38,13.66-7.21,11.81-15.64.93,5.19,4,2.26,4,2.26,1.72-10.44-14.48-19.46-14.48-19.46s-6.78-36.92-13.35-57.18c.3.47.3.26-.36-1.3-.05-.12-.14-.25-.2-.38s-.12-.36-.18-.56c0-1.2-8.2-18.84-8.22-20.32C384.19,469.28,380.61,458.21,377.72,450Z"/><polygon class="cls-32" points="317.56 435.83 336.9 430.14 335.62 384.81 322.11 385.73 317.56 435.83"/><path class="cls-9" d="M313.86,333.66l31.74.55,10.65,22.09c-.29,19.88-3.56,52.38-26.05,53.44-.47,0-2.68,0-3.15,0-21.84,0-25.5-33.55-25.78-53.43Z"/><path class="cls-14" d="M361.09,345.78c-21.24-36.78-57.24-11-61.58-2.35s-.86,19.16-.86,19.16c10.76,4.23,27.84,4.34,41.29,3.57l3.59-10.79,1.1,10.46c9.09-.7,15.6-1.67,15.6-1.67C363.58,357.45,361.09,345.78,361.09,345.78Z"/><path class="cls-38" d="M357.82,519.45c-1.2-24.21-.66-43,.1-46.51a2,2,0,0,0,.05-.24l11.28,28.86c16.91,6.67,28.81-11.51,28.81-11.51l-15.42-30.16c-10.17-34-22.54-38.3-22.54-38.3l-21-6.63s-.69,5.2-10.57,7.34c-9.83-2.3-11.6-6.54-11.6-6.54L297,421.08a5.18,5.18,0,0,0-2.31,2.52c-4.33,3.52-12.38,12.83-19.39,36.29l-15.43,30.16s11.9,18.18,28.82,11.51l9.71-32.24c.24,6.84,6.29,32.22,5,49.27h0S257,576.45,254.86,665.94c0,0,69.61,39.76,162.8-2C417.66,663.94,413.45,583.66,357.82,519.45Z"/><path class="cls-39" d="M357.75,517.87H303.44c0,.24,0,.49,0,.72,0,0-46.41,57.86-48.55,147.35,0,0,69.61,39.76,162.8-2,0,0-4.21-80.28-59.84-144.49C357.79,518.92,357.77,518.4,357.75,517.87Z"/><path class="cls-40" d="M292.11,816.57s7.73-6.65,17.72,5.49l9.07-8.41,12.36-13v11.42l-11.43,10s-5,12.14-21.42,14.28c0,0-27.13,5.71-8.57-17.14Z"/><path class="cls-41" d="M379.62,817.28s-7.73-6.65-17.73,5.49l-9.06-8.4-13.4-13.73v11.42l12.47,10.71s5,12.14,21.42,14.28c0,0,27.13,5.72,8.57-17.13Z"/><path class="cls-42" d="M302,502.17l1.43,16.42s18.57,10,55,.71L357,502.88S322,515,302,502.17Z"/><path class="cls-42" d="M316.94,415.76l-13.53,2.86s5,17.86,29.28,13.57c0,0,14.28-1.43,18.56-12.85L339.11,415s-11.42,7.23-20,.81Z"/><circle class="cls-43" cx="254.86" cy="141.99" r="103.64"/><circle class="cls-44" cx="254.86" cy="141.99" r="52.45"/><path class="cls-45" d="M1060.76,578h-.1c11.93-12.47,6.32-26.24,4.16-30.43v0c-.42-.81-.72-1.29-.72-1.29l.11,0a50.14,50.14,0,0,1,9.27-58.22c8.36-11.06,2-25.77,2-25.77h0a35.54,35.54,0,1,1,67,0h0s-6.33,14.71,2,25.77a50.15,50.15,0,0,1,9.28,58.21h0l-.16.25c-.28.56-.57,1.11-.87,1.66-2.23,4.61-6.53,16.93,3.3,28.47.3.36.61.7.91,1.07.09.09.15.19.25.29h0a61.88,61.88,0,1,1-96.51,0Z"/><path class="cls-28" d="M1090.82,611.4l15.16,15V573.71l-18.62-18.41a2.46,2.46,0,0,1,3.46-3.5l15.16,15V494.12a2.46,2.46,0,1,1,4.91,0v43.8l14.74-14.66a2.46,2.46,0,1,1,3.47,3.49l-18.21,18.1v52.91l16.29-16.45a2.46,2.46,0,0,1,3.5,3.45l-19.79,20V745.12a2.46,2.46,0,1,1-4.91,0V633.31l-18.62-18.41a2.46,2.46,0,0,1,3.46-3.5Z"/><path class="cls-29" d="M1175.79,748.44H1076a.87.87,0,1,1,0-1.73h99.82a.87.87,0,0,1,0,1.73Z"/><path class="cls-46" d="M1132.15,637.56h-.05c6.82-7.13,3.61-15,2.38-17.39v0c-.24-.46-.41-.73-.41-.73h.06a28.68,28.68,0,0,1,5.3-33.28c4.78-6.32,1.16-14.73,1.16-14.73h0a20.31,20.31,0,1,1,39.46-6.75,20.11,20.11,0,0,1-1.17,6.75h0s-3.61,8.41,1.16,14.73a28.65,28.65,0,0,1,5.31,33.27h0a1.1,1.1,0,0,0-.09.14c-.16.32-.33.64-.5,1a14.63,14.63,0,0,0,1.89,16.27c.17.21.35.41.52.61l.14.17h0a35.37,35.37,0,1,1-55.17,0Z"/><path class="cls-47" d="M1149.34,656.64l8.66,8.57V635.1l-10.64-10.53a1.41,1.41,0,0,1,2-2l8.66,8.57V589.6a1.41,1.41,0,0,1,2.81,0v25l8.43-8.38a1.4,1.4,0,0,1,2,2l-10.41,10.35v30.24l9.31-9.4a1.4,1.4,0,0,1,2,2l-11.31,11.43v80.24a1.41,1.41,0,0,1-2.81,0V669.16l-10.64-10.52a1.41,1.41,0,0,1,2-2Z"/><path class="cls-29" d="M1197.91,735h-57.06a.5.5,0,0,1-.49-.5.49.49,0,0,1,.49-.49h57.06a.49.49,0,0,1,.49.49A.5.5,0,0,1,1197.91,735Z"/></g></g></svg>