<?xml version="1.0" encoding="utf-8"?>
<!-- Generator: Adobe Illustrator 22.1.0, SVG Export Plug-In . SVG Version: 6.00 Build 0)  -->
<svg version="1.1" id="Layer_1" xmlns="http://www.w3.org/2000/svg" xmlns:xlink="http://www.w3.org/1999/xlink" x="0px" y="0px"
	 viewBox="0 0 1920 1080" style="enable-background:new 0 0 1920 1080;" xml:space="preserve">
<style type="text/css">
	.st0{fill:url(#SVGID_1_);}
	.st1{fill:#D77728;}
	.st2{opacity:0.29;fill:#E56E3E;}
	.st3{fill:url(#SVGID_2_);}
	.st4{fill:#E5AD37;}
	.st5{fill:url(#SVGID_3_);}
	.st6{fill:url(#SVGID_4_);}
	.st7{fill:url(#SVGID_5_);}
	.st8{fill:url(#SVGID_6_);}
	.st9{fill:#FFF8E8;}
	.st10{opacity:0.23;}
	.st11{fill:#3F4F52;}
	.st12{opacity:0.42;fill:#3F4F52;}
	.st13{opacity:0.35;fill:url(#SVGID_7_);}
	.st14{fill:url(#SVGID_8_);}
	.st15{fill:url(#SVGID_9_);}
	.st16{fill:url(#SVGID_10_);}
	.st17{fill:url(#SVGID_11_);}
	.st18{fill:url(#SVGID_12_);}
	.st19{opacity:0.89;fill:#FBE200;}
	.st20{fill:#062735;}
	.st21{fill:#FFFFFF;}
	.st22{fill:#FDB62E;}
	.st23{fill:none;stroke:#010101;stroke-width:40.29;stroke-linecap:round;stroke-linejoin:round;stroke-miterlimit:10;}
	.st24{fill:url(#SVGID_13_);}
	.st25{fill:url(#SVGID_14_);}
	.st26{fill:url(#SVGID_15_);}
	.st27{fill:#FBB57E;}
	.st28{fill:#272626;}
	.st29{fill:none;stroke:#6E6F71;stroke-miterlimit:10;}
	.st30{fill:#D9D9D8;}
	.st31{fill:#89B440;}
	.st32{fill:#6B973F;}
	.st33{fill:url(#SVGID_16_);}
</style>
<g>
	<g>
		<g>
			
				<linearGradient id="SVGID_1_" gradientUnits="userSpaceOnUse" x1="1842.7256" y1="24.899" x2="1842.7256" y2="794.0547" gradientTransform="matrix(1 0 0 1 -135.3531 0)">
				<stop  offset="0" style="stop-color:#FCD032"/>
				<stop  offset="1" style="stop-color:#F36F2E"/>
			</linearGradient>
			<path class="st0" d="M1620,540.3l-0.2,0c21.6-22.6,11.5-47.5,7.5-55.1c0,0,0,0,0,0c-0.8-1.5-1.3-2.3-1.3-2.3l0.2,0
				c-6.3-12.3-9.9-26.3-9.9-41.1c0-25.1,10.2-47.9,26.7-64.4c15.1-20,3.7-46.7,3.7-46.7h0c-2.4-6.7-3.7-13.9-3.7-21.4
				c0-35.6,28.8-64.4,64.4-64.4c35.6,0,64.4,28.8,64.4,64.4c0,7.5-1.4,14.7-3.7,21.4h0c0,0-11.5,26.6,3.7,46.7
				c16.5,16.5,26.7,39.2,26.7,64.4c0,14.8-3.6,28.7-9.9,41l0.1,0c0,0-0.1,0.2-0.3,0.5c-0.5,1-1,2-1.6,3c-4,8.4-11.8,30.7,6,51.6
				c0.5,0.6,1.1,1.3,1.6,1.9c0.2,0.2,0.3,0.4,0.5,0.5l-0.1,0c15.4,19.2,24.7,43.5,24.7,70c0,61.9-50.2,112.1-112.1,112.1
				c-61.9,0-112.1-50.2-112.1-112.1C1595.3,583.8,1604.6,559.5,1620,540.3z"/>
			<path class="st1" d="M1674.4,600.7l27.4,27.2v-95.4l-33.7-33.3c-1.7-1.7-1.8-4.5,0-6.3c1.7-1.8,4.5-1.8,6.3,0l27.4,27.2V388.3
				c0-2.5,2-4.5,4.5-4.5s4.5,2,4.5,4.5v79.3l26.7-26.5c1.7-1.7,4.6-1.7,6.3,0c1.7,1.7,1.7,4.6,0,6.3l-33,32.8V576l29.5-29.8
				c1.7-1.8,4.5-1.8,6.3,0c1.7,1.7,1.8,4.5,0,6.3l-35.8,36.2v254.2c0,2.5-2,4.5-4.5,4.5s-4.5-2-4.5-4.5V640.4l-33.7-33.3
				c-1.7-1.7-1.8-4.5,0-6.3C1669.9,599,1672.7,599,1674.4,600.7z"/>
		</g>
		<g>
			<path class="st2" d="M1828.3,848.9h-180.8c-0.9,0-1.6-0.7-1.6-1.6c0-0.9,0.7-1.6,1.6-1.6h180.8c0.9,0,1.6,0.7,1.6,1.6
				C1829.9,848.2,1829.2,848.9,1828.3,848.9z"/>
		</g>
	</g>
	<g>
		<g>
			
				<linearGradient id="SVGID_2_" gradientUnits="userSpaceOnUse" x1="-11266.498" y1="-80.4693" x2="-11036.9336" y2="758.6967" gradientTransform="matrix(-1 0 0 1 -9546.5186 0)">
				<stop  offset="0" style="stop-color:#F36F2E"/>
				<stop  offset="1" style="stop-color:#FCD032"/>
			</linearGradient>
			<path class="st3" d="M1569.1,648.1l0.1,0c-12.4-12.9-6.5-27.2-4.3-31.5c0,0,0,0,0,0c0.4-0.8,0.7-1.3,0.7-1.3l-0.1,0
				c3.6-7.1,5.6-15,5.6-23.5c0-14.4-5.8-27.4-15.2-36.8c-8.7-11.5-2.1-26.7-2.1-26.7h0c1.4-3.8,2.1-7.9,2.1-12.2
				c0-20.3-16.5-36.8-36.8-36.8s-36.8,16.5-36.8,36.8c0,4.3,0.8,8.4,2.1,12.2h0c0,0,6.5,15.2-2.1,26.7c-9.4,9.4-15.2,22.4-15.2,36.8
				c0,8.5,2.1,16.4,5.6,23.5l0,0c0,0,0.1,0.1,0.2,0.3c0.3,0.6,0.6,1.1,0.9,1.7c2.3,4.8,6.8,17.5-3.4,29.5c-0.3,0.4-0.6,0.7-0.9,1.1
				c-0.1,0.1-0.2,0.2-0.3,0.3l0,0c-8.8,11-14.1,24.9-14.1,40c0,35.4,28.7,64.1,64.1,64.1c35.4,0,64.1-28.7,64.1-64.1
				C1583.2,673,1577.9,659.1,1569.1,648.1z"/>
			<path class="st4" d="M1537.9,682.7l-15.7,15.5v-54.5l19.3-19.1c1-1,1-2.6,0-3.6c-1-1-2.6-1-3.6,0l-15.7,15.5v-75.2
				c0-1.4-1.1-2.5-2.5-2.5c-1.4,0-2.5,1.1-2.5,2.5v45.3l-15.3-15.2c-1-1-2.6-1-3.6,0c-1,1-1,2.6,0,3.6l18.8,18.7v54.8l-16.9-17
				c-1-1-2.6-1-3.6,0c-1,1-1,2.6,0,3.6l20.5,20.7v145.3c0,1.4,1.1,2.5,2.5,2.5c1.4,0,2.5-1.1,2.5-2.5V705.4l19.3-19.1
				c1-1,1-2.6,0-3.6C1540.6,681.7,1538.9,681.7,1537.9,682.7z"/>
		</g>
		<g>
			<path class="st2" d="M1450,824.6h103.3c0.5,0,0.9-0.4,0.9-0.9c0-0.5-0.4-0.9-0.9-0.9H1450c-0.5,0-0.9,0.4-0.9,0.9
				C1449.1,824.2,1449.5,824.6,1450,824.6z"/>
		</g>
	</g>
</g>
<linearGradient id="SVGID_3_" gradientUnits="userSpaceOnUse" x1="74.7466" y1="759.8265" x2="1841.7229" y2="759.8265">
	<stop  offset="0" style="stop-color:#F7952F;stop-opacity:0"/>
	<stop  offset="0.5" style="stop-color:#F6C812"/>
	<stop  offset="1" style="stop-color:#F7952F;stop-opacity:0"/>
</linearGradient>
<rect x="78.5" y="752.8" class="st5" width="1762.5" height="14.1"/>
<g>
	<g>
		<g>
			
				<linearGradient id="SVGID_4_" gradientUnits="userSpaceOnUse" x1="-9853.8389" y1="364.3791" x2="-9853.8389" y2="700.4886" gradientTransform="matrix(-1 0 0 1 -9546.5186 0)">
				<stop  offset="0" style="stop-color:#FCD032"/>
				<stop  offset="1" style="stop-color:#F36F2E"/>
			</linearGradient>
			<path class="st6" d="M345.5,589.6L345.5,589.6c-9.4-9.9-4.9-20.8-3.2-24.1c0,0,0,0,0,0c0.3-0.6,0.6-1,0.6-1l-0.1,0
				c2.7-5.4,4.3-11.5,4.3-17.9c0-11-4.5-20.9-11.7-28.1c-6.6-8.8-1.6-20.4-1.6-20.4h0c1-2.9,1.6-6.1,1.6-9.3
				c0-15.5-12.6-28.1-28.1-28.1s-28.1,12.6-28.1,28.1c0,3.3,0.6,6.4,1.6,9.3h0c0,0,5,11.6-1.6,20.4c-7.2,7.2-11.7,17.1-11.7,28.1
				c0,6.5,1.6,12.5,4.3,17.9l0,0c0,0,0,0.1,0.1,0.2c0.2,0.4,0.4,0.9,0.7,1.3c1.8,3.7,5.2,13.4-2.6,22.5c-0.2,0.3-0.5,0.6-0.7,0.8
				c-0.1,0.1-0.1,0.2-0.2,0.2l0,0c-6.7,8.4-10.8,19-10.8,30.6c0,27,21.9,49,49,49c27,0,49-21.9,49-49
				C356.3,608.6,352.2,598,345.5,589.6z"/>
			<path class="st1" d="M321.7,616l-12,11.9v-41.7l14.7-14.6c0.8-0.8,0.8-2,0-2.8c-0.8-0.8-2-0.8-2.8,0l-12,11.9v-57.5
				c0-1.1-0.9-1.9-1.9-1.9c-1.1,0-1.9,0.9-1.9,1.9v34.7l-11.7-11.6c-0.8-0.8-2-0.8-2.8,0c-0.8,0.8-0.8,2,0,2.8l14.4,14.3v41.9
				l-12.9-13c-0.8-0.8-2-0.8-2.8,0c-0.8,0.8-0.8,2,0,2.8l15.7,15.8v111.1c0,1.1,0.9,1.9,1.9,1.9c1.1,0,1.9-0.9,1.9-1.9v-88.5
				l14.7-14.6c0.8-0.8,0.8-2,0-2.8C323.7,615.3,322.5,615.3,321.7,616z"/>
		</g>
		<g>
			<path class="st2" d="M254.5,724.5h79c0.4,0,0.7-0.3,0.7-0.7c0-0.4-0.3-0.7-0.7-0.7h-79c-0.4,0-0.7,0.3-0.7,0.7
				C253.8,724.2,254.1,724.5,254.5,724.5z"/>
		</g>
	</g>
	<g>
		<g>
			
				<linearGradient id="SVGID_5_" gradientUnits="userSpaceOnUse" x1="-9901.4678" y1="318.3347" x2="-9801.1523" y2="685.0377" gradientTransform="matrix(-1 0 0 1 -9546.5186 0)">
				<stop  offset="0" style="stop-color:#F36F2E"/>
				<stop  offset="1" style="stop-color:#FCD032"/>
			</linearGradient>
			<path class="st7" d="M289,636.7L289,636.7c-5.4-5.6-2.8-11.9-1.8-13.8c0,0,0,0,0,0c0.2-0.4,0.3-0.6,0.3-0.6l0,0
				c1.6-3.1,2.5-6.6,2.5-10.3c0-6.3-2.5-12-6.7-16.1c-3.8-5-0.9-11.7-0.9-11.7h0c0.6-1.7,0.9-3.5,0.9-5.3c0-8.9-7.2-16.1-16.1-16.1
				s-16.1,7.2-16.1,16.1c0,1.9,0.3,3.7,0.9,5.3h0c0,0,2.9,6.7-0.9,11.7c-4.1,4.1-6.7,9.8-6.7,16.1c0,3.7,0.9,7.2,2.5,10.3l0,0
				c0,0,0,0,0.1,0.1c0.1,0.3,0.3,0.5,0.4,0.7c1,2.1,3,7.7-1.5,12.9c-0.1,0.2-0.3,0.3-0.4,0.5c0,0-0.1,0.1-0.1,0.1l0,0
				c-3.8,4.8-6.2,10.9-6.2,17.5c0,15.5,12.5,28,28,28c15.5,0,28-12.5,28-28C295.2,647.6,292.8,641.5,289,636.7z"/>
			<path class="st4" d="M275.4,651.8l-6.9,6.8v-23.8l8.4-8.3c0.4-0.4,0.4-1.1,0-1.6c-0.4-0.4-1.1-0.4-1.6,0l-6.9,6.8v-32.9
				c0-0.6-0.5-1.1-1.1-1.1c-0.6,0-1.1,0.5-1.1,1.1v19.8l-6.7-6.6c-0.4-0.4-1.1-0.4-1.6,0c-0.4,0.4-0.4,1.1,0,1.6l8.2,8.2v23.9
				l-7.4-7.4c-0.4-0.4-1.1-0.4-1.6,0c-0.4,0.4-0.4,1.1,0,1.6l8.9,9v63.5c0,0.6,0.5,1.1,1.1,1.1c0.6,0,1.1-0.5,1.1-1.1v-50.6l8.4-8.3
				c0.4-0.4,0.4-1.1,0-1.6C276.5,651.4,275.8,651.4,275.4,651.8z"/>
		</g>
		<g>
			<path class="st2" d="M237,713.8h45.2c0.2,0,0.4-0.2,0.4-0.4s-0.2-0.4-0.4-0.4H237c-0.2,0-0.4,0.2-0.4,0.4S236.7,713.8,237,713.8z
				"/>
		</g>
	</g>
</g>
<g>
	<g>
		<linearGradient id="SVGID_6_" gradientUnits="userSpaceOnUse" x1="495.6943" y1="496.2339" x2="1429.7822" y2="496.2339">
			<stop  offset="0" style="stop-color:#FFD111"/>
			<stop  offset="1" style="stop-color:#F26322"/>
		</linearGradient>
		<path class="st8" d="M1421.8,823.2H503.7c-4.4,0-8-3.6-8-8V177.3c0-4.4,3.6-8,8-8h918.1c4.4,0,8,3.6,8,8v637.9
			C1429.8,819.6,1426.2,823.2,1421.8,823.2z"/>
		<path class="st9" d="M1368.9,766.8H556.5c-4.4,0-8-3.6-8-8V230.3c0-4.4,3.6-8,8-8h812.4c4.4,0,8,3.6,8,8v528.5
			C1376.9,763.2,1373.3,766.8,1368.9,766.8z"/>
		<g class="st10">
			<rect x="1216.1" y="291.5" class="st11" width="128.3" height="107.1"/>
			<rect x="1216.1" y="434.2" class="st11" width="128.3" height="69.6"/>
			<rect x="1216.1" y="539.5" class="st11" width="128.3" height="107.1"/>
		</g>
		<g class="st10">
			<rect x="581.6" y="291.5" class="st11" width="128.3" height="107.1"/>
			<rect x="581.6" y="434.2" class="st11" width="128.3" height="69.6"/>
		</g>
		<rect x="581.6" y="237.4" class="st12" width="762.9" height="35"/>
		<linearGradient id="SVGID_7_" gradientUnits="userSpaceOnUse" x1="581.5521" y1="644.5433" x2="1194.8757" y2="644.5433">
			<stop  offset="0" style="stop-color:#FFD111"/>
			<stop  offset="1" style="stop-color:#F26322"/>
		</linearGradient>
		<rect x="581.6" y="567.6" class="st13" width="613.3" height="153.9"/>
		
			<linearGradient id="SVGID_8_" gradientUnits="userSpaceOnUse" x1="962.7383" y1="1861.5127" x2="962.7383" y2="1889.0687" gradientTransform="matrix(1 0 0 -1 0 2715.6775)">
			<stop  offset="0" style="stop-color:#FFD111"/>
			<stop  offset="1" style="stop-color:#F26322"/>
		</linearGradient>
		<rect x="869.3" y="823.2" class="st14" width="186.8" height="46.7"/>
	</g>
	<linearGradient id="SVGID_9_" gradientUnits="userSpaceOnUse" x1="962.7383" y1="908.2495" x2="962.7383" y2="773.4107">
		<stop  offset="0" style="stop-color:#FCD032"/>
		<stop  offset="1" style="stop-color:#F36F2E"/>
	</linearGradient>
	<path class="st15" d="M1160,909.3H765.4l0,0c0-21.8,17.7-39.5,39.5-39.5h315.7C1142.4,869.9,1160,887.5,1160,909.3L1160,909.3z"/>
</g>
<linearGradient id="SVGID_10_" gradientUnits="userSpaceOnUse" x1="824.0598" y1="423.0469" x2="875.2445" y2="423.0469">
	<stop  offset="0" style="stop-color:#FCD930"/>
	<stop  offset="1" style="stop-color:#FFFFFF"/>
</linearGradient>
<polygon class="st16" points="849.7,448.6 846.7,426 824.2,423 846.7,420.1 849.7,397.5 852.7,420.1 875.2,423 852.7,426 "/>
<linearGradient id="SVGID_11_" gradientUnits="userSpaceOnUse" x1="1056.0391" y1="297.9292" x2="1107.2239" y2="297.9292">
	<stop  offset="0" style="stop-color:#178FCF"/>
	<stop  offset="0.5" style="stop-color:#32C5F4"/>
	<stop  offset="1" style="stop-color:#178FCF"/>
</linearGradient>
<polygon class="st17" points="1081.7,323.5 1078.7,300.9 1056.1,297.9 1078.7,295 1081.7,272.4 1084.6,295 1107.2,297.9 
	1084.6,300.9 "/>
<linearGradient id="SVGID_12_" gradientUnits="userSpaceOnUse" x1="756.9771" y1="370.5551" x2="786.4183" y2="370.5551">
	<stop  offset="0" style="stop-color:#178FCF"/>
	<stop  offset="0.5" style="stop-color:#32C5F4"/>
	<stop  offset="1" style="stop-color:#178FCF"/>
</linearGradient>
<polygon class="st18" points="771.7,385.2 770,372.3 757,370.6 770,368.9 771.7,355.9 773.4,368.9 786.4,370.6 773.4,372.3 "/>
<polygon class="st19" points="1029.9,383.7 1013.6,371.1 992.9,370.4 1012,362.6 1022.9,345 1020.1,365.5 "/>
<polygon class="st9" points="860.7,609.8 850.2,601.8 837,601.3 849.3,596.3 856.2,585.1 854.5,598.2 "/>
<g>
	<g>
		<path class="st20" d="M1030.7,515.7c-0.2-2.4-1-4.7-2.3-6.8l-13-19.6c-1.7-3-2.6-6.3-2.9-9.7l-4.3-60.6
			c-2.8-39.3-35.3-71-72.7-70.7l-31.2,0.3c-37.4,0.3-65.4,32.4-62.7,71.8l4.3,60.6c0.2,3.4-0.3,6.7-1.5,9.8l-10.2,19.8
			c-1.1,2.1-1.5,4.4-1.3,6.8l0,0c0.5,7,6.3,12.7,13,12.7l173.6-1.4C1026.2,528.5,1031.2,522.8,1030.7,515.7z"/>
		<polygon class="st20" points="935.5,348.4 958.9,309.9 875.6,310.5 904.3,348.7 905.1,359.6 936.3,359.4 		"/>
	</g>
	<path class="st21" d="M951.8,430.5l-0.2-3.5c-0.7-10.1-9.1-18.3-18.8-18.3l-3.3,0l-0.8-11l-10.4,0.1l0.8,11l-3.3,0
		c-9.7,0-16.9,8.3-16.3,18.5c0.5,7.7,5.6,14.6,12.6,17.2l9.7,3.6l1.5,20.9l-3.3,0c-3.9,0-7.3-3.3-7.6-7.4l0,0l-0.2-3.5l-10.4,0.1
		l0.2,3.5c0.7,10.1,9.1,18.3,18.8,18.3l17.1-0.1c9.7,0,16.9-8.3,16.3-18.5c-0.5-7.7-5.6-14.6-12.6-17.2l-9.7-3.6l-1.5-20.9l3.3,0
		c3.9,0,7.3,3.3,7.6,7.4l0,0l0.2,3.5L951.8,430.5z M938.4,454.5c2.8,1.1,4.8,3.9,5.1,7c0.3,4.1-2.6,7.5-6.6,7.5l0,0l-3.3,0
		l-1.2-16.8L938.4,454.5z M920.9,436.6l-6-2.3c-2.8-1.1-4.8-3.9-5.1-7c-0.3-4.1,2.6-7.5,6.6-7.5l0,0l3.3,0L920.9,436.6z"/>
	<g>
		<path class="st22" d="M1025.2,364.1L1025.2,364.1c-2.6-11.2-11.6-20-22.4-21.7l0,0c10.6-2,18.3-10.8,19.3-22.1l0,0
			c2.6,11.2,11.6,20,22.4,21.7l0,0C1033.9,344,1026.2,352.9,1025.2,364.1z"/>
		<path class="st22" d="M798.7,475.6L798.7,475.6c-2.6-11.2-11.6-20-22.4-21.7l0,0c10.6-2,18.3-10.8,19.3-22.1l0,0
			c2.6,11.2,11.6,20,22.4,21.7l0,0C807.4,455.5,799.6,464.3,798.7,475.6z"/>
	</g>
</g>
<path class="st23" d="M442.8,467.8"/>
<g>
	<g>
		
			<linearGradient id="SVGID_13_" gradientUnits="userSpaceOnUse" x1="-6383.7612" y1="769.5873" x2="-6247.8267" y2="769.5873" gradientTransform="matrix(-0.918 0 0 1 -5441.6431 0)">
			<stop  offset="0" style="stop-color:#178FCF"/>
			<stop  offset="0.5" style="stop-color:#32C5F4"/>
			<stop  offset="1" style="stop-color:#178FCF"/>
		</linearGradient>
		<polygon class="st24" points="418.8,652.8 397.6,743.4 322.8,904.3 294,904.3 351.5,742.8 343.1,634.9 		"/>
		
			<linearGradient id="SVGID_14_" gradientUnits="userSpaceOnUse" x1="-6459.6807" y1="776.3292" x2="-6366.2822" y2="776.3292" gradientTransform="matrix(-0.918 0 0 1 -5441.6431 0)">
			<stop  offset="0" style="stop-color:#178FCF"/>
			<stop  offset="0.5" style="stop-color:#32C5F4"/>
			<stop  offset="1" style="stop-color:#178FCF"/>
		</linearGradient>
		<polygon class="st25" points="453.3,643.3 481.8,727.8 488.5,909.3 463.2,909.3 432.5,747.3 402.7,661.8 		"/>
		<polygon class="st11" points="325,894.3 296.3,894.3 291.7,900.4 291.7,908.8 358.7,908.8 		"/>
		<polygon class="st11" points="488.3,894.6 459.6,894.6 455,900.7 455,909.1 522,909.1 		"/>
	</g>
	<linearGradient id="SVGID_15_" gradientUnits="userSpaceOnUse" x1="342.8506" y1="558.5451" x2="483.6667" y2="558.5451">
		<stop  offset="0" style="stop-color:#C065A7"/>
		<stop  offset="1" style="stop-color:#F0A5C7"/>
	</linearGradient>
	<path class="st26" d="M392.3,652.9L342.9,639l0.6-3.4l31.8-150.4c3.5-16.6,19.1-27,34.8-23.3l50.7,11.9
		c15.7,3.7,25.6,20.1,22.1,36.7l-28.6,135.4l-2,1C433.6,656.4,412.3,658.6,392.3,652.9z"/>
</g>
<g>
	<g>
		<path class="st27" d="M496.1,386.3c-6.4,14.9-12.9,29.8-17.7,45.7c-4.5,17.2-3.3,36.4-20.2,44.2c-42.8,21.8-70.6-53-51.7-85.6"/>
	</g>
	<g>
		<path class="st28" d="M413.1,359.3c2.8-13.1,6.9-27,24.5-30.2c46.5-8.3,53,23,62.7,28.4c5,1.7,25.1-12.8,15.5,14.2
			c-16.8,47.6-68.4,52.8-93.1,20.4c-6.5,9.5-1.4,24.5-6.4,31.5c-7.8,9.9-20.7,3.5-25.3-4.2C380.1,400.8,391.9,346.4,413.1,359.3z"/>
	</g>
	<g>
		<path class="st28" d="M406.2,357.4c-3.5,1.9-5.8,3.5-8.5,8.5c-6.1,11.3-8,32.2,3.6,36.1c3.7,1.3,8.2-1.3,10.5-5.1
			c2.3-3.7,8.1-23.4,10.3-21.7c7,5.4,26.6,36.5,71.3,27.6c-22.5,16.1-53.2,12-70.6-10.8c-6.5,9.5-1.4,24.5-6.4,31.5
			c-7.8,9.9-20.7,3.5-25.3-4.2C381.3,403,389.5,358.5,406.2,357.4z"/>
	</g>
</g>
<path class="st29" d="M414.6,463.4c0,0,19.2,30.2,47.3,11.1"/>
<line class="st29" x1="437.7" y1="480.1" x2="438.9" y2="513.6"/>
<ellipse transform="matrix(0.1788 -0.9839 0.9839 0.1788 -122.427 833.9006)" class="st30" cx="438.3" cy="490.3" rx="1.5" ry="1.7"/>
<ellipse transform="matrix(0.1788 -0.9839 0.9839 0.1788 -134.8069 845.0687)" class="st30" cx="438.8" cy="503.3" rx="1.5" ry="1.7"/>
<path class="st27" d="M486.5,565.8"/>
<g>
	<g>
		<g>
			<path class="st31" d="M599,592.3c0.1-0.8,0-1.6-0.3-2.4l-3.4-7.4c-0.4-1.1-0.5-2.3-0.3-3.4l3.7-20.1c2.4-13.1-7.5-25.8-22.2-28.5
				l-12.2-2.2c-14.6-2.7-28.4,5.8-30.8,18.9l-3.7,20.1c-0.2,1.1-0.7,2.2-1.4,3.1l-5.7,5.7c-0.6,0.6-1,1.3-1.1,2.1l0,0
				c-0.4,2.3,1.4,4.6,4,5.1l67.9,12.3C596.1,596.2,598.6,594.7,599,592.3z"/>
			<polygon class="st31" points="576.6,530.6 589.1,519.7 556.5,513.7 564.4,528.3 563.7,532 575.9,534.2 			"/>
		</g>
		<path class="st32" d="M598.7,589.9l-3.4-7.4c-0.4-1.1-0.5-2.3-0.3-3.4l3.7-20.1c1-5.3-0.1-10.8-2.9-15.6
			c-10.3,25.8-32.2,37.8-51.8,43.3l49.5,9c2.6,0.5,5.1-1,5.6-3.4C599.2,591.5,599.1,590.7,598.7,589.9L598.7,589.9z"/>
		<path class="st22" d="M601.2,540.9L601.2,540.9c0-3.9-2.8-7.4-6.8-8.8l0,0c4.3,0.1,8.1-2.2,9.5-5.8l0,0c0,3.9,2.8,7.4,6.8,8.8l0,0
			C606.4,534.9,602.6,537.2,601.2,540.9z"/>
		<path class="st22" d="M574.7,515.1L574.7,515.1c0-3.9-2.8-7.4-6.8-8.8l0,0c4.3,0.1,8.1-2.2,9.5-5.8l0,0c0,3.9,2.8,7.4,6.8,8.8l0,0
			C579.9,509.2,576.1,511.5,574.7,515.1z"/>
		<path class="st27" d="M600.5,589.6c-1-2.3-3.7-3.5-6.2-2.8l-24.8,4.6c-0.4,0.1-0.9,0.1-1.3,0l-28.8-5.2c-1.8-0.3-3-1.9-2.7-3.5
			s2-2.7,3.8-2.3l13.1,2.4c5.4,1,10.5-2.1,11.4-7l-27.2-4.9c-4.5-0.8-9.1,0.2-12.5,2.9l-12.3,9.2l8.1,21l46.1-1.5c2,0,4-0.3,5.9-0.8
			l24.8-6.3C600.3,594.4,601.5,591.9,600.5,589.6z"/>
		<polygon class="st27" points="512.9,582.9 470,573.3 436.7,529.3 421,538.5 414.6,541.5 452.6,599 521.6,603.9 		"/>
	</g>
	<path class="st21" d="M575.7,556.5l0.2-1.2c0.6-3.4-2-6.7-5.7-7.4l-1.3-0.2l0.7-3.6l-4.1-0.7l-0.7,3.6l-1.3-0.2
		c-3.8-0.7-7.3,1.5-8,4.9c-0.5,2.6,0.9,5.2,3.4,6.6l3.5,1.9l-1.3,6.9l-1.3-0.2c-1.5-0.3-2.6-1.6-2.3-3l0,0l0.2-1.2l-4.1-0.7
		l-0.2,1.2c-0.6,3.4,2,6.7,5.7,7.4l6.7,1.2c3.8,0.7,7.3-1.5,8-4.9c0.5-2.6-0.9-5.2-3.4-6.6l-3.5-1.9l1.3-6.9l1.3,0.2
		c1.5,0.3,2.6,1.6,2.3,3l0,0l-0.2,1.2L575.7,556.5z M568.4,563.3c1,0.6,1.5,1.6,1.4,2.7c-0.2,1.4-1.7,2.3-3.2,2l0,0l-1.3-0.2l1-5.6
		L568.4,563.3z M563.1,556.2L561,555c-1-0.6-1.5-1.6-1.4-2.7c0.2-1.4,1.7-2.3,3.2-2l0,0l1.3,0.2L563.1,556.2z"/>
</g>
<linearGradient id="SVGID_16_" gradientUnits="userSpaceOnUse" x1="-1071.3108" y1="520.7094" x2="-1009.3002" y2="520.7094" gradientTransform="matrix(-1.0214 0 0 1 -641.5391 0)">
	<stop  offset="0" style="stop-color:#498AC9"/>
	<stop  offset="1" style="stop-color:#AFD136"/>
</linearGradient>
<path class="st33" d="M416.5,557.5l-24.6-43.6c-5.5-9.8-1.9-22.1,8.1-27.5c10-5.4,22.6-1.8,28.1,7.9l24.6,43.6L416.5,557.5z"/>
</svg>
