<svg xmlns="http://www.w3.org/2000/svg" xmlns:xlink="http://www.w3.org/1999/xlink" viewBox="0 0 1247.01 764.81"><defs><style>.cls-1{fill:none;}.cls-2{fill:url(#linear-gradient);}.cls-12,.cls-3,.cls-39{fill:#fff;}.cls-3{opacity:0.5;}.cls-4{fill:url(#linear-gradient-2);}.cls-38,.cls-5{opacity:0.24;}.cls-5{fill:url(#linear-gradient-3);}.cls-6{fill:url(#linear-gradient-4);}.cls-7{fill:url(#linear-gradient-5);}.cls-8{fill:url(#linear-gradient-6);}.cls-9{fill:#262626;}.cls-10{fill:#e5a21a;}.cls-11{fill:#ffd578;}.cls-13{fill:#e2aca8;}.cls-14{fill:#eaa15e;}.cls-15{fill:#f9c3bc;}.cls-16{fill:#f4bd45;}.cls-17{fill:#ff7166;}.cls-18{fill:url(#linear-gradient-7);}.cls-19{fill:url(#linear-gradient-8);}.cls-20{fill:#abb5ef;}.cls-21{fill:#121d7d;}.cls-22{fill:#ffe4a9;}.cls-23{fill:#ffd15e;}.cls-24{fill:#062735;}.cls-25{fill:#d39e33;}.cls-26{fill:#282828;}.cls-27{fill:url(#linear-gradient-9);}.cls-28{fill:#e07a00;}.cls-29{fill:url(#linear-gradient-10);}.cls-30{fill:#d8761d;}.cls-31{fill:#e56e3e;opacity:0.29;}.cls-32{fill:url(#linear-gradient-11);}.cls-33{fill:#e5ac38;}.cls-34{fill:url(#linear-gradient-12);}.cls-35{fill:url(#linear-gradient-13);}.cls-36{fill:url(#linear-gradient-14);}.cls-37{opacity:0.89;fill:url(#linear-gradient-15);}.cls-38{fill:url(#linear-gradient-16);}.cls-39{opacity:0.26;}.cls-40{fill:url(#linear-gradient-17);}.cls-41{fill:url(#linear-gradient-18);}.cls-42{fill:url(#radial-gradient);}.cls-43{fill:url(#linear-gradient-19);}.cls-44{fill:#f76d59;}.cls-45{fill:#294d59;}.cls-46{fill:#f7f5ef;}.cls-47{fill:url(#linear-gradient-20);}.cls-48{fill:url(#linear-gradient-21);}.cls-49{fill:url(#linear-gradient-22);}.cls-50{fill:url(#linear-gradient-23);}.cls-51{fill:url(#linear-gradient-24);}.cls-52{fill:#ff8c85;}.cls-53{fill:#8f4def;}.cls-54{fill:#fafafa;}.cls-55{fill:#a25bf4;}.cls-56{fill:#ef9348;}.cls-57{fill:#f7bd8d;}.cls-58{clip-path:url(#clip-path);}.cls-59{fill:#fff9e7;}.cls-60{fill:#f27572;}.cls-61{fill:#272343;}.cls-62{fill:url(#radial-gradient-2);}.cls-63{fill:url(#linear-gradient-25);}</style><linearGradient id="linear-gradient" x1="-2.64" y1="592.47" x2="1247.54" y2="592.47" gradientUnits="userSpaceOnUse"><stop offset="0" stop-color="#f7942f" stop-opacity="0"/><stop offset="0.5" stop-color="#f7c700"/><stop offset="1" stop-color="#f7942f" stop-opacity="0"/></linearGradient><linearGradient id="linear-gradient-2" x1="566.82" y1="413.93" x2="230.66" y2="15" gradientUnits="userSpaceOnUse"><stop offset="0" stop-color="#ffd111"/><stop offset="1" stop-color="#ff6100"/></linearGradient><linearGradient id="linear-gradient-3" x1="346.52" y1="146.74" x2="594.43" y2="146.74" gradientUnits="userSpaceOnUse"><stop offset="0" stop-color="#ffffb8"/><stop offset="1" stop-color="#fcd92f"/></linearGradient><linearGradient id="linear-gradient-4" x1="261.61" y1="236.72" x2="302.21" y2="236.72" gradientUnits="userSpaceOnUse"><stop offset="0" stop-color="#fff"/><stop offset="1" stop-color="#fcd92f"/></linearGradient><linearGradient id="linear-gradient-5" x1="334.69" y1="250.23" x2="334.69" y2="219.93" gradientUnits="userSpaceOnUse"><stop offset="0" stop-color="#fcd92f"/><stop offset="1" stop-color="#fff"/></linearGradient><linearGradient id="linear-gradient-6" x1="367.17" y1="236.72" x2="407.77" y2="236.72" xlink:href="#linear-gradient-5"/><linearGradient id="linear-gradient-7" x1="1136.97" y1="22.49" x2="758.63" y2="388.39" gradientUnits="userSpaceOnUse"><stop offset="0" stop-color="#f7942f"/><stop offset="1" stop-color="#f7c700"/></linearGradient><linearGradient id="linear-gradient-8" x1="834.05" y1="-65.94" x2="1055.96" y2="182.42" xlink:href="#linear-gradient-2"/><linearGradient id="linear-gradient-9" x1="1130.27" y1="205.43" x2="1171.38" y2="205.43" gradientUnits="userSpaceOnUse"><stop offset="0" stop-color="#fcd92f"/><stop offset="1" stop-color="#ffffb8"/></linearGradient><linearGradient id="linear-gradient-10" x1="419.93" y1="360.6" x2="419.93" y2="598.4" gradientTransform="matrix(-1, 0, 0, 1, 815.1, 0)" gradientUnits="userSpaceOnUse"><stop offset="0" stop-color="#fcd02f"/><stop offset="1" stop-color="#ff6e27"/></linearGradient><linearGradient id="linear-gradient-11" x1="386.23" y1="328.02" x2="457.2" y2="587.47" gradientTransform="matrix(-1, 0, 0, 1, 815.1, 0)" gradientUnits="userSpaceOnUse"><stop offset="0" stop-color="#ff6e27"/><stop offset="1" stop-color="#fcd02f"/></linearGradient><linearGradient id="linear-gradient-12" x1="-317.28" y1="363.89" x2="-317.28" y2="601.7" xlink:href="#linear-gradient-10"/><linearGradient id="linear-gradient-13" x1="-350.98" y1="331.31" x2="-280.01" y2="590.76" xlink:href="#linear-gradient-11"/><linearGradient id="linear-gradient-14" x1="537.49" y1="317.12" x2="795.96" y2="678.45" gradientUnits="userSpaceOnUse"><stop offset="0" stop-color="#fcff2f"/><stop offset="1" stop-color="#ff6e27"/></linearGradient><linearGradient id="linear-gradient-15" x1="13264.72" y1="873.7" x2="13211.33" y2="1083.86" gradientTransform="matrix(-1, 0, 0, 1, 13875.79, -592.85)" gradientUnits="userSpaceOnUse"><stop offset="0" stop-color="#ff6100"/><stop offset="1" stop-color="#ffd111"/></linearGradient><linearGradient id="linear-gradient-16" x1="861.25" y1="473.88" x2="955.51" y2="473.88" gradientUnits="userSpaceOnUse"><stop offset="0" stop-color="#f7c700"/><stop offset="1" stop-color="#f7942f" stop-opacity="0"/></linearGradient><linearGradient id="linear-gradient-17" x1="759.1" y1="540.04" x2="759.1" y2="482.72" xlink:href="#linear-gradient-9"/><linearGradient id="linear-gradient-18" x1="759.1" y1="471.75" x2="759.1" y2="109.25" xlink:href="#linear-gradient-5"/><radialGradient id="radial-gradient" cx="760.18" cy="347.45" r="20.95" gradientTransform="translate(924.59 -472.04) rotate(76.78)" xlink:href="#linear-gradient-4"/><linearGradient id="linear-gradient-19" x1="642.07" y1="554.52" x2="642.07" y2="683.81" xlink:href="#linear-gradient-4"/><linearGradient id="linear-gradient-20" x1="1918.92" y1="552.27" x2="1906.78" y2="582.61" gradientTransform="matrix(-1, 0, 0, 1, 2213.85, 0)" gradientUnits="userSpaceOnUse"><stop offset="0" stop-color="#062634" stop-opacity="0.8"/><stop offset="0.99" stop-color="#062634" stop-opacity="0"/></linearGradient><linearGradient id="linear-gradient-21" x1="474.42" y1="718.53" x2="474.42" y2="766.82" gradientUnits="userSpaceOnUse"><stop offset="0" stop-color="#ffd111" stop-opacity="0"/><stop offset="1" stop-color="#ff6100"/></linearGradient><linearGradient id="linear-gradient-22" x1="474.26" y1="723.07" x2="474.26" y2="641.43" xlink:href="#linear-gradient-2"/><linearGradient id="linear-gradient-23" x1="930.78" y1="668.83" x2="930.78" y2="639.04" gradientUnits="userSpaceOnUse"><stop offset="0" stop-color="#008fd3"/><stop offset="1" stop-color="#fff"/></linearGradient><linearGradient id="linear-gradient-24" x1="877.34" y1="633.72" x2="984.1" y2="633.72" gradientUnits="userSpaceOnUse"><stop offset="0" stop-color="#6191f2"/><stop offset="1" stop-color="#61d6f2"/></linearGradient><clipPath id="clip-path"><path class="cls-1" d="M922.47,484.61a9.37,9.37,0,1,1-3.24-12.84A9.36,9.36,0,0,1,922.47,484.61Z"/></clipPath><radialGradient id="radial-gradient-2" cx="742.39" cy="98.13" r="38.39" gradientUnits="userSpaceOnUse"><stop offset="0" stop-color="#003e35"/><stop offset="1" stop-color="#062735"/></radialGradient><linearGradient id="linear-gradient-25" x1="789.78" y1="1859.89" x2="956.69" y2="1859.89" gradientTransform="matrix(0.95, 0.32, -0.32, 0.95, 471.78, -1953.69)" gradientUnits="userSpaceOnUse"><stop offset="0" stop-color="#f7c741"/><stop offset="1" stop-color="#f7942f"/></linearGradient></defs><title>feeds</title><g id="Layer_2" data-name="Layer 2"><g id="Layer_1-2" data-name="Layer 1"><rect class="cls-2" y="587.47" width="1247.01" height="10"/><rect class="cls-3" x="805.57" y="145.61" width="143.02" height="25.4"/><rect class="cls-4" x="221.1" y="38.51" width="373.33" height="373.33"/><path class="cls-5" d="M594.43,38.52H346.52a220.65,220.65,0,0,0,4.61,40.71c23.57,113.41,130.32,188.24,243.3,174Z"/><rect class="cls-3" x="261.61" y="80.3" width="152.59" height="21.46"/><rect class="cls-3" x="261.61" y="121.34" width="68.74" height="21.46"/><rect class="cls-3" x="261.61" y="162.37" width="120.8" height="21.46"/><rect class="cls-3" x="261.61" y="287.34" width="92.98" height="21.46"/><rect class="cls-3" x="261.61" y="328.38" width="137.49" height="21.46"/><path class="cls-6" d="M281.91,236.72h20.3a20.3,20.3,0,1,1-12.33-18.67Z"/><path class="cls-7" d="M339.84,236.72l10,17.66a20.3,20.3,0,1,1-2-36.33Z"/><path class="cls-8" d="M387.47,236.72l8-18.67a20.3,20.3,0,1,1-8-1.63h.75Z"/><path class="cls-9" d="M555.83,114.29c4.06,2.66,6,7.62,6.84,12.4,1.63,9.27-.38,19.76-7.46,25.95"/><path class="cls-9" d="M555.23,114.89c5.74,5.93,6.29,14.58,4.94,22.35-.76,4.35-2.67,7.18-5,10.82-1.21,1.88-1.72,2.15-1.46,4.58a1.56,1.56,0,0,0,1.49,1.49c7.58,1,10.26-13.26,10.5-18.7.35-8-2.23-17.59-9.45-21.87a.85.85,0,0,0-1,1.33Z"/><path class="cls-9" d="M485.86,99.34c-13.58,5.42-20,23.85-12.78,36.55-6.9,3.42-8.6,14.13-3.1,19.51-7.73,4.18-10.18,14.91-7,23.09s10.79,14,18.84,17.49a59.16,59.16,0,0,0,36.78,3.43c10-2.3,19.17-7.16,28.22-12a29.86,29.86,0,0,0,6.47-4.18c8.24-7.58,5.7-21.22.59-31.18,9.63-8.29,11.46-24.21,3.94-34.46,4.7-4.37,5.15-12,2.35-17.82s-8.2-9.88-13.89-12.85a12.62,12.62,0,0,0-21.86-12.2c2.7-7.69-6.44-15.56-14.48-14.22s-13.82,8.65-16.89,16.2c-10-3.89-22.68,3.51-24.22,14.13-.27,1.86-.26,3.81-1.1,5.49a15.3,15.3,0,0,1-3.57,4,26.59,26.59,0,0,0,10.95,44.95,11,11,0,0,0-3.87,21.17"/><path class="cls-10" d="M497.45,187.43c-6.68,6.85-11.9,20.61-15.77,36.27H462c.69-4.61,1.5-8.88,2.39-12.62a250.4,250.4,0,0,1,7.87-27c2.27-6.32,5.93-5.22,8.68-5.77a22.22,22.22,0,0,1,9.34.67C495.24,180.37,499.44,183.24,497.45,187.43Z"/><path class="cls-10" d="M559.17,223.7H539.48c-3.87-15.66-9.09-29.42-15.77-36.27-2.43-5.11,4.35-8.26,10.5-9.11a19.07,19.07,0,0,1,6,0c2.76.55,6.42-.55,8.69,5.77a250.4,250.4,0,0,1,7.87,27C557.67,214.82,558.47,219.09,559.17,223.7Z"/><path class="cls-11" d="M542.3,223.7H479.24a72.39,72.39,0,0,1,1.49-21.13c2.07-9.09,5.12-17.42,9.54-23.57a29.1,29.1,0,0,1,5-5.44c5-4.16,13.7-6.34,19.94-5.14h5.65a31.1,31.1,0,0,1,13.34,9.9A34.3,34.3,0,0,1,540.47,191C543,200.86,543,207.08,542.3,223.7Z"/><path class="cls-12" d="M508,166.26s-14.35,2.15-8.19,14.56c4.85,9.8,13.48-4.48,13.48-4.48Z"/><path class="cls-12" d="M521.92,168.09s14,3.35,9.23,12.07c-5.19,9.45-15-5.71-15-5.71Z"/><path class="cls-13" d="M516.12,158.37c11.58,0,11.6,18,0,18S504.52,158.37,516.12,158.37Z"/><path class="cls-13" d="M546.49,116a4.13,4.13,0,0,1,4.54,1.45,7.38,7.38,0,0,1,1.26,6c-.5,2.09-2.06,3.67-3.68,3.55a.61.61,0,0,1-.47-.2,1.32,1.32,0,0,1-.22-.65q-.72-4.8-1.45-9.6"/><path class="cls-13" d="M546.42,116.08c.66.39,1.4.5,2.07.83a4.07,4.07,0,0,1,2.19,3,6.6,6.6,0,0,1,.05,3c-.09.34-1.06,2.58-1.72,2.29l.8,1c-1-3.43-.46-7.33-1.87-10.65-.73-1.73-3-.6-3.17.86-.2,2,.47,4.12.8,6.08.26,1.52.18,4.23,1.35,5.4,2.15,2.15,5.4-.6,6.37-2.57a8.05,8.05,0,0,0-1-8.49c-1.25-1.49-4.56-3.34-5.94-1a.14.14,0,0,0,0,.19Z"/><path class="cls-14" d="M487.15,115.19a4.13,4.13,0,0,0-4.54,1.45,7.38,7.38,0,0,0-1.26,6c.5,2.09,2.07,3.67,3.68,3.55a.61.61,0,0,0,.47-.2,1.36,1.36,0,0,0,.22-.65q.72-4.8,1.45-9.6"/><path class="cls-14" d="M487.27,115.12c-1.38-2.29-4.69-.44-5.94,1a8.05,8.05,0,0,0-1,8.49c1,2,4.22,4.72,6.38,2.57,1.16-1.17,1.08-3.88,1.34-5.4.33-2,1-4.1.8-6.08-.15-1.45-2.43-2.6-3.17-.86-1.41,3.32-.82,7.22-1.86,10.65l.79-1c-.55.24-1.43-1.5-1.58-1.9a6.21,6.21,0,0,1-.09-3.42,4.29,4.29,0,0,1,1.74-2.86c.77-.48,1.73-.55,2.52-1a.14.14,0,0,0,0-.19Z"/><path class="cls-15" d="M486.48,109.73c7.25-25.77,41.7-34,57.5-11.93,9.46,13.21,10.58,50.05-6.59,63.38-5.18,5.14-15.45,6.65-22,6.08C485.59,164.67,480.18,132.17,486.48,109.73Z"/><path class="cls-9" d="M548.59,124.44c.33-2.91-1.36-7.22-4.94-6.79-3.16.38-4.71,3.69-4.59,6.55,0,.87,1.4.88,1.36,0-.09-2.09.78-4.59,3.06-5.14,2.9-.7,4,3.22,3.75,5.38-.1.87,1.26.86,1.36,0Z"/><path class="cls-9" d="M503.9,124.44c.33-2.91-1.36-7.22-4.94-6.79-3.16.38-4.71,3.69-4.59,6.55,0,.87,1.4.88,1.36,0-.09-2.09.78-4.59,3.06-5.14,2.9-.7,4,3.22,3.75,5.38-.1.87,1.26.86,1.36,0Z"/><path class="cls-13" d="M525.65,121.73a4.25,4.25,0,0,1,.43-.57c.19-.23.37-.45.55-.65a.8.8,0,0,1,1-.1,2,2,0,0,1,.25,0c1.63.38,2,3.29,2.33,4.55.49,1.64.93,3.31,1.33,5a28.68,28.68,0,0,1,1.37,7.61c.36,4.29-1.3,6.78-6,6.92-.22,0-3.63.27-5.18-.81C516.11,139.83,522.28,126.25,525.65,121.73Z"/><path class="cls-16" d="M516.12,177.28c4.49,0,4.5,7,0,7S511.63,177.28,516.12,177.28Z"/><path class="cls-12" d="M532.74,149.1l-.17.94c0,.08-1.55,7.9-11.37,7.9-9.44,0-10.77-7.85-10.78-7.92l-.14-.92Z"/><path class="cls-17" d="M552.47,138.4a6,6,0,1,1-6-6A6,6,0,0,1,552.47,138.4Z"/><path class="cls-17" d="M501,138.4a6,6,0,1,1-6-6A6,6,0,0,1,501,138.4Z"/><path class="cls-9" d="M529.26,78.13a25.3,25.3,0,0,1-2.74,13.35c-4.42,8.52-13.34,13.8-22.41,16.94-7.16,2.47-16.21,3.44-21.29-2.17a6.06,6.06,0,0,1-1.55-2.78c-.4-2,.68-3.93,1.79-5.61a68.29,68.29,0,0,1,30.35-25.2c2.68-1.13,5.6-2.1,8.47-1.57,5.18,1,8.43,7.51,6,12.21"/><path class="cls-9" d="M528.83,78.13c-.22,11.18-6.61,19.75-16.28,24.94-6,3.25-32,12.49-27.86-4.26.86-3.48,6.09-7.91,8.7-10.46A67.91,67.91,0,0,1,504,79.85c3.44-2.21,8.94-6.1,13-6.41,4.55-.35,9,1.78,9.77,6.54.17,1.15-.11,2.37.09,3.61.14.85,1.23.93,1.77.47,3.46-3,1.88-8.51-.88-11.6-4.06-4.54-9.73-3.71-14.9-1.68a66.08,66.08,0,0,0-19.68,12.39c-4.52,4.06-12.65,11.4-13.71,17.85-2.31,14.15,20,11.11,27.13,8.2,13.46-5.47,24.17-15.69,23-31.09a.43.43,0,0,0-.85,0Z"/><path class="cls-9" d="M528.71,76.15c.6.26.43-1.13-.21-1s-.79,1-.8,1.65c-.22,15.76,10.45,31.09,25.31,36.35.12-15.9-10.63-31.32-25.59-36.71"/><path class="cls-9" d="M529,76.45l.45-.36a.56.56,0,0,0,.08-.67l-.42-.6a.72.72,0,0,0-1-.25c-4.69,3.41.6,16.7,2.42,20.59,4.4,9.4,12.37,16.15,21.92,19.94a2,2,0,0,0,2.51-1.91c-.27-15.61-10.54-35-27.06-38.56a1.92,1.92,0,0,0-1.47,3.5c6.73,4,12.89,7.23,17.57,13.84a38.29,38.29,0,0,1,7,21.22l2.51-1.92a38.84,38.84,0,0,1-18.52-15,38.44,38.44,0,0,1-4.59-9.23c-.74-2.2-3.17-9-2.09-11.12a.43.43,0,0,0,.67.52Z"/><path class="cls-9" d="M477.41,105.59c1.13,5.82-3.81,12.48-.42,17.35,2.1,3,6.69,3.44,9.93,1.71s5.33-5.05,6.74-8.45a35.84,35.84,0,0,0,2.14-19.72"/><path class="cls-9" d="M476.63,105.59c.39,5.5-3.77,11.43-1.57,16.82,1.67,4.07,6.31,5.71,10.4,4.73,11.46-2.74,15.25-21.94,11.19-31.16-.44-1-1.74-.34-1.85.5-1,8.27.24,22-8.81,26.57-3.12,1.58-7.54,1.11-8.73-3-.62-2.14.14-4.48.49-6.6a24.55,24.55,0,0,0,.41-8c-.13-.86-1.6-.66-1.53.21Z"/><path class="cls-9" d="M505.88,76.66c-7.38-3.76-15.87-8.34-23.43-5a18.4,18.4,0,0,0-7.63,7.24,23.22,23.22,0,0,0-3.94,13.85c.36,4.87,3,9.7,7.34,11.94"/><path class="cls-9" d="M506.19,76.36c-9.75-8.44-23.52-12.66-32.57-.6-5.83,7.78-9.81,28.92,4.6,30.18a1.22,1.22,0,0,0,1-1.81c-1.87-3.24-4.72-6.29-5.44-10-1.08-5.52,1.68-12.58,5.52-16.67,7.28-7.77,17.78-2.4,26.43-.39.39.09.75-.42.42-.71Z"/><path class="cls-9" d="M475.13,94.31a21.65,21.65,0,0,0-21.37,11.79c-1.59,3.28-1.95,7.92,1.08,10a8,8,0,0,0,4,1.07A24.68,24.68,0,0,0,472.19,114"/><path class="cls-9" d="M475.52,92.87c-10.7-2.26-23.18,4.41-25.41,15.72-2.81,14.29,15.66,12.72,22.83,6.21.83-.76-.05-2-1-1.78-3.63.79-7.8,1.75-11.53,1.39-3-.28-5.2-.57-5.09-4a10,10,0,0,1,1.73-4.68c3.7-6.06,11.16-9.6,18.11-10,1.59-.08,2.11-2.56.39-2.93Z"/><path class="cls-9" d="M462.2,113.65a14.22,14.22,0,0,0-8.29,14.74,13.64,13.64,0,0,0,14,11.13,13.2,13.2,0,0,0,8.05-3.63"/><path class="cls-9" d="M462.2,113.5c-9.56.72-12.67,13.38-8.57,20.59,4.22,7.43,18.89,12.21,23.32,2.37a1.16,1.16,0,0,0-1.28-1.67c-3,.84-5.93,2.57-9.15,2.39a11.77,11.77,0,0,1-8.65-5.12c-4.75-6.7-.06-13.18,4.43-18.31.07-.09,0-.26-.1-.25Z"/><path class="cls-9" d="M474.39,140.14a12.53,12.53,0,0,0-2.18,25c2.24.28,4.75-.17,6.24-1.88"/><path class="cls-9" d="M474.94,139.59c-2.84-3-8.35,0-11,2a13.87,13.87,0,0,0-5,14,15.89,15.89,0,0,0,9.6,11.19c3.85,1.47,10.24,1.72,11.47-3.18.23-.93-.48-2.19-1.57-2.07-3.12.35-5.71,1.59-8.81,0a10.69,10.69,0,0,1-5.82-8.68c-.16-3.59,2.24-7.33,5.14-9.3,2-1.33,4.38-1.22,6-2.94a.78.78,0,0,0,0-1.1Z"/><rect class="cls-18" x="762.56" y="17.4" width="373.34" height="373.33"/><path class="cls-19" d="M1135.89,18.33v273c-18,4.85-34.31-3.84-46.57-31.3C968.06-11.57,820.57,182.21,762.56,107.38v-89Z"/><rect class="cls-3" x="1009.66" y="295.51" width="69.83" height="74.4"/><rect class="cls-3" x="904.73" y="295.51" width="69.83" height="74.4"/><rect class="cls-3" x="807.11" y="312.63" width="69.83" height="74.4"/><rect class="cls-3" x="809.99" y="198.74" width="120.8" height="21.46"/><rect class="cls-3" x="809.99" y="69.58" width="152.59" height="21.46"/><rect class="cls-3" x="809.99" y="108.79" width="68.74" height="21.46"/><path class="cls-15" d="M1114.64,110.78a11.57,11.57,0,0,0-5.25.69c-2.59.08-5.22,1.25-6.23,3.79a.31.31,0,0,0,.08.34l-.07.05,0,0a.16.16,0,0,0-.26.14,9.79,9.79,0,0,0,7.93,7.74c3.51.45,6.63-1.52,7.08-5a5.42,5.42,0,0,0-2.14-4.9,2,2,0,0,0,.69-1C1116.8,111.34,1115.87,110.87,1114.64,110.78Z"/><path class="cls-16" d="M981.31,245.07c2-.58,3.72-1.21,5.67-1.69a2.83,2.83,0,0,1,2.68.22c.81.66.83,1.83,1,2.77.38,1.9,1.13,3.64,1.51,5.52a1.07,1.07,0,0,1-1.91.84c-2.61,1-5.19,2-7.79,3a.47.47,0,0,1-.54-.1,17.28,17.28,0,0,1-2.77-3.52c-.67-1.08-1.94-2.35-2.1-3.64C976.76,245.92,979.47,245.62,981.31,245.07Z"/><path class="cls-9" d="M972.27,244.47c1.88-.87,4.64-1.32,6.1,0,2.12,1.85.35,5.26,3.08,8.85.41.54,1.83,1.4,2.24,2.26a4.44,4.44,0,0,1,.31,1.67c.1,4.28-.23,8.57-.29,12.87a94.07,94.07,0,0,0,.64,11.62,5.9,5.9,0,0,1-.15,3,2,2,0,0,1-2.41,1.2c-.44-.15-.67-.67-1-1.05-4.68-6-7.87-17.23-10-23.23-1.87-5.4-4.5-10.66-4.17-14,.21-2.08,1.19-1.12,1.92-1.71C969.7,245,971.14,245,972.27,244.47Z"/><path class="cls-20" d="M1060.64,222.31s6.18-15.36,28.38-16.88C1089,205.43,1072.06,222.1,1060.64,222.31Z"/><path class="cls-16" d="M1110.17,272.24c-.45-1.91-.84-3.7-1.27-5.62-.26-1.17-.78-2.55-.05-3.64.61-.91,1.61-.89,2.59-1,2-.28,4-.89,6-1.17a1.07,1.07,0,0,1,.71,2c.82,2.67,1.65,5.32,2.46,8a.47.47,0,0,1-.12.54,15.86,15.86,0,0,1-3.53,2.41c-1.19.62-2.46,1.69-3.8,1.89C1110.92,275.92,1110.58,274,1110.17,272.24Z"/><path class="cls-9" d="M1108.66,280.12c-.73-1.93-1-4.72.4-6.09,2-2,5.28,0,9-2.44.56-.37,1.53-1.72,2.41-2.07a4.42,4.42,0,0,1,1.69-.18c4.28.21,8.53.83,12.82,1.21a94,94,0,0,0,11.63.2,6,6,0,0,1,3,.36,2,2,0,0,1,1,2.49c-.18.43-.71.63-1.12.9-6.31,4.22-17.74,6.63-23.88,8.25-5.54,1.47-11,3.75-14.3,3.16-2.07-.36-1-1.27-1.57-2C1109,282.72,1109.1,281.28,1108.66,280.12Z"/><path class="cls-15" d="M1078.63,204.35c-7.51-12.61-14.7-29.45-15.59-31.55-4.23-10-7.64-21-15.2-28.72,0,0,0-.13-.07-.08l.11-.54c.56-.53,1.12-1.29,1.73-1.77,1.45-1.15-.75-3.94-2.27-2.41-.65.65-7.31,10.71-5.44,26.43,2.24,18.88,47.45,84,65.5,105.14.37.44.84,1.32,1.59,1.17a32.38,32.38,0,0,0,10.11-3.87,3.84,3.84,0,0,0,.52-1.86c.06-4.29-3.86-8-4.91-8.92C1105.23,248.82,1083.65,212.77,1078.63,204.35Z"/><path class="cls-21" d="M1014,157.48c-2-21.34,32.72-19.87,36.85-4.77a1.36,1.36,0,0,1-.81,1.75c-.77,6.92-1.35,13.95-2.22,20.78C1037,160.62,1017.46,193.57,1014,157.48Z"/><path class="cls-22" d="M1069.92,122.56s1.91-9.46,13.91-10.55C1083.83,112,1076.27,122.31,1069.92,122.56Z"/><polygon class="cls-15" points="1073.92 108.06 1087 119.72 1109.07 113.4 1107.49 122.29 1085.31 129.25 1068.81 117.73 1073.92 108.06"/><path class="cls-22" d="M998.65,116.7s1-12-10.35-15.38C988.3,101.32,988.77,115.83,998.65,116.7Z"/><path class="cls-15" d="M938,128.25a11.59,11.59,0,0,1,5.15-1.24c2.45-.85,5.32-.7,7.17,1.31a.31.31,0,0,1,.06.34l.07,0,0,0c.06-.1.25-.11.28,0a9.77,9.77,0,0,1-4.62,10.07c-3.12,1.68-6.74,1-8.39-2.09a5.41,5.41,0,0,1,.24-5.34,2,2,0,0,1-1-.7C936.15,129.55,936.85,128.77,938,128.25Z"/><polygon class="cls-15" points="1000.44 100.87 944.1 128.7 948.76 136.44 1008.67 108.08 1000.44 100.87"/><path class="cls-20" d="M1009.15,212.78s13.33,11,30.25,12.25C1039.4,225,1029.43,211.21,1009.15,212.78Z"/><path class="cls-16" d="M1083.83,112A119.39,119.39,0,0,0,1059,82.51a115,115,0,0,0-9.73-7.45,68.72,68.72,0,0,0-1.93,9.77c-1,8-1.87,15.11,2,20,2.14,2.7,3.84,2.36,8.39,5.24a38.89,38.89,0,0,1,12.17,12.46A19.18,19.18,0,0,1,1083.83,112Z"/><path class="cls-15" d="M1033.25,194.56a125.52,125.52,0,0,0-2.31-18.22,77.85,77.85,0,0,0-4.3-15.07,98.81,98.81,0,0,0-9.44-18.43s-.07.19-.08,0,.13-.33.19-.5c.63-.54,1.29-1.18,2-1.67,1.58-1.18-.14-3.76-1.72-2.36-3.7,3.28-8,11.2-8,11.2-2.57,4.84-2.72,4-3.39,5.83-2.55,6.86,5.14,22.08,5.14,22.08,5.19,10.3,7.78,15.45,7.83,15.61,3.61,10.94,2.4,28.64-7.52,36.71-6.31,5.13-20.6,10-27.2,12.83L987,255.2c27.41-7.7,44.64-24.06,46.64-42C1034.21,208.39,1033.89,203.78,1033.25,194.56Z"/><path class="cls-23" d="M1021.68,74.88c4.21-3.68,12.13-5.59,17.88-4.65,1.87,0,3.43-.06,5.21,0,8.94,3.44,15.23,11.46,17.73,20.4,2.61,9.31,2.1,21.79,1.68,29.88-.6,11.53,1.26,29-3.22,38.75-6.85-.62-23.7.55-28.26,1.31-12,2-19.18,2.54-28-2.83C1004.63,134,1002.21,91.86,1021.68,74.88Z"/><path class="cls-13" d="M1038.47,61.36c10.67,0,10.67,15.82,0,15.82S1027.8,61.36,1038.47,61.36Z"/><path class="cls-13" d="M1060.86,23.37a2.63,2.63,0,0,1,3,1.42,7,7,0,0,1,.57,4.9c-.4,1.6-1.26,2.72-2.63,2.8a.33.33,0,0,1-.32-.18,1.3,1.3,0,0,1-.11-.54c-.19-2.64-.37-5.29-.56-7.93"/><path class="cls-13" d="M1016.45,32.51a2.6,2.6,0,0,0-2.88,1.64,7,7,0,0,0-.2,4.93c.52,1.57,1.47,2.62,2.84,2.59a.32.32,0,0,0,.3-.2,1.21,1.21,0,0,0,.08-.55l-.06-8"/><path class="cls-15" d="M1042.25,67.48c-4.1.42-8.71-1.94-12.49-4.39a25,25,0,0,1-10-12.76c-1.2-3.45-2.77-7.73-4.39-11.62-1.92-4.59-.77-10-.16-14.76,2.87-22.89,25.52-32.28,40.28-15.11a17.59,17.59,0,0,1,1.36,1.82c5.09,7.64,6.82,28.07,5.39,40.06C1061.49,57.09,1052.19,66.45,1042.25,67.48Z"/><path class="cls-16" d="M1038.26,80.8c-3.22.2-11-3.82-10.85-9.14,0-1.76,2.65-3.69,3.59-1.06a8.87,8.87,0,0,0,6.37,5.8c4,.92,7.32-1,8.49-5.73.28-1.12,3.39,0,3.4,1.81C1048.39,78.14,1045,80.37,1038.26,80.8Z"/><path class="cls-24" d="M1004.68,157.78a44.63,44.63,0,0,0-.23,19.52c2.65,12,9.82,18.58,7.66,28.59a20,20,0,0,1-3,6.89A57.15,57.15,0,0,1,1039.4,225a28.6,28.6,0,0,0,3.89-7.2c1.67-4.78,2.79-11.89.62-21.26,2.15,2.47,4.34,5.22,6.51,8.26a111.49,111.49,0,0,1,10.22,17.48A41.66,41.66,0,0,1,1089,205.43,98.54,98.54,0,0,1,1061,159.3Z"/><path class="cls-16" d="M1023.77,81.94c-2.15-2.4-4.63-3.58-6.76-1.45a110.29,110.29,0,0,0-28.71,20.83,30.37,30.37,0,0,1,10.35,15.38c1.62-1.17,4-2.87,6.86-4.88,5.52-3.86,8.3-5.8,9.67-6.35,4.65-1.87,6.93-1,10.86-3.81,1.23-.86-1.26.89.53-3.72A15.57,15.57,0,0,0,1023.77,81.94Z"/><path class="cls-25" d="M1055.83,111.1h0a8.59,8.59,0,0,1-5.58-8V97.85h11.17v5.21A8.58,8.58,0,0,1,1055.83,111.1Z"/><path class="cls-26" d="M1056.86,10.66c-1,4.41-3.42,9.24-7.8,11.33-8.14,3.88-17.29-4.54-21.78-.3-3,2.83.17,7.48-3.32,12.1a14.12,14.12,0,0,1-8.58,4.92A25.64,25.64,0,0,1,1013,23.9C1015.89,1,1040.74-8.33,1055.5,8.84A17.59,17.59,0,0,1,1056.86,10.66Z"/><path class="cls-9" d="M1030.77,15.37h0c.49-3.46,4.73-5.83,8-6.7a29.88,29.88,0,0,1,9.57-.64c2.65.16,12,2.6,11-1.92-.15-.68.86-1.19,1.18-.5,1.69,3.56,2.66,7.25.53,10.84s-6.2,5.67-10.19,6.38c-4.67.82-15.89.61-19.16-4.31a.66.66,0,0,1-.51-.4A5.2,5.2,0,0,1,1030.77,15.37Z"/><path class="cls-27" d="M1171.38,205.43a20.52,20.52,0,0,1-3.28,11.15c-.14.21-.28.43-.43.63a20.82,20.82,0,0,1-4.59,4.73c-.54.4-1.1.77-1.67,1.12a20.57,20.57,0,0,1-21.36-.12c-.25-.15-.5-.31-.74-.48a20.57,20.57,0,0,1-3.82-3.33c-.45-.51-.88-1-1.29-1.6a20.58,20.58,0,0,1,0-24.25,19.93,19.93,0,0,1,1.37-1.67,20.57,20.57,0,0,1,7.1-5.07l.4-.17a20.6,20.6,0,0,1,21.09,3.46,18.15,18.15,0,0,1,1.43,1.35,19.7,19.7,0,0,1,1.52,1.77,21,21,0,0,1,1.29,1.89A20.49,20.49,0,0,1,1171.38,205.43Z"/><path class="cls-28" d="M1149.68,201a12.24,12.24,0,0,0-1.35-1.86,19.05,19.05,0,0,0-1.62-1.62,29.26,29.26,0,0,0-7.86-4.74c-1.06-.44-2.14-.84-3.24-1.19a19.93,19.93,0,0,0-1.37,1.67c1.37.28,2.74.61,4.07,1a34,34,0,0,1,4.16,1.54c.67.31,1.33.64,2,1a19.26,19.26,0,0,1,1.87,1.21,12.63,12.63,0,0,1,3.07,3.16,8.34,8.34,0,0,1,1,2,8.08,8.08,0,0,1,.26,1.08,6.8,6.8,0,0,1,.09,1.1,6.92,6.92,0,0,1-.09,1.11,7.71,7.71,0,0,1-.25,1.08,9.13,9.13,0,0,1-1,2,12.58,12.58,0,0,1-3.08,3.18,21.24,21.24,0,0,1-3.84,2.21,32.86,32.86,0,0,1-4.15,1.54c-1.36.42-2.74.76-4.13,1.05.41.56.84,1.09,1.29,1.6,1.14-.35,2.25-.76,3.35-1.21a35.92,35.92,0,0,0,4.12-2c.66-.39,1.31-.81,1.93-1.25a22.73,22.73,0,0,0,1.81-1.43,17.58,17.58,0,0,0,1.62-1.61,13,13,0,0,0,1.35-1.86,8.79,8.79,0,0,0,.53-1,9.2,9.2,0,0,0,.66-2.19,8.77,8.77,0,0,0,.08-1.15A8.49,8.49,0,0,0,1149.68,201Z"/><path class="cls-28" d="M1162.81,214a17.86,17.86,0,0,1-1.79-1.31,15.21,15.21,0,0,1-1.58-1.53,12,12,0,0,1-1.27-1.75,7.35,7.35,0,0,1-1.06-4,8.44,8.44,0,0,1,.12-1,8,8,0,0,1,.27-1,7.86,7.86,0,0,1,.41-.94,9.07,9.07,0,0,1,.53-.89,13.27,13.27,0,0,1,2.93-3,23.66,23.66,0,0,1,3.68-2.25,32.84,32.84,0,0,1,3.39-1.44,21,21,0,0,0-1.29-1.89,29.85,29.85,0,0,0-3.08,1.46,22.78,22.78,0,0,0-2,1.21,20.26,20.26,0,0,0-1.89,1.42,18.07,18.07,0,0,0-1.71,1.68,12.68,12.68,0,0,0-1.41,2,11.12,11.12,0,0,0-.55,1.09,9.94,9.94,0,0,0-.4,1.16,8.63,8.63,0,0,0-.24,1.21,8.45,8.45,0,0,0-.06,1.23,8.29,8.29,0,0,0,.14,1.22,7.87,7.87,0,0,0,.31,1.18,10.16,10.16,0,0,0,1.06,2.14,14.66,14.66,0,0,0,3.21,3.36,24.5,24.5,0,0,0,3.87,2.45,33.32,33.32,0,0,0,3.28,1.49c.15-.2.29-.42.43-.63a26.78,26.78,0,0,1-3.37-1.5A19.24,19.24,0,0,1,1162.81,214Z"/><path class="cls-28" d="M1164.2,189.83c-.73.45-1.48.89-2.24,1.29a31.72,31.72,0,0,1-4,1.85c-.7.26-1.4.5-2.11.69a18.26,18.26,0,0,1-2.17.47,12.81,12.81,0,0,1-4.41-.06,8.72,8.72,0,0,1-2.1-.73,7.67,7.67,0,0,1-.94-.58,8.2,8.2,0,0,1-.85-.71,8.3,8.3,0,0,1-.72-.85,8.18,8.18,0,0,1-.58-.94,8.65,8.65,0,0,1-.73-2.09,12,12,0,0,1-.22-1.8l-.4.17a12.38,12.38,0,0,0,.31,1.7,8.66,8.66,0,0,0,.82,2.14,8.27,8.27,0,0,0,.61,1c.23.3.48.59.74.87a8.59,8.59,0,0,0,4,2.19,13.3,13.3,0,0,0,2.26.36,17.66,17.66,0,0,0,2.3,0,29.2,29.2,0,0,0,8.9-2.2q1.53-.63,3-1.38A18.15,18.15,0,0,0,1164.2,189.83Z"/><path class="cls-28" d="M1162.68,220.72a12.14,12.14,0,0,0-1-2.18,10,10,0,0,0-.7-1,10.3,10.3,0,0,0-.83-.91,8.84,8.84,0,0,0-.95-.79,7.59,7.59,0,0,0-1.06-.63,9.28,9.28,0,0,0-1.13-.47,10.09,10.09,0,0,0-1.18-.28,9.59,9.59,0,0,0-2.39-.08,14.85,14.85,0,0,0-4.49,1.21,26.09,26.09,0,0,0-4,2.24,39,39,0,0,0-3.6,2.8c-.68.59-1.35,1.2-2,1.83.24.17.49.33.74.48.57-.6,1.15-1.18,1.76-1.74a30.2,30.2,0,0,1,3.5-2.77c.61-.41,1.25-.8,1.9-1.15a19.13,19.13,0,0,1,2-.94,14.5,14.5,0,0,1,2.09-.67,11.21,11.21,0,0,1,2.15-.28,7.21,7.21,0,0,1,4,1,6.71,6.71,0,0,1,.84.59,8.16,8.16,0,0,1,.74.7,9.77,9.77,0,0,1,.63.81,9.94,9.94,0,0,1,.53.89,13,13,0,0,1,1.2,3.71c.57-.35,1.13-.72,1.67-1.12C1163,221.53,1162.83,221.12,1162.68,220.72Z"/><path class="cls-29" d="M422.19,519.94h.06c-6.68-7-3.54-14.69-2.33-17h0c.23-.45.4-.72.4-.72h-.06a28.08,28.08,0,0,0-5.19-32.6c-4.68-6.19-1.14-14.43-1.14-14.43h0a19.91,19.91,0,1,0-37.51,0h0s3.54,8.24-1.14,14.43a28.07,28.07,0,0,0-5.19,32.59h0l.08.14c.16.31.32.62.49.93a14.33,14.33,0,0,1-1.85,15.94l-.5.6a2,2,0,0,0-.14.16h0a34.65,34.65,0,1,0,54,0Z"/><path class="cls-30" d="M405.36,538.64,396.87,547v-29.5l10.43-10.31a1.38,1.38,0,1,0-1.94-2l-8.49,8.4V473a1.38,1.38,0,0,0-2.75,0v24.53l-8.25-8.21a1.38,1.38,0,1,0-1.94,2l10.19,10.14V531L385,521.78a1.38,1.38,0,0,0-2,1.94l11.08,11.19v78.6a1.38,1.38,0,1,0,2.75,0V550.9l10.43-10.31a1.38,1.38,0,1,0-1.94-2Z"/><path class="cls-31" d="M357.78,615.37h55.9a.48.48,0,0,0,.48-.48.49.49,0,0,0-.48-.49h-55.9a.48.48,0,0,0-.48.49A.47.47,0,0,0,357.78,615.37Z"/><path class="cls-32" d="M382.21,553.28h0a8.23,8.23,0,0,1-1.34-9.74h0c.13-.26.23-.42.23-.42h0a16,16,0,0,0-3-18.63c-2.68-3.54-.66-8.25-.66-8.25h0a11.38,11.38,0,1,0-21.44,0h0s2,4.71-.65,8.25a16.06,16.06,0,0,0-3,18.63h0l0,.09c.09.17.18.35.28.52a8.22,8.22,0,0,1-1.06,9.12l-.29.34-.08.09h0a19.81,19.81,0,1,0,30.89,0Z"/><path class="cls-33" d="M372.59,564l-4.85,4.8V551.9l6-5.89a.78.78,0,0,0,0-1.11.79.79,0,0,0-1.11,0l-4.85,4.8V526.43a.79.79,0,1,0-1.57,0v14l-4.72-4.69a.78.78,0,0,0-1.11,1.11l5.83,5.8V559.6L361,554.34a.78.78,0,0,0-1.11,0,.79.79,0,0,0,0,1.11l6.34,6.4v44.93a.79.79,0,1,0,1.57,0V571l6-5.89a.79.79,0,0,0,0-1.12A.78.78,0,0,0,372.59,564Z"/><path class="cls-31" d="M345.4,607.83h32a.28.28,0,0,0,0-.55h-32a.28.28,0,1,0,0,.55Z"/><path class="cls-34" d="M1159.4,523.23h.06c-6.68-7-3.54-14.7-2.33-17h0c.23-.46.4-.73.4-.73l-.06,0a28.08,28.08,0,0,0-5.19-32.6c-4.68-6.2-1.14-14.43-1.14-14.43h0a19.91,19.91,0,1,0-37.51,0h0s3.54,8.23-1.14,14.43a28.07,28.07,0,0,0-5.19,32.59h0l.08.15c.16.31.32.62.49.92a14.35,14.35,0,0,1-1.85,16c-.17.19-.34.39-.5.59a2.09,2.09,0,0,0-.14.17h0a34.65,34.65,0,1,0,54,0Z"/><path class="cls-30" d="M1142.57,541.93l-8.49,8.4V520.82l10.43-10.31a1.38,1.38,0,1,0-1.94-1.95l-8.49,8.39V476.26a1.38,1.38,0,1,0-2.75,0v24.52l-8.25-8.2a1.38,1.38,0,1,0-1.94,1.95l10.19,10.13v29.63l-9.12-9.21a1.38,1.38,0,0,0-2,1.93l11.08,11.19v78.61a1.38,1.38,0,0,0,2.75,0V554.2l10.43-10.31a1.38,1.38,0,0,0-1.94-2Z"/><path class="cls-31" d="M1095,618.67h55.9a.49.49,0,0,0,0-1H1095a.49.49,0,0,0,0,1Z"/><path class="cls-35" d="M1119.42,556.58h0a8.23,8.23,0,0,1-1.34-9.74h0a4.19,4.19,0,0,1,.23-.41h0a16,16,0,0,0-3-18.64c-2.68-3.54-.66-8.25-.66-8.25h0a11.25,11.25,0,0,0,.66-3.78,11.38,11.38,0,0,0-22.76,0,11.25,11.25,0,0,0,.66,3.78h0s2,4.71-.65,8.25a16.06,16.06,0,0,0-3,18.63h0l.05.08c.09.18.18.36.28.53a8.2,8.2,0,0,1-1.06,9.11c-.09.12-.19.23-.29.34l-.08.1h0a19.81,19.81,0,1,0,30.89,0Z"/><path class="cls-33" d="M1109.8,567.26l-4.85,4.8V555.2l6-5.9a.78.78,0,1,0-1.11-1.11L1105,553V529.72a.79.79,0,0,0-1.57,0v14l-4.72-4.69a.79.79,0,1,0-1.11,1.12l5.83,5.79V562.9l-5.22-5.27a.79.79,0,0,0-1.11,0,.8.8,0,0,0,0,1.12l6.34,6.39v44.93a.79.79,0,1,0,1.57,0V574.27l6-5.89a.78.78,0,0,0,0-1.11A.79.79,0,0,0,1109.8,567.26Z"/><path class="cls-31" d="M1082.61,611.13h32a.28.28,0,0,0,0-.56h-32a.28.28,0,1,0,0,.56Z"/><rect class="cls-36" x="421.06" y="242.31" width="442.01" height="442.01"/><path class="cls-37" d="M421.06,241.21V564.47c21.27,5.74,40.62-4.54,55.14-37.06,143.56-321.6,318.18-92.17,386.87-180.77V241.21Z"/><rect class="cls-3" x="466.1" y="309.43" width="196.47" height="26.26"/><rect class="cls-3" x="466.1" y="363.28" width="166.36" height="26.26"/><rect class="cls-3" x="466.1" y="417.13" width="83.18" height="26.26"/><rect class="cls-3" x="466.1" y="522.64" width="156.44" height="83.17"/><path class="cls-12" d="M642.9,452.5a7.76,7.76,0,0,1,7.93-1.72c1.47-3.78,4.63-8.09,11.41-8.09,12.09,0,13.06,11.89,13.06,11.89,8.51-2.57,10.16,5,10.16,5.26H639.71A9.61,9.61,0,0,1,642.9,452.5Z"/><path class="cls-38" d="M873.33,474.31a12.14,12.14,0,0,1,6.09,1.64,19.53,19.53,0,0,1,33.42-1.17,15.18,15.18,0,0,1,29.75,2.7,12.11,12.11,0,0,1,12.92,6.65H861.25A12.49,12.49,0,0,1,873.33,474.31Z"/><rect class="cls-39" x="739.49" y="485.49" width="37.97" height="178.31"/><path class="cls-40" d="M773,495.68a13.88,13.88,0,1,0-27.76,0s-1.8,32.82,13.88,50.3C774.78,528.5,773,495.68,773,495.68Z"/><path class="cls-24" d="M710.61,420.49s-52,25.18-31.39,99.43c0,0,11-37.32,46.28-47Z"/><path class="cls-24" d="M808.06,420.49s52,25.18,31.39,99.43c0,0-11-37.32-46.28-47Z"/><path class="cls-17" d="M776.21,488.42H740.87a3,3,0,0,1-2.91-2.33L736,477.54a3,3,0,0,1,2.91-3.65h39.22a3,3,0,0,1,2.91,3.65l-1.94,8.55A3,3,0,0,1,776.21,488.42Z"/><path class="cls-41" d="M707.54,400.44s5.42,49.8,22.19,81.35c0,0,26.62-12.82,58.18,0,0,0,19.23-26.62,23.17-85.3,2.27-33.81-.44-72.41-11.64-105.67h-78.2C710.83,317.92,703.41,354.3,707.54,400.44Z"/><path class="cls-24" d="M753.05,236.86c-7.87,8.9-21.36,26.74-31.81,54h78.2c-7.16-21.28-17.8-40.38-32.85-54.61A9.43,9.43,0,0,0,753.05,236.86Z"/><path class="cls-24" d="M757.94,398s-24,54.51,0,119.32C757.94,517.35,784.6,463.27,757.94,398Z"/><circle class="cls-17" cx="760.18" cy="347.45" r="30.18"/><circle class="cls-42" cx="760.18" cy="347.45" r="20.95" transform="translate(248.1 1008.04) rotate(-76.78)"/><path class="cls-43" d="M863.07,638.73v45.59h-442v-36.1a80.66,80.66,0,0,1,77.54,21.15,80.86,80.86,0,0,1,82.19-.64,60.3,60.3,0,0,1,91.13-24.52,44.26,44.26,0,0,1,28.46-15.91,21,21,0,0,1-2.1-9.17,21.6,21.6,0,0,1,42.16-6.28,26.47,26.47,0,0,1,17.28.33,30.55,30.55,0,0,1,5.17-3.08,14.38,14.38,0,0,1-2.82-8.53,14.73,14.73,0,0,1,29.46,0,14.27,14.27,0,0,1-2.19,7.59,30.55,30.55,0,0,1,19.83,28.47,26.86,26.86,0,0,1-.14,2.71,69.05,69.05,0,0,1,7.68,2.39,40,40,0,0,1,48.36-4Z"/><polygon class="cls-44" points="264.49 557.78 266.9 524.37 263.17 499.78 250.48 427.32 256.61 426.44 270.62 490.36 292.51 492.11 315.27 427.32 321.4 428.19 304.76 497.37 298.93 523.81 299.61 556.03 264.49 557.78"/><polygon class="cls-24" points="294.65 468.47 296.81 487.57 283.81 488.61 275.85 468.47 294.65 468.47"/><path class="cls-15" d="M270.67,475.48a13.14,13.14,0,1,0,13.14-13.14A13.13,13.13,0,0,0,270.67,475.48Z"/><rect class="cls-24" x="243.76" y="346.57" width="82.53" height="82.53" rx="15.77" ry="15.77"/><path class="cls-24" d="M279,474.6a1,1,0,0,1-.82.14c-.26-.1-.4-.39-.57-.61a2.06,2.06,0,0,0-3-.1,2.63,2.63,0,0,0-.32,3.11,3.78,3.78,0,0,0,2.73,1.75,24.92,24.92,0,0,1,.89,8l-5.42.4a1.08,1.08,0,0,1-1.43-1.05,43.9,43.9,0,0,1-1-9.42c0-3.09.38-6.28,2-8.93,1.91-3.16,9.73-8.37,13.54-5.45C289.77,465.67,281.89,473.21,279,474.6Z"/><path class="cls-24" d="M289.86,470.08a12.88,12.88,0,0,0,8.22,4,11.74,11.74,0,0,0-4-9.23c-1.49-1.27-6.47-4.08-8.51-2.73S288.36,468.61,289.86,470.08Z"/><polygon class="cls-45" points="265.77 534.09 299.25 532.52 325.01 647.91 336.97 640.63 322.42 658.3 288.12 563.19 288.63 606.33 265.38 637.15 263.89 648.27 263.27 653 259.13 652.5 258.38 635.55 276.38 606.28 263.68 557.82 265.77 534.09"/><polygon class="cls-15" points="263.65 458.58 256.4 461.12 250.48 427.32 256.61 426.44 263.65 458.58"/><polygon class="cls-15" points="305.87 454.07 314.37 457.43 321.4 428.19 315.27 427.32 305.87 454.07"/><polygon class="cls-46" points="277.47 490.91 283.75 502.07 286.92 491.67 277.47 490.91"/><path class="cls-15" d="M324.14,423.82a5.25,5.25,0,1,1-5.25-5.26A5.25,5.25,0,0,1,324.14,423.82Z"/><path class="cls-15" d="M258.19,424.8a5.26,5.26,0,1,1-5.25-5.26A5.25,5.25,0,0,1,258.19,424.8Z"/><path class="cls-47" d="M297.55,589.35l-8.09-22.43-.76-7.13,10.55-27.27,11.19,50.12C305.66,585.2,301,587.6,297.55,589.35Z"/><path class="cls-46" d="M274.41,373.77A10.8,10.8,0,1,0,285.21,363,10.8,10.8,0,0,0,274.41,373.77Z"/><path class="cls-46" d="M264,406.54a20.69,20.69,0,0,1,41.38,0Z"/><path class="cls-48" d="M604.62,678.94a5.17,5.17,0,0,1-.16,1.22l-.09.29a6.91,6.91,0,0,1-.41,1l-.11.21a7,7,0,0,1-.81,1.14c-.07.09-.15.17-.22.25a11.27,11.27,0,0,1-1,1l-.15.13a16.31,16.31,0,0,1-1.46,1.09l-.45.29c-.44.28-.9.54-1.39.81l-.57.31c-.52.27-1.08.53-1.66.78l-.65.3c-.84.35-1.73.69-2.68,1l-91.39,31.63c-.86.29-1.84.51-2.75.78-1.35.39-2.68.79-4.13,1.11-1.74.38-3.55.71-5.4,1-1.13.17-2.3.3-3.46.44-1.43.16-2.86.35-4.33.46l-.9.06c-2.34.16-4.72.26-7.1.27h-.16c-2.49,0-5-.06-7.43-.22h-.09c-2.45-.16-4.86-.39-7.2-.71l-.18,0q-3.44-.48-6.62-1.18l-.2,0a57,57,0,0,1-6.12-1.71l-90-30.82c-.5-.18-.95-.36-1.42-.54s-.87-.32-1.26-.48-.79-.37-1.18-.55-.78-.35-1.13-.53-.62-.36-.94-.55-.71-.39-1-.59-.5-.37-.75-.56-.6-.41-.85-.63-.43-.42-.65-.63-.42-.39-.59-.59a7.57,7.57,0,0,1-.56-.78c-.11-.16-.25-.32-.34-.48a5.68,5.68,0,0,1-.27-.63,5.28,5.28,0,0,1-.46-1.94l.33,40.26a5,5,0,0,0,.45,1.93,5.82,5.82,0,0,0,.27.64c.09.16.23.32.34.48a6.53,6.53,0,0,0,.56.77c.15.18.35.35.52.52a9.86,9.86,0,0,0,.73.71c.17.15.39.29.58.44s.64.5,1,.75.51.29.76.44.76.47,1.19.7c.25.13.55.25.81.38.49.23,1,.47,1.5.7.33.14.71.26,1.06.4.52.2,1,.41,1.59.6h0l90,30.83c1,.35,2.07.67,3.16,1,.89.25,1.82.48,2.76.7l.2,0,.2,0c.71.15,1.42.31,2.16.45s1.62.3,2.44.43,1.35.2,2,.29l.17,0,.2,0c.78.1,1.57.2,2.37.28s1.59.16,2.39.23,1.49.12,2.25.16h.18c.82,0,1.65.09,2.48.12s1.7.06,2.55.07,1.54,0,2.32,0h.31l2.76,0c1,0,2-.08,3-.14l1.14-.08.9-.07c.56,0,1.12-.07,1.67-.12.91-.08,1.77-.23,2.66-.34,1.17-.13,2.33-.26,3.46-.44.33-.05.68-.07,1-.12,1.32-.22,2.62-.47,3.89-.74l.5-.13c1.46-.33,2.8-.73,4.15-1.12.7-.2,1.49-.36,2.16-.58l.57-.2,91.39-31.62c.91-.31,1.76-.64,2.56-1l.11-.05.68-.31c.46-.21.94-.41,1.36-.62l.28-.15c.2-.1.38-.21.58-.32s.55-.28.8-.43.38-.25.57-.37l.46-.29.31-.2c.39-.27.75-.55,1.09-.83l.06-.06.15-.14a8.32,8.32,0,0,0,.69-.63c.13-.13.23-.26.35-.39s.15-.17.22-.25l.17-.19a7.64,7.64,0,0,0,.59-.85l0-.1c0-.07.07-.14.11-.22a5.6,5.6,0,0,0,.27-.55c.06-.14.09-.29.14-.44l.09-.28c0-.06,0-.12.05-.19a4.49,4.49,0,0,0,.11-1v-.08Z"/><path class="cls-49" d="M593.23,669.48l-90-30.82c-15.37-5.27-40.54-5.16-56.15.24l-91.38,31.63c-15.61,5.4-15.77,14.05-.4,19.32l90,30.82c15.37,5.27,40.47,5.16,56.07-.24l91.39-31.63C608.37,683.4,608.6,674.75,593.23,669.48Z"/><path class="cls-50" d="M984.1,633.42a2.15,2.15,0,0,1-.07.5.56.56,0,0,1,0,.12,1.72,1.72,0,0,1-.17.4.36.36,0,0,1,0,.09,3.36,3.36,0,0,1-.33.47l-.09.1a5.75,5.75,0,0,1-.43.42l-.06.06c-.18.15-.38.29-.59.44l-.19.12-.57.33-.23.13c-.21.11-.45.21-.68.32l-.27.12-1.09.42-37.42,12.95c-.36.12-.76.21-1.13.32-.55.16-1.1.32-1.69.45s-1.45.29-2.21.41c-.47.07-.94.13-1.42.18s-1.17.14-1.77.19l-.37,0c-1,.06-1.93.1-2.91.11h-.06c-1,0-2,0-3-.08h0c-1-.07-2-.16-3-.29h-.07c-.94-.13-1.85-.29-2.71-.49h-.09a23.81,23.81,0,0,1-2.5-.7L882,637.89l-.58-.22-.52-.2-.49-.23L880,637c-.14-.07-.25-.15-.38-.22l-.42-.25c-.11-.07-.2-.15-.31-.23l-.34-.25-.27-.26c-.08-.09-.17-.16-.24-.25a2.35,2.35,0,0,1-.23-.32l-.14-.19c0-.09-.07-.17-.11-.26a2.08,2.08,0,0,1-.19-.79l.13,16.48a2.23,2.23,0,0,0,.19.79,2,2,0,0,0,.11.26c0,.07.1.13.14.2s.14.21.23.32l.21.21.3.29.24.18c.13.1.26.21.41.31l.32.18c.16.09.31.19.49.28s.22.1.33.16.39.19.61.28l.43.17.65.25h0L919,667c.41.14.84.28,1.29.4s.75.2,1.13.28l.08,0,.08,0,.89.18c.33.07.66.12,1,.18l.83.12h.15l1,.12,1,.09.92.07h.08l1,0,1,0h1.08l1.13,0c.42,0,.83,0,1.24-.06.16,0,.31,0,.47,0l.37,0,.68-.05c.38,0,.73-.09,1.09-.14s1-.1,1.42-.18l.41-.05c.54-.09,1.08-.19,1.59-.3l.21-.05c.6-.14,1.14-.3,1.7-.46.29-.08.61-.15.88-.24l.24-.08,37.42-12.95c.37-.13.72-.26,1-.4l0,0,.28-.12.56-.26.11-.06.24-.13.32-.17c.09,0,.16-.11.24-.16l.19-.12.12-.08a5.3,5.3,0,0,0,.45-.34l0,0,.07-.06.28-.25.14-.17.09-.1.07-.08a3.53,3.53,0,0,0,.24-.34l0,0,.05-.09a2.4,2.4,0,0,0,.11-.23,1.21,1.21,0,0,0,0-.18.56.56,0,0,0,0-.12.19.19,0,0,0,0-.07,1.74,1.74,0,0,0,.05-.39v0Z"/><path class="cls-51" d="M979.43,629.55c6.3,2.15,6.2,5.7-.18,7.91l-37.42,12.95c-6.39,2.21-16.67,2.25-23,.1L882,637.89c-6.29-2.16-6.23-5.7.16-7.91l37.42-13c6.39-2.21,16.69-2.26,23-.1Z"/><path class="cls-52" d="M971.61,485l-15-7.88h0l-1.23-1.22a2.79,2.79,0,0,0-3.29-.46l-2,.73a13,13,0,0,0-2.33,0l-3.51.34,8.32,5.47a3.11,3.11,0,0,0,1.73.22l15.08,8.87Z"/><path class="cls-53" d="M1018.18,475.07a6.34,6.34,0,0,0-8.93-.7l-18,15.33L964.6,478.76l-4.21,7.52,29.33,16.44a5.79,5.79,0,0,0,6.59-.65l.28-.24L1017.47,484A6.34,6.34,0,0,0,1018.18,475.07Z"/><polygon class="cls-54" points="964.61 478.74 961.23 477.22 956.91 484.45 960.39 486.28 964.61 478.74"/><circle class="cls-24" cx="1015.06" cy="446.34" r="15.96" transform="translate(-18.31 848.49) rotate(-45)"/><path class="cls-52" d="M1050.54,632c-.25-.19-15.57-10.73-15.57-10.73l5-7.27,14.14,12.81Z"/><path class="cls-24" d="M1048.19,632l1.31,9a4.62,4.62,0,0,1,0,1.53l-3.29,10.66L1062.29,630,1058,628l-4.16-3.18a.65.65,0,0,0-1,.11Z"/><path class="cls-54" d="M1046.17,653.21l1.17.88a1.29,1.29,0,0,0,1.83-.32l14.91-21.41a1.42,1.42,0,0,0-.3-1.91l-1.18-.87Z"/><path class="cls-52" d="M1022.1,656.58c0-.31-.7-19.46-.7-19.46H1030l-1.75,19.46Z"/><path class="cls-55" d="M1017.22,467.63l-3.52,1.61c-6,2.6-10,7.24-9.63,11.38l1.59,48.46h29.74V482.8c0-5.81,0-9.92-4.38-11.41Z"/><path class="cls-52" d="M1013.49,454.51h9.09a.28.28,0,0,1,.28.28v13a5.89,5.89,0,0,1-5.89,5.89h-3.76a0,0,0,0,1,0,0V454.79A.28.28,0,0,1,1013.49,454.51Z"/><path class="cls-56" d="M1004.81,529.08l-11.71,55a9.76,9.76,0,0,0,3.72,10.12l43.49,33.21,6-9.72-35.81-33.13,24.9-55.52Z"/><polygon class="cls-57" points="1050.14 617.92 1041.97 630.65 1036.1 626.44 1044.26 613.71 1050.14 617.92"/><path class="cls-24" d="M1020.78,654.56l-6.29,6.37a4.38,4.38,0,0,1-1.15.84l-10,3.64h27.19l-.92-4.89,0-5.38a.68.68,0,0,0-.67-.8Z"/><rect class="cls-44" x="887.1" y="476.14" width="106.74" height="38.42" transform="translate(386.47 -411.81) rotate(30.81)"/><circle class="cls-54" cx="914.43" cy="479.82" r="12.54" transform="translate(-5.83 948.36) rotate(-54.67)"/><g class="cls-58"><path class="cls-44" d="M916.09,489.83a5.65,5.65,0,0,0-2-7.75l-1.39-.83a5.66,5.66,0,0,0-7.76,2l-.82,1.39,11.1,6.62Z"/><path class="cls-44" d="M917.27,475.22a3.24,3.24,0,1,1-4.43,1.12A3.24,3.24,0,0,1,917.27,475.22Z"/></g><path class="cls-59" d="M948.41,497.11a1.14,1.14,0,0,1-.59-.16l-15.69-9.36a1.14,1.14,0,1,1,1.17-2L949,495a1.15,1.15,0,0,1,.4,1.57A1.17,1.17,0,0,1,948.41,497.11Z"/><path class="cls-59" d="M966,514.71a1.1,1.1,0,0,1-.58-.16L929,492.85a1.15,1.15,0,0,1,1.17-2l36.39,21.7a1.15,1.15,0,0,1-.59,2.13Z"/><path class="cls-53" d="M1023.08,465.93l-11.47,8.48,8.8,1.27,6.79-5.22-2-4.18A1.31,1.31,0,0,0,1023.08,465.93Z"/><path class="cls-60" d="M1013.2,467.58c-.09.23,7.17.81,9.64-12.47l-9.64,6.37Z"/><circle class="cls-24" cx="1034.19" cy="430.38" r="12.62" transform="translate(497.7 1413.72) rotate(-83.98)"/><path class="cls-52" d="M1001.61,442.57h21.23a0,0,0,0,1,0,0v11.57a10.62,10.62,0,0,1-10.62,10.62h0a10.62,10.62,0,0,1-10.62-10.62V442.57A0,0,0,0,1,1001.61,442.57Z"/><path class="cls-52" d="M1026.05,451.6a2.91,2.91,0,1,1-2.91-2.9A2.91,2.91,0,0,1,1026.05,451.6Z"/><path class="cls-24" d="M1000.28,442.27s-1.18,9.33,22.56,6.43l2.19-9.47-16.29-1.83Z"/><path class="cls-61" d="M1010.67,451.5a1,1,0,1,0,1-1A1,1,0,0,0,1010.67,451.5Z"/><path class="cls-61" d="M1003.56,451.5a1,1,0,1,0,1-1A1,1,0,0,0,1003.56,451.5Z"/><polygon class="cls-60" points="1007.79 452.49 1005.54 456.16 1008.3 456.16 1007.79 452.49"/><path class="cls-12" d="M1012.82,458.12h-8.13S1008,463,1012.82,458.12Z"/><path class="cls-56" d="M1037.89,538.32l-2.46-9.24h-30.62l9.24,19,6,96h11.26l3.37-93.4A13.24,13.24,0,0,0,1037.89,538.32Z"/><path class="cls-52" d="M1009.22,520.7l-2.77-5.84-15.4,4.93-2.36-1.09-3.49,2.59-7.37,1.8a.64.64,0,0,0-.46.78.67.67,0,0,0,.8.46l4.26-1,.2.67-3.53.95a.62.62,0,0,0-.45.78.68.68,0,0,0,.82.45l3.51-.94.1.37-2.77.9a.63.63,0,0,0-.4.81.67.67,0,0,0,.83.4l2.69-.88.14.49-1.72.63a.62.62,0,0,0-.37.82.68.68,0,0,0,.85.37l1.59-.58h0l7-2.22a3.08,3.08,0,0,0,1.37-1.09Z"/><path class="cls-53" d="M1046.73,506.24l-.11-.28L1035,475.56a6.34,6.34,0,0,0-11.83,4.55l9.33,24.29-34.09,11.81,2.84,8,41.29-9.87a5.56,5.56,0,0,0,.76-.24A6.05,6.05,0,0,0,1046.73,506.24Z"/><polygon class="cls-54" points="998.36 516.21 994.89 517.47 997.63 525.14 1001.2 524.18 998.36 516.21"/><rect class="cls-57" x="1018.24" y="641.01" width="14.4" height="6.44"/><path class="cls-52" d="M949.22,480.8a1,1,0,0,1-.46-1.91l5.36-2.73A1,1,0,1,1,955,478l-5.36,2.73A1,1,0,0,1,949.22,480.8Z"/><path class="cls-12" d="M635,72.55,654.12,49.3s20.23-9.88,23.72-9.88S716.21,56,716.21,56,714,71.55,712.75,78.45s-12,27.56-13,28.27-36.47,4.78-36.47,4.78-22.67-16.11-22.67-18.81S635,72.55,635,72.55Z"/><path class="cls-62" d="M701.78,95.22,720.92,72s20.23-9.88,23.71-9.88S783,78.66,783,78.66s-2.26,15.56-3.46,22.45-11.95,27.56-13,28.28-36.47,4.78-36.47,4.78-22.67-16.11-22.67-18.81S701.78,95.22,701.78,95.22Z"/><path class="cls-63" d="M785.16,79.87a42.87,42.87,0,0,0-25.69-22.36L685.62,32.74a44.51,44.51,0,0,0-56.35,28.05,42.89,42.89,0,0,0,2.35,34,44.43,44.43,0,0,0,57.09,21.16L706.85,122a44.48,44.48,0,0,0,80.67-8.15,42.92,42.92,0,0,0-2.36-34Zm-89.09,9.19a2.69,2.69,0,0,1-1.38,1.65,2.72,2.72,0,0,1-2.14.1l-15.83-5.3-5.3,15.82a2.67,2.67,0,0,1-3.52,1.75l-10.55-3.54A2.67,2.67,0,0,1,655.59,96L660.9,80.2l-15.82-5.31a2.68,2.68,0,0,1-1.65-1.37,2.75,2.75,0,0,1-.11-2.15l3.54-10.55a2.78,2.78,0,0,1,1.38-1.65,2.68,2.68,0,0,1,2.14-.1l15.82,5.3,5.31-15.82A2.67,2.67,0,0,1,675,46.8l10.55,3.54a2.67,2.67,0,0,1,1.76,3.52L682,69.68,697.86,75a2.68,2.68,0,0,1,1.75,3.52Zm40.12,27.62a11.12,11.12,0,1,1,5.59-6.42,10.76,10.76,0,0,1-5.59,6.42Zm28.17-14A11.12,11.12,0,1,1,770,96.23a10.71,10.71,0,0,1-5.59,6.42Z"/></g></g></svg>