<?xml version="1.0" encoding="utf-8"?>
<!-- Generator: Adobe Illustrator 22.1.0, SVG Export Plug-In . SVG Version: 6.00 Build 0)  -->
<svg version="1.1" id="Layer_1" xmlns="http://www.w3.org/2000/svg" xmlns:xlink="http://www.w3.org/1999/xlink" x="0px" y="0px"
	 viewBox="0 0 800 800" style="enable-background:new 0 0 800 800;" xml:space="preserve">
<style type="text/css">
	.st0{display:none;}
	.st1{display:inline;}
	.st2{fill:#FF9100;}
	.st3{display:inline;fill:#EECC4D;}
	.st4{opacity:0.587;}
	.st5{fill:#FFFFFF;fill-opacity:0.744;}
	.st6{fill:#FFDFB4;}
	.st7{fill:#FACD92;}
	.st8{fill:#FDBC67;}
	.st9{fill:#FAA83D;}
	.st10{fill:#FFA226;}
	.st11{fill:#FFF3DF;}
</style>
<g id="Layer_1_1_" class="st0">
	<g class="st1">
		<defs>
			<rect id="SVGID_1_" x="142.5" y="83.2" width="671.9" height="537.5"/>
		</defs>
		<clipPath id="SVGID_2_">
			<use xlink:href="#SVGID_1_"  style="overflow:visible;"/>
		</clipPath>
		<g style="clip-path:url(#SVGID_2_);enable-background:new    ;">
			
				<image style="overflow:visible;" width="325" height="260" xlink:href="8881BD98.png"  transform="matrix(2.0673 0 0 2.0673 142.541 83.2481)">
			</image>
		</g>
	</g>
</g>
<g id="Layer_3">
	<path class="st2" d="M77.8,534.5c24.1-11.4,58,24.3,70.2,49.9c10.5,18.6,8.6,16.5,8.5,16.4c-9.3-10.4-19-13.1-32.4-15.1
		c-13.7-2-28.2-3.7-41-9.7c-17.1-8.1-23.1-30.3-6.5-40.7"/>
	<path class="st2" d="M29.2,619.6c45.8-41,112.8-28.4,156.8,7.5c49.4,40.3,49,52.5,49.2,51.9c0-0.1-45.5-19.6-50.6-21.4
		c-12.1-4.3-28.1-8.4-40.9-7.5c-27,1.9-46.8,24.9-72.9,26.1C31.4,678.1,5.6,649.9,29.2,619.6"/>
	<path class="st2" d="M202.9,629.3c-12.8-23-18.5-40.7-4.7-63c4.4-7,10.2-9.9,11.9-21.2c2.8-18.5-16.5-27.4-29.8-21.6
		c-54.2,23.4-5.8,84.2,3.8,92.5C200.9,630.5,202.9,629.3,202.9,629.3"/>
	<path class="st2" d="M176,666.1c-37.8,4.2-35.8,28.3-36.2,32.4c-2.1,23.9-23.1,15.6-27,12.5c-6.9-5.3-7.4-19.3-4.2-26.6
		c16.9-38.8,62.2-22.1,67.5-18.1"/>
	<path class="st2" d="M739.1,605.6c-18.5-12-50.2,13.7-63,33.3c-10.7,14.2-8.8,12.6-8.8,12.5c8.8-7.6,17.1-8.7,28.3-8.9
		c11.5-0.2,23.6,0.1,34.7-3.5c15-4.8,22.2-22.4,9.8-32.7"/>
	<path class="st2" d="M767.3,668.8c-33.9-30.4-83.6-21-116.2,5.6c-36.6,29.9-36.3,38.9-36.4,38.5c0-0.1,33.7-14.5,37.5-15.9
		c9-3.2,20.8-6.2,30.3-5.6c20,1.4,34.7,18.4,54,19.4C765.6,712.2,784.8,691.3,767.3,668.8"/>
	<path class="st2" d="M644.4,715.1c28,3.1,26.5,20.9,26.8,24c1.6,17.7,17.1,11.5,20,9.3c5.1-3.9,5.5-14.3,3.1-19.7
		c-12.5-28.7-46.1-16.4-50-13.4"/>
</g>
<g id="Layer_5" class="st0">
	<path class="st1" d="M344,367.9c11.7,0,30-13.5,30-30.4c0-15.1-17.3-20.6-32.5-20.6c-6.8,0-9.4-1.2-9.4-6.8
		c0-10.2,9.4-20.7,12.2-21c0.9-0.1-2.2,13.2,1,18.1c4.6,7.2,24.5,3.2,22.6,0c-3.3-5.6-1.2-12.4-1.2-17c0-12.5-5.8-19.6-19.9-19.6
		c-5.8,0-13.5-0.4-20.6,5c-11.2,8.8-16.8,25.6-16.8,38.2c0,14,10.8,18,27.2,18c5,0,15.6,0.6,15.6,4.9c0,12.2-26.5,14.3-26.5,1
		c0-1.4-14.1,0.1-14.1,7.6C311.6,352.8,323.6,367.9,344,367.9z"/>
</g>
<g id="Layer_4" class="st0">
	<path class="st3" d="M230.4,309.2c12.4-9.2,35.6,7.2,45.5,20.3c8.1,9.4,6.7,8.4,6.7,8.3c-6.5-4.9-12.3-5.3-20.1-4.9
		c-8,0.4-16.4,1.1-24.3-0.9c-10.6-2.7-16.5-14.6-8.3-22.3"/>
	<path class="st3" d="M212.5,363c21.3-28.4,60.7-28.9,89.8-13.5c32.6,17.3,33.7,24.3,33.8,23.9c0-0.1-28-6-31.1-6.4
		c-7.4-1-16.9-1.6-24.1,0.4c-15.1,4.1-23.7,19.4-38.4,23.1C220.4,395.9,202.5,382.8,212.5,363"/>
	<path class="st3" d="M312,348.8c-9.8-11.6-15-21-9.7-35.2c1.7-4.5,4.7-6.8,4.4-13.4c-0.5-10.8-12.4-13.7-19.4-8.9
		c-28.1,19.4,6.2,48.4,12.6,52c11.1,6.4,11.9,5.4,11.9,5.4"/>
	<path class="st3" d="M299.9,371.8c-21,6.7-17.1,20.1-16.8,22.5c1.5,13.8-11.3,11.4-13.9,10.2c-4.5-2.2-6.4-10.1-5.4-14.6
		c5.2-23.9,32.7-19.6,36.2-17.9"/>
</g>
<g id="Layer_2_1_" class="st4">
	<path class="st5" d="M191,651.8c-26.1-37.8-105.6-33.7-119.1-32c-2.9,0.4-12.4,3.1-14.8,0.7c-1.4-1.4-2.2-3.4-1.8-5.3
		c1.8-9.1,23.7-10.1,31.6-10.3c27.4-0.6,62.8,7,84.8,24.1c5.3,4.1,10,9.4,13.7,15"/>
	<path class="st5" d="M148,665.6c-37.8,8.6-23.3,26.6-27.8,39.8c-0.5,1.4-3,1.6-4.4,1.4c-8.4-1-4.9-19.1-2.4-23.9
		c3.9-7.7,13.4-13.4,21.5-15.6C138.8,666.2,143.9,666.1,148,665.6"/>
	<path class="st5" d="M132,576.7c-4.1-5.6-9.2-10.3-14.5-14.8c-7.3-6.2-16.5-10.3-26-11.2c-9.6-0.9-15.1,6.2-17.8,1.5
		c-3.6-6.3,7.1-10.7,11.8-11.2c18.1-2.3,43.2,18.4,46.7,36.1"/>
	<path class="st5" d="M179.4,532.3c30.2-1.5,23.3,16,22.9,17.2c-3.1,8.2-10.2,13.4-14,21c-1.1,2.2-3.5,16.8-3.9,16.9
		c-0.9,0.4-1.9-4.7-2.1-5.5c-1.2-5.7,0.1-13.4,2.6-18.7c1.7-3.6,3.1-7.4,3.9-11.4c1.1-5.7-0.7-10.1-4.9-13.9c-1-1-5.4-4.9-4.8-5.2"
		/>
	<path class="st5" d="M47.3,629.8c-4.1,3.4-9.3,3.8-11.6,1c-2.3-2.8-0.8-7.8,3.3-11.2c4.1-3.4,9.3-3.8,11.6-1
		C52.9,621.4,51.4,626.4,47.3,629.8z"/>
	<path class="st5" d="M640.1,696c20.9-30.2,84.3-26.9,95.1-25.5c2.3,0.3,9.9,2.5,11.8,0.5c1.1-1.1,1.7-2.7,1.4-4.3
		c-1.5-7.3-18.9-8.1-25.2-8.2c-21.9-0.5-50.2,5.6-67.7,19.2c-4.3,3.3-8,7.5-11,12"/>
	<path class="st5" d="M667.8,718c23.4,5.3,14.4,16.5,17.2,24.6c0.3,0.9,1.8,1,2.7,0.9c5.2-0.6,3-11.8,1.5-14.8
		c-2.4-4.8-8.3-8.3-13.3-9.7C673.5,718.3,670.3,718.3,667.8,718"/>
	<path class="st5" d="M703,622.4c2.3-2.4,5.1-4.4,7.9-6.2c3.9-2.5,8.6-3.9,13.2-3.7c4.7,0.2,6.9,4,8.5,1.9c2.1-2.8-2.7-5.6-4.9-6.2
		c-8.6-2.2-21.9,6.1-24.8,14.4"/>
	<path class="st5" d="M756,679.5c3,2.5,6.9,2.8,8.6,0.7c1.7-2.1,0.6-5.8-2.4-8.3c-3-2.5-6.9-2.8-8.6-0.7
		C751.8,673.3,752.9,677,756,679.5z"/>
</g>
<g id="Layer_6">
	<path class="st6" d="M446.1,761.9c86.9,0,223-100.8,223-226.3c0-112.6-128.7-153.3-242.3-153.3c-50.4,0-69.7-8.6-69.7-50.4
		c0-76.1,69.7-154.4,91.1-156.6c6.4-1.1-16.1,98.7,7.5,135.1c34.3,53.6,182.3,23.6,168.4,0c-24.7-41.8-8.6-92.2-8.6-126.5
		c0-93.3-42.9-145.8-148-145.8c-42.9,0-100.8-3.2-153.3,37.5c-83.6,65.4-125.5,190.9-125.5,284.2c0,104,80.4,134,202.7,134
		c37.5,0,115.8,4.3,115.8,36.5c0,91.1-197.3,106.2-197.3,7.5c0-10.7-105.1,1.1-105.1,56.8C204.8,649.3,293.8,761.9,446.1,761.9z"/>
	<path class="st7" d="M450,761.9c86.9,0,223-100.8,223-226.3c0-112.6-128.7-153.3-242.4-153.3c-50.4,0-69.7-8.6-69.7-50.4
		c0-76.1,69.7-154.4,91.1-156.6c6.4-1.1-16.1,98.7,7.5,135.1c34.3,53.6,182.3,23.6,168.4,0c-24.7-41.8-8.6-92.2-8.6-126.5
		c0-93.3-42.9-145.8-148-145.8c-42.9,0-100.8-3.2-153.3,37.5c-83.6,65.4-125.5,190.9-125.5,284.2c0,104,80.4,134,202.7,134
		c37.5,0,115.8,4.3,115.8,36.5c0,91.1-197.3,106.2-197.3,7.5c0-10.7-105.1,1.1-105.1,56.8C208.7,649.3,297.7,761.9,450,761.9z"/>
	<path class="st8" d="M455.4,761.9c86.9,0,223-100.8,223-226.3c0-112.6-128.7-153.3-242.4-153.3c-50.4,0-69.7-8.6-69.7-50.4
		c0-76.1,69.7-154.4,91.1-156.6c6.4-1.1-16.1,98.7,7.5,135.1c34.3,53.6,182.3,23.6,168.4,0c-24.7-41.8-8.6-92.2-8.6-126.5
		c0-93.3-42.9-145.8-148-145.8c-42.9,0-100.8-3.2-153.3,37.5c-83.6,65.4-125.5,190.9-125.5,284.2c0,104,80.4,134,202.7,134
		c37.5,0,115.8,4.3,115.8,36.5c0,91.1-197.3,106.2-197.3,7.5c0-10.7-105.1,1.1-105.1,56.8C214.2,649.3,303.2,761.9,455.4,761.9z"/>
	<path class="st9" d="M460.2,761.9c86.9,0,223-100.8,223-226.3c0-112.6-128.7-153.3-242.4-153.3c-50.4,0-69.7-8.6-69.7-50.4
		c0-76.1,69.7-154.4,91.1-156.6c6.4-1.1-16.1,98.7,7.5,135.1c34.3,53.6,182.3,23.6,168.4,0c-24.7-41.8-8.6-92.2-8.6-126.5
		c0-93.3-42.9-145.8-148-145.8c-42.9,0-100.8-3.2-153.3,37.5c-83.6,65.4-125.5,190.9-125.5,284.2c0,104,80.4,134,202.7,134
		c37.5,0,115.8,4.3,115.8,36.5c0,91.1-197.3,106.2-197.3,7.5c0-10.7-105.1,1.1-105.1,56.8C218.9,649.3,307.9,761.9,460.2,761.9z"/>
	<path class="st10" d="M465.3,761.9c86.9,0,223-100.8,223-226.3c0-112.6-128.7-153.3-242.4-153.3c-50.4,0-69.7-8.6-69.7-50.4
		c0-76.1,69.7-154.4,91.1-156.6c6.4-1.1-16.1,98.7,7.5,135.1c34.3,53.6,182.3,23.6,168.4,0c-24.7-41.8-8.6-92.2-8.6-126.5
		c0-93.3-42.9-145.8-148-145.8c-42.9,0-100.8-3.2-153.3,37.5c-83.6,65.4-125.5,190.9-125.5,284.2c0,104,80.4,134,202.7,134
		c37.5,0,115.8,4.3,115.8,36.5c0,91.1-197.3,106.2-197.3,7.5c0-10.7-105.1,1.1-105.1,56.8C224,649.3,313,761.9,465.3,761.9z"/>
</g>
<g id="Layer_8">
	<path class="st11" d="M470.4,761.9c86.9,0,223-100.8,223-226.3c0-112.6-128.7-153.3-242.4-153.3c-50.4,0-69.7-8.6-69.7-50.4
		c0-76.1,69.7-154.4,91.1-156.6c6.4-1.1-16.1,98.7,7.5,135.1c34.3,53.6,182.3,23.6,168.4,0c-24.7-41.8-8.6-92.2-8.6-126.5
		c0-93.3-42.9-145.8-148-145.8c-42.9,0-100.8-3.2-153.3,37.5C254.8,141.1,213,266.5,213,359.8c0,104,80.4,134,202.7,134
		c37.5,0,115.8,4.3,115.8,36.5c0,91.1-197.3,106.2-197.3,7.5c0-10.7-105.1,1.1-105.1,56.8C229.1,649.3,318.1,761.9,470.4,761.9z"/>
</g>
<g id="Layer_9">
</g>
</svg>
