<svg xmlns="http://www.w3.org/2000/svg" xmlns:xlink="http://www.w3.org/1999/xlink" viewBox="0 0 1683.63 863.95"><defs><style>.cls-1,.cls-29,.cls-38,.cls-39,.cls-40,.cls-41,.cls-42,.cls-43,.cls-44,.cls-45{fill:none;}.cls-2{fill:#ffbda1;}.cls-3{fill:url(#linear-gradient);}.cls-4{fill:url(#linear-gradient-2);}.cls-5{fill:#d8761d;}.cls-6{fill:#e56e3e;opacity:0.29;}.cls-7{fill:url(#linear-gradient-3);}.cls-8{fill:url(#linear-gradient-4);}.cls-9{fill:#e5ac38;}.cls-10{fill:url(#linear-gradient-5);}.cls-11,.cls-31,.cls-35,.cls-59{fill:#fff9e7;}.cls-12{fill:url(#linear-gradient-6);}.cls-13{fill:#062735;}.cls-14,.cls-15,.cls-16,.cls-17,.cls-24,.cls-34,.cls-35,.cls-47,.cls-48,.cls-49,.cls-50,.cls-51,.cls-52,.cls-55{opacity:0.5;}.cls-14{fill:url(#linear-gradient-7);}.cls-15{fill:url(#linear-gradient-8);}.cls-16{fill:url(#linear-gradient-9);}.cls-17{fill:url(#linear-gradient-10);}.cls-18,.cls-20,.cls-22{opacity:0.32;}.cls-18{fill:url(#linear-gradient-11);}.cls-19{fill:url(#linear-gradient-12);}.cls-20{fill:url(#linear-gradient-13);}.cls-21{fill:url(#linear-gradient-14);}.cls-22{fill:url(#linear-gradient-15);}.cls-23{fill:url(#linear-gradient-16);}.cls-24{fill:url(#linear-gradient-17);}.cls-25{clip-path:url(#clip-path);}.cls-26{fill:#f4e3d6;}.cls-27{fill:#f3d1bb;}.cls-28{fill:#683c11;}.cls-29{stroke:#683c11;stroke-linecap:round;stroke-linejoin:round;stroke-width:0;}.cls-30{fill:url(#linear-gradient-18);}.cls-31,.cls-58{opacity:0.44;}.cls-32{clip-path:url(#clip-path-2);}.cls-33{fill:url(#linear-gradient-19);}.cls-34{fill:url(#linear-gradient-20);}.cls-36{font-size:94.45px;}.cls-36,.cls-56{fill:#fff;}.cls-36,.cls-59{font-family:MicrosoftTaiLe-Bold, Microsoft Tai Le;font-weight:700;}.cls-37{opacity:0.46;}.cls-38,.cls-39,.cls-40,.cls-41,.cls-42,.cls-43,.cls-44,.cls-45{stroke-miterlimit:10;stroke-width:3px;}.cls-38{stroke:url(#linear-gradient-21);}.cls-39,.cls-43{stroke-dasharray:6.78 6.78;}.cls-39{stroke:url(#linear-gradient-22);}.cls-40{stroke:url(#linear-gradient-23);}.cls-41,.cls-45{stroke-dasharray:7.02 7.02;}.cls-41{stroke:url(#linear-gradient-24);}.cls-42{stroke:url(#linear-gradient-25);}.cls-43{stroke:url(#linear-gradient-26);}.cls-44{stroke:url(#linear-gradient-27);}.cls-45{stroke:url(#linear-gradient-28);}.cls-46{opacity:0.79;}.cls-47{fill:url(#linear-gradient-29);}.cls-48{fill:url(#linear-gradient-30);}.cls-49{fill:url(#linear-gradient-31);}.cls-50{fill:url(#linear-gradient-32);}.cls-51{fill:url(#linear-gradient-33);}.cls-52{fill:url(#linear-gradient-34);}.cls-53{opacity:0.25;fill:url(#linear-gradient-35);}.cls-54{fill:url(#linear-gradient-36);}.cls-57{fill:url(#linear-gradient-37);}.cls-59{font-size:65.32px;}.cls-60{fill:#262626;}.cls-61{clip-path:url(#clip-path-3);}.cls-62{fill:url(#linear-gradient-38);}.cls-63{fill:url(#linear-gradient-39);}.cls-64{fill:url(#linear-gradient-40);}.cls-65{fill:#f9c3bc;}.cls-66{fill:url(#linear-gradient-41);}.cls-67{fill:url(#linear-gradient-42);}.cls-68{fill:url(#linear-gradient-43);}.cls-69{fill:#f7f5ef;}.cls-70{fill:url(#linear-gradient-44);}.cls-71{fill:url(#linear-gradient-45);}.cls-72{fill:url(#linear-gradient-46);}</style><linearGradient id="linear-gradient" x1="-3.56" y1="614.73" x2="1684.35" y2="614.73" gradientUnits="userSpaceOnUse"><stop offset="0" stop-color="#f7942f" stop-opacity="0"/><stop offset="0.5" stop-color="#f7c700"/><stop offset="1" stop-color="#f7942f" stop-opacity="0"/></linearGradient><linearGradient id="linear-gradient-2" x1="181.27" y1="307.57" x2="181.27" y2="621.8" gradientUnits="userSpaceOnUse"><stop offset="0" stop-color="#fcd02f"/><stop offset="1" stop-color="#ff6e27"/></linearGradient><linearGradient id="linear-gradient-3" x1="-918.55" y1="190.18" x2="-918.55" y2="629.35" gradientTransform="matrix(-1, 0, 0, 1, 541.42, 0)" xlink:href="#linear-gradient-2"/><linearGradient id="linear-gradient-4" x1="-980.78" y1="130.02" x2="-849.71" y2="609.16" gradientTransform="matrix(-1, 0, 0, 1, 541.42, 0)" gradientUnits="userSpaceOnUse"><stop offset="0" stop-color="#ff6e27"/><stop offset="1" stop-color="#fcd02f"/></linearGradient><linearGradient id="linear-gradient-5" x1="518.02" y1="74.59" x2="1150.39" y2="696.19" gradientUnits="userSpaceOnUse"><stop offset="0" stop-color="#ff6100"/><stop offset="1" stop-color="#ffd111"/></linearGradient><linearGradient id="linear-gradient-6" x1="305.01" y1="209.23" x2="810.91" y2="832.81" gradientUnits="userSpaceOnUse"><stop offset="0" stop-color="#ff9527"/><stop offset="1" stop-color="#fcd000"/></linearGradient><linearGradient id="linear-gradient-7" x1="640.15" y1="319.24" x2="1292.39" y2="619.97" gradientUnits="userSpaceOnUse"><stop offset="0" stop-color="#ff6100"/><stop offset="1" stop-color="#ffb811"/></linearGradient><linearGradient id="linear-gradient-8" x1="1058.76" y1="476.28" x2="1264.76" y2="703.43" gradientTransform="matrix(1, 0, 0, -1, 0, 1192.69)" xlink:href="#linear-gradient-7"/><linearGradient id="linear-gradient-9" x1="1079.08" y1="523.64" x2="1202.05" y2="752.6" gradientTransform="matrix(1, 0, 0, -1, 0, 1192.69)" xlink:href="#linear-gradient-7"/><linearGradient id="linear-gradient-10" x1="1005.39" y1="571.2" x2="1095.56" y2="661.12" gradientTransform="matrix(1, 0, 0, -1, 0, 1192.69)" xlink:href="#linear-gradient-7"/><linearGradient id="linear-gradient-11" x1="968.47" y1="531.46" x2="1018.56" y2="531.46" xlink:href="#linear-gradient-7"/><linearGradient id="linear-gradient-12" x1="968.47" y1="525.46" x2="993.51" y2="525.46" gradientUnits="userSpaceOnUse"><stop offset="0" stop-color="#ffb811"/><stop offset="1" stop-color="#ff6100"/></linearGradient><linearGradient id="linear-gradient-13" x1="1050.09" y1="531.46" x2="1100.18" y2="531.46" xlink:href="#linear-gradient-7"/><linearGradient id="linear-gradient-14" x1="1050.09" y1="531.58" x2="1094.63" y2="531.58" xlink:href="#linear-gradient-12"/><linearGradient id="linear-gradient-15" x1="1131.71" y1="531.46" x2="1181.79" y2="531.46" xlink:href="#linear-gradient-7"/><linearGradient id="linear-gradient-16" x1="1131.71" y1="531.58" x2="1181.79" y2="531.58" xlink:href="#linear-gradient-12"/><linearGradient id="linear-gradient-17" x1="654.1" y1="477.36" x2="836.69" y2="678.69" gradientTransform="matrix(1, 0, 0, -1, 0, 1192.69)" xlink:href="#linear-gradient-7"/><clipPath id="clip-path"><ellipse class="cls-1" cx="453.83" cy="200.39" rx="49.03" ry="50.57"/></clipPath><linearGradient id="linear-gradient-18" x1="453.16" y1="264.18" x2="453.16" y2="194.19" gradientUnits="userSpaceOnUse"><stop offset="0" stop-color="#fcff2f"/><stop offset="1" stop-color="#ff6e27"/></linearGradient><clipPath id="clip-path-2"><ellipse class="cls-1" cx="453.83" cy="407.36" rx="49.03" ry="50.57"/></clipPath><linearGradient id="linear-gradient-19" x1="453.16" y1="471.16" x2="453.16" y2="401.17" xlink:href="#linear-gradient-18"/><linearGradient id="linear-gradient-20" x1="578.06" y1="199.72" x2="1298.59" y2="199.72" xlink:href="#linear-gradient-7"/><linearGradient id="linear-gradient-21" x1="911.76" y1="611.53" x2="911.76" y2="486.32" xlink:href="#linear-gradient-7"/><linearGradient id="linear-gradient-22" x1="912.76" y1="611.53" x2="912.76" y2="486.32" xlink:href="#linear-gradient-7"/><linearGradient id="linear-gradient-23" x1="911.76" y1="611.53" x2="911.76" y2="486.32" xlink:href="#linear-gradient-7"/><linearGradient id="linear-gradient-24" x1="742.65" y1="611.53" x2="742.65" y2="486.32" xlink:href="#linear-gradient-7"/><linearGradient id="linear-gradient-25" x1="577.04" y1="611.53" x2="577.04" y2="486.32" xlink:href="#linear-gradient-7"/><linearGradient id="linear-gradient-26" x1="576.04" y1="611.53" x2="576.04" y2="486.32" xlink:href="#linear-gradient-7"/><linearGradient id="linear-gradient-27" x1="577.04" y1="611.53" x2="577.04" y2="486.32" xlink:href="#linear-gradient-7"/><linearGradient id="linear-gradient-28" x1="746.16" y1="611.53" x2="746.16" y2="486.32" xlink:href="#linear-gradient-7"/><linearGradient id="linear-gradient-29" x1="1040.2" y1="261.09" x2="1191.56" y2="427.99" xlink:href="#linear-gradient-7"/><linearGradient id="linear-gradient-30" x1="1054.92" y1="312.92" x2="1149.31" y2="488.67" xlink:href="#linear-gradient-7"/><linearGradient id="linear-gradient-31" x1="1003.17" y1="367.22" x2="1072.91" y2="436.76" xlink:href="#linear-gradient-7"/><linearGradient id="linear-gradient-32" x1="945.51" y1="311.03" x2="962.05" y2="329.27" xlink:href="#linear-gradient-7"/><linearGradient id="linear-gradient-33" x1="947.36" y1="347.59" x2="963.04" y2="376.79" xlink:href="#linear-gradient-7"/><linearGradient id="linear-gradient-34" x1="945.64" y1="386.43" x2="960.96" y2="401.71" xlink:href="#linear-gradient-7"/><linearGradient id="linear-gradient-35" x1="730.11" y1="273.51" x2="730.11" y2="374.7" gradientUnits="userSpaceOnUse"><stop offset="0" stop-color="#ffd111"/><stop offset="1" stop-color="#ff6100"/></linearGradient><linearGradient id="linear-gradient-36" x1="730.11" y1="347.3" x2="730.11" y2="429.15" xlink:href="#linear-gradient-5"/><linearGradient id="linear-gradient-37" x1="196.81" y1="526.79" x2="495.64" y2="526.79" gradientTransform="translate(246.12 -95.59) rotate(24.18)" xlink:href="#linear-gradient-35"/><clipPath id="clip-path-3"><path class="cls-2" d="M387.08,560.86a21.88,21.88,0,1,1-16.18-26.38A21.88,21.88,0,0,1,387.08,560.86Z"/></clipPath><linearGradient id="linear-gradient-38" x1="347.26" y1="595" x2="389.96" y2="674.51" gradientUnits="userSpaceOnUse"><stop offset="0" stop-color="#ff46ff"/><stop offset="1" stop-color="#f2a5c7"/></linearGradient><linearGradient id="linear-gradient-39" x1="311.75" y1="713.93" x2="441.32" y2="825.67" gradientUnits="userSpaceOnUse"><stop offset="0" stop-color="#0094ff"/><stop offset="1" stop-color="#a9ff15"/></linearGradient><linearGradient id="linear-gradient-40" x1="1251.21" y1="624.02" x2="1251.21" y2="504.61" gradientUnits="userSpaceOnUse"><stop offset="0" stop-color="#f61"/><stop offset="1" stop-color="#ffd111"/></linearGradient><linearGradient id="linear-gradient-41" x1="1231.46" y1="616.86" x2="1231.46" y2="834.35" gradientUnits="userSpaceOnUse"><stop offset="0" stop-color="#61d6f2"/><stop offset="1" stop-color="#6191f2"/></linearGradient><linearGradient id="linear-gradient-42" x1="1129.72" y1="257.37" x2="1150.3" y2="257.37" gradientTransform="matrix(-0.94, -0.33, -0.33, 0.94, 2360.36, 476.84)" xlink:href="#linear-gradient-2"/><linearGradient id="linear-gradient-43" x1="1061.47" y1="233.13" x2="1082.05" y2="233.13" gradientTransform="matrix(-0.94, -0.33, -0.33, 0.94, 2358.88, 462.27)" xlink:href="#linear-gradient-2"/><linearGradient id="linear-gradient-44" x1="877.16" y1="684.22" x2="904.55" y2="684.22" xlink:href="#linear-gradient-5"/><linearGradient id="linear-gradient-45" x1="820.98" y1="730.22" x2="876.52" y2="730.22" xlink:href="#linear-gradient-5"/><linearGradient id="linear-gradient-46" x1="876.52" y1="730.22" x2="878.25" y2="730.22" xlink:href="#linear-gradient-35"/></defs><title>02</title><g id="Layer_2" data-name="Layer 2"><g id="Layer_1-2" data-name="Layer 1"><rect class="cls-3" y="607.98" width="1683.63" height="13.5"/><path class="cls-4" d="M145.56,518.13h-.07c8.83-9.23,4.68-19.42,3.08-22.52h0c-.31-.6-.53-1-.53-1l.08,0A37.06,37.06,0,0,1,155,451.58c6.18-8.18,1.5-19.07,1.5-19.07h0a26.29,26.29,0,1,1,49.56,0h0s-4.68,10.89,1.5,19.07a37.08,37.08,0,0,1,6.87,43.07h0l-.12.19c-.21.41-.42.82-.64,1.23-1.66,3.41-4.84,12.52,2.44,21.06.22.27.45.52.67.79.07.07.12.15.18.22h0a45.79,45.79,0,1,1-71.41,0Z"/><path class="cls-5" d="M167.81,542.83,179,553.92v-39l-13.77-13.62a1.82,1.82,0,1,1,2.56-2.59L179,509.82V456.05a1.82,1.82,0,1,1,3.64,0v32.41l10.9-10.85a1.82,1.82,0,0,1,2.57,2.58l-13.47,13.39v39.16l12.05-12.18a1.82,1.82,0,0,1,2.59,2.56l-14.64,14.79V641.77a1.82,1.82,0,0,1-3.64,0V559l-13.77-13.63a1.82,1.82,0,1,1,2.56-2.58Z"/><path class="cls-6" d="M230.67,644.23H156.82a.64.64,0,0,1,0-1.28h73.85a.64.64,0,1,1,0,1.28Z"/><path class="cls-7" d="M1509.87,484.45h.1c-12.34-12.89-6.54-27.13-4.3-31.46,0,0,0,0,0,0,.43-.84.74-1.34.74-1.34l-.11,0a51.86,51.86,0,0,0-9.59-60.2c-8.64-11.44-2.1-26.65-2.1-26.65h0a36.76,36.76,0,1,0-69.27,0h0s6.55,15.21-2.1,26.65a51.84,51.84,0,0,0-9.59,60.19h0l.16.27c.29.57.59,1.14.9,1.7,2.31,4.78,6.76,17.51-3.41,29.45l-.94,1.1c-.09.1-.16.2-.26.3h0a64,64,0,1,0,99.81,0Z"/><path class="cls-5" d="M1478.78,519l-15.68,15.51V480l19.25-19a2.54,2.54,0,0,0-3.57-3.62l-15.68,15.51V397.69a2.54,2.54,0,0,0-5.08,0V443l-15.24-15.15a2.54,2.54,0,0,0-3.58,3.6L1458,450.15v54.72l-16.84-17a2.55,2.55,0,0,0-3.62,3.58L1458,512.09V657.25a2.54,2.54,0,1,0,5.08,0V541.63l19.25-19a2.54,2.54,0,0,0-3.57-3.62Z"/><path class="cls-6" d="M1390.91,660.69h103.23a.9.9,0,0,0,0-1.79H1390.91a.9.9,0,0,0,0,1.79Z"/><path class="cls-8" d="M1436,546h.06c-7-7.36-3.74-15.5-2.46-18h0c.25-.48.42-.77.42-.77l-.06,0a29.65,29.65,0,0,0-5.48-34.42c-4.94-6.54-1.2-15.23-1.2-15.23h0a20.73,20.73,0,0,0,1.22-7,21,21,0,1,0-40.81,7h0s3.74,8.69-1.2,15.23a29.64,29.64,0,0,0-5.48,34.41h0l.1.15c.16.33.33.66.51,1a15.15,15.15,0,0,1-1.95,16.83l-.54.63c0,.06-.09.12-.14.17h0a36.58,36.58,0,1,0,57,0Z"/><path class="cls-9" d="M1418.26,565.76l-9,8.86V543.48l11-10.89a1.45,1.45,0,1,0-2-2.06l-9,8.86v-43a1.45,1.45,0,0,0-2.9,0v25.89l-8.71-8.66a1.45,1.45,0,1,0-2,2.06l10.76,10.7v31.27l-9.63-9.72a1.45,1.45,0,0,0-2.07,2l11.7,11.81v83a1.45,1.45,0,0,0,2.9,0V578.71l11-10.89a1.45,1.45,0,1,0-2-2.06Z"/><path class="cls-6" d="M1368,646.76h59a.51.51,0,0,0,0-1h-59a.51.51,0,0,0,0,1Z"/><rect class="cls-10" x="341.78" y="84.38" width="999.65" height="616.58"/><rect class="cls-11" x="363.5" y="109.29" width="956.2" height="566.76"/><rect class="cls-12" x="363.75" y="109.29" width="180.16" height="566.76"/><rect class="cls-13" x="341.99" width="999.65" height="84.09"/><rect class="cls-14" x="576.04" y="446.93" width="720.53" height="17.72"/><rect class="cls-15" x="968.47" y="635.21" width="318.96" height="9.8"/><rect class="cls-16" x="968.47" y="609.98" width="279.4" height="9.8"/><rect class="cls-17" x="968.47" y="584.75" width="137.68" height="9.8"/><ellipse class="cls-18" cx="993.51" cy="531.46" rx="25.04" ry="25.58"/><path class="cls-19" d="M993.51,531.46l-21.36,13.35a26.07,26.07,0,0,1-3.68-13.35,25.49,25.49,0,0,1,21.65-25.34Z"/><ellipse class="cls-20" cx="1075.13" cy="531.46" rx="25.04" ry="25.58"/><path class="cls-21" d="M1075.13,531.46l19.5,16.06a24.87,24.87,0,0,1-19.5,9.52c-13.73,0-25-11.54-25-25.58a25.49,25.49,0,0,1,21.65-25.34Z"/><ellipse class="cls-22" cx="1156.75" cy="531.46" rx="25.04" ry="25.58"/><path class="cls-23" d="M1156.75,531.46l14.81-20.62a25.75,25.75,0,0,1,10.23,20.62c0,14-11.3,25.58-25,25.58s-25-11.54-25-25.58a25.49,25.49,0,0,1,21.65-25.34Z"/><rect class="cls-24" x="576.04" y="641.58" width="278.77" height="12.26"/><g class="cls-25"><ellipse class="cls-11" cx="453.83" cy="200.39" rx="49.03" ry="50.57"/><path class="cls-26" d="M462.92,220.13a16,16,0,0,1-3.13-9.71,1,1,0,0,0-1.25-1.06,1.94,1.94,0,0,0-.26-.23c-3-2-7-1.5-10.24-.3a.89.89,0,0,0-.51.58.73.73,0,0,0-.59,1c1,4.39-.52,7.3-2.49,11a8.3,8.3,0,0,0-.78,6.32c1.44,5,6.48,7.34,11.26,7.06,4.63-.26,9.25-2.65,9.93-7.81A9.55,9.55,0,0,0,462.92,220.13Z"/><path class="cls-27" d="M471.48,189.79a30.18,30.18,0,0,0,.06-6.84c-1.4-11.28-16-10.06-24-10-4.8,0-7.7,2.47-9,7.21a37.72,37.72,0,0,0-1.21,10.08,2.28,2.28,0,0,0-2.12.74,4.59,4.59,0,0,0-.75,3.58,4,4,0,0,0,1.65,3.12,2.42,2.42,0,0,0,1.86.3c0,.18.05.36.08.54a.64.64,0,0,0,.12.29,22.47,22.47,0,0,0,3.69,9c5,7.06,14.33,9,21,3.22,3.55-3.08,5.64-7.46,6.82-12,.09-.37.19-.75.28-1.13a.85.85,0,0,0,.36,0C473.8,197.71,474.43,190.67,471.48,189.79Z"/><path class="cls-28" d="M478.34,178.53l0,.05a.12.12,0,0,0-.06.08c-2.65,3.19-1-.21-.81-1.13a12.32,12.32,0,0,0-.35-4.4c-.05-.23-.34-.15-.37.05-.46,3.9-4.45,4.22-7.09,2.49a33,33,0,0,1-3.19-2.48,2.22,2.22,0,0,0,1.41-1.17.24.24,0,0,0-.26-.36c-3.05.58-5.21-1.24-8.06-1.92a14.41,14.41,0,0,0-5.51-.23,2.38,2.38,0,0,0,.24-2,.24.24,0,0,0-.44-.06c-1,1.83-4,1-5.63,1a11.94,11.94,0,0,0-3.88.71c-1.08.41-3,1.36-3.5,2.65a17.13,17.13,0,0,1-.82-2.84.23.23,0,0,0-.42-.06,5.93,5.93,0,0,0-.94,4.8,8.7,8.7,0,0,0-3.89,3.84.24.24,0,0,0,.32.33c.23-.12,2.05-1.11,2.28-.46a9.19,9.19,0,0,1-.84,1.49,17.09,17.09,0,0,0-1.05,2.88,32.18,32.18,0,0,0-1,6.55.24.24,0,0,0,.44.13,3.68,3.68,0,0,1,.7-1,6.77,6.77,0,0,0-.49,3.47l-.05,0c-.14.12,0,.35.19.25.67-.41,1.6-1.2,2.25.05a3.78,3.78,0,0,1,.22,1.12,23,23,0,0,1,.27,2.88.2.2,0,0,0,.35.12c.52.09,1.21.27,1.61-.15s.2-1.63.18-2.13-.56-3.83.28-1.58c.06.14.28.18.32,0a20.44,20.44,0,0,0,.35-5.29l0-.62a.4.4,0,0,0-.1-.28,23.09,23.09,0,0,0-.4-2.47,5,5,0,0,1,.76,1.53.2.2,0,0,0,.38,0,8.75,8.75,0,0,0,.52-3.78l.27.32a10,10,0,0,0,6.66,3.93.21.21,0,0,0,.2-.35,4.78,4.78,0,0,1-.79-1.18c-.05-.24-.09-.49-.13-.73a20.48,20.48,0,0,0,17.76,5.3.21.21,0,0,0-.06-.41l-.91-.34a11.76,11.76,0,0,0,2.57.28,14.76,14.76,0,0,1-.29,4.19.25.25,0,0,0,.41.25l.44-.42a6.69,6.69,0,0,1-.44,2.22,4.37,4.37,0,0,0-.45,1.76.93.93,0,0,0,.42.68.1.1,0,0,0,0,.05,4.13,4.13,0,0,0,1.62.41.21.21,0,0,0,.26-.21,27.51,27.51,0,0,1,.4-4,4.55,4.55,0,0,1,.26-1.34c.88-1.43,1.39-.6,2.18-.23.11,0,.24-.08.14-.18l0,0a.09.09,0,0,0,0-.07,11.6,11.6,0,0,0-.45-3.89,9.69,9.69,0,0,0,6.24-7.78l0,0C478.84,178.63,478.53,178.3,478.34,178.53Z"/><path class="cls-29" d="M472.57,190.46s0,0,0,0"/><path class="cls-30" d="M486.44,256.32a.6.6,0,0,0,.1-.37c-.25-5.43-.81-10.87-1.49-16.26-.63-5.05-1.28-10.33-2.91-15.15a.51.51,0,0,0-.65-.36l-.11,0c-3.83-1.13-7.7-2.08-11.54-3.2-2.08-.61-5.93-2.81-8-1.7a.31.31,0,0,0-.16.21c-4.49,3.76-11.4,4.53-15.82.32h0c-.17-.22-.33-.44-.49-.68a.4.4,0,0,0-.57-.14,2.48,2.48,0,0,0-.94.06,2.31,2.31,0,0,0-.69.29c-2.16.2-4.5,1.49-6.37,2.14-3.33,1.16-6.69,2.06-10.11,2.9a.46.46,0,0,0-.33.27.44.44,0,0,0-.18.12,2.16,2.16,0,0,0-.37.59,13.4,13.4,0,0,0-2,4.44q-1.26,3.81-2.31,7.68a55,55,0,0,0-2.18,15.15,12.81,12.81,0,0,0,1.08,8.91c1.49,2.68,4.33,4.33,7.08,5.3,7.5,2.65,16.36,2.23,24.17,2.37,8.37.14,17.06.71,25.23-1.54C481.31,266.4,490.42,262.61,486.44,256.32Z"/></g><rect class="cls-31" x="404.8" y="267.26" width="98.05" height="12.26"/><rect class="cls-31" x="377.1" y="291.66" width="153.45" height="12.26"/><g class="cls-32"><ellipse class="cls-11" cx="453.83" cy="407.36" rx="49.03" ry="50.57"/><path class="cls-26" d="M462.92,427.11a16.07,16.07,0,0,1-3.13-9.71,1,1,0,0,0-1.25-1.06,1.94,1.94,0,0,0-.26-.23c-3-2-7-1.5-10.24-.3a.87.87,0,0,0-.51.58.73.73,0,0,0-.59.95c1,4.38-.52,7.3-2.49,11a8.28,8.28,0,0,0-.78,6.31c1.44,5,6.48,7.35,11.26,7.07,4.63-.27,9.25-2.65,9.93-7.81A9.55,9.55,0,0,0,462.92,427.11Z"/><path class="cls-27" d="M471.48,396.77a30.18,30.18,0,0,0,.06-6.84c-1.4-11.28-16-10.06-24-10-4.8,0-7.7,2.46-9,7.21a37.72,37.72,0,0,0-1.21,10.08,2.3,2.3,0,0,0-2.12.73,4.62,4.62,0,0,0-.75,3.59,4,4,0,0,0,1.65,3.12,2.42,2.42,0,0,0,1.86.3c0,.18.05.36.08.54a.64.64,0,0,0,.12.29,22.37,22.37,0,0,0,3.69,9c5,7.07,14.33,9,21,3.23,3.55-3.08,5.64-7.46,6.82-12,.09-.37.19-.75.28-1.13a.85.85,0,0,0,.36.05C473.8,404.69,474.43,397.65,471.48,396.77Z"/><path class="cls-28" d="M478.34,385.51l0,.05a.11.11,0,0,0-.06.07c-2.65,3.19-1-.2-.81-1.12a12.39,12.39,0,0,0-.35-4.41c-.05-.23-.34-.14-.37,0-.46,3.91-4.45,4.23-7.09,2.49a30.15,30.15,0,0,1-3.19-2.48,2.19,2.19,0,0,0,1.41-1.17.24.24,0,0,0-.26-.35c-3.05.58-5.21-1.24-8.06-1.93a14.4,14.4,0,0,0-5.51-.22,2.39,2.39,0,0,0,.24-2,.24.24,0,0,0-.44-.06c-1,1.82-4,1-5.63,1a11.94,11.94,0,0,0-3.88.71c-1.08.41-3,1.36-3.5,2.65A17.41,17.41,0,0,1,440,376a.23.23,0,0,0-.42-.06,5.93,5.93,0,0,0-.94,4.8,8.65,8.65,0,0,0-3.89,3.84.24.24,0,0,0,.32.33c.23-.13,2.05-1.11,2.28-.46a9.19,9.19,0,0,1-.84,1.49,17.09,17.09,0,0,0-1.05,2.88,32.18,32.18,0,0,0-1,6.55.24.24,0,0,0,.44.12,3.49,3.49,0,0,1,.7-1,6.77,6.77,0,0,0-.49,3.47l-.05,0c-.14.13,0,.36.19.26.67-.41,1.6-1.2,2.25.05a3.77,3.77,0,0,1,.22,1.11,23.35,23.35,0,0,1,.27,2.89.19.19,0,0,0,.35.11c.52.1,1.21.28,1.61-.14s.2-1.64.18-2.13-.56-3.83.28-1.58c.06.14.28.18.32,0a20.47,20.47,0,0,0,.35-5.29l0-.62a.38.38,0,0,0-.1-.28,23.09,23.09,0,0,0-.4-2.47,5,5,0,0,1,.76,1.52.2.2,0,0,0,.38,0,8.68,8.68,0,0,0,.52-3.77l.27.31a10,10,0,0,0,6.66,3.94.21.21,0,0,0,.2-.35,4.78,4.78,0,0,1-.79-1.18c-.05-.25-.09-.49-.13-.73A20.47,20.47,0,0,0,466.25,395c.22,0,.17-.42-.06-.4l-.91-.34a11.76,11.76,0,0,0,2.57.28,14.76,14.76,0,0,1-.29,4.19.25.25,0,0,0,.41.25l.44-.43a6.59,6.59,0,0,1-.44,2.22,4.41,4.41,0,0,0-.45,1.76.93.93,0,0,0,.42.69l0,.05a4.3,4.3,0,0,0,1.62.41.21.21,0,0,0,.26-.21,27.51,27.51,0,0,1,.4-4,4.55,4.55,0,0,1,.26-1.34c.88-1.44,1.39-.61,2.18-.23.11.05.24-.09.14-.18l0,0a.09.09,0,0,0,0-.07,11.65,11.65,0,0,0-.45-3.9,9.68,9.68,0,0,0,6.24-7.77l0,0C478.84,385.61,478.53,385.28,478.34,385.51Z"/><path class="cls-29" d="M472.57,397.44s0,0,0,0"/><path class="cls-33" d="M486.44,463.29a.57.57,0,0,0,.1-.36c-.25-5.43-.81-10.87-1.49-16.26-.63-5.05-1.28-10.33-2.91-15.15a.51.51,0,0,0-.65-.36l-.11-.05c-3.83-1.12-7.7-2.08-11.54-3.2-2.08-.61-5.93-2.81-8-1.69a.31.31,0,0,0-.16.2c-4.49,3.76-11.4,4.54-15.82.33h0l-.49-.68a.4.4,0,0,0-.57-.14,2.54,2.54,0,0,0-1.63.35c-2.16.2-4.5,1.49-6.37,2.14-3.33,1.16-6.69,2-10.11,2.89a.47.47,0,0,0-.33.28.36.36,0,0,0-.18.12,2.16,2.16,0,0,0-.37.59,13.31,13.31,0,0,0-2,4.44c-.84,2.53-1.61,5.1-2.31,7.68a55,55,0,0,0-2.18,15.14,12.83,12.83,0,0,0,1.08,8.92c1.49,2.68,4.33,4.32,7.08,5.3,7.5,2.65,16.36,2.23,24.17,2.36,8.37.15,17.06.72,25.23-1.53C481.31,473.38,490.42,469.59,486.44,463.29Z"/></g><rect class="cls-31" x="404.8" y="474.24" width="98.05" height="12.26"/><rect class="cls-31" x="377.1" y="498.64" width="153.45" height="12.26"/><rect class="cls-34" x="578.06" y="146.94" width="720.53" height="105.57"/><rect class="cls-35" x="714.12" y="221.59" width="444.37" height="10.55"/><rect class="cls-35" x="714.12" y="194.45" width="389.25" height="10.55"/><rect class="cls-35" x="714.12" y="167.31" width="191.81" height="10.55"/><text class="cls-36" transform="translate(603.78 234.14)">%</text><g class="cls-37"><polyline class="cls-38" points="909.26 487.82 912.76 487.82 912.76 491.32"/><line class="cls-39" x1="912.76" y1="498.1" x2="912.76" y2="603.14"/><polyline class="cls-40" points="912.76 606.53 912.76 610.03 909.26 610.03"/><line class="cls-41" x1="902.25" y1="610.03" x2="583.05" y2="610.03"/><polyline class="cls-42" points="579.54 610.03 576.04 610.03 576.04 606.53"/><line class="cls-43" x1="576.04" y1="599.76" x2="576.04" y2="494.71"/><polyline class="cls-44" points="576.04 491.32 576.04 487.82 579.54 487.82"/><line class="cls-45" x1="586.56" y1="487.82" x2="905.75" y2="487.82"/></g><g class="cls-46"><rect class="cls-47" x="979.88" y="308.09" width="222.31" height="18.12"/><rect class="cls-48" x="979.88" y="345.44" width="194.74" height="18.12"/><rect class="cls-49" x="979.88" y="382.78" width="95.96" height="18.12"/></g><g class="cls-46"><path class="cls-50" d="M942.52,316.82v.67a8.63,8.63,0,0,0,8.55,8.72h0a8.63,8.63,0,0,0,8.54-8.72v-.67a8.64,8.64,0,0,0-8.54-8.73h0A8.64,8.64,0,0,0,942.52,316.82Z"/><path class="cls-51" d="M951.07,363.56h0a8.64,8.64,0,0,0,8.54-8.73v-.67a8.63,8.63,0,0,0-8.54-8.72h0a8.63,8.63,0,0,0-8.55,8.72v.67A8.64,8.64,0,0,0,951.07,363.56Z"/><path class="cls-52" d="M951.07,400.9h0a8.64,8.64,0,0,0,8.54-8.73v-.66a8.64,8.64,0,0,0-8.54-8.73h0a8.64,8.64,0,0,0-8.55,8.73v.66A8.64,8.64,0,0,0,951.07,400.9Z"/></g><path class="cls-53" d="M884.18,281.07v15a7.9,7.9,0,0,0-4.75-1c-8.55,1-12.14,15.88-16.71,34.71-4.65,19.22-9.91,41-20.54,43.27-3.15.68-5.74-.56-8.73-2-3.91-1.88-8.32-4-14-1.36-6.84,3.19-9.33,10.38-11.53,16.72-1.88,5.43-3.51,10.12-7.33,11.55-2.77,1-4.86-.22-9.32-3.17a57.74,57.74,0,0,0-14.47-7.48c-10.53-3.56-17.32-2-23.3-.6-4.61,1.07-8.58,2-13.87.55-13.27-3.59-20-18.15-25.86-31-5.23-11.42-10.18-22.2-19.2-22.23h0c-6.58,0-9.91,5.72-14.51,13.62-4.39,7.53-10.4,17.85-22.14,29.66-11.43,11.49-25.66,25.79-40.1,22.91-5.12-1-8.39-3.88-11.84-6.9-3.92-3.42-8.38-7.32-15.76-8.48a29.2,29.2,0,0,0-14.11,1.39V281.07Z"/><path class="cls-54" d="M879.43,295.06c-8.55,1-12.14,15.88-16.71,34.71-4.65,19.22-9.91,41-20.54,43.27-3.15.68-5.74-.56-8.73-2-3.91-1.88-8.32-4-14-1.36-6.84,3.19-9.33,10.38-11.53,16.72-1.88,5.43-3.51,10.12-7.33,11.55-2.77,1-4.86-.22-9.32-3.17a57.74,57.74,0,0,0-14.47-7.48c-10.53-3.56-17.32-2-23.3-.6-4.61,1.07-8.58,2-13.87.55-13.27-3.59-20-18.15-25.86-31-5.23-11.42-10.18-22.2-19.2-22.23h0c-6.58,0-9.91,5.72-14.51,13.62-4.39,7.53-10.4,17.85-22.14,29.66-11.43,11.49-25.66,25.79-40.1,22.91-5.12-1-8.39-3.88-11.84-6.9-3.92-3.42-8.38-7.32-15.76-8.48a29.2,29.2,0,0,0-14.11,1.39v41.71H884.18V296.06A7.9,7.9,0,0,0,879.43,295.06Z"/><g class="cls-55"><path class="cls-56" d="M377.44,27.81A14.24,14.24,0,1,0,391.38,42,14.09,14.09,0,0,0,377.44,27.81Z"/><ellipse class="cls-56" cx="419.51" cy="42.04" rx="13.94" ry="14.24"/><path class="cls-56" d="M461.59,27.81A14.24,14.24,0,1,0,475.53,42,14.09,14.09,0,0,0,461.59,27.81Z"/></g><rect class="cls-57" x="209.59" y="465.19" width="273.26" height="123.2" rx="1.44" ry="1.44" transform="translate(-185.38 188.01) rotate(-24.18)"/><rect class="cls-31" x="332.24" y="478.18" width="108.97" height="11.09" rx="0.65" ry="0.65" transform="translate(-164.19 200.82) rotate(-24.18)"/><rect class="cls-31" x="342.12" y="500.17" width="88.97" height="11.09" rx="0.65" ry="0.65" transform="translate(-173.21 202.7) rotate(-24.18)"/><rect class="cls-31" x="353.19" y="527.68" width="42.03" height="11.09" rx="0.65" ry="0.65" transform="translate(-185.56 200.03) rotate(-24.18)"/><g class="cls-58"><path class="cls-11" d="M327.68,534.7a42.9,42.9,0,1,1-56.6-21.84A42.91,42.91,0,0,1,327.68,534.7Z"/></g><text class="cls-59" transform="translate(267.7 583.61) rotate(-22.36)">%</text><path class="cls-2" d="M438.63,559a10.18,10.18,0,1,1-10.17-10.18A10.17,10.17,0,0,1,438.63,559Z"/><path class="cls-2" d="M289.19,704A10.18,10.18,0,1,1,279,693.82,10.18,10.18,0,0,1,289.19,704Z"/><path class="cls-2" d="M426.5,856.83c.21-1.25.21-36.68.21-36.68h16.45v36.7Z"/><path class="cls-60" d="M472.42,863.75l-45.92.2v-14.1l31.71-.13a14.12,14.12,0,0,1,14.21,14Z"/><path class="cls-2" d="M262.37,817.92c1.15-.53,30.5-20.37,30.5-20.37l9.21,13.62-30.4,20.55Z"/><path class="cls-60" d="M282.36,859.83,256.48,821.9,268.15,814,286,840.2a14.12,14.12,0,0,1-3.66,19.63Z"/><path class="cls-2" d="M390.06,550.34,385,548.17l-2.87,6.66L387,556l3.29-2A2.06,2.06,0,0,0,390.06,550.34Z"/><path class="cls-2" d="M387.08,560.86a21.88,21.88,0,1,1-16.18-26.38A21.88,21.88,0,0,1,387.08,560.86Z"/><g class="cls-61"><polygon class="cls-60" points="373.19 528.08 347.52 580.12 337.58 543.1 373.19 528.08"/></g><path class="cls-2" d="M362.15,556.84a6.13,6.13,0,1,1-4.53-7.39A6.13,6.13,0,0,1,362.15,556.84Z"/><path class="cls-60" d="M346.19,570.36A19.15,19.15,0,1,1,338,544.55,19.14,19.14,0,0,1,346.19,570.36Z"/><path class="cls-2" d="M373.94,574.68v30.37l-19-12.66L357,574Z"/><path class="cls-62" d="M467.55,600.36l-17.71-39.23-20.76,9.38,10.31,22.82-37.94-.69v-.25H361.59a25.75,25.75,0,0,0-18.69,8.05,23.75,23.75,0,0,0-3.72,3.46L302.7,636.8a11.1,11.1,0,0,0-1.87,3.09l-21.51,53.44,21.13,8.51,20.82-51.74L335.7,636v32.31h58.21a7.54,7.54,0,0,0,7.54-7.54V615.42l55.51,1h.21a11.38,11.38,0,0,0,10.38-16.07Z"/><path class="cls-63" d="M446.6,791.12l-1.82-21.22-.9-10.61-.46-5.31-.11-1.33-.16-1.64c-.14-1.24-.31-2.47-.52-3.69A63.63,63.63,0,0,0,438.41,733c-.49-1.15-1-2.28-1.58-3.4s-1.14-2.2-1.83-3.41l-2.76-4.67-10.86-18.37L400.14,667.2v-.15h-.09l-.39-.66-1.05.66H336.87v1.1h0l-1.72,43.09-.8,21.55-.4,10.78-.2,5.39,0,1.2c0,.15,0,.3,0,.46a11.31,11.31,0,0,1-.12,1.14,13,13,0,0,1-1.46,4.47,12.49,12.49,0,0,1-1.33,2,13.9,13.9,0,0,1-1.73,1.83l-16.67,13.75q-16.68,13.77-33.22,27.68l16.76,22.12q17.87-12.17,35.62-24.49l17.74-12.33a48,48,0,0,0,18.52-27.18c.36-1.37.63-2.75.87-4.16l.3-2.22.17-1.5.56-5.38,1.12-10.76L373,714.08l1.25-12.36,14.34,21.69,11.73,17.74,2.88,4.36c.21.32.5.77.76,1.23s.51.92.75,1.39a26.93,26.93,0,0,1,2.15,6c.12.52.23,1,.32,1.57l.06.39.09.61.18,1.32.72,5.27,1.45,10.55,2.88,21.11,5.78,42.21,31.86-3.54Z"/><polygon class="cls-64" points="1287.33 659.4 1283.26 603.15 1289.55 561.75 1310.92 439.74 1300.6 438.27 1277.01 545.88 1240.15 548.83 1201.83 439.74 1191.51 441.21 1219.52 557.68 1229.35 602.19 1228.19 656.45 1287.33 659.4"/><polygon class="cls-13" points="1236.54 509.02 1232.91 541.19 1254.81 542.93 1268.19 509.02 1236.54 509.02"/><path class="cls-65" d="M1276.92,520.82a22.12,22.12,0,1,1-22.12-22.11A22.11,22.11,0,0,1,1276.92,520.82Z"/><path class="cls-13" d="M1262.92,519.35a1.76,1.76,0,0,0,1.38.23c.45-.17.68-.65,1-1a3.48,3.48,0,0,1,5-.17,4.49,4.49,0,0,1,.55,5.24,6.34,6.34,0,0,1-4.61,2.94,42.14,42.14,0,0,0-1.49,13.5l9.11.67a2.5,2.5,0,0,0,1.71-.29,2.44,2.44,0,0,0,.71-1.47,74.28,74.28,0,0,0,1.69-15.87c0-5.2-.63-10.58-3.31-15-3.21-5.33-16.37-14.09-22.8-9.18C1244.76,504.31,1258,517,1262.92,519.35Z"/><path class="cls-13" d="M1244.6,511.74c-3.74,3.67-8.59,6.46-13.82,6.69a19.73,19.73,0,0,1,6.76-15.55c2.5-2.14,10.89-6.88,14.32-4.6S1247.14,509.26,1244.6,511.74Z"/><polygon class="cls-66" points="1285.18 619.5 1228.8 616.86 1185.42 811.13 1165.3 798.88 1189.8 828.63 1247.55 668.5 1246.67 741.13 1285.83 793.01 1288.33 811.74 1289.37 819.7 1296.35 818.87 1297.62 790.33 1267.3 741.04 1288.69 659.45 1285.18 619.5"/><rect class="cls-13" x="1184.94" y="329.18" width="126.43" height="126.43" rx="16.37" ry="16.37" transform="translate(-53.42 259.11) rotate(-11.61)"/><rect class="cls-67" x="1193.32" y="322.6" width="13.3" height="30.32" rx="3.8" ry="3.8" transform="translate(-43.41 248.3) rotate(-11.61)"/><rect class="cls-68" x="1264.26" y="308.03" width="13.3" height="30.32" rx="3.8" ry="3.8" transform="translate(-39.03 262.28) rotate(-11.61)"/><polygon class="cls-65" points="1288.74 492.38 1300.95 496.66 1310.92 439.74 1300.6 438.27 1288.74 492.38"/><polygon class="cls-65" points="1217.65 484.79 1203.34 490.43 1191.51 441.21 1201.83 439.74 1217.65 484.79"/><polygon class="cls-69" points="1265.48 546.8 1254.9 565.59 1249.57 548.08 1265.48 546.8"/><path class="cls-65" d="M1186.89,433.84a8.85,8.85,0,1,0,8.84-8.84A8.84,8.84,0,0,0,1186.89,433.84Z"/><path class="cls-65" d="M1297.93,435.5a8.85,8.85,0,1,0,8.84-8.85A8.84,8.84,0,0,0,1297.93,435.5Z"/><path class="cls-11" d="M1256.43,418.74l2.13,8.33-5.49,1.4-2.07-8.1a31.12,31.12,0,0,1-15.1.09l-2.71-10.63a22.55,22.55,0,0,0,7.35,1.68,30.28,30.28,0,0,0,8.15-.2l-3.56-14q-9.64-1.09-13.86-4.17a14.89,14.89,0,0,1-5.63-8.68,14.53,14.53,0,0,1,1.55-11.33,17.89,17.89,0,0,1,9.79-7.75l-1.83-7.14,5.49-1.4,1.78,7q8-1.64,12.5-.41l2.65,10.37a28.78,28.78,0,0,0-12.85-1l3.71,14.54q9,.93,13.56,3.92a13.87,13.87,0,0,1,6,8.51,14.17,14.17,0,0,1-1.36,11.28Q1263.61,416,1256.43,418.74Zm-14.06-32.18-3.1-12.17q-5,2.3-3.8,6.9Q1236.48,385.24,1242.37,386.56Zm8.8,11.57,3,11.63q5.16-2.22,4-6.86Q1257.15,399.14,1251.17,398.13Z"/><rect class="cls-13" x="810.31" y="634.06" width="160.89" height="114.51" rx="20.01" ry="20.01"/><path class="cls-70" d="M902.53,680.37l-18-12.45a4.69,4.69,0,0,0-7.35,3.85v24.9a4.69,4.69,0,0,0,7.35,3.86l18-12.46A4.68,4.68,0,0,0,902.53,680.37Z"/><rect class="cls-11" x="820.98" y="729.07" width="139.54" height="2.31" rx="1.15" ry="1.15"/><rect class="cls-71" x="820.98" y="729.07" width="55.54" height="2.31" rx="1.15" ry="1.15"/><rect class="cls-72" x="876.52" y="727.57" width="1.73" height="5.29"/></g></g></svg>