<svg xmlns="http://www.w3.org/2000/svg" xmlns:xlink="http://www.w3.org/1999/xlink" viewBox="0 0 1425.51 915.84"><defs><style>.cls-1,.cls-13,.cls-21{fill:none;}.cls-2{fill:#ffbda1;}.cls-3{fill:#2b3b3f;}.cls-4{fill:url(#linear-gradient);}.cls-5,.cls-56,.cls-7{fill:#fff9e7;}.cls-6{fill:#192426;}.cls-7{opacity:0.12;}.cls-8{fill:#fff;opacity:0.5;}.cls-9{clip-path:url(#clip-path);}.cls-10{fill:#f4e3d6;}.cls-11{fill:#f3d1bb;}.cls-12{fill:#683c11;}.cls-13{stroke:#683c11;}.cls-13,.cls-21{stroke-linecap:round;stroke-linejoin:round;stroke-width:0;}.cls-14{fill:#e5332a;}.cls-15{clip-path:url(#clip-path-2);}.cls-16{fill:#f8b133;}.cls-17{fill:#f5f5f5;}.cls-18{fill:#bd1622;}.cls-19{clip-path:url(#clip-path-3);}.cls-20{fill:#7d4e24;}.cls-21{stroke:#3c3c3b;}.cls-22{fill:#ececec;}.cls-23{fill:#575756;}.cls-24{fill:#3c3c3b;}.cls-25{fill:#1d1d1b;}.cls-26{fill:url(#linear-gradient-2);}.cls-27{fill:url(#linear-gradient-3);}.cls-28{fill:#faaaab;}.cls-29{fill:#0d1b44;}.cls-30{fill:url(#linear-gradient-4);}.cls-31{fill:url(#linear-gradient-5);}.cls-32{clip-path:url(#clip-path-4);}.cls-33{fill:#262626;}.cls-34{fill:#232a43;}.cls-35{fill:url(#linear-gradient-6);}.cls-36{fill:url(#linear-gradient-7);}.cls-37{fill:url(#linear-gradient-8);}.cls-38{isolation:isolate;}.cls-39{fill:url(#linear-gradient-9);}.cls-40{fill:url(#linear-gradient-10);}.cls-41{fill:url(#linear-gradient-11);}.cls-42{fill:#d8761d;}.cls-43{fill:#e56e3e;opacity:0.29;}.cls-44{fill:url(#linear-gradient-12);}.cls-45{fill:url(#linear-gradient-13);}.cls-46{fill:#e5ac38;}.cls-47{fill:#062735;}.cls-48{fill:#fce300;opacity:0.89;}.cls-49{fill:#62bddd;}.cls-50{fill:#ffcfd3;}.cls-51{fill:#241084;}.cls-52{fill:url(#linear-gradient-14);}.cls-53{fill:url(#linear-gradient-15);}.cls-54{fill:url(#linear-gradient-16);}.cls-55{fill:url(#linear-gradient-17);}.cls-56{font-size:81.45px;font-family:Fonarto, Fonarto;}.cls-57{fill:#f7d3a9;}.cls-58{fill:#d16ba6;}.cls-59{fill:url(#linear-gradient-18);}.cls-60{fill:url(#linear-gradient-19);}.cls-61{fill:#0e5a7f;opacity:0.51;}.cls-62{fill:url(#linear-gradient-20);}.cls-63{fill:url(#linear-gradient-21);}.cls-64{fill:url(#linear-gradient-22);}.cls-65{fill:#ffdfbd;}.cls-66,.cls-70{fill:#d29b6e;}.cls-67{fill:#e6af78;opacity:0.46;}.cls-68{fill:url(#linear-gradient-23);}.cls-69{fill:url(#linear-gradient-24);}.cls-70{opacity:0.53;}.cls-71{fill:url(#linear-gradient-25);}</style><linearGradient id="linear-gradient" x1="1755.08" y1="240.57" x2="1875.1" y2="240.57" gradientTransform="matrix(1, 0, 0, -1, -1466.65, 481.14)" gradientUnits="userSpaceOnUse"><stop offset="0" stop-color="#ffd111"/><stop offset="1" stop-color="#ff6100"/></linearGradient><clipPath id="clip-path"><circle class="cls-1" cx="733.94" cy="232.32" r="29.04" transform="translate(-34.6 187.71) rotate(-14.24)"/></clipPath><clipPath id="clip-path-2"><circle class="cls-1" cx="733.94" cy="313.95" r="29.04" transform="translate(-58.41 216.91) rotate(-16.18)"/></clipPath><clipPath id="clip-path-3"><circle class="cls-1" cx="733.94" cy="396.5" r="28.89" transform="translate(74.52 907.43) rotate(-66.15)"/></clipPath><linearGradient id="linear-gradient-2" x1="-3.01" y1="771.75" x2="1426.12" y2="771.75" gradientUnits="userSpaceOnUse"><stop offset="0" stop-color="#f7942f" stop-opacity="0"/><stop offset="0.5" stop-color="#f7c700"/><stop offset="1" stop-color="#f7942f" stop-opacity="0"/></linearGradient><linearGradient id="linear-gradient-3" x1="978.69" y1="598.66" x2="1094.95" y2="598.66" gradientUnits="userSpaceOnUse"><stop offset="0" stop-color="#ff1"/><stop offset="0.5" stop-color="#ff6100"/><stop offset="1" stop-color="#ffd111"/></linearGradient><linearGradient id="linear-gradient-4" x1="1110.56" y1="786.51" x2="1110.56" y2="541.01" gradientUnits="userSpaceOnUse"><stop offset="0" stop-color="#008fd3"/><stop offset="0.5" stop-color="#00c8ff"/><stop offset="1" stop-color="#008fd3"/></linearGradient><linearGradient id="linear-gradient-5" x1="1084.9" y1="644.46" x2="1084.9" y2="545.46" gradientUnits="userSpaceOnUse"><stop offset="0" stop-color="#ff9c27"/><stop offset="1" stop-color="#fcff2f"/></linearGradient><clipPath id="clip-path-4"><path class="cls-2" d="M1061.76,536.19a14.43,14.43,0,1,0,11.76-16.69A14.44,14.44,0,0,0,1061.76,536.19Z"/></clipPath><linearGradient id="linear-gradient-6" x1="1149.28" y1="604.6" x2="1022.26" y2="577.66" xlink:href="#linear-gradient-3"/><linearGradient id="linear-gradient-7" x1="703.86" y1="721" x2="894.09" y2="721" gradientUnits="userSpaceOnUse"><stop offset="0" stop-color="#fcff2f"/><stop offset="1" stop-color="#ff6e27"/></linearGradient><linearGradient id="linear-gradient-8" x1="553.79" y1="311.68" x2="855.56" y2="311.68" xlink:href="#linear-gradient-7"/><linearGradient id="linear-gradient-9" x1="537.71" y1="498.05" x2="876.01" y2="498.05" gradientTransform="matrix(1, 0, 0, 1, 0, 0)" xlink:href="#linear-gradient"/><linearGradient id="linear-gradient-10" x1="790.05" y1="280.35" x2="937.66" y2="202.34" gradientUnits="userSpaceOnUse"><stop offset="0" stop-color="#fcd02f"/><stop offset="1" stop-color="#ff6e27"/></linearGradient><linearGradient id="linear-gradient-11" x1="911.17" y1="526.57" x2="911.17" y2="792.63" xlink:href="#linear-gradient-10"/><linearGradient id="linear-gradient-12" x1="256.73" y1="422.99" x2="256.73" y2="794.83" xlink:href="#linear-gradient-10"/><linearGradient id="linear-gradient-13" x1="204.04" y1="372.05" x2="315.02" y2="777.73" gradientUnits="userSpaceOnUse"><stop offset="0" stop-color="#ff6e27"/><stop offset="1" stop-color="#fcd02f"/></linearGradient><linearGradient id="linear-gradient-14" x1="357.41" y1="610.67" x2="505.94" y2="462.14" gradientUnits="userSpaceOnUse"><stop offset="0" stop-color="#ff46ff"/><stop offset="1" stop-color="#f2a5c7"/></linearGradient><linearGradient id="linear-gradient-15" x1="459.44" y1="386.66" x2="605" y2="386.66" gradientUnits="userSpaceOnUse"><stop offset="0" stop-color="#0094ff"/><stop offset="1" stop-color="#a9ff15"/></linearGradient><linearGradient id="linear-gradient-16" x1="594.85" y1="79.69" x2="619.81" y2="79.69" gradientTransform="matrix(1, 0, 0, 1, 0, 0)" xlink:href="#linear-gradient"/><linearGradient id="linear-gradient-17" x1="1063.3" y1="-55.5" x2="1063.3" y2="-138.09" gradientTransform="translate(-92.66 238.57)" gradientUnits="userSpaceOnUse"><stop offset="0" stop-color="#ff9226"/><stop offset="1" stop-color="#fcd92f"/></linearGradient><linearGradient id="linear-gradient-18" x1="619.26" y1="2.53" x2="665.04" y2="48.31" gradientUnits="userSpaceOnUse"><stop offset="0" stop-color="#fff"/><stop offset="1" stop-color="#f284c7"/></linearGradient><linearGradient id="linear-gradient-19" x1="637.2" y1="88.66" x2="664.77" y2="31.96" gradientUnits="userSpaceOnUse"><stop offset="0" stop-color="#008fd3"/><stop offset="1" stop-color="#fff"/></linearGradient><linearGradient id="linear-gradient-20" x1="969.65" y1="537.38" x2="1008.92" y2="537.38" gradientUnits="userSpaceOnUse"><stop offset="0" stop-color="#0fa"/><stop offset="1" stop-color="#fff"/></linearGradient><linearGradient id="linear-gradient-21" x1="984.3" y1="505.88" x2="985.49" y2="520.95" gradientUnits="userSpaceOnUse"><stop offset="0"/><stop offset="1" stop-color="#a4ffff" stop-opacity="0"/></linearGradient><linearGradient id="linear-gradient-22" x1="995.35" y1="612.66" x2="995.35" y2="429.09" xlink:href="#linear-gradient-20"/><linearGradient id="linear-gradient-23" x1="1018.95" y1="501.36" x2="1018.95" y2="486.85" xlink:href="#linear-gradient-15"/><linearGradient id="linear-gradient-24" x1="972.79" y1="495.64" x2="972.79" y2="483.42" gradientUnits="userSpaceOnUse"><stop offset="0" stop-color="#008fd3"/><stop offset="1" stop-color="aqua"/></linearGradient><linearGradient id="linear-gradient-25" x1="995.87" y1="498" x2="995.87" y2="483.05" gradientUnits="userSpaceOnUse"><stop offset="0" stop-color="#ff6e27"/><stop offset="1" stop-color="#fcff2f"/></linearGradient></defs><title>05</title><g id="Layer_2" data-name="Layer 2"><g id="Layer_1-2" data-name="Layer 1"><rect class="cls-3" x="288.43" y="193.99" width="362" height="93.15" transform="translate(938.86 481.14) rotate(180)"/><rect class="cls-4" x="288.43" y="193.99" width="120.02" height="93.15" transform="translate(696.88 481.14) rotate(180)"/><path class="cls-5" d="M324.06,262l12.4-12.89a21,21,0,1,1,16.1,7.51,20.73,20.73,0,0,1-12.05-3.81l-12.5,13a2.72,2.72,0,0,1-3.87.08,2.74,2.74,0,0,1-.08-3.88Zm28.5-42a15.55,15.55,0,1,0,15.54,15.54A15.56,15.56,0,0,0,352.56,220Z"/><rect class="cls-3" x="689.57" y="155.13" width="308.62" height="308.62"/><rect class="cls-6" x="689.57" y="131.87" width="308.62" height="23.26"/><path class="cls-7" d="M998.19,155.13H793.25a182.5,182.5,0,0,0,204.94,177.5Z"/><rect class="cls-8" x="934.66" y="224.08" width="35.98" height="16.49"/><rect class="cls-8" x="786.96" y="212.5" width="62.06" height="14.32"/><rect class="cls-8" x="786.96" y="237.82" width="91.76" height="14.32"/><rect class="cls-8" x="934.66" y="305.71" width="35.98" height="16.49"/><rect class="cls-8" x="786.96" y="294.13" width="62.06" height="14.32"/><rect class="cls-8" x="786.96" y="319.45" width="91.76" height="14.32"/><rect class="cls-8" x="934.66" y="388.26" width="35.98" height="16.49"/><rect class="cls-8" x="786.96" y="376.68" width="62.06" height="14.32"/><rect class="cls-8" x="786.96" y="402" width="91.76" height="14.32"/><g class="cls-9"><circle class="cls-5" cx="733.94" cy="232.32" r="29.04" transform="translate(-34.6 187.71) rotate(-14.24)"/><path class="cls-10" d="M739.33,243.66a9,9,0,0,1-1.86-5.57.6.6,0,0,0-.74-.61.67.67,0,0,0-.15-.14c-1.81-1.14-4.14-.86-6.06-.17a.53.53,0,0,0-.31.33.43.43,0,0,0-.35.55c.59,2.52-.3,4.19-1.47,6.32a4.62,4.62,0,0,0-.47,3.63c.85,2.89,3.84,4.21,6.68,4.05s5.47-1.52,5.88-4.48A5.38,5.38,0,0,0,739.33,243.66Z"/><path class="cls-11" d="M744.4,226.24a16.71,16.71,0,0,0,0-3.93c-.82-6.48-9.46-5.78-14.2-5.75a5.09,5.09,0,0,0-5.33,4.15,20.72,20.72,0,0,0-.71,5.78,1.41,1.41,0,0,0-1.26.43,2.58,2.58,0,0,0-.44,2.06,2.29,2.29,0,0,0,1,1.79,1.51,1.51,0,0,0,1.11.17c0,.1,0,.21,0,.31a.67.67,0,0,0,.07.17,12.66,12.66,0,0,0,2.19,5.15c3,4.06,8.49,5.19,12.44,1.86a13.35,13.35,0,0,0,4-6.91c.06-.21.11-.43.17-.65a.36.36,0,0,0,.21,0C745.77,230.79,746.15,226.74,744.4,226.24Z"/><path class="cls-12" d="M748.46,219.77l0,0a.08.08,0,0,0,0,0c-1.57,1.84-.57-.12-.48-.64a7,7,0,0,0-.2-2.53c0-.14-.21-.09-.22,0-.27,2.24-2.64,2.42-4.2,1.43a19.15,19.15,0,0,1-1.89-1.43,1.27,1.27,0,0,0,.83-.67.14.14,0,0,0-.15-.2c-1.81.33-3.09-.72-4.77-1.11a9,9,0,0,0-3.27-.13,1.31,1.31,0,0,0,.14-1.12.14.14,0,0,0-.26,0c-.59,1-2.39.56-3.34.6a7.13,7.13,0,0,0-2.29.41c-.64.23-1.79.78-2.08,1.52a9.34,9.34,0,0,1-.48-1.64c0-.12-.19-.11-.25,0a3.33,3.33,0,0,0-.56,2.76,5,5,0,0,0-2.3,2.2.14.14,0,0,0,.19.19c.14-.07,1.21-.63,1.35-.26a5.19,5.19,0,0,1-.5.85,9.74,9.74,0,0,0-.62,1.66,19.1,19.1,0,0,0-.58,3.76.14.14,0,0,0,.26.07,2.26,2.26,0,0,1,.42-.59,3.73,3.73,0,0,0-.29,2l0,0c-.08.07,0,.21.11.15.4-.24.95-.69,1.34,0a2.69,2.69,0,0,1,.13.64,13.14,13.14,0,0,1,.15,1.65.12.12,0,0,0,.21.07c.31.06.72.16,1-.08s.11-.94.1-1.22-.33-2.21.17-.91a.1.1,0,0,0,.19,0,12,12,0,0,0,.21-3c0-.12,0-.24,0-.36a.18.18,0,0,0-.06-.16,11.66,11.66,0,0,0-.23-1.42,2.93,2.93,0,0,1,.45.88.12.12,0,0,0,.22,0,4.9,4.9,0,0,0,.31-2.17l.16.18a6,6,0,0,0,4,2.26.12.12,0,0,0,.11-.2,2.72,2.72,0,0,1-.46-.68c0-.14-.06-.28-.08-.42a12.42,12.42,0,0,0,10.52,3c.13,0,.1-.25,0-.24l-.54-.19a7.07,7.07,0,0,0,1.52.16,8.4,8.4,0,0,1-.17,2.4.15.15,0,0,0,.24.15l.26-.25a3.57,3.57,0,0,1-.26,1.28,2.42,2.42,0,0,0-.27,1,.53.53,0,0,0,.25.39l0,0a2.56,2.56,0,0,0,.95.24.13.13,0,0,0,.16-.12,16.42,16.42,0,0,1,.23-2.32,2.78,2.78,0,0,1,.16-.77c.52-.83.82-.35,1.29-.13a.07.07,0,0,0,.08-.11h0a.05.05,0,0,0,0,0,6.79,6.79,0,0,0-.27-2.24,5.62,5.62,0,0,0,3.7-4.46v0C748.76,219.83,748.57,219.64,748.46,219.77Z"/><path class="cls-13" d="M745.05,226.62h0"/><path class="cls-14" d="M753.26,264.44a.28.28,0,0,0,.06-.21c-.15-3.12-.48-6.24-.88-9.33a43.63,43.63,0,0,0-1.73-8.71.29.29,0,0,0-.38-.2l-.06,0c-2.27-.64-4.57-1.19-6.84-1.84-1.23-.35-3.51-1.61-4.73-1a.17.17,0,0,0-.1.12c-2.66,2.16-6.75,2.6-9.37.19h0l-.29-.39a.22.22,0,0,0-.33-.08,1.5,1.5,0,0,0-.56,0,1.48,1.48,0,0,0-.41.17,17.62,17.62,0,0,0-3.78,1.23c-2,.66-4,1.18-6,1.66a.28.28,0,0,0-.2.16.26.26,0,0,0-.11.07,1.52,1.52,0,0,0-.22.34,7.67,7.67,0,0,0-1.2,2.55c-.49,1.45-.95,2.93-1.36,4.41a30.56,30.56,0,0,0-1.3,8.7,7.16,7.16,0,0,0,.64,5.12,7.54,7.54,0,0,0,4.2,3c4.44,1.52,9.69,1.28,14.31,1.36,5,.08,10.11.41,15-.88C750.22,270.24,755.62,268.06,753.26,264.44Z"/></g><g class="cls-15"><circle class="cls-5" cx="733.94" cy="313.95" r="29.04" transform="translate(-58.41 216.91) rotate(-16.18)"/><path class="cls-16" d="M750.88,331.17a.16.16,0,0,0-.06-.16c-5-4.49-4.19-12.45-4.55-18.55-.28-4.68.05-11.26-3.72-14.78a.2.2,0,0,0-.13-.12l-.47-.39c-.07-.05-.14.06-.09.11l.16.2c-2.4-.47-5.13-.12-7.55-.11-3,0-6.09-.1-9.12.11a.12.12,0,0,0-.1.17c-3.14,4.18-2.8,10.44-3.39,15.37a47.56,47.56,0,0,1-1.89,9.23,33.62,33.62,0,0,1-4.06,7.77.24.24,0,0,0,0,.08l0,0a.21.21,0,0,0-.18.15.22.22,0,0,0,0,.08c-1,1.59,1.87,4.27,3,5.05a20.07,20.07,0,0,0,10.93,3.3,45.76,45.76,0,0,0,12.78-1.79,24.28,24.28,0,0,0,5.34-1.71,8.64,8.64,0,0,0,3.24-3.51.25.25,0,0,0,0-.14.14.14,0,0,0,0-.08.1.1,0,0,0,.06-.09A.26.26,0,0,0,750.88,331.17Z"/><path class="cls-10" d="M739.08,324.16a9,9,0,0,1-1.86-5.57.6.6,0,0,0-.74-.61.64.64,0,0,0-.15-.13c-1.81-1.15-4.14-.86-6.06-.17a.49.49,0,0,0-.31.33.41.41,0,0,0-.34.54c.58,2.52-.31,4.2-1.48,6.32-.63,1.14-2.35,1-2,2.25.85,2.89,5.35,5.6,8.19,5.44s6.4-3.61,6.8-6.57C741.36,324.5,739.91,325.37,739.08,324.16Z"/><path class="cls-11" d="M744.15,306.74a16.7,16.7,0,0,0,0-3.93c-.82-6.48-9.46-5.77-14.2-5.74a5.09,5.09,0,0,0-5.33,4.14,21.17,21.17,0,0,0-.71,5.79,1.4,1.4,0,0,0-1.26.42,2.58,2.58,0,0,0-.44,2.06,2.29,2.29,0,0,0,1,1.79,1.47,1.47,0,0,0,1.11.17c0,.11,0,.21,0,.32a.59.59,0,0,0,.07.16,12.75,12.75,0,0,0,2.19,5.16c3,4.05,8.49,5.19,12.44,1.85a13.36,13.36,0,0,0,4-6.9c.06-.22.11-.44.17-.66a.36.36,0,0,0,.21,0C745.52,311.29,745.9,307.25,744.15,306.74Z"/><path class="cls-16" d="M744.3,300.71a10.32,10.32,0,0,0-2.82-4.06c-2.64-2.46-6.63-3.08-10.12-2.63a8.4,8.4,0,0,0-7.13,5.23,15.17,15.17,0,0,0-.55,6.11c.14,2.06.27,4.15.56,6.19,0,0,0,.08,0,.12a.13.13,0,0,0,.06.14.11.11,0,0,0,.2-.05v-.05c.59-2.22,2.17-3.14,4.23-3.84s3.88-1.25,5.84-1.8,4.7-1.24,5.43-3.33a4.13,4.13,0,0,0,1.17,2,17.44,17.44,0,0,0,3,2c.14.09.26-.07.2-.2a.17.17,0,0,0,.09-.15C744.53,304.57,744.87,302.5,744.3,300.71Z"/><path class="cls-17" d="M742,328.59a5.28,5.28,0,0,0-2.31-3.6c-.09-.06,0-.21-.06-.17s-.18,0-.18.09c-.07,6-11,6.71-11.59.74-.41-.14-.19.16-.19.16s.07-.11,0-.16-.49,0-.51.18c-4.2,5.88,1,14.73,8.42,14,3.15-.31,6.37-2.49,6.9-5.77A14.57,14.57,0,0,0,742,328.59Z"/><path class="cls-18" d="M753.45,346.2a.26.26,0,0,0,0-.2A112.73,112.73,0,0,0,749.91,331c-.62-1.84-1.59-2.51-3.28-3.37a27,27,0,0,0-6.45-2.78.12.12,0,0,0-.1,0c-.1-.05-.43-.28-.49-.14-.88,1.91-1.72,4-2.64,5.9a30.45,30.45,0,0,1-3.37,5.58c-1.11-1.71-2.19-3.43-3.14-5.23s-1.54-3.9-2.68-5.47a.07.07,0,0,0,0-.07l0-.06s-.08,0-.08,0v0c-2,.24-4,1.33-5.79,2.11s-3.06,1-3.68,2.77a101,101,0,0,0-3.85,14.07.23.23,0,0,0,.23.28c2.4,2.48,5.42,3.45,8.76,4.09a63.87,63.87,0,0,0,21.66.41q2.88-.45,5.72-1.14c1.06-.27,2.19-.42,2.81-1.4A.35.35,0,0,0,753.45,346.2Z"/></g><g class="cls-19"><circle class="cls-5" cx="733.94" cy="396.5" r="28.89" transform="translate(74.52 907.43) rotate(-66.15)"/><path class="cls-10" d="M739,407.59A9,9,0,0,1,737.1,402a.6.6,0,0,0-.73-.61,1.12,1.12,0,0,0-.16-.13c-1.79-1.14-4.11-.85-6-.17a.54.54,0,0,0-.3.33.41.41,0,0,0-.34.54c.58,2.51-.31,4.17-1.47,6.29a4.61,4.61,0,0,0-.47,3.61c.85,2.87,3.82,4.19,6.64,4s5.45-1.51,5.85-4.46A5.34,5.34,0,0,0,739,407.59Z"/><path class="cls-11" d="M744,390.25a16.54,16.54,0,0,0,0-3.91c-.82-6.44-9.42-5.74-14.13-5.71a5.06,5.06,0,0,0-5.3,4.12,21,21,0,0,0-.71,5.76,1.38,1.38,0,0,0-1.25.42,2.55,2.55,0,0,0-.44,2.05,2.29,2.29,0,0,0,1,1.78,1.46,1.46,0,0,0,1.09.17c0,.1,0,.21,0,.31a.34.34,0,0,0,.07.16,12.56,12.56,0,0,0,2.18,5.13c3,4,8.44,5.17,12.37,1.85a13.31,13.31,0,0,0,4-6.87c.06-.21.11-.43.17-.65a.36.36,0,0,0,.21,0C745.36,394.78,745.73,390.76,744,390.25Z"/><path class="cls-20" d="M744.88,390.66l0-.06c.18-2.53.31-5.2-.73-7.59a8,8,0,0,0-4.79-4.14,18.45,18.45,0,0,0-8.37-1.33c-1.84.19-4.07,1-4.47,3.06-4.58-.3-3.92,6.18-3.82,9.47,0,.14-.06.28-.08.42a.24.24,0,0,0,.09.22v.15h0l0,0c0,.06,0,.13.1.08a.9.9,0,0,1,1.42.37,4.35,4.35,0,0,1,.14,1.61.08.08,0,0,0,.08.08.11.11,0,0,0,.12.06A3.18,3.18,0,0,1,725,393a1,1,0,0,0,.36,0,.1.1,0,0,0,0-.1.06.06,0,0,0,.1-.06c.08-1.41,1.21-2.07,2-3.05a8.34,8.34,0,0,0,1.1-1.81,7.84,7.84,0,0,0,.57-1.88c.63,1.27,2.45,2.05,3.71,2.54a12.3,12.3,0,0,0,4.28.84,9,9,0,0,1,4,.69h0l.13.07a3.07,3.07,0,0,1,1.2,1.33c0,.16,0,.32,0,.49a2.45,2.45,0,0,0,0,.27.09.09,0,0,0,0,.15h0l0,0a.11.11,0,0,0,.13,0,.85.85,0,0,0,.54,0l0,0a.1.1,0,0,0,.16-.08,3.55,3.55,0,0,1,.16-1.34.76.76,0,0,1,.44-.5c.28-.07.45.12.55.34,0,.05.09,0,.1,0a.13.13,0,0,0,0-.06l.07.05c.14.09.26-.13.13-.22Z"/><path class="cls-21" d="M732.43,408.5h0"/><path class="cls-17" d="M739.69,408.69a.28.28,0,0,0,0-.09,2.63,2.63,0,0,0-.46-.77,4,4,0,0,0-.61-.68.17.17,0,0,0-.14,0,.23.23,0,0,0-.39-.1,4.92,4.92,0,0,1-2.16,1.35.23.23,0,0,0-.29-.09,6,6,0,0,1-2.06.41,12,12,0,0,0-1.68-.11h0a7.15,7.15,0,0,1-1.36-.35c-.63-.25-1.09-.72-1.68-1a.22.22,0,0,0-.4-.14,14.22,14.22,0,0,0-2.1,12.45c1.17,3.93,4.42,7.35,8.81,6.87,4.13-.46,6.29-4,6.83-7.79A13.57,13.57,0,0,0,739.69,408.69Z"/><path class="cls-22" d="M731.72,408.35c-.69-.09-2.57-.59-3-1.42a.42.42,0,0,0,0-.1.24.24,0,0,1,0-.08.14.14,0,0,0-.21-.08.22.22,0,0,0-.2.09c-.86,1.06-1.5,1.64-.7,3a10.06,10.06,0,0,0,2.91,3,.27.27,0,0,0,.4-.23,7.52,7.52,0,0,1,1-3.79A.24.24,0,0,0,731.72,408.35Z"/><path class="cls-22" d="M738.76,406.79l-.07,0a.26.26,0,0,0-.44-.12,6.6,6.6,0,0,1-2.58,1.48.19.19,0,0,0-.12.28.16.16,0,0,0,0,.13,4.42,4.42,0,0,1,.72,3.23c0,.18.13.41.33.33C738.45,411.37,740.77,408.49,738.76,406.79Z"/><path class="cls-23" d="M737.32,422.65c-.82-3.85-1.43-7.83-2.59-11.6a.18.18,0,0,0,.15-.13,5.05,5.05,0,0,0,.45-2.36.2.2,0,0,0-.17-.33h-.09a3.39,3.39,0,0,1-.44.08,7.86,7.86,0,0,1-.83.05,6.42,6.42,0,0,1-.87-.09.16.16,0,0,0-.17.06l-.33,0a.07.07,0,0,0-.08.08.17.17,0,0,0-.05.15,8.49,8.49,0,0,0,.38,1.21,5,5,0,0,0,.43,1.07.1.1,0,0,0,0,.05.08.08,0,0,0,.05.08l0,0v0a113.59,113.59,0,0,0-1.44,11.5.17.17,0,0,0,.11.18c.38,2.67,4.71,3,5.33.27v0A.24.24,0,0,0,737.32,422.65Z"/><path class="cls-24" d="M751.68,428.33l0-.12a.11.11,0,0,0,0,0,60,60,0,0,0-3.53-12.83,10,10,0,0,0-2.84-4.32,20.35,20.35,0,0,0-5.52-2.48.16.16,0,0,0-.14.05.1.1,0,0,0-.13.05,16.74,16.74,0,0,1-2.79,4.29c-1,1.32-2,2.63-3,4-2.25-2.51-4.85-5-6.48-7.9a57262769046.77,57262769046.77,0,0,0-.08-.12c0-.05-.08,0-.1,0l-.05,0c-3.27,1.47-6.61,3.31-7.84,6.86a38,38,0,0,0-1.26,6l-1.17,6.68c-.19-.12-.38-.24-.56-.37s-.31.12-.19.24.49.43.74.63a.23.23,0,0,0,.12.1c4.48,3.46,11.21,3.8,16.61,3.75a54,54,0,0,0,10.22-1.07c2.56-.51,5.88-.95,7.69-3A.27.27,0,0,0,751.68,428.33Z"/><path class="cls-25" d="M739.88,408.57c0-.18-.34-.1-.28.08.46,1.55.51,3.32,1.09,4.81h0c-.87.3-1.77.49-2.64.77a.16.16,0,0,0-.22.15c.07,1.35.11,2.74.3,4.08a.17.17,0,0,0-.06.06c-1.31,2.28-2.52,4.68-3.75,7-.1-2.89-.26-5.79-.44-8.66a.11.11,0,0,0-.22,0c0,2.82.07,5.66.14,8.5A41.3,41.3,0,0,0,729,418a11.65,11.65,0,0,0,.11-4.16.09.09,0,0,0-.09-.07.15.15,0,0,0-.12-.08c-.55-.07-1.11-.12-1.65-.24s-.76-.21-1.15-.26c.32-.81.53-1.67.77-2.5.14-.49.55-1.24.37-1.74a.1.1,0,0,0-.2,0,11.12,11.12,0,0,1-.62,2.09,21.62,21.62,0,0,0-.61,2.19.12.12,0,0,0,.09.15,7.3,7.3,0,0,0,3,.58h0a34.57,34.57,0,0,0-.21,4.07.13.13,0,0,0,.12.14c1.63,2.67,3.43,5.22,5,7.92h0c.06,2.34.16,4.68.32,7a.14.14,0,1,0,.27,0c0-2.35,0-4.72-.08-7.09h0a41.23,41.23,0,0,0,4-7.4.18.18,0,0,0,0-.06.12.12,0,0,0,0-.08,32,32,0,0,0-.22-4,10.62,10.62,0,0,0,2.6-.75.14.14,0,0,0,.09-.16s0,0,0,0C741,411.94,740.29,410.1,739.88,408.57Z"/></g><rect class="cls-26" y="766.03" width="1425.51" height="11.43"/><polygon class="cls-2" points="1002.53 603.94 1020.58 611.47 1021.78 620.45 1001.69 614.86 1002.53 603.94"/><path class="cls-27" d="M1052,633a8.56,8.56,0,0,1-1.81-.19L1011.85,625l3.63-17.92,29,5.87,7.58-48.61,18.07,2.82-9,58.06a9.14,9.14,0,0,1-9,7.74Z"/><path class="cls-28" d="M1068.16,826.09c-.18-1,.57-26.22.57-26.22l-13.39.13-.73,26.24Z"/><path class="cls-29" d="M1031.88,832.07l37.36-.19-.11-11.46-25.8.13a11.49,11.49,0,0,0-11.45,11.52Z"/><path class="cls-28" d="M1177.48,801.11c-.75-.69-15.5-21.14-15.5-21.14l-10.54,8.24,15.38,21.27Z"/><path class="cls-29" d="M1152.35,827.94l29.52-22.89-7.07-9-20.38,15.81a11.47,11.47,0,0,0-2.07,16.11Z"/><path class="cls-30" d="M1122.72,706l-7.35-76.95-27.32,3.9-32.82-3.9c-.73,14.74-1.74,26.16-2.79,40.86-.48,7.36-1.14,14.7-1.71,22.05L1049,714l-.09,1.06v.37l.23,23.11c.05,7.7.2,15.41.16,23.11,0,15.4,0,30.8-.29,46.2l25.15.46c.26-15.4.81-30.79,1.39-46.18.24-7.7.67-15.4,1-23.09l1-21.92,3.4-21.57c1.16-7.27,2.24-14.56,3.5-21.82.34-2,.67-4,1-5.86l9.11,45,.21,1.1a12.84,12.84,0,0,0,2,4.75l54.47,79.72,21-13.81Z"/><path class="cls-31" d="M1106,557.49h-46.66a7.43,7.43,0,0,0-7.43,7.67l1.79,61.4a7.44,7.44,0,0,0,7.44,7.21H1108a7.45,7.45,0,0,0,7.44-7.1l2.45-56.78A11.85,11.85,0,0,0,1106,557.49Z"/><polygon class="cls-2" points="1073.65 546.33 1073.65 561.68 1086.27 558.74 1084.05 545.05 1073.65 546.33"/><path class="cls-2" d="M1060.24,529.14l3.41-1.21,1.61,4.5L1062,533l-2.09-1.47A1.36,1.36,0,0,1,1060.24,529.14Z"/><path class="cls-2" d="M1061.76,536.19a14.43,14.43,0,1,0,11.76-16.69A14.44,14.44,0,0,0,1061.76,536.19Z"/><g class="cls-32"><path class="cls-33" d="M1077.29,515.56s-8,23.9,14.18,23.91c6.32,0,3.62-12.88,3.62-12.88Z"/><rect class="cls-33" x="1061.89" y="516.8" width="16.99" height="8.34" transform="translate(156.22 -241.55) rotate(13.88)"/></g><path class="cls-2" d="M1078,535.93a4,4,0,1,0,3.29-4.67A4,4,0,0,0,1078,535.93Z"/><path class="cls-33" d="M1099.75,529.24a14.29,14.29,0,1,0-18.83-7.32A14.29,14.29,0,0,0,1099.75,529.24Z"/><path class="cls-2" d="M1092.8,557.47l-26.19,0s1.32,9.76,13.17,9.76S1092.8,557.47,1092.8,557.47Z"/><path class="cls-2" d="M1023.36,600.6a8.09,8.09,0,1,0,2.28-11.22A8.1,8.1,0,0,0,1023.36,600.6Z"/><polygon class="cls-2" points="1031.87 591.57 1048.33 602.13 1047.94 611.18 1029.14 602.17 1031.87 591.57"/><path class="cls-2" d="M1033.31,595a2.39,2.39,0,0,1-.9-.17l-11-4.33-6.06-.59a2.46,2.46,0,0,1-2.21-2.7,2.42,2.42,0,0,1,2.69-2.21l6.41.62a3,3,0,0,1,.66.16l11.3,4.46a2.47,2.47,0,0,1-.91,4.76Z"/><path class="cls-34" d="M1026.55,610.07l-29.37-28.69a2.45,2.45,0,0,0-1.88-.7l-19.85,1.21a.89.89,0,0,0-.56,1.52l27.86,27.13a3.25,3.25,0,0,0,2.28.93l20.9.12A.89.89,0,0,0,1026.55,610.07Z"/><path class="cls-2" d="M996.32,612.31a8.09,8.09,0,1,0,.29-11.44A8.1,8.1,0,0,0,996.32,612.31Z"/><path class="cls-35" d="M1097,631a9.21,9.21,0,0,1-3.52-.7l-58.12-17.65,7-16.88,47.73,13.32,9-43.21a9.15,9.15,0,0,1,10.69-7.27h0a9.14,9.14,0,0,1,7.27,10.7L1106,623.53a9.14,9.14,0,0,1-4.66,6.34A9,9,0,0,1,1097,631Z"/><path class="cls-36" d="M811.17,862.42l-6.76-217.2c0-1.55-.14-3.12-.31-4.69a71.59,71.59,0,0,0-5.3-20.18,70.73,70.73,0,0,0-13.34-20.88l-1.74-72-59.29,25.11,1.74,72a70.5,70.5,0,0,1,13.33,20.88,71.53,71.53,0,0,1,5.31,20.18c.16,1.57.27,3.14.3,4.69l6.77,217.2c.33,14-4.67,23.7-12.55,27l59.3-25.11C806.51,886.13,811.51,876.39,811.17,862.42Z"/><path class="cls-37" d="M808.78,512.71a129.65,129.65,0,0,1-37.68-12.08,191.26,191.26,0,0,1-34.89-22.2C697.6,447.89,664.05,400.77,641.77,348c-13.92-32.93-23.44-68-27.06-102.69q-1.25-12-1.54-23.78c-1.71-70.81,23.65-120.16,63.59-137.07l-59.29,25.1c-40,16.92-65.31,66.27-63.6,137.07q.28,11.82,1.55,23.78c3.62,34.65,13.14,69.77,27.05,102.7,22.29,52.74,55.84,99.87,94.45,130.4a191.6,191.6,0,0,0,34.88,22.21,130,130,0,0,0,37.69,12.08c17,2.5,32.79.55,46.77-5.37l59.3-25.11C841.57,513.26,825.8,515.21,808.78,512.71Z"/><g class="cls-38"><path class="cls-39" d="M875.92,403.18c-3-124.94-81.14-263-174.52-308.39S534.79,113.91,537.8,238.84c2.89,119.5,74.47,251,162.38,301.91l1.74,72c-10.47,1.1-17.56,11.68-17.16,28.21l6.76,217.2c.54,22.3,14.5,46.95,31.16,55s29.74-3.41,29.2-25.72l-6.77-217.2c-.39-16.53-8.15-34.33-18.94-45.75l-1.74-72C812,586.86,878.81,522.67,875.92,403.18ZM711.8,525.74c-84.49-41.07-155.2-166-157.93-279.09s63.56-171.42,148-130.35,155.21,166,157.94,279.07S796.3,566.8,711.8,525.74Z"/></g><path class="cls-40" d="M935.22,378.07q-.32-13.06-1.71-26.28c-4-38.28-14.52-77.08-29.9-113.47C879,180,841.92,128,799.25,94.23a211,211,0,0,0-38.56-24.54,142.81,142.81,0,0,0-41.64-13.35c-18.81-2.76-36.23-.61-51.68,5.93l-59.3,25.11c15.45-6.55,32.88-8.7,51.69-5.93C673,83.39,687,87.78,701.4,94.79A212.73,212.73,0,0,1,740,119.33c42.66,33.75,79.74,85.82,104.36,144.1,15.38,36.39,25.9,75.19,29.9,113.47q1.38,13.2,1.7,26.28c1.89,78.24-26.12,132.77-70.26,151.46L865,529.53C909.09,510.84,937.11,456.31,935.22,378.07Z"/><path class="cls-41" d="M880.94,704.84h-.06c7.48-7.81,4-16.44,2.61-19.07h0c-.26-.5-.45-.81-.45-.81l.07,0a31.39,31.39,0,0,1,5.81-36.48c5.23-6.93,1.27-16.14,1.27-16.14h0a22.27,22.27,0,1,1,42,0h0s-4,9.21,1.27,16.14A31.42,31.42,0,0,1,939.25,685h0l-.1.16c-.18.35-.36.7-.55,1-1.4,2.89-4.09,10.6,2.07,17.83l.57.67.15.19h0a38.76,38.76,0,1,1-60.47,0Z"/><path class="cls-42" d="M899.78,725.76l9.49,9.39v-33l-11.66-11.54a1.54,1.54,0,1,1,2.17-2.19l9.49,9.4V652.29a1.54,1.54,0,0,1,3.08,0v27.43l9.24-9.18a1.52,1.52,0,0,1,2.17,0,1.55,1.55,0,0,1,0,2.18l-11.41,11.34v33.15l10.21-10.31a1.54,1.54,0,0,1,2.19,2.16l-12.4,12.52v87.94a1.54,1.54,0,0,1-3.08,0v-70L897.61,728a1.54,1.54,0,1,1,2.17-2.19Z"/><path class="cls-43" d="M953,811.62H890.47a.55.55,0,0,1-.54-.55.54.54,0,0,1,.54-.54H953a.54.54,0,0,1,.54.54A.55.55,0,0,1,953,811.62Z"/><path class="cls-44" d="M214.48,672.14h-.09c10.45-10.92,5.54-23,3.65-26.65h0c-.37-.71-.63-1.13-.63-1.13h.09a43.89,43.89,0,0,1,8.12-51c7.32-9.68,1.78-22.56,1.78-22.56h0a31.12,31.12,0,1,1,58.64,0h0s-5.54,12.88,1.78,22.56a43.88,43.88,0,0,1,8.12,51h0a2.32,2.32,0,0,0-.14.22c-.25.49-.5,1-.76,1.45-2,4-5.73,14.82,2.89,24.93.26.31.53.61.79.93l.22.26h0a54.17,54.17,0,1,1-84.5,0Z"/><path class="cls-42" d="M240.8,701.37l13.27,13.13V668.37l-16.29-16.12a2.15,2.15,0,1,1,3-3.06l13.27,13.13V598.69a2.16,2.16,0,0,1,4.31,0V637l12.9-12.83a2.15,2.15,0,0,1,3,3L258.38,643.1v46.33L272.64,675a2.15,2.15,0,1,1,3.06,3l-17.32,17.5v122.9a2.16,2.16,0,1,1-4.31,0V720.56l-16.29-16.13a2.15,2.15,0,1,1,3-3.06Z"/><path class="cls-43" d="M315.2,821.36H227.8a.75.75,0,0,1-.76-.75.76.76,0,0,1,.76-.76h87.4a.75.75,0,0,1,.75.76A.74.74,0,0,1,315.2,821.36Z"/><path class="cls-45" d="M277,724.28h0A12.86,12.86,0,0,0,279,709.05h0c-.21-.41-.36-.65-.36-.65h.06a25.07,25.07,0,0,1,4.64-29.13c4.18-5.54,1-12.9,1-12.9h0a17.79,17.79,0,1,1,33.53,0h0s-3.16,7.36,1,12.9a25.1,25.1,0,0,1,4.65,29.13h0l-.07.13c-.15.28-.29.56-.44.83a12.82,12.82,0,0,0,1.65,14.25l.46.53a1.58,1.58,0,0,0,.12.15h0a31,31,0,1,1-48.31,0Z"/><path class="cls-46" d="M292,741l7.59,7.51V722.12l-9.32-9.21a1.23,1.23,0,0,1,1.73-1.75l7.59,7.5V682.29a1.23,1.23,0,1,1,2.46,0v21.92l7.37-7.34a1.23,1.23,0,0,1,1.74,1.75l-9.11,9.06v26.48l8.15-8.24a1.23,1.23,0,0,1,1.75,1.73l-9.9,10v70.25a1.23,1.23,0,0,1-2.46,0V752l-9.32-9.22A1.23,1.23,0,0,1,292,741Z"/><path class="cls-43" d="M334.56,809.57H284.61a.43.43,0,1,1,0-.86h49.95a.43.43,0,1,1,0,.86Z"/><rect class="cls-47" x="221.56" y="753.79" width="320.06" height="3.95" transform="translate(-426.51 1008.28) rotate(-80.56)"/><rect class="cls-47" x="317.92" y="753.79" width="320.06" height="3.95" transform="translate(-345.95 1103.31) rotate(-80.56)"/><rect class="cls-47" x="395.79" y="663.02" width="97.21" height="3.95"/><rect class="cls-47" x="388.91" y="705.18" width="97.22" height="3.95"/><rect class="cls-47" x="382.02" y="747.33" width="97.21" height="3.95"/><rect class="cls-47" x="375.14" y="789.49" width="97.21" height="3.95"/><rect class="cls-47" x="368.26" y="831.64" width="97.21" height="3.95"/><rect class="cls-47" x="361.38" y="873.8" width="97.22" height="3.95"/><rect class="cls-48" x="531.3" y="595.73" width="3.95" height="320.06" transform="translate(-116.79 97.76) rotate(-9.45)"/><rect class="cls-48" x="434.95" y="595.73" width="3.95" height="320.06" transform="translate(-118.11 81.96) rotate(-9.45)"/><rect class="cls-48" x="421.87" y="663.02" width="97.21" height="3.95"/><rect class="cls-48" x="428.75" y="705.18" width="97.21" height="3.95"/><rect class="cls-48" x="435.64" y="747.33" width="97.21" height="3.95"/><rect class="cls-48" x="442.52" y="789.49" width="97.21" height="3.95"/><rect class="cls-48" x="449.4" y="831.64" width="97.21" height="3.95"/><rect class="cls-48" x="456.28" y="873.8" width="97.21" height="3.95"/><rect class="cls-49" x="396.34" y="592.99" width="118.56" height="11.86" transform="translate(911.24 1197.83) rotate(180)"/><path class="cls-50" d="M501.05,343.17c-.69,9.16,5.79,22.39,14.95,23.08s17.54-11.43,18.23-20.59a16.64,16.64,0,0,0-33.18-2.49Z"/><path class="cls-50" d="M598.47,322.45c.08,0,2.84-1.42,2.84-1.42l2.66,4.36,13.52-7.58,4.49,5L602.9,337.22,598.75,332l2.16-2.95-.88-3.23Z"/><path class="cls-50" d="M531.87,338.6a50.29,50.29,0,0,1,5.35-.41c1.28,0,3,.46,2.91,1.74a2.38,2.38,0,0,1-1.09,1.49c-1.67,1.32-3.45,2.7-5.56,3a5.9,5.9,0,0,1-4.89-1.73c-1.12-1.16-1.9-2.9-1.3-4.37A10.55,10.55,0,0,0,531.87,338.6Z"/><path class="cls-51" d="M514.07,365.89c-8.12-2.23-13.66-14.22-13-22.72a16.63,16.63,0,0,1,17.83-15.34,16.17,16.17,0,0,1,1.6.28,8.94,8.94,0,0,1,.27,4,15.68,15.68,0,0,1-8.56,10.81S512.22,363.21,514.07,365.89Z"/><polygon class="cls-52" points="490.95 518.9 499.63 444.1 501.64 442.53 499.94 441.43 500.46 436.98 491.99 436.27 460.72 415.99 423.79 476.21 370.8 473.8 362.66 496.54 367.27 498.52 372.97 483.59 431.82 497.08 467.69 469.06 472.58 518.55 469.79 592.94 498.62 592.94 500.17 587.4 480.41 584.77 490.95 518.9"/><circle class="cls-51" cx="497.03" cy="335.17" r="9.88"/><path class="cls-53" d="M598.49,329.86c-8.38,7.83-38.3,29.44-49.31,32.66l-23,6.75L500.68,372l-41.24,44.3,41.4,27.14,31.53-56.17,26.87-11.67c11-4.79,38.28-29.16,45.76-38.59Z"/><path class="cls-3" d="M618.78,96.05l-20.13.73a7.58,7.58,0,0,1-7.86-7.31l-.74-20.13a7.6,7.6,0,0,1,7.32-7.86l20.12-.74a7.61,7.61,0,0,1,7.87,7.32l.73,20.12a7.59,7.59,0,0,1-7.31,7.87Z"/><path class="cls-54" d="M618.94,66.2a.7.7,0,0,0-.54-.14l-14.87,2.48a.68.68,0,0,0-.56.7l.59,16.31a5.37,5.37,0,0,0-3.79-1.34A4.59,4.59,0,1,0,605,88.59l-.5-13.86L618,72.47l.3,8.15a5.32,5.32,0,0,0-3.74-1.32,4.59,4.59,0,1,0,5.21,4.38l-.62-17a.71.71,0,0,0-.25-.5Z"/><rect class="cls-55" x="929.35" y="108.18" width="82.58" height="82.58" rx="16.37" ry="16.37" transform="translate(5.96 333.54) rotate(-19.56)"/><text class="cls-56" transform="matrix(0.94, -0.33, 0.33, 0.94, 959.59, 186.29)">8</text><rect class="cls-47" x="930.19" y="108.58" width="8.69" height="19.8" rx="3.8" ry="3.8" transform="translate(14.25 319.66) rotate(-19.56)"/><rect class="cls-47" x="974.76" y="92.74" width="8.69" height="19.8" rx="3.8" ry="3.8" transform="translate(22.13 333.67) rotate(-19.56)"/><polygon class="cls-57" points="641.86 131.87 641.7 135.76 644.52 136.19 644.64 131.9 641.86 131.87"/><path class="cls-3" d="M644.52,136.19s-11.61-2.1-13.36-.62,13.58,2.7,13.58,2.7Z"/><polygon class="cls-57" points="633.41 110.6 635.41 113.95 638.01 112.76 635.75 109.11 633.41 110.6"/><path class="cls-3" d="M638,112.76s-10.87,4.6-11.52,6.8,12.84-5.18,12.84-5.18Z"/><path class="cls-3" d="M638.43,16.53c-4.58-2.82,1.27-5.25-4.11-5a5.77,5.77,0,0,1-3.55-.5c-1.32-.87-1.56-2.74-1.23-4.29A8.81,8.81,0,0,1,637.65,0c5.15-.14,9.63,4.31,14.78,4.05a25,25,0,0,0,5.7-1.45c5.49-1.64,12.56-.77,15.28,4.28.73,1.35,1.08,2.88,1.89,4.19,2.28,3.72,7.28,4.44,11,6.8a13.55,13.55,0,0,1,6,12.43,7.26,7.26,0,0,1-2.57,5.28s-5.55,7.08-18.1,0S638.43,16.53,638.43,16.53Z"/><path class="cls-58" d="M649,30c-2-2.22-31.94,30.63-38.34,34.09s-4.93,0-4.93,0l12.84-14.33,24.7-27.7Z"/><path class="cls-59" d="M645.18,17.57a15.73,15.73,0,0,1,16.63,1.79l.15.12c8.25,6.6,18.67,19.57,15.58,41.79L648.4,57.82s4.1-5-1.18-19.62c-2.91-8.06-5.47-15.59-5.47-15.59Z"/><path class="cls-58" d="M660.75,28.18s-2.47,26.18-12.35,29.64-27.66,3.45-27.66,3.45-1.37-1.82,17.54-6.34l2.46-.57s10.72-6.2,10.17-25.14a13.7,13.7,0,0,1,.14-2.56c.42-2.79,1.77-8.38,5.7-7.87C662,19.48,660.75,28.18,660.75,28.18Z"/><path class="cls-60" d="M677.54,61.27S655.31,88,650.87,95.85s-2.47,36-4,36.76-7.16,0-7.16,0l-.35-21.31-.24-11.16a41.61,41.61,0,0,1,2.71-15.69l6-15.78s-24.57,1.53-20.25,13.83C633.08,98,638,109.68,638,109.68l-4.94,2s-23.2-29.14-17.79-42,33.1-11.85,33.1-11.85Z"/><path class="cls-57" d="M629.51,10.51l3.92,8.27a3.68,3.68,0,0,0,4.92,1.75l1.09-.52,1.83,2.06a3.52,3.52,0,0,0,5,.3l.87-.77a4.07,4.07,0,0,0,.35-5.75L638.39,5.63Z"/><path class="cls-3" d="M643.78,17.63s-3.66.9-5.35-1.1c0,0,1.9-5-.06-5s-2.08,3.8-2.08,3.8-1.39-4-2.46-4.44c0,0-4.8,4.25-6.53.73,0,0,.26-2.39,3.13-5.24S639,5,639,5Z"/><path class="cls-58" d="M641.79,22.54s0,.19.28.39a2.49,2.49,0,0,0,1.22.46,8.84,8.84,0,0,0,1.9.06,2.88,2.88,0,0,0,1.13-.34,2.94,2.94,0,0,0,.94-.85,6.84,6.84,0,0,0,1.24-4,3.36,3.36,0,0,0-.34-1.7c-.08,0,.05.66,0,1.69A7.34,7.34,0,0,1,646.86,22a2.82,2.82,0,0,1-.78.73,2.66,2.66,0,0,1-1,.31,12.41,12.41,0,0,1-1.8,0,3,3,0,0,1-1.15-.26C641.94,22.64,641.82,22.51,641.79,22.54Z"/><path class="cls-58" d="M657.07,25.37a9.38,9.38,0,0,0,.72,1.31c.5.86,1.21,2.05,2.08,3.51a81,81,0,0,1,6,12,41.05,41.05,0,0,1,2,7.08,31.34,31.34,0,0,1,.55,6,27.47,27.47,0,0,1-.3,4,10.92,10.92,0,0,0-.2,1.48s.06-.12.13-.37a10.38,10.38,0,0,0,.27-1.08,24.1,24.1,0,0,0,.46-4.07,29.28,29.28,0,0,0-.45-6.06,40.12,40.12,0,0,0-2-7.18,70.08,70.08,0,0,0-6.19-12c-.91-1.47-1.68-2.63-2.22-3.43A8.21,8.21,0,0,0,657.07,25.37Z"/><path class="cls-3" d="M649.63,15.59a12.1,12.1,0,0,1-5.85,2c-3.1.1-5.1-13-5.1-13Z"/><path class="cls-61" d="M662.11,62.31a2.71,2.71,0,0,0-.19,1.37,8.55,8.55,0,0,0,.75,3.27,8.33,8.33,0,0,0,2,2.72c.64.58,1.11.82,1.15.77s-.35-.41-.9-1a10.46,10.46,0,0,1-2.59-5.76A6.11,6.11,0,0,0,662.11,62.31Z"/><path class="cls-61" d="M661.73,72.8a2.59,2.59,0,0,0-.45.48l-1.21,1.45c-1,1.27-2.53,3.12-4.26,5.49A63.83,63.83,0,0,0,650.35,89,41.92,41.92,0,0,0,648,94.6a41,41,0,0,0-1.51,6.38,163.72,163.72,0,0,0-1.89,22.83c0,2.93,0,5.3.09,6.94,0,.82.07,1.46.1,1.89a3,3,0,0,0,.07.65,2.82,2.82,0,0,0,0-.66v-1.88c0-1.64,0-4,.07-6.94a181.3,181.3,0,0,1,2-22.75,41.24,41.24,0,0,1,1.49-6.31,42.08,42.08,0,0,1,2.3-5.57,66.76,66.76,0,0,1,5.33-8.75c1.69-2.39,3.14-4.27,4.12-5.58l1.14-1.51A3.94,3.94,0,0,0,661.73,72.8Z"/><path class="cls-61" d="M648.68,65.57c-.15,0-.3.74-.62,1.6s-.68,1.53-.56,1.62.69-.5,1-1.44S648.81,65.57,648.68,65.57Z"/><path class="cls-61" d="M649.87,62.49c.12.09.89-.71,1.9-1.61s1.88-1.59,1.8-1.71a4.63,4.63,0,0,0-2.14,1.33A4.83,4.83,0,0,0,649.87,62.49Z"/><path class="cls-61" d="M644.72,67.7a4.26,4.26,0,0,0-.57-.32,16,16,0,0,0-1.75-.71,18.5,18.5,0,0,0-11.58-.07,11.66,11.66,0,0,0-4.76,2.81A7.55,7.55,0,0,0,624.42,72a11,11,0,0,0-.67,3.07,28.85,28.85,0,0,0-.08,3.23c0,1.08.05,2.19.16,3.31a23.44,23.44,0,0,0,1.55,6.35c.76,2,1.64,3.8,2.44,5.55l4.32,9.29c1.25,2.64,2.22,4.79,3,6.23.39.72.73,1.26,1,1.62a3.72,3.72,0,0,0,.4.52,3.33,3.33,0,0,0-.31-.58c-.22-.37-.52-.92-.88-1.65-.72-1.46-1.64-3.63-2.84-6.29s-2.64-5.82-4.22-9.33c-.79-1.76-1.66-3.59-2.4-5.54a22.66,22.66,0,0,1-1.51-6.22c-.11-1.1-.15-2.19-.17-3.27s0-2.14.07-3.17a10.84,10.84,0,0,1,.63-2.94,7,7,0,0,1,1.53-2.41A11.35,11.35,0,0,1,631,67a18.42,18.42,0,0,1,4.61-.91,19.16,19.16,0,0,1,6.77.77C643.89,67.34,644.7,67.75,644.72,67.7Z"/><polygon class="cls-62" points="1008.91 566.38 976.85 521.81 969.65 511.81 998.19 508.38 1000.67 521.81 1008.91 566.38"/><polygon class="cls-63" points="1000.67 521.81 976.85 521.81 969.65 511.81 998.19 508.38 1000.67 521.81"/><rect class="cls-64" x="954.83" y="431.54" width="81.04" height="81.04"/><ellipse class="cls-33" cx="1018.95" cy="465.76" rx="4.2" ry="3.67"/><path class="cls-33" d="M1017.9,465.76a3.72,3.72,0,0,1,2.62-3.4,4.7,4.7,0,0,0-1.57-.27,3.7,3.7,0,1,0,0,7.34,4.7,4.7,0,0,0,1.57-.27A3.71,3.71,0,0,1,1017.9,465.76Z"/><path class="cls-65" d="M1026.65,486.64l-3.39-1.69a2.1,2.1,0,0,1-1.16-1.88v-3.15h-6.3v3.15a2.12,2.12,0,0,1-1.16,1.88l-3.39,1.69a3.16,3.16,0,0,0-1.74,2.82v6.2a1,1,0,0,0,1,1h16.78a1,1,0,0,0,1.05-1v-6.2A3.16,3.16,0,0,0,1026.65,486.64Z"/><path class="cls-66" d="M1019,484.12a8.17,8.17,0,0,0,3.2-.65,2.57,2.57,0,0,1,0-.4v-3.15h-6.3v3.15a2.57,2.57,0,0,1,0,.4A8.17,8.17,0,0,0,1019,484.12Z"/><circle class="cls-33" cx="1018.95" cy="472.58" r="7.34"/><path class="cls-33" d="M1026.22,471.56a7.32,7.32,0,0,0-7.23-6.32,3.37,3.37,0,0,0-1.53,6.37,1.53,1.53,0,0,0,.28.12l3.66,6.62s1,.07,2,.1A7.34,7.34,0,0,0,1026.22,471.56Z"/><path class="cls-65" d="M1019,482h0a6.3,6.3,0,0,1-6.24-5.48,1,1,0,0,1,.56-1.09,8.57,8.57,0,0,0,1.85-1.25,6.08,6.08,0,0,0,1.44-1.89,1,1,0,0,1,1.18-.58,18.17,18.17,0,0,1,7.12,3.65,1,1,0,0,1,.36.85A6.28,6.28,0,0,1,1019,482Z"/><path class="cls-67" d="M1024.86,475.38a18.17,18.17,0,0,0-7.12-3.65,1,1,0,0,0-1.18.58,6.16,6.16,0,0,1-1,1.4h0a4.39,4.39,0,0,1-.48.49,8.57,8.57,0,0,1-1.85,1.25,1,1,0,0,0-.56,1.09,6.28,6.28,0,0,0,5.28,5.39,4.57,4.57,0,0,1-2.19-4.11v-1.49a9,9,0,0,0,.72-.57A8.43,8.43,0,0,0,1018,474a15.72,15.72,0,0,1,5.47,3c.2.17.69.63,1.27,1.17a6.14,6.14,0,0,0,.46-1.91A1,1,0,0,0,1024.86,475.38Z"/><path class="cls-68" d="M1028.28,488.69a.94.94,0,0,0,0-.16,3,3,0,0,0-.28-.63l-.12-.19-.09-.14h0a3.17,3.17,0,0,0-1.08-.94l-2.42-1.21a6.28,6.28,0,0,1-10.56,0l-2.42,1.21a3.16,3.16,0,0,0-1.74,2.82v6.2a1,1,0,0,0,1,1h16.78a1,1,0,0,0,1.05-1v-6.2A2.81,2.81,0,0,0,1028.28,488.69Z"/><path class="cls-33" d="M965.45,469.43v.74a8.5,8.5,0,0,0,.43,2.65l1.67,5h3.15V466.29h-2.1A3.15,3.15,0,0,0,965.45,469.43Z"/><path class="cls-33" d="M979.81,471.61,978,477.83l-8.39-7.35a2.1,2.1,0,0,1-2.1-2.1h0a3.15,3.15,0,0,1,3.15-3.14H978a2.1,2.1,0,0,1,2.1,2.1v2A8.15,8.15,0,0,1,979.81,471.61Z"/><path class="cls-69" d="M981,485l-5.06-1.44-3.15,2.08-3.14-2.08L964.59,485a3.16,3.16,0,0,0-2.13,2.07s0,.06,0,.09a2.22,2.22,0,0,0-.09.37,2.74,2.74,0,0,0,0,.5v7.67a1,1,0,0,0,1,1h18.89a1,1,0,0,0,1-1V488A3.15,3.15,0,0,0,981,485Z"/><rect class="cls-65" x="969.65" y="480.97" width="6.29" height="4.64"/><path class="cls-70" d="M969.65,482.9a8.29,8.29,0,0,0,6.29,0V481h-6.29Z"/><polygon class="cls-5" points="973.84 496.71 971.75 496.71 972.27 485.62 973.32 485.62 973.84 496.71"/><path class="cls-65" d="M972.79,482h0a6.29,6.29,0,0,1-6.29-6.29V474.5a2.1,2.1,0,0,1,.62-1.49l1.9-1.9a2.06,2.06,0,0,1,1.52-.61c3.35.1,6.32.82,7.94,2.4a2.09,2.09,0,0,1,.61,1.49v1.34A6.3,6.3,0,0,1,972.79,482Z"/><path class="cls-67" d="M969.65,474.76a2.1,2.1,0,0,1,2.22-2.1,22.21,22.21,0,0,1,7.19,1.42,2,2,0,0,0-.58-1.18c-1.62-1.58-4.59-2.3-7.94-2.4h0a2.06,2.06,0,0,0-1.52.61l-1.9,1.9a2.1,2.1,0,0,0-.62,1.49v1.23a6.29,6.29,0,0,0,4.55,6,6.27,6.27,0,0,1-1.4-3.94Z"/><path class="cls-5" d="M973.32,487.71h-1.05a.52.52,0,0,1-.52-.52v-1.58h2.09v1.58A.52.52,0,0,1,973.32,487.71Z"/><path class="cls-5" d="M972.79,485.6,971,487a.64.64,0,0,1-.94-.19l-1.59-2.92.64-1a.43.43,0,0,1,.64-.07Z"/><path class="cls-5" d="M972.79,485.6l1.78,1.36a.64.64,0,0,0,.94-.19l1.59-2.92-.64-1a.43.43,0,0,0-.64-.07Z"/><path class="cls-34" d="M995.87,484.12a35.49,35.49,0,0,0,15-3.83,1.06,1.06,0,0,0,.57-1.11c-.33-1.94-1.21-7.77-2-18.14-.62-8.43-6.11-13.63-13.64-13.63s-13,5.2-13.63,13.63c-.77,10.37-1.65,16.2-2,18.14a1,1,0,0,0,.56,1.11A35.54,35.54,0,0,0,995.87,484.12Z"/><path class="cls-34" d="M1010.91,480.29a1.06,1.06,0,0,0,.57-1.11c-.33-1.94-1.21-7.77-2-18.14-.62-8.43-6.11-13.63-13.64-13.63-.53,0-1,0-1.55.07-5.86.59-6.74,8.86-1.11,10.58l.14,0,2.1,26h0A35.33,35.33,0,0,0,1010.91,480.29Z"/><path class="cls-65" d="M978,495.66V490a4.2,4.2,0,0,1,2.5-3.84l8.84-3.9a2.1,2.1,0,0,0,1.25-1.92v-4.61h10.49v4.61a2.1,2.1,0,0,0,1.25,1.92l8.83,3.9a4.2,4.2,0,0,1,2.5,3.84v5.66a1,1,0,0,1-1.05,1H979.09A1,1,0,0,1,978,495.66Z"/><path class="cls-70" d="M990.63,478.77a12.54,12.54,0,0,0,10.49,0v-3H990.63v3Z"/><path class="cls-65" d="M1005.3,463.14c-1.68-1.46-5.46-4.05-11.95-5a2.1,2.1,0,0,0-2.2,1.13,14.46,14.46,0,0,1-4.89,5.45,2.06,2.06,0,0,0-.88,1.7v.6a10.73,10.73,0,0,0,9.79,10.82,10.49,10.49,0,0,0,11.19-10.46V465.5A3.11,3.11,0,0,0,1005.3,463.14Z"/><path class="cls-67" d="M1005.89,463.86a3.1,3.1,0,0,0-.59-.72c-1.68-1.46-5.46-4.05-11.95-5a2.1,2.1,0,0,0-2.2,1.13c-.16.32-.38.71-.63,1.11a14.94,14.94,0,0,1-4.25,4.33,2.07,2.07,0,0,0-.89,1.71v.6a10.76,10.76,0,0,0,9.22,10.76,10.45,10.45,0,0,1-2.92-7.26v-6.59a2.09,2.09,0,0,1,1.88-2.09A24,24,0,0,1,1005.89,463.86Z"/><path class="cls-71" d="M1013.7,490a4.81,4.81,0,0,0-.09-.85,1,1,0,0,1,0-.17,4.46,4.46,0,0,0-.28-.8h0a4.41,4.41,0,0,0-.47-.74.1.1,0,0,0,0-.05,4.12,4.12,0,0,0-1.57-1.22l-6.51-2.88a9.43,9.43,0,0,1-17.63,0l-6.52,2.88a4.12,4.12,0,0,0-1.57,1.22l0,.05a4.41,4.41,0,0,0-.47.74h0a4.49,4.49,0,0,0-.29.8l0,.17a4,4,0,0,0-.1.85v5.66a1,1,0,0,0,1.05,1h33.57a1,1,0,0,0,1-1V490Z"/></g></g></svg>