<?xml version="1.0" encoding="utf-8"?>
<!-- Generator: Adobe Illustrator 22.1.0, SVG Export Plug-In . SVG Version: 6.00 Build 0)  -->
<svg version="1.1" id="Layer_1" xmlns="http://www.w3.org/2000/svg" xmlns:xlink="http://www.w3.org/1999/xlink" x="0px" y="0px"
	 viewBox="0 0 1920 1080" style="enable-background:new 0 0 1920 1080;" xml:space="preserve">
<style type="text/css">
	.st0{fill:url(#SVGID_1_);}
	.st1{fill:#0091C8;}
	.st2{fill:url(#SVGID_2_);}
	.st3{fill:url(#SVGID_3_);}
	.st4{fill:#3F4F52;}
	.st5{fill:url(#SVGID_4_);}
	.st6{opacity:0.35;}
	.st7{fill:none;stroke:url(#SVGID_5_);stroke-width:4;stroke-miterlimit:10;}
	.st8{fill:none;stroke:url(#SVGID_6_);stroke-width:4;stroke-miterlimit:10;stroke-dasharray:6.1508,6.1508;}
	.st9{fill:none;stroke:url(#SVGID_7_);stroke-width:4;stroke-miterlimit:10;}
	.st10{fill:none;stroke:url(#SVGID_8_);stroke-width:4;stroke-miterlimit:10;stroke-dasharray:6.0761,6.0761;}
	.st11{fill:none;stroke:url(#SVGID_9_);stroke-width:4;stroke-miterlimit:10;}
	.st12{fill:none;stroke:url(#SVGID_10_);stroke-width:4;stroke-miterlimit:10;stroke-dasharray:6.1508,6.1508;}
	.st13{fill:none;stroke:url(#SVGID_11_);stroke-width:4;stroke-miterlimit:10;}
	.st14{fill:none;stroke:url(#SVGID_12_);stroke-width:4;stroke-miterlimit:10;stroke-dasharray:6.0761,6.0761;}
	.st15{fill:url(#SVGID_13_);}
	.st16{opacity:0.44;fill:#FFF8E8;}
	.st17{fill:url(#SVGID_14_);}
	.st18{fill:#D77728;}
	.st19{opacity:0.29;fill:#E56E3E;}
	.st20{fill:url(#SVGID_15_);}
	.st21{fill:url(#SVGID_16_);}
	.st22{fill:url(#SVGID_17_);}
	.st23{fill:#E5AD37;}
	.st24{fill:#232828;}
	.st25{fill:#FDB62E;}
	.st26{fill:none;stroke:#010101;stroke-width:40.29;stroke-linecap:round;stroke-linejoin:round;stroke-miterlimit:10;}
	.st27{fill:url(#SVGID_18_);}
	.st28{fill:url(#SVGID_19_);}
	.st29{fill:#F9B49F;}
	.st30{fill:url(#SVGID_20_);}
	.st31{fill:#FBB57E;}
	.st32{fill:url(#SVGID_21_);}
	.st33{fill:#FFFFFF;}
	.st34{fill:#272626;}
</style>
<linearGradient id="SVGID_1_" gradientUnits="userSpaceOnUse" x1="10.8896" y1="719.991" x2="1905.9176" y2="719.991">
	<stop  offset="0" style="stop-color:#F7952F;stop-opacity:0"/>
	<stop  offset="0.5" style="stop-color:#F6C812"/>
	<stop  offset="1" style="stop-color:#F7952F;stop-opacity:0"/>
</linearGradient>
<rect x="14.9" y="712.4" class="st0" width="1890.2" height="15.2"/>
<path class="st1" d="M578,581.5c0,0,59.1,11.2,62.4,61.4l9.3,91.1H631c0,0-36.2-91.4-38.2-105.4L530,616.1L578,581.5z"/>
<path class="st1" d="M532.5,609.7c0,0,14.3,84.7-30.8,153.1l-19.4,30.5h-14.5l20.5-107l1.8-69L532.5,609.7z"/>
<g>
	<linearGradient id="SVGID_2_" gradientUnits="userSpaceOnUse" x1="1021.5695" y1="563.8626" x2="1117.5652" y2="563.8626">
		<stop  offset="0" style="stop-color:#178FCF"/>
		<stop  offset="0.5" style="stop-color:#32C5F4"/>
		<stop  offset="1" style="stop-color:#178FCF"/>
	</linearGradient>
	<polygon class="st2" points="1021.6,481.4 1037.8,545.4 1095.4,659 1117.6,659 1073.3,544.9 1079.8,468.7 	"/>
	<linearGradient id="SVGID_3_" gradientUnits="userSpaceOnUse" x1="967.9557" y1="568.6236" x2="1033.913" y2="568.6236">
		<stop  offset="0" style="stop-color:#178FCF"/>
		<stop  offset="0.5" style="stop-color:#32C5F4"/>
		<stop  offset="1" style="stop-color:#178FCF"/>
	</linearGradient>
	<polygon class="st3" points="995,474.7 973.1,534.4 968,662.5 987.4,662.5 1011,548.1 1033.9,487.8 	"/>
	<polygon class="st4" points="1093.7,651.9 1115.8,651.9 1119.3,656.3 1119.3,662.2 1067.8,662.2 	"/>
	<polygon class="st4" points="968.1,652.1 990.2,652.1 993.7,656.5 993.7,662.3 942.2,662.3 	"/>
</g>
<linearGradient id="SVGID_4_" gradientUnits="userSpaceOnUse" x1="490.1567" y1="537.3209" x2="579.0907" y2="537.3209">
	<stop  offset="0" style="stop-color:#7858A5"/>
	<stop  offset="1" style="stop-color:#C065A7"/>
</linearGradient>
<path class="st5" d="M490.2,618.1V482.7c0-14.4,10.5-26.2,23.5-26.2h41.9c13,0,23.5,11.7,23.5,26.2v98.7l-11.2,12
	c-14.7,15.8-34.3,24.6-54.7,24.6H490.2L490.2,618.1z"/>
<g>
	<g class="st6">
		<g>
			<linearGradient id="SVGID_5_" gradientUnits="userSpaceOnUse" x1="651.2997" y1="304.0692" x2="907.9828" y2="413.5747">
				<stop  offset="0" style="stop-color:#FFD111"/>
				<stop  offset="1" style="stop-color:#F26322"/>
			</linearGradient>
			<polyline class="st7" points="905.5,409.8 905.5,412.8 902.5,412.8 			"/>
			<linearGradient id="SVGID_6_" gradientUnits="userSpaceOnUse" x1="632.0292" y1="349.2396" x2="888.7123" y2="458.7451">
				<stop  offset="0" style="stop-color:#FFD111"/>
				<stop  offset="1" style="stop-color:#F26322"/>
			</linearGradient>
			<line class="st8" x1="896.3" y1="412.8" x2="665.7" y2="412.8"/>
			<linearGradient id="SVGID_7_" gradientUnits="userSpaceOnUse" x1="613.5162" y1="392.6345" x2="870.1993" y2="502.1399">
				<stop  offset="0" style="stop-color:#FFD111"/>
				<stop  offset="1" style="stop-color:#F26322"/>
			</linearGradient>
			<polyline class="st9" points="662.6,412.8 659.6,412.8 659.6,409.8 			"/>
			<linearGradient id="SVGID_8_" gradientUnits="userSpaceOnUse" x1="635.8007" y1="340.3991" x2="892.4838" y2="449.9046">
				<stop  offset="0" style="stop-color:#FFD111"/>
				<stop  offset="1" style="stop-color:#F26322"/>
			</linearGradient>
			<line class="st10" x1="659.6" y1="403.7" x2="659.6" y2="297.4"/>
			<linearGradient id="SVGID_9_" gradientUnits="userSpaceOnUse" x1="657.0657" y1="290.5535" x2="913.7488" y2="400.059">
				<stop  offset="0" style="stop-color:#FFD111"/>
				<stop  offset="1" style="stop-color:#F26322"/>
			</linearGradient>
			<polyline class="st11" points="659.6,294.3 659.6,291.3 662.6,291.3 			"/>
			<linearGradient id="SVGID_10_" gradientUnits="userSpaceOnUse" x1="676.3362" y1="245.3831" x2="933.0193" y2="354.8886">
				<stop  offset="0" style="stop-color:#FFD111"/>
				<stop  offset="1" style="stop-color:#F26322"/>
			</linearGradient>
			<line class="st12" x1="668.7" y1="291.3" x2="899.4" y2="291.3"/>
			<linearGradient id="SVGID_11_" gradientUnits="userSpaceOnUse" x1="694.8492" y1="201.9883" x2="951.5323" y2="311.4937">
				<stop  offset="0" style="stop-color:#FFD111"/>
				<stop  offset="1" style="stop-color:#F26322"/>
			</linearGradient>
			<polyline class="st13" points="902.5,291.3 905.5,291.3 905.5,294.3 			"/>
			<linearGradient id="SVGID_12_" gradientUnits="userSpaceOnUse" x1="672.5646" y1="254.2236" x2="929.2477" y2="363.7291">
				<stop  offset="0" style="stop-color:#FFD111"/>
				<stop  offset="1" style="stop-color:#F26322"/>
			</linearGradient>
			<line class="st14" x1="905.5" y1="300.4" x2="905.5" y2="406.7"/>
		</g>
	</g>
	
		<linearGradient id="SVGID_13_" gradientUnits="userSpaceOnUse" x1="562.1242" y1="362.4227" x2="878.605" y2="461.3665" gradientTransform="matrix(0.996 -2.411964e-02 -2.411964e-02 0.853 8.654 52.7475)">
		<stop  offset="0" style="stop-color:#FFD111"/>
		<stop  offset="1" style="stop-color:#F26322"/>
	</linearGradient>
	<polygon class="st15" points="901.2,438.3 669.3,476.3 650.9,364.5 882.9,326.5 	"/>
	<g>
		
			<rect x="728.7" y="358.5" transform="matrix(0.9868 -0.1619 0.1619 0.9868 -48.665 134.1833)" class="st16" width="140.7" height="14.4"/>
		
			<rect x="677.2" y="425.7" transform="matrix(0.9868 -0.1619 0.1619 0.9868 -59.8204 131.7601)" class="st16" width="202.8" height="14.4"/>
		
			<rect x="734.1" y="393.5" transform="matrix(0.9868 -0.1619 0.1619 0.9868 -54.5821 131.6079)" class="st16" width="92.3" height="14.4"/>
		
			<rect x="670.6" y="376.8" transform="matrix(0.9868 -0.1619 0.1619 0.9868 -55.5169 117.5103)" class="st16" width="45.3" height="45.2"/>
	</g>
</g>
<g>
	<g>
		<path class="st4" d="M1333.8,736.8c-1,0.2-13.7-58.7-28.5-131.5c-14.8-72.9-25.9-132.1-25-132.2c1-0.2,13.7,58.7,28.5,131.5
			C1323.6,677.4,1334.8,736.6,1333.8,736.8z"/>
	</g>
	<g>
		<path class="st4" d="M1377.4,736.8c-1,0.2-13.7-58.7-28.5-131.5c-14.8-72.9-25.9-132.1-25-132.2s13.7,58.7,28.5,131.5
			C1367.1,677.4,1378.3,736.6,1377.4,736.8z"/>
	</g>
	<rect x="1202.7" y="448.3" class="st4" width="131.1" height="24.8"/>
	<g>
		<g>
			<path class="st4" d="M1261.7,460.7c1,0.2-8.9,62.1-22.1,138.3c-13.2,76.3-24.7,137.9-25.6,137.7c-1-0.2,8.9-62.1,22.1-138.4
				C1249.2,522.2,1260.7,460.6,1261.7,460.7z"/>
		</g>
		<g>
			<path class="st4" d="M1226.6,460.7c1,0.2-8.9,62.1-22.1,138.3c-13.2,76.3-24.7,137.9-25.6,137.7c-1-0.2,8.9-62.1,22.1-138.4
				C1214.1,522.2,1225.6,460.6,1226.6,460.7z"/>
		</g>
	</g>
	<polygon class="st4" points="1302.7,583.2 1346.2,583.2 1348.3,593.3 1304.7,593.3 	"/>
	<g>
		<path class="st4" d="M1219.5,709.3c0.1,1-7.8,2.9-17.6,4.4c-9.9,1.4-18,1.8-18.2,0.8c-0.1-1,7.8-2.9,17.7-4.4
			C1211.2,708.7,1219.3,708.3,1219.5,709.3z"/>
	</g>
	<g>
		<path class="st4" d="M1223.2,686.4c0.1,1-7.8,2.9-17.7,4.4c-9.9,1.4-18,1.8-18.2,0.8c-0.1-1,7.8-2.9,17.6-4.4
			C1214.9,685.8,1223.1,685.4,1223.2,686.4z"/>
	</g>
	<g>
		<path class="st4" d="M1227.1,659.7c0.1,1-7.8,2.9-17.7,4.4c-9.9,1.4-18,1.8-18.2,0.8c-0.1-1,7.8-2.9,17.7-4.4
			C1218.8,659.1,1227,658.8,1227.1,659.7z"/>
	</g>
	<g>
		<path class="st4" d="M1231.8,633.1c0.1,1-7.8,2.9-17.6,4.4c-9.9,1.4-18,1.8-18.2,0.8c-0.1-1,7.8-2.9,17.7-4.4
			C1223.6,632.5,1231.7,632.1,1231.8,633.1z"/>
	</g>
	<g>
		<path class="st4" d="M1235.1,609.4c0.1,1-7.8,2.9-17.6,4.4c-9.9,1.4-18,1.8-18.2,0.8c-0.1-1,7.8-2.9,17.7-4.4
			C1226.8,608.8,1234.9,608.5,1235.1,609.4z"/>
	</g>
	<g>
		<path class="st4" d="M1241.1,585.6c0.1,1-7.8,2.9-17.6,4.4c-9.9,1.4-18,1.8-18.2,0.8c-0.1-1,7.8-2.9,17.7-4.4
			C1232.8,585,1241,584.6,1241.1,585.6z"/>
	</g>
	<g>
		<path class="st4" d="M1245,559.8c0.1,1-7.8,2.9-17.7,4.4c-9.9,1.4-18,1.8-18.2,0.8c-0.1-1,7.8-2.9,17.7-4.4
			C1236.7,559.2,1244.9,558.8,1245,559.8z"/>
	</g>
	<g>
		<path class="st4" d="M1249.7,531.4c0.1,1-7.8,2.9-17.6,4.4c-9.9,1.4-18,1.8-18.2,0.8c-0.1-1,7.8-2.9,17.7-4.4
			C1241.5,530.8,1249.6,530.4,1249.7,531.4z"/>
	</g>
	<g>
		<path class="st4" d="M1255.7,499.6c0.1,1-7.8,2.9-17.7,4.4c-9.9,1.4-18,1.8-18.2,0.8c-0.1-1,7.8-2.9,17.6-4.4
			S1255.6,498.6,1255.7,499.6z"/>
	</g>
</g>
<g>
	<g>
		<linearGradient id="SVGID_14_" gradientUnits="userSpaceOnUse" x1="1528.8555" y1="427.9051" x2="1528.8555" y2="780.6962">
			<stop  offset="0" style="stop-color:#FCD032"/>
			<stop  offset="1" style="stop-color:#F36F2E"/>
		</linearGradient>
		<path class="st17" d="M1488.8,664.3L1488.8,664.3c9.8-10.4,5.2-21.8,3.4-25.3c0,0,0,0,0,0c-0.3-0.7-0.6-1.1-0.6-1.1l0.1,0
			c-2.9-5.7-4.5-12.1-4.5-18.8c0-11.5,4.7-22,12.2-29.5c6.9-9.2,1.7-21.4,1.7-21.4h0c-1.1-3.1-1.7-6.4-1.7-9.8
			c0-16.3,13.2-29.5,29.5-29.5c16.3,0,29.5,13.2,29.5,29.5c0,3.4-0.6,6.7-1.7,9.8h0c0,0-5.3,12.2,1.7,21.4
			c7.6,7.6,12.2,18,12.2,29.5c0,6.8-1.7,13.2-4.5,18.8l0,0c0,0-0.1,0.1-0.1,0.2c-0.2,0.5-0.5,0.9-0.7,1.4
			c-1.9,3.8-5.4,14.1,2.7,23.7c0.3,0.3,0.5,0.6,0.8,0.9c0.1,0.1,0.1,0.2,0.2,0.2l0,0c7.1,8.8,11.3,20,11.3,32.1
			c0,28.4-23,51.4-51.4,51.4c-28.4,0-51.4-23-51.4-51.4C1477.5,684.3,1481.7,673.1,1488.8,664.3z"/>
		<path class="st18" d="M1513.7,692l12.6,12.5v-43.8l-15.5-15.3c-0.8-0.8-0.8-2.1,0-2.9c0.8-0.8,2.1-0.8,2.9,0l12.6,12.5v-60.4
			c0-1.1,0.9-2,2-2c1.1,0,2,0.9,2,2V631l12.2-12.2c0.8-0.8,2.1-0.8,2.9,0c0.8,0.8,0.8,2.1,0,2.9l-15.1,15v44l13.5-13.7
			c0.8-0.8,2.1-0.8,2.9,0c0.8,0.8,0.8,2.1,0,2.9l-16.4,16.6v116.6c0,1.1-0.9,2-2,2c-1.1,0-2-0.9-2-2v-92.9l-15.5-15.3
			c-0.8-0.8-0.8-2.1,0-2.9C1511.7,691.2,1512.9,691.2,1513.7,692z"/>
	</g>
	<g>
		<path class="st19" d="M1584.3,805.9h-82.9c-0.4,0-0.7-0.3-0.7-0.7s0.3-0.7,0.7-0.7h82.9c0.4,0,0.7,0.3,0.7,0.7
			S1584.7,805.9,1584.3,805.9z"/>
	</g>
</g>
<linearGradient id="SVGID_15_" gradientUnits="userSpaceOnUse" x1="1448.3694" y1="612.7144" x2="1448.3694" y2="793.0073">
	<stop  offset="0" style="stop-color:#FCD032"/>
	<stop  offset="1" style="stop-color:#F36F2E"/>
</linearGradient>
<path class="st20" d="M1427.9,733.5L1427.9,733.5c5-5.3,2.6-11.1,1.7-12.9c0,0,0,0,0,0c-0.2-0.3-0.3-0.5-0.3-0.5l0,0
	c-1.5-2.9-2.3-6.2-2.3-9.6c0-5.9,2.4-11.2,6.2-15.1c3.5-4.7,0.9-10.9,0.9-10.9h0c-0.6-1.6-0.9-3.3-0.9-5c0-8.3,6.8-15.1,15.1-15.1
	c8.3,0,15.1,6.8,15.1,15.1c0,1.8-0.3,3.4-0.9,5h0c0,0-2.7,6.2,0.9,10.9c3.9,3.9,6.2,9.2,6.2,15.1c0,3.5-0.8,6.7-2.3,9.6l0,0
	c0,0,0,0-0.1,0.1c-0.1,0.2-0.2,0.5-0.4,0.7c-0.9,2-2.8,7.2,1.4,12.1c0.1,0.2,0.3,0.3,0.4,0.5c0,0,0.1,0.1,0.1,0.1l0,0
	c3.6,4.5,5.8,10.2,5.8,16.4c0,14.5-11.8,26.3-26.3,26.3c-14.5,0-26.3-11.8-26.3-26.3C1422.1,743.7,1424.3,738,1427.9,733.5z"/>
<path class="st18" d="M1440.6,747.7l6.4,6.4v-22.4l-7.9-7.8c-0.4-0.4-0.4-1.1,0-1.5c0.4-0.4,1.1-0.4,1.5,0l6.4,6.4v-30.9
	c0-0.6,0.5-1,1-1c0.6,0,1,0.5,1,1v18.6l6.3-6.2c0.4-0.4,1.1-0.4,1.5,0c0.4,0.4,0.4,1.1,0,1.5l-7.7,7.7v22.5l6.9-7
	c0.4-0.4,1.1-0.4,1.5,0c0.4,0.4,0.4,1.1,0,1.5l-8.4,8.5v59.6c0,0.6-0.5,1-1,1c-0.6,0-1-0.5-1-1V757l-7.9-7.8c-0.4-0.4-0.4-1.1,0-1.5
	C1439.6,747.3,1440.2,747.3,1440.6,747.7z"/>
<g>
	<path class="st19" d="M1476.7,805.9h-42.4c-0.2,0-0.4-0.2-0.4-0.4s0.2-0.4,0.4-0.4h42.4c0.2,0,0.4,0.2,0.4,0.4
		S1476.9,805.9,1476.7,805.9z"/>
</g>
<g>
	<g>
		<g>
			
				<linearGradient id="SVGID_16_" gradientUnits="userSpaceOnUse" x1="-5618.5508" y1="250.558" x2="-5618.5508" y2="743.6151" gradientTransform="matrix(1 0 0 1 5879.2998 0)">
				<stop  offset="0" style="stop-color:#FCD032"/>
				<stop  offset="1" style="stop-color:#F36F2E"/>
			</linearGradient>
			<path class="st21" d="M204.7,580.9l-0.1,0c13.9-14.5,7.3-30.5,4.8-35.3c0,0,0,0,0,0c-0.5-0.9-0.8-1.5-0.8-1.5l0.1,0
				c-4-7.9-6.3-16.8-6.3-26.3c0-16.1,6.5-30.7,17.1-41.3c9.7-12.8,2.4-29.9,2.4-29.9h0c-1.5-4.3-2.4-8.9-2.4-13.7
				c0-22.8,18.5-41.3,41.3-41.3c22.8,0,41.3,18.5,41.3,41.3c0,4.8-0.9,9.4-2.4,13.7h0c0,0-7.3,17.1,2.4,29.9
				c10.6,10.6,17.1,25.1,17.1,41.3c0,9.5-2.3,18.4-6.3,26.3l0,0c0,0-0.1,0.1-0.2,0.3c-0.3,0.6-0.7,1.3-1,1.9
				c-2.6,5.4-7.6,19.7,3.8,33.1c0.4,0.4,0.7,0.8,1.1,1.2c0.1,0.1,0.2,0.2,0.3,0.3l0,0c9.9,12.3,15.8,27.9,15.8,44.9
				c0,39.7-32.2,71.8-71.8,71.8c-39.7,0-71.8-32.2-71.8-71.8C188.9,608.8,194.9,593.2,204.7,580.9z"/>
			<path class="st18" d="M239.6,619.7l17.6,17.4v-61.2l-21.6-21.4c-1.1-1.1-1.1-2.9,0-4c1.1-1.1,2.9-1.1,4,0l17.6,17.4v-84.4
				c0-1.6,1.3-2.9,2.9-2.9c1.6,0,2.9,1.3,2.9,2.9v50.8l17.1-17c1.1-1.1,2.9-1.1,4,0c1.1,1.1,1.1,2.9,0,4l-21.1,21v61.4l18.9-19.1
				c1.1-1.1,2.9-1.1,4,0c1.1,1.1,1.1,2.9,0,4l-23,23.2v163c0,1.6-1.3,2.9-2.9,2.9c-1.6,0-2.9-1.3-2.9-2.9V645.1l-21.6-21.4
				c-1.1-1.1-1.1-2.9,0-4C236.7,618.6,238.5,618.6,239.6,619.7z"/>
		</g>
		<g>
			<path class="st19" d="M338.3,778.8H222.4c-0.6,0-1-0.5-1-1c0-0.6,0.5-1,1-1h115.9c0.6,0,1,0.5,1,1
				C339.3,778.4,338.8,778.8,338.3,778.8z"/>
		</g>
	</g>
	<g>
		<g>
			
				<linearGradient id="SVGID_17_" gradientUnits="userSpaceOnUse" x1="-5688.4209" y1="183.0131" x2="-5541.2617" y2="720.9492" gradientTransform="matrix(1 0 0 1 5879.2998 0)">
				<stop  offset="0" style="stop-color:#F36F2E"/>
				<stop  offset="1" style="stop-color:#FCD032"/>
			</linearGradient>
			<path class="st22" d="M287.6,650.1L287.6,650.1c7.9-8.3,4.1-17.4,2.7-20.2c0,0,0,0,0,0c-0.3-0.5-0.5-0.9-0.5-0.9l0.1,0
				c-2.3-4.5-3.6-9.6-3.6-15c0-9.2,3.7-17.6,9.8-23.6c5.5-7.3,1.3-17.1,1.3-17.1h0c-0.9-2.5-1.4-5.1-1.4-7.8
				c0-13,10.6-23.6,23.6-23.6c13,0,23.6,10.6,23.6,23.6c0,2.8-0.5,5.4-1.4,7.8h0c0,0-4.2,9.8,1.3,17.1c6,6,9.8,14.4,9.8,23.6
				c0,5.4-1.3,10.5-3.6,15l0,0c0,0,0,0.1-0.1,0.2c-0.2,0.4-0.4,0.7-0.6,1.1c-1.5,3.1-4.3,11.2,2.2,18.9c0.2,0.2,0.4,0.5,0.6,0.7
				c0.1,0.1,0.1,0.1,0.2,0.2l0,0c5.6,7,9,15.9,9,25.7c0,22.7-18.4,41.1-41.1,41.1c-22.7,0-41.1-18.4-41.1-41.1
				C278.6,666,282,657.1,287.6,650.1z"/>
			<path class="st23" d="M307.6,672.2l10.1,10v-35L305.3,635c-0.6-0.6-0.6-1.7,0-2.3c0.6-0.6,1.7-0.6,2.3,0l10.1,9.9v-48.2
				c0-0.9,0.7-1.6,1.6-1.6c0.9,0,1.6,0.7,1.6,1.6v29.1l9.8-9.7c0.6-0.6,1.7-0.6,2.3,0c0.6,0.6,0.6,1.7,0,2.3l-12.1,12v35.1
				l10.8-10.9c0.6-0.6,1.7-0.6,2.3,0c0.6,0.6,0.6,1.7,0,2.3l-13.1,13.3V761c0,0.9-0.7,1.6-1.6,1.6c-0.9,0-1.6-0.7-1.6-1.6v-74.2
				l-12.4-12.2c-0.6-0.6-0.6-1.7,0-2.3C305.9,671.6,306.9,671.6,307.6,672.2z"/>
		</g>
		<g>
			<path class="st19" d="M364,763.2h-66.2c-0.3,0-0.6-0.3-0.6-0.6s0.3-0.6,0.6-0.6H364c0.3,0,0.6,0.3,0.6,0.6S364.3,763.2,364,763.2
				z"/>
		</g>
	</g>
</g>
<path class="st24" d="M1414.1,695"/>
<g>
	<path class="st25" d="M855.9,288.2L855.9,288.2c-1.8-10.8-10.2-19.2-21-21l0,0c10.8-1.8,19.2-10.2,21-21l0,0
		c1.8,10.8,10.2,19.2,21,21l0,0C866.1,269,857.7,277.4,855.9,288.2z"/>
	<path class="st25" d="M620,393.1L620,393.1c-1.8-10.8-10.2-19.2-21-21l0,0c10.8-1.8,19.2-10.2,21-21l0,0c1.8,10.8,10.2,19.2,21,21
		l0,0C630.2,373.9,621.8,382.3,620,393.1z"/>
</g>
<path class="st26" d="M540.3,456.6"/>
<path class="st26" d="M1033.3,328"/>
<linearGradient id="SVGID_18_" gradientUnits="userSpaceOnUse" x1="970.3245" y1="403.276" x2="1080.7064" y2="403.276">
	<stop  offset="0" style="stop-color:#AFD136"/>
	<stop  offset="1" style="stop-color:#498AC9"/>
</linearGradient>
<path class="st27" d="M1041.9,484.3l38.8-12l-0.5-3l-25-129.2c-2.7-14.2-15-23.2-27.3-20l-39.8,10.2c-12.3,3.2-20.1,17.3-17.3,31.5
	l22.5,116.3l1.6,0.9C1009.5,487.3,1026.2,489.2,1041.9,484.3z"/>
<polygon class="st4" points="651.3,727.6 628.4,727.6 624.7,732.5 624.7,739.2 678.1,739.2 "/>
<polygon class="st4" points="490,787.5 467.1,787.5 463.5,792.4 463.5,799.1 516.8,799.1 "/>
<linearGradient id="SVGID_19_" gradientUnits="userSpaceOnUse" x1="525.9958" y1="740.3514" x2="1171.3018" y2="740.3514">
	<stop  offset="0" style="stop-color:#F26322"/>
	<stop  offset="1" style="stop-color:#FFD111"/>
</linearGradient>
<path class="st28" d="M848.6,674.7v60.4c0,4.4-5.8,8-12.9,8H538.9c-7.1,0-12.9,3.6-12.9,8V806c0,4.4,5.8,8,12.9,8h309.8h309.8
	c7.1,0,12.9-3.6,12.9-8v-66.2v-65.1c0-4.4-5.8-8-12.9-8H861.5C854.4,666.6,848.6,670.2,848.6,674.7z"/>
<g>
	<g>
		<path class="st29" d="M610.7,528.8c-2.4,0.3-4.9,0.3-7.3-0.2L535,514.4c-8.5-1.8-12.8-8.4-9.7-14.8c3.1-6.4,12.5-10.2,21-8.4
			L608,504l56-24.7c8-3.5,17.9-1.9,22,3.7c4.1,5.6,1,13-7,16.6l-62.4,27.6C614.7,528,612.7,528.6,610.7,528.8z"/>
		<circle class="st29" cx="682.4" cy="483.1" r="16.3"/>
	</g>
	
		<linearGradient id="SVGID_20_" gradientUnits="userSpaceOnUse" x1="904.4694" y1="561.6671" x2="968.3281" y2="561.6671" gradientTransform="matrix(0.9908 -0.135 0.135 0.9908 -454.1933 75.2214)">
		<stop  offset="0" style="stop-color:#BAE4ED"/>
		<stop  offset="1" style="stop-color:#00B2A9"/>
	</linearGradient>
	<path class="st30" d="M580.4,495.9l-41.1-13.5c-9.1-3-18.9,2-21.9,11.1c-3,9.1,2,18.9,11.1,21.9l40.4,13.3L580.4,495.9z"/>
</g>
<g>
	<path class="st31" d="M936.6,457.9c-4.7-0.8-8.8-4.3-10-9.2c-1.6-6.6,2.5-13.2,9.2-14.8l46.4-11l24.1-43.1
		c3.3-5.9,10.8-8.1,16.8-4.8c6,3.3,8.2,10.7,4.9,16.6l-26.7,47.8c-1.7,3-4.6,5.2-8,6l-51.8,12.3
		C939.9,458.1,938.2,458.2,936.6,457.9z"/>
	<circle class="st31" cx="927.4" cy="448" r="16.3"/>
</g>
<linearGradient id="SVGID_21_" gradientUnits="userSpaceOnUse" x1="987.5884" y1="384.1468" x2="1040.8491" y2="384.1468">
	<stop  offset="0" style="stop-color:#FCEF42"/>
	<stop  offset="5.887460e-02" style="stop-color:#FCDE31"/>
	<stop  offset="0.1299" style="stop-color:#FCD121"/>
	<stop  offset="0.203" style="stop-color:#FDC917"/>
	<stop  offset="0.2809" style="stop-color:#FDC714"/>
	<stop  offset="0.6685" style="stop-color:#F29040"/>
	<stop  offset="0.8876" style="stop-color:#ED693C"/>
	<stop  offset="1" style="stop-color:#E74039"/>
</linearGradient>
<path class="st32" d="M1018,415.8l20.7-37.5c4.6-8.4,1.6-19-6.8-23.6c-8.4-4.6-19-1.6-23.6,6.8L987.6,399L1018,415.8z"/>
<path class="st33" d="M973.7,332.8c0,0,13.1,10.2,22.2,10.6c9.1,0.4,28.7-15,29.6-23.8C1026.3,310.7,973.7,332.8,973.7,332.8z"/>
<g>
	<g>
		<g>
			<path class="st31" d="M951.1,257.8c5.4,12.8,10.8,25.6,14.8,39.2c3.8,14.8,2.8,31.2,17,38c36,18.7,59.4-45.5,43.5-73.5"/>
		</g>
		<g>
			<path class="st34" d="M1020.8,234.7c-2.3-11.2-5.8-23.2-20.6-25.9c-39.1-7.1-44.6,19.8-52.8,24.4c-4.2,1.4-21.1-11-13.1,12.2
				c14.1,40.9,57.5,45.4,78.3,17.5c5.5,8.2,1.1,21,5.4,27c6.5,8.5,17.4,3,21.3-3.6C1048.6,270.4,1038.7,223.6,1020.8,234.7z"/>
		</g>
	</g>
	<g>
		<g>
			<path class="st34" d="M1026.6,233.1c2.9,1.7,4.9,3,7.1,7.3c5.1,9.7,6.8,27.7-3,31c-3.1,1.1-6.9-1.1-8.8-4.3
				c-1.9-3.2-6.8-20.1-8.7-18.6c-5.9,4.7-22.4,31.3-59.9,23.7c18.9,13.8,44.7,10.3,59.4-9.3c5.5,8.2,1.1,21,5.4,27
				c6.5,8.5,17.4,3,21.3-3.6C1047.6,272.2,1040.7,234,1026.6,233.1z"/>
		</g>
	</g>
</g>
<path class="st33" d="M493.7,457.4c0,0,34.4,18.6,56,4.8c21.7-13.8-2.7-10.9-2.7-10.9L493.7,457.4z"/>
<g>
	<path class="st29" d="M542.9,373l20.8,33.3c4.6,7.4,1,17.4-8.2,22.4l-5.4,2.9l5.9,26.2l-26.3,7.1c-9.3,2.5-18.2-1.9-20-9.7
		l-13.4-59.7L542.9,373z"/>
	<path class="st34" d="M531.2,439c4.2-4.3,10.1-11.9,8.3-19.1c0,0-18.5,4.5-16-7.6c1.5-7.5,13.3-5,13.3-5s-7.2-12.3-5.6-17.3
		c0,0,31.6-8.5,22.9-22.9c0,0-10.3-4.4-30.4,0c-20.1,4.4-24.7,35.7-24.7,35.7l25.8,36.1C526.2,440.9,529.4,440.9,531.2,439z"/>
	<path class="st34" d="M550,381.2c2.6-3.2,5-5.9,5.7-9.6c0.7-3.7-3.1-11.9-7.1-12.8c-4.6-1.1-9.4,2.3-14,4.1
		c-7,2.8-14.6,2.3-21.9,3.6c-7.3,1.3-15.6,5.6-16.5,12c-0.2,1.3-0.2,2.9-1.6,3.7c-0.6,0.3-1.3,0.4-1.9,0.5c-5.7,1.1-8.3,7.6-7,12.3
		c1.4,4.6,5.3,8.2,7.6,12.4c5.1,9.3,2.6,22,10,30c5.8,6.3,20.2,9.3,28,1.6l-21-39.7L550,381.2z"/>
</g>
</svg>
